<svg width="14" height="13" viewBox="0 0 14 13" fill="none" xmlns="http://www.w3.org/2000/svg">
<path d="M12.375 4.53125L8.95312 4.03906L7.40625 0.921875C7.14844 0.382812 6.35156 0.359375 6.07031 0.921875L4.54688 4.03906L1.10156 4.53125C0.492188 4.625 0.257812 5.375 0.703125 5.82031L3.16406 8.23438L2.57812 11.6328C2.48438 12.2422 3.14062 12.7109 3.67969 12.4297L6.75 10.8125L9.79688 12.4297C10.3359 12.7109 10.9922 12.2422 10.8984 11.6328L10.3125 8.23438L12.7734 5.82031C13.2188 5.375 12.9844 4.625 12.375 4.53125ZM9.09375 7.83594L9.65625 11.0703L6.75 9.54688L3.82031 11.0703L4.38281 7.83594L2.01562 5.53906L5.27344 5.07031L6.75 2.11719L8.20312 5.07031L11.4609 5.53906L9.09375 7.83594Z" fill="#1A61F1"/>
</svg>
