<svg width="12" height="11" viewBox="0 0 12 11" fill="none" xmlns="http://www.w3.org/2000/svg">
<path d="M3.60938 1.375C3.67969 1.375 3.75 1.32812 3.75 1.23438V0.390625C3.75 0.320312 3.67969 0.25 3.60938 0.25H0.890625C0.796875 0.25 0.75 0.320312 0.75 0.390625V1.23438C0.75 1.32812 0.796875 1.375 0.890625 1.375H3.60938ZM12 1.375C12 0.765625 11.4844 0.25 10.875 0.25H6C5.625 0.25 5.29688 0.4375 5.08594 0.71875L4.3125 1.75H1.125C0.492188 1.75 0 2.26562 0 2.875V9.625C0 10.2578 0.492188 10.75 1.125 10.75H10.875C11.4844 10.75 12 10.2578 12 9.625V1.375ZM10.875 2.875V9.625H1.125V2.875H10.875ZM10.875 1.375V1.75H5.71875L6 1.375H10.875ZM8.8125 6.25C8.8125 4.70312 7.54688 3.4375 6 3.4375C4.42969 3.4375 3.1875 4.70312 3.1875 6.25C3.1875 7.82031 4.42969 9.0625 6 9.0625C7.54688 9.0625 8.8125 7.82031 8.8125 6.25ZM7.6875 6.25C7.6875 7.1875 6.91406 7.9375 6 7.9375C5.0625 7.9375 4.3125 7.1875 4.3125 6.25C4.3125 5.33594 5.0625 4.5625 6 4.5625C6.91406 4.5625 7.6875 5.33594 7.6875 6.25ZM5.4375 6.25C5.4375 5.94531 5.67188 5.6875 6 5.6875C6.1875 5.6875 6.375 5.52344 6.375 5.3125C6.375 5.125 6.1875 4.9375 6 4.9375C5.27344 4.9375 4.6875 5.54688 4.6875 6.25C4.6875 6.46094 4.85156 6.625 5.0625 6.625C5.25 6.625 5.4375 6.46094 5.4375 6.25Z" fill="#E223A0"/>
</svg>
