<?xml version="1.0" encoding="utf-8"?>
<!-- Generator: Adobe Illustrator 21.0.0, SVG Export Plug-In . SVG Version: 6.00 Build 0)  -->
<svg version="1.1" id="Layer_1" xmlns="http://www.w3.org/2000/svg" xmlns:xlink="http://www.w3.org/1999/xlink" x="0px" y="0px"
	 viewBox="0 0 116.496 90.407" style="enable-background:new 0 0 116.496 90.407;" xml:space="preserve">
<style type="text/css">
	.st0{fill:none;}
	.st1{fill:#7673C0;}
	.st2{fill:#EB001B;}
	.st3{fill:#00A1DF;}
</style>
<title>ms_vrt_rgb_pos</title>
<rect x="-15.142" y="-15.127" class="st0" width="146.78" height="120.64"/>
<path d="M35.248,90.113v-6c0.136-1.956-1.339-3.652-3.295-3.788c-0.151-0.011-0.303-0.011-0.455-0.002
	c-1.346-0.088-2.634,0.563-3.36,1.7c-0.662-1.103-1.875-1.755-3.16-1.7c-1.119-0.057-2.184,0.484-2.8,1.42v-1.18h-2.08v9.55h2.1
	v-5.29c-0.173-1.219,0.675-2.348,1.894-2.522c0.148-0.021,0.297-0.027,0.446-0.018c1.38,0,2.08,0.9,2.08,2.52v5.31h2.1v-5.29
	c-0.162-1.232,0.706-2.362,1.938-2.524c0.133-0.017,0.268-0.023,0.402-0.016c1.42,0,2.1,0.9,2.1,2.52v5.31L35.248,90.113z
	 M46.948,85.343v-4.77h-2.1v1.16c-0.716-0.923-1.833-1.445-3-1.4c-2.761,0-5,2.239-5,5s2.239,5,5,5c1.167,0.045,2.284-0.477,3-1.4
	v1.16h2.08L46.948,85.343z M39.218,85.343c0.094-1.593,1.462-2.809,3.055-2.715c1.593,0.094,2.809,1.462,2.715,3.055
	c-0.09,1.522-1.346,2.712-2.87,2.72c-1.579,0.037-2.889-1.213-2.926-2.792c-0.002-0.089,0-0.179,0.006-0.268L39.218,85.343z
	 M91.388,80.343c0.685-0.002,1.364,0.127,2,0.38c0.607,0.243,1.161,0.603,1.63,1.06c0.463,0.452,0.83,0.993,1.08,1.59
	c0.522,1.282,0.522,2.718,0,4c-0.25,0.597-0.617,1.138-1.08,1.59c-0.469,0.457-1.023,0.817-1.63,1.06
	c-1.319,0.512-2.781,0.512-4.1,0c-0.605-0.243-1.155-0.603-1.62-1.06c-0.458-0.454-0.822-0.994-1.07-1.59
	c-0.521-1.282-0.521-2.718,0-4c0.248-0.596,0.612-1.136,1.07-1.59c0.465-0.457,1.015-0.817,1.62-1.06
	c0.659-0.273,1.366-0.413,2.08-0.41L91.388,80.343z M91.388,82.343c-0.407-0.006-0.812,0.069-1.19,0.22
	c-0.356,0.143-0.68,0.357-0.95,0.63c-0.276,0.287-0.49,0.627-0.63,1c-0.306,0.798-0.306,1.682,0,2.48c0.14,0.373,0.354,0.713,0.63,1
	c0.27,0.273,0.594,0.487,0.95,0.63c0.762,0.298,1.608,0.298,2.37,0c0.374-0.138,0.714-0.353,1-0.63c0.276-0.287,0.491-0.627,0.63-1
	c0.306-0.798,0.306-1.682,0-2.48c-0.139-0.373-0.354-0.713-0.63-1c-0.286-0.277-0.626-0.492-1-0.63
	c-0.377-0.173-0.785-0.268-1.2-0.28L91.388,82.343z M58.248,85.343c0-3-1.86-5-4.53-5c-2.761,0.039-4.969,2.309-4.93,5.07
	s2.309,4.969,5.07,4.93c1.424,0.049,2.815-0.428,3.91-1.34l-1-1.54c-0.79,0.633-1.768,0.985-2.78,1
	c-1.43,0.123-2.697-0.914-2.86-2.34h7.09C58.248,85.873,58.248,85.623,58.248,85.343z M51.138,84.503
	c0.08-1.319,1.189-2.339,2.51-2.31c1.309-0.028,2.392,1.01,2.42,2.319c0,0,0,0.001,0,0.001L51.138,84.503z M66.998,83.003
	c-0.913-0.526-1.946-0.808-3-0.82c-1.14,0-1.82,0.42-1.82,1.12s0.72,0.82,1.62,0.94l1,0.14c2.08,0.3,3.34,1.18,3.34,2.86
	s-1.6,3.12-4.35,3.12c-1.474,0.039-2.921-0.395-4.13-1.24l1-1.62c0.918,0.681,2.038,1.033,3.18,1c1.42,0,2.18-0.42,2.18-1.16
	c0-0.54-0.54-0.84-1.68-1l-1-0.14c-2.14-0.3-3.3-1.26-3.3-2.82c0-1.9,1.56-3.06,4-3.06c1.366-0.046,2.716,0.301,3.89,1
	L66.998,83.003z M76.998,82.463h-3.39v4.31c0,1,0.34,1.6,1.38,1.6c0.649-0.022,1.282-0.207,1.84-0.54l0.6,1.78
	c-0.78,0.487-1.681,0.743-2.6,0.74c-2.46,0-3.32-1.32-3.32-3.54v-4.35h-1.94v-1.9h1.94v-2.9h2.1v2.9h3.39V82.463z M84.188,80.323
	c0.505,0.002,1.005,0.09,1.48,0.26l-0.64,2c-0.413-0.165-0.855-0.246-1.3-0.24c-1.36,0-2,0.88-2,2.46v5.35h-2.08v-9.55h2.06v1.16
	c0.52-0.893,1.487-1.43,2.52-1.4L84.188,80.323z"/>
<g id="_Group_">
	<rect x="42.496" y="7.701" class="st1" width="31.5" height="56.61"/>
	<path id="_Path_" class="st2" d="M44.496,36.011c-0.012-11.048,5.059-21.488,13.75-28.31c-15.632-12.285-38.264-9.572-50.55,6.06
		c-12.285,15.632-9.572,38.264,6.06,50.55c13.055,10.26,31.434,10.26,44.489,0C49.558,57.491,44.488,47.056,44.496,36.011z"/>
	<path class="st3" d="M116.486,36.011c-0.005,19.882-16.126,35.996-36.009,35.991c-8.063-0.002-15.891-2.71-22.231-7.691
		c15.632-12.285,18.346-34.917,6.06-50.55c-1.772-2.254-3.806-4.289-6.06-6.06c15.63-12.288,38.263-9.579,50.551,6.051
		c4.988,6.344,7.699,14.179,7.699,22.249L116.486,36.011z"/>
</g>
</svg>
