<?xml version="1.0" encoding="utf-8"?>
<!-- Generator: Adobe Illustrator 21.0.0, SVG Export Plug-In . SVG Version: 6.00 Build 0)  -->
<svg version="1.1" id="Слой_1" xmlns="http://www.w3.org/2000/svg" xmlns:xlink="http://www.w3.org/1999/xlink" x="0px" y="0px"
	 viewBox="0 0 146.59 45.593" style="enable-background:new 0 0 146.59 45.593;" xml:space="preserve">
<style type="text/css">
	.st0{fill:none;}
	.st1{fill:#F79E1B;}
	.st2{fill:#EB001B;}
</style>
<title>Asset 1</title>
<g id="Layer_2">
	<g id="Layer_1-2">
		<rect x="-20.41" y="-20.4" class="st0" width="186.32" height="86.37"/>
		<path class="st1" d="M12.94,31.02c-0.765-0.486-1.588-0.872-2.45-1.15c-0.863-0.275-1.764-0.413-2.67-0.41
			c-0.562-0.005-1.123,0.059-1.67,0.19c-0.462,0.108-0.901,0.294-1.3,0.55c-0.341,0.22-0.628,0.514-0.84,0.86
			c-0.202,0.342-0.306,0.733-0.3,1.13c-0.015,0.352,0.076,0.7,0.26,1c0.191,0.284,0.449,0.517,0.75,0.68
			c0.375,0.205,0.775,0.36,1.19,0.46c0.524,0.132,1.055,0.235,1.59,0.31l1.26,0.17c0.732,0.102,1.454,0.263,2.16,0.48
			c0.671,0.201,1.306,0.509,1.88,0.91c0.547,0.385,1.001,0.887,1.33,1.47c0.35,0.661,0.523,1.402,0.5,2.15
			c0.017,0.857-0.186,1.704-0.59,2.46c-0.389,0.711-0.932,1.326-1.59,1.8c-0.705,0.505-1.494,0.881-2.33,1.11
			c-0.914,0.257-1.86,0.385-2.81,0.38c-0.643-0.003-1.285-0.057-1.92-0.16c-0.677-0.102-1.346-0.256-2-0.46
			c-0.62-0.207-1.222-0.464-1.8-0.77C1.019,43.888,0.485,43.529,0,43.11l1.59-2.35c0.344,0.31,0.723,0.579,1.13,0.8
			c0.936,0.513,1.949,0.871,3,1.06c0.531,0.099,1.07,0.149,1.61,0.15c0.558,0.007,1.115-0.05,1.66-0.17
			c0.475-0.104,0.931-0.283,1.35-0.53c0.362-0.213,0.673-0.503,0.91-0.85c0.228-0.34,0.347-0.741,0.34-1.15
			c0.014-0.692-0.377-1.329-1-1.63c-0.984-0.458-2.039-0.742-3.12-0.84l-1.42-0.2c-0.68-0.094-1.349-0.252-2-0.47
			c-0.625-0.206-1.21-0.517-1.73-0.92c-0.514-0.4-0.934-0.909-1.23-1.49c-0.338-0.669-0.509-1.41-0.5-2.16
			c-0.015-0.845,0.181-1.68,0.57-2.43c0.375-0.706,0.905-1.318,1.55-1.79c0.691-0.501,1.467-0.874,2.29-1.1
			c0.911-0.259,1.853-0.387,2.8-0.38c1.224-0.016,2.442,0.163,3.61,0.53c1.06,0.344,2.069,0.828,3,1.44L12.94,31.02z M22.89,32.42
			c0.821-0.008,1.635,0.156,2.39,0.48c0.71,0.307,1.344,0.764,1.86,1.34c0.533,0.606,0.943,1.309,1.21,2.07
			c0.301,0.858,0.45,1.761,0.44,2.67c0,0.17,0,0.35,0,0.52c0,0.17,0,0.34,0,0.5h-9.28c0.067,0.509,0.23,1.001,0.48,1.45
			c0.216,0.385,0.505,0.725,0.85,1c0.331,0.258,0.707,0.451,1.11,0.57c0.416,0.122,0.847,0.183,1.28,0.18
			c0.642-0.005,1.279-0.123,1.88-0.35c0.628-0.236,1.212-0.574,1.73-1l1.35,1.95c-0.706,0.62-1.534,1.086-2.43,1.37
			c-0.879,0.264-1.792,0.395-2.71,0.39c-0.882,0.009-1.758-0.15-2.58-0.47c-0.751-0.3-1.432-0.753-2-1.33
			c-0.578-0.592-1.027-1.296-1.32-2.07c-0.323-0.863-0.482-1.779-0.47-2.7c-0.01-0.911,0.146-1.815,0.46-2.67
			c0.282-0.772,0.718-1.48,1.28-2.08c0.563-0.584,1.245-1.041,2-1.34c0.784-0.323,1.623-0.489,2.47-0.49V32.42z M22.84,34.85
			c-0.443-0.008-0.884,0.066-1.3,0.22c-0.374,0.137-0.715,0.352-1,0.63c-0.282,0.29-0.509,0.629-0.67,1
			c-0.181,0.394-0.305,0.811-0.37,1.24h6.48c-0.077-0.845-0.429-1.642-1-2.27c-0.571-0.562-1.349-0.862-2.15-0.83L22.84,34.85z
			 M37.33,32.42c0.898-0.008,1.788,0.161,2.62,0.5c0.776,0.33,1.462,0.841,2,1.49l-1.75,1.86c-0.402-0.406-0.869-0.744-1.38-1
			c-0.509-0.228-1.062-0.34-1.62-0.33c-0.501-0.005-0.999,0.094-1.46,0.29c-0.44,0.207-0.832,0.503-1.15,0.87
			c-0.34,0.365-0.605,0.793-0.78,1.26c-0.375,1.051-0.375,2.199,0,3.25c0.173,0.471,0.439,0.902,0.78,1.27
			c0.329,0.351,0.728,0.63,1.17,0.82c0.461,0.196,0.959,0.295,1.46,0.29c0.589,0.001,1.17-0.132,1.7-0.39
			c0.506-0.236,0.971-0.55,1.38-0.93l1.69,1.93c-0.561,0.65-1.267,1.16-2.06,1.49c-0.828,0.34-1.715,0.51-2.61,0.5
			c-0.924,0.013-1.842-0.157-2.7-0.5c-1.576-0.63-2.811-1.898-3.4-3.49c-0.627-1.684-0.627-3.536,0-5.22
			c0.589-1.575,1.812-2.83,3.37-3.46c0.867-0.351,1.795-0.524,2.73-0.51L37.33,32.42z M55.98,39.94c0.023,0.88-0.148,1.754-0.5,2.56
			c-0.299,0.672-0.743,1.269-1.3,1.75c-0.543,0.455-1.172,0.795-1.85,1c-1.395,0.427-2.885,0.427-4.28,0
			c-0.681-0.205-1.314-0.545-1.86-1c-0.56-0.477-1.005-1.076-1.3-1.75c-0.346-0.808-0.513-1.681-0.49-2.56v-7.2h2.74v7
			c-0.014,0.52,0.064,1.037,0.23,1.53c0.138,0.378,0.361,0.72,0.65,1c0.284,0.266,0.626,0.462,1,0.57c0.783,0.235,1.617,0.235,2.4,0
			c0.374-0.108,0.716-0.304,1-0.57c0.289-0.28,0.512-0.622,0.65-1c0.17-0.492,0.251-1.01,0.24-1.53v-7h2.74L55.98,39.94z
			 M65.93,32.42c0.379-0.002,0.757,0.029,1.13,0.09c0.342,0.055,0.677,0.145,1,0.27l-0.65,2.7c-0.316-0.158-0.653-0.273-1-0.34
			c-0.352-0.076-0.71-0.116-1.07-0.12c-0.41-0.005-0.818,0.07-1.2,0.22c-0.359,0.142-0.68,0.365-0.94,0.65
			c-0.273,0.309-0.48,0.669-0.61,1.06c-0.154,0.457-0.228,0.938-0.22,1.42v6.87h-2.78v-12.5h2.7v1.41
			c0.385-0.575,0.921-1.031,1.55-1.32c0.655-0.287,1.365-0.43,2.08-0.42L65.93,32.42z M75.08,32.42
			c0.821-0.008,1.635,0.156,2.39,0.48c0.71,0.307,1.344,0.764,1.86,1.34c0.55,0.602,0.978,1.305,1.26,2.07
			c0.301,0.858,0.45,1.761,0.44,2.67c0,0.17,0,0.35,0,0.52c0,0.17,0,0.34,0,0.5h-9.34c0.067,0.509,0.23,1.001,0.48,1.45
			c0.216,0.385,0.505,0.725,0.85,1c0.331,0.258,0.707,0.451,1.11,0.57c0.416,0.122,0.847,0.183,1.28,0.18
			c0.642-0.005,1.279-0.123,1.88-0.35c0.628-0.236,1.212-0.574,1.73-1l1.36,1.94c-0.706,0.62-1.534,1.087-2.43,1.37
			c-0.879,0.264-1.792,0.395-2.71,0.39c-0.882,0.009-1.758-0.15-2.58-0.47c-0.751-0.3-1.432-0.753-2-1.33
			c-0.578-0.592-1.027-1.296-1.32-2.07c-0.323-0.863-0.482-1.779-0.47-2.7c-0.01-0.911,0.146-1.815,0.46-2.67
			c0.276-0.771,0.705-1.478,1.26-2.08c0.563-0.584,1.245-1.041,2-1.34c0.787-0.321,1.63-0.484,2.48-0.48L75.08,32.42z M75.03,34.85
			c-0.443-0.008-0.884,0.066-1.3,0.22c-0.374,0.137-0.715,0.352-1,0.63c-0.282,0.29-0.509,0.629-0.67,1
			c-0.181,0.394-0.305,0.811-0.37,1.24h6.5c-0.077-0.845-0.429-1.642-1-2.27c-0.576-0.567-1.363-0.868-2.17-0.83L75.03,34.85z
			 M92.74,26.6c0.791-0.003,1.579,0.085,2.35,0.26c0.732,0.166,1.44,0.421,2.11,0.76c0.64,0.324,1.235,0.731,1.77,1.21
			c0.521,0.463,0.97,1.003,1.33,1.6l-2.46,1.64c-0.549-0.809-1.287-1.471-2.15-1.93c-0.924-0.484-1.957-0.725-3-0.7
			c-0.883-0.009-1.759,0.154-2.58,0.48c-0.752,0.313-1.433,0.776-2,1.36c-0.586,0.602-1.046,1.316-1.35,2.1
			c-0.653,1.741-0.653,3.659,0,5.4c0.304,0.784,0.764,1.498,1.35,2.1c0.567,0.584,1.248,1.047,2,1.36
			c0.821,0.326,1.697,0.489,2.58,0.48c2.031,0.045,3.946-0.941,5.09-2.62l2.4,1.76c-0.39,0.572-0.854,1.09-1.38,1.54
			c-0.516,0.467-1.087,0.87-1.7,1.2c-0.655,0.328-1.346,0.577-2.06,0.74c-2.054,0.454-4.196,0.294-6.16-0.46
			c-2.291-0.896-4.104-2.709-5-5c-0.938-2.433-0.938-5.127,0-7.56c0.896-2.291,2.709-4.104,5-5
			C90.108,26.833,91.419,26.588,92.74,26.6z M108.84,32.38c0.917-0.011,1.828,0.159,2.68,0.5c0.793,0.317,1.517,0.785,2.13,1.38
			c0.604,0.592,1.083,1.3,1.41,2.08c0.678,1.674,0.678,3.546,0,5.22c-0.327,0.78-0.806,1.488-1.41,2.08
			c-0.613,0.595-1.337,1.063-2.13,1.38c-1.724,0.67-3.636,0.67-5.36,0c-0.794-0.315-1.518-0.784-2.13-1.38
			c-0.61-0.579-1.099-1.272-1.44-2.04c-0.678-1.674-0.678-3.546,0-5.22c0.324-0.779,0.8-1.486,1.4-2.08
			c0.612-0.596,1.336-1.065,2.13-1.38c0.867-0.351,1.795-0.524,2.73-0.51L108.84,32.38z M108.84,34.95
			c-0.531-0.006-1.057,0.093-1.55,0.29c-0.465,0.186-0.887,0.465-1.24,0.82c-0.354,0.362-0.632,0.79-0.82,1.26
			c-0.4,1.046-0.4,2.204,0,3.25c0.188,0.47,0.466,0.898,0.82,1.26c0.353,0.355,0.775,0.634,1.24,0.82c0.996,0.39,2.104,0.39,3.1,0
			c0.944-0.37,1.696-1.111,2.08-2.05c0.4-1.046,0.4-2.204,0-3.25c-0.189-0.472-0.471-0.9-0.83-1.26
			c-0.357-0.355-0.782-0.634-1.25-0.82c-0.49-0.196-1.013-0.294-1.54-0.29L108.84,34.95z M123.77,32.38
			c1.531-0.059,2.995,0.626,3.93,1.84v-7.8h2.73v18.81h-2.73v-1.5c-0.436,0.557-0.989,1.011-1.62,1.33
			c-0.719,0.349-1.511,0.52-2.31,0.5c-1.668,0.016-3.269-0.653-4.43-1.85c-0.58-0.607-1.032-1.325-1.33-2.11
			c-0.643-1.701-0.643-3.579,0-5.28c0.302-0.774,0.754-1.481,1.33-2.08c1.161-1.197,2.762-1.866,4.43-1.85V32.38z M124.1,34.95
			c-0.544-0.008-1.083,0.101-1.58,0.32c-0.449,0.202-0.851,0.494-1.18,0.86c-0.327,0.371-0.578,0.803-0.74,1.27
			c-0.347,1.004-0.347,2.096,0,3.1c0.162,0.467,0.413,0.899,0.74,1.27c0.329,0.366,0.731,0.658,1.18,0.86
			c0.998,0.416,2.122,0.416,3.12,0c0.45-0.195,0.856-0.481,1.19-0.84c0.326-0.346,0.583-0.749,0.76-1.19
			c0.365-1.029,0.365-2.151,0-3.18c-0.172-0.466-0.433-0.894-0.77-1.26c-0.335-0.359-0.74-0.645-1.19-0.84
			c-0.481-0.219-1.002-0.335-1.53-0.34V34.95z M139.5,32.38c0.821-0.008,1.635,0.156,2.39,0.48c0.71,0.307,1.344,0.764,1.86,1.34
			c0.533,0.606,0.943,1.309,1.21,2.07c0.302,0.857,0.45,1.761,0.44,2.67c0,0.17,0,0.35,0,0.52c0,0.17,0,0.34,0,0.5h-9.23
			c0.065,0.51,0.228,1.002,0.48,1.45c0.216,0.385,0.504,0.725,0.85,1c0.331,0.258,0.707,0.452,1.11,0.57
			c0.416,0.122,0.847,0.183,1.28,0.18c0.642-0.005,1.279-0.123,1.88-0.35c0.628-0.236,1.212-0.574,1.73-1l1.36,1.94
			c-0.707,0.62-1.534,1.086-2.43,1.37c-0.879,0.264-1.792,0.396-2.71,0.39c-0.882,0.009-1.758-0.15-2.58-0.47
			c-0.751-0.3-1.432-0.753-2-1.33c-0.578-0.592-1.027-1.296-1.32-2.07c-0.323-0.863-0.482-1.779-0.47-2.7
			c-0.01-0.911,0.146-1.815,0.46-2.67c0.283-0.772,0.718-1.48,1.28-2.08c0.563-0.584,1.245-1.041,2-1.34
			c0.768-0.298,1.586-0.447,2.41-0.44L139.5,32.38z M139.45,34.81c-0.443-0.008-0.884,0.066-1.3,0.22
			c-0.374,0.137-0.715,0.352-1,0.63c-0.282,0.29-0.509,0.629-0.67,1c-0.18,0.394-0.305,0.811-0.37,1.24h6.48
			c-0.071-0.856-0.423-1.664-1-2.3c-0.58-0.534-1.353-0.808-2.14-0.76V34.81z"/>
		<path class="st2" d="M21.91,19.47h-3.06V3.89L13.32,17.6H10.1L4.59,4.04v15.43H1.51V0.54H6.2l5.51,13.53l5.5-13.53h4.69
			L21.91,19.47z M38.01,19.47h-2.83v-1.55c-0.452,0.578-1.026,1.049-1.68,1.38c-0.745,0.358-1.564,0.533-2.39,0.51
			c-1.732,0.018-3.395-0.676-4.6-1.92c-0.598-0.622-1.067-1.356-1.38-2.16c-0.667-1.766-0.667-3.714,0-5.48
			c0.313-0.804,0.782-1.538,1.38-2.16c1.205-1.244,2.868-1.938,4.6-1.92c0.827-0.022,1.647,0.157,2.39,0.52
			c0.654,0.336,1.227,0.81,1.68,1.39V6.52h2.83V19.47z M31.44,8.84c-0.564-0.01-1.124,0.103-1.64,0.33
			c-0.464,0.209-0.879,0.512-1.22,0.89c-0.339,0.386-0.601,0.835-0.77,1.32c-0.361,1.043-0.361,2.177,0,3.22
			c0.171,0.487,0.436,0.935,0.78,1.32c0.34,0.378,0.756,0.682,1.22,0.89c1.037,0.433,2.203,0.433,3.24,0
			c0.465-0.203,0.884-0.499,1.23-0.87c0.349-0.381,0.62-0.826,0.8-1.31c0.378-1.067,0.378-2.233,0-3.3
			c-0.18-0.484-0.451-0.929-0.8-1.31c-0.346-0.371-0.765-0.667-1.23-0.87C32.541,8.933,31.993,8.828,31.44,8.84z M50.98,9.76
			c-0.237-0.136-0.48-0.26-0.73-0.37c-0.325-0.141-0.659-0.262-1-0.36c-0.368-0.111-0.742-0.201-1.12-0.27
			c-0.396-0.073-0.797-0.11-1.2-0.11c-0.632-0.036-1.261,0.113-1.81,0.43c-0.398,0.232-0.642,0.659-0.64,1.12
			c-0.007,0.203,0.052,0.404,0.17,0.57c0.119,0.159,0.273,0.289,0.45,0.38c0.215,0.109,0.444,0.19,0.68,0.24
			c0.26,0.06,0.54,0.113,0.84,0.16l1.34,0.2c1.191,0.123,2.331,0.55,3.31,1.24c0.822,0.61,1.29,1.587,1.25,2.61
			c0.006,0.594-0.131,1.18-0.4,1.71c-0.281,0.511-0.674,0.952-1.15,1.29c-0.558,0.401-1.185,0.696-1.85,0.87
			c-0.815,0.217-1.656,0.322-2.5,0.31c-0.333,0-0.72-0.02-1.16-0.06c-0.475-0.045-0.947-0.125-1.41-0.24
			c-0.519-0.13-1.027-0.301-1.52-0.51c-0.523-0.223-1.016-0.508-1.47-0.85L42.37,16c0.242,0.187,0.495,0.357,0.76,0.51
			c0.296,0.168,0.608,0.309,0.93,0.42c0.375,0.129,0.759,0.226,1.15,0.29c0.473,0.077,0.951,0.114,1.43,0.11
			c0.758,0.043,1.514-0.105,2.2-0.43c0.45-0.207,0.742-0.654,0.75-1.15c-0.007-0.377-0.212-0.723-0.54-0.91
			c-0.524-0.291-1.103-0.468-1.7-0.52L46,14.14c-1.192-0.097-2.33-0.534-3.28-1.26c-0.745-0.629-1.161-1.565-1.13-2.54
			c-0.008-0.601,0.122-1.197,0.38-1.74c0.248-0.515,0.614-0.965,1.07-1.31c0.505-0.374,1.074-0.652,1.68-0.82
			c0.726-0.203,1.477-0.3,2.23-0.29c0.972-0.006,1.94,0.115,2.88,0.36c0.837,0.208,1.637,0.545,2.37,1L50.98,9.76z M64.4,9.08h-5
			v5.64c-0.001,0.381,0.064,0.76,0.19,1.12c0.092,0.278,0.242,0.534,0.44,0.75c0.18,0.193,0.402,0.34,0.65,0.43
			c0.26,0.094,0.534,0.141,0.81,0.14c0.462-0.004,0.92-0.092,1.35-0.26c0.44-0.164,0.862-0.372,1.26-0.62l1.12,2.26
			c-0.551,0.368-1.141,0.674-1.76,0.91c-0.707,0.262-1.456,0.391-2.21,0.38c-1.26,0.073-2.495-0.371-3.42-1.23
			c-0.909-1.055-1.356-2.432-1.24-3.82V9.09h-2.57V6.52h2.57V2.6h2.84v3.92h5L64.4,9.08z M73.1,6.17
			c0.852-0.011,1.696,0.156,2.48,0.49c0.736,0.318,1.395,0.792,1.93,1.39c0.554,0.629,0.982,1.359,1.26,2.15
			c0.31,0.89,0.463,1.827,0.45,2.77c0,0.18,0,0.36,0,0.54s0,0.35,0,0.51h-9.63c0.07,0.527,0.24,1.036,0.5,1.5
			c0.227,0.386,0.526,0.725,0.88,1c0.343,0.267,0.733,0.467,1.15,0.59c0.432,0.128,0.88,0.192,1.33,0.19
			c0.683,0.002,1.361-0.12,2-0.36c0.647-0.233,1.252-0.571,1.79-1l1.41,2c-0.733,0.642-1.591,1.126-2.52,1.42
			c-0.911,0.276-1.858,0.414-2.81,0.41c-0.93,0.032-1.857-0.117-2.73-0.44c-0.789-0.308-1.504-0.779-2.1-1.38
			c-0.6-0.615-1.066-1.347-1.37-2.15c-0.336-0.895-0.502-1.844-0.49-2.8c-0.012-0.944,0.147-1.883,0.47-2.77
			c0.294-0.802,0.746-1.537,1.33-2.16c0.563-0.598,1.244-1.071,2-1.39c0.847-0.346,1.755-0.517,2.67-0.5L73.1,6.17z M73.05,8.69
			c-0.46-0.008-0.918,0.07-1.35,0.23c-0.375,0.149-0.716,0.373-1,0.66c-0.291,0.289-0.528,0.628-0.7,1
			c-0.198,0.415-0.336,0.856-0.41,1.31h6.72c-0.09-0.881-0.47-1.708-1.08-2.35C74.648,8.973,73.862,8.667,73.05,8.69z M89.05,6.17
			c0.392-0.002,0.783,0.028,1.17,0.09c0.342,0.059,0.677,0.153,1,0.28l-0.68,2.8c-0.316-0.16-0.653-0.278-1-0.35
			c-0.365-0.077-0.737-0.117-1.11-0.12c-0.424-0.004-0.845,0.074-1.24,0.23c-0.382,0.146-0.724,0.379-1,0.68
			c-0.285,0.32-0.503,0.694-0.64,1.1c-0.16,0.473-0.237,0.97-0.23,1.47v7.13h-2.83v-13h2.8v1.46c0.396-0.581,0.942-1.044,1.58-1.34
			c0.678-0.292,1.412-0.435,2.15-0.42L89.05,6.17z M98.72,6.17c0.932-0.01,1.857,0.167,2.72,0.52c0.822,0.337,1.55,0.869,2.12,1.55
			l-1.81,1.93c-0.42-0.408-0.903-0.746-1.43-1c-0.528-0.237-1.101-0.356-1.68-0.35c-0.519-0.005-1.033,0.097-1.51,0.3
			c-0.461,0.195-0.877,0.485-1.22,0.85c-0.35,0.38-0.622,0.825-0.8,1.31c-0.39,1.089-0.39,2.281,0,3.37
			c0.178,0.485,0.45,0.93,0.8,1.31c0.343,0.365,0.759,0.654,1.22,0.85c0.477,0.203,0.991,0.305,1.51,0.3
			c0.601,0.006,1.196-0.124,1.74-0.38c0.526-0.257,1.009-0.594,1.43-1l1.74,1.95c-0.582,0.677-1.315,1.208-2.14,1.55
			c-0.859,0.353-1.781,0.53-2.71,0.52c-0.959,0.013-1.91-0.163-2.8-0.52c-1.628-0.649-2.909-1.951-3.53-3.59
			c-0.65-1.745-0.65-3.665,0-5.41c0.621-1.639,1.902-2.941,3.53-3.59c0.891-0.335,1.839-0.491,2.79-0.46L98.72,6.17z M118.59,19.47
			h-2.83v-1.55c-0.452,0.578-1.026,1.049-1.68,1.38c-0.745,0.358-1.564,0.533-2.39,0.51c-1.732,0.018-3.395-0.676-4.6-1.92
			c-0.598-0.622-1.067-1.356-1.38-2.16c-0.667-1.766-0.667-3.714,0-5.48c0.313-0.804,0.782-1.538,1.38-2.16
			c1.205-1.244,2.868-1.938,4.6-1.92c0.827-0.022,1.647,0.157,2.39,0.52c0.654,0.336,1.227,0.81,1.68,1.39V6.52h2.83V19.47z
			 M112.03,8.84c-0.564-0.01-1.124,0.103-1.64,0.33c-0.464,0.209-0.879,0.512-1.22,0.89c-0.339,0.386-0.601,0.835-0.77,1.32
			c-0.361,1.043-0.361,2.177,0,3.22c0.169,0.485,0.431,0.934,0.77,1.32c0.34,0.378,0.756,0.681,1.22,0.89
			c1.037,0.432,2.203,0.432,3.24,0c0.465-0.203,0.884-0.499,1.23-0.87c0.35-0.38,0.622-0.825,0.8-1.31c0.38-1.067,0.38-2.233,0-3.3
			c-0.178-0.485-0.45-0.93-0.8-1.31c-0.346-0.371-0.765-0.667-1.23-0.87c-0.502-0.213-1.044-0.319-1.59-0.31L112.03,8.84z
			 M129.32,6.18c0.392-0.002,0.783,0.028,1.17,0.09c0.342,0.059,0.677,0.153,1,0.28l-0.68,2.8c-0.316-0.16-0.653-0.278-1-0.35
			c-0.365-0.077-0.737-0.117-1.11-0.12c-0.424-0.004-0.845,0.074-1.24,0.23c-0.382,0.146-0.724,0.379-1,0.68
			c-0.285,0.32-0.503,0.694-0.64,1.1c-0.16,0.473-0.237,0.97-0.23,1.47v7.13h-2.83v-13h2.83v1.46c0.397-0.586,0.947-1.053,1.59-1.35
			c0.679-0.292,1.412-0.435,2.15-0.42L129.32,6.18z M138.6,6.18c0.827-0.022,1.647,0.157,2.39,0.52
			c0.654,0.336,1.227,0.811,1.68,1.39V0h2.83v19.47h-2.83v-1.55c-0.452,0.578-1.026,1.049-1.68,1.38
			c-0.745,0.358-1.564,0.533-2.39,0.51c-1.732,0.018-3.395-0.676-4.6-1.92c-0.609-0.619-1.088-1.354-1.41-2.16
			c-0.667-1.766-0.667-3.714,0-5.48c0.313-0.804,0.782-1.538,1.38-2.16c1.205-1.244,2.868-1.938,4.6-1.92L138.6,6.18z M138.89,8.89
			c-0.564-0.01-1.124,0.103-1.64,0.33c-0.464,0.209-0.879,0.512-1.22,0.89c-0.339,0.386-0.601,0.835-0.77,1.32
			c-0.361,1.043-0.361,2.177,0,3.22c0.169,0.485,0.431,0.934,0.77,1.32c0.34,0.378,0.756,0.681,1.22,0.89
			c1.037,0.432,2.203,0.432,3.24,0c0.465-0.203,0.884-0.499,1.23-0.87c0.384-0.397,0.681-0.871,0.87-1.39
			c0.379-1.067,0.379-2.233,0-3.3c-0.178-0.485-0.45-0.93-0.8-1.31c-0.346-0.371-0.765-0.667-1.23-0.87
			c-0.511-0.206-1.06-0.301-1.61-0.28L138.89,8.89z"/>
	</g>
</g>
</svg>
