<svg width="632" height="709" viewBox="0 0 632 709" fill="none" xmlns="http://www.w3.org/2000/svg">
<path fill-rule="evenodd" clip-rule="evenodd" d="M421.095 708.239C502.708 708.239 592.921 644.959 617.748 554.052C642.575 463.132 597.761 274.452 502.708 216.719C407.655 158.999 320.028 182.745 264.241 226.399C208.468 270.065 208.841 406.945 175.161 440.239C141.481 473.519 90.4015 482.105 57.2682 514.865C27.8015 543.985 9.86816 565.199 9.86816 620.039C9.86816 648.959 16.4948 708.239 90.4015 708.239H421.095" fill="#DEF2D9"/>
<path fill-rule="evenodd" clip-rule="evenodd" d="M240.935 558.839C242.161 557.812 243.735 557.319 245.335 557.452C246.921 557.599 248.388 558.359 249.415 559.585C265.815 579.119 329.455 654.972 345.855 674.505C346.881 675.732 347.375 677.319 347.241 678.905C347.095 680.492 346.335 681.972 345.108 682.985C337.868 689.065 323.935 700.759 316.708 706.825C315.481 707.852 313.908 708.345 312.308 708.212C310.721 708.065 309.255 707.305 308.228 706.079C291.828 686.545 228.188 610.692 211.788 591.159C210.761 589.932 210.268 588.345 210.401 586.759C210.548 585.172 211.308 583.705 212.535 582.679C219.761 576.599 233.708 564.905 240.935 558.839Z" fill="#F9E809"/>
<path fill-rule="evenodd" clip-rule="evenodd" d="M211.375 583.972L315.228 707.732C314.321 708.132 313.321 708.292 312.308 708.212C310.721 708.065 309.255 707.305 308.228 706.079L211.788 591.159C210.761 589.932 210.268 588.345 210.401 586.759C210.495 585.759 210.828 584.799 211.375 583.972Z" fill="#DBAC13"/>
<path fill-rule="evenodd" clip-rule="evenodd" d="M242.414 557.932L276.307 598.319L245.267 624.359L211.374 583.972C211.587 583.652 211.827 583.359 212.094 583.079L241.401 558.479C241.721 558.266 242.067 558.079 242.414 557.932" fill="#ECAF0E"/>
<path fill-rule="evenodd" clip-rule="evenodd" d="M242.414 557.932L346.267 681.692C345.947 682.172 345.561 682.612 345.107 682.985C337.867 689.065 323.934 700.759 316.707 706.825C316.254 707.199 315.761 707.505 315.227 707.732L211.374 583.972C211.694 583.492 212.081 583.052 212.534 582.679L221.641 575.039L240.934 558.839C241.387 558.465 241.881 558.159 242.414 557.932Z" fill="#F7C30B"/>
<path fill-rule="evenodd" clip-rule="evenodd" d="M346.268 681.692C345.948 682.172 345.561 682.612 345.107 682.985C337.867 689.065 323.934 700.759 316.707 706.825C316.254 707.199 315.761 707.505 315.227 707.732L307.841 698.932L338.881 672.892L346.268 681.692" fill="#F7C908"/>
<path fill-rule="evenodd" clip-rule="evenodd" d="M338.881 672.892L321.001 651.586L289.961 677.625L307.841 698.932L338.881 672.892Z" fill="#F9C909"/>
<path fill-rule="evenodd" clip-rule="evenodd" d="M321.001 651.586L294.187 619.625L263.147 645.665L289.961 677.625L321.001 651.586Z" fill="#EAAF0F"/>
<path fill-rule="evenodd" clip-rule="evenodd" d="M333.001 674.319L336.441 678.425L313.721 697.505L310.268 693.399L333.001 674.319Z" fill="#F9E809"/>
<path fill-rule="evenodd" clip-rule="evenodd" d="M324.055 663.665L327.508 667.772L304.775 686.852L301.335 682.745L324.055 663.665Z" fill="#F9E809"/>
<path fill-rule="evenodd" clip-rule="evenodd" d="M315.121 653.012L318.561 657.132L295.841 676.199L292.388 672.092L315.121 653.012" fill="#F9E809"/>
<path fill-rule="evenodd" clip-rule="evenodd" d="M306.187 642.359L309.627 646.465L286.907 665.545L283.454 661.439L306.187 642.359Z" fill="#F9E809"/>
<path fill-rule="evenodd" clip-rule="evenodd" d="M297.242 631.705L300.695 635.812L277.961 654.892L274.521 650.785L297.242 631.705Z" fill="#F9E809"/>
<path fill-rule="evenodd" clip-rule="evenodd" d="M288.308 621.052L291.748 625.159L269.027 644.239L265.574 640.132L288.308 621.052Z" fill="#F9E809"/>
<path fill-rule="evenodd" clip-rule="evenodd" d="M279.362 610.399L282.815 614.505L260.082 633.585L256.642 629.479L279.362 610.399Z" fill="#F9E809"/>
<path fill-rule="evenodd" clip-rule="evenodd" d="M270.428 599.745L273.868 603.852L251.148 622.932L247.694 618.825L270.428 599.745Z" fill="#F9E809"/>
<path fill-rule="evenodd" clip-rule="evenodd" d="M261.481 589.092L264.934 593.199L242.201 612.279L238.761 608.172L261.481 589.092Z" fill="#F9E809"/>
<path fill-rule="evenodd" clip-rule="evenodd" d="M252.548 578.452L255.988 582.559L233.268 601.625L229.814 597.519L252.548 578.452Z" fill="#F9E809"/>
<path fill-rule="evenodd" clip-rule="evenodd" d="M243.601 567.786L247.054 571.892L224.321 590.972L220.881 586.866L243.601 567.786Z" fill="#F9E809"/>
<path d="M298.507 694.505L211.787 591.159C211.014 590.225 210.534 589.092 210.414 587.905C210.521 588.892 210.867 589.852 211.427 590.679C211.547 590.839 211.667 590.999 211.787 591.159C211.801 591.172 211.827 591.199 211.841 591.212L228.041 610.519C248.774 635.239 280.547 673.092 298.507 694.492V694.505V694.505ZM210.414 586.665C210.574 585.105 211.334 583.679 212.534 582.679L240.934 558.839C237.681 561.572 233.067 565.439 228.321 569.425L221.641 575.039L212.814 582.439C212.787 582.465 212.761 582.479 212.734 582.505L212.534 582.679C212.521 582.679 212.507 582.692 212.494 582.705L212.481 582.719L212.467 582.732C212.041 583.092 211.681 583.519 211.374 583.972C210.974 584.572 210.694 585.239 210.534 585.945V585.959C210.521 585.972 210.521 585.972 210.521 585.985C210.521 585.985 210.521 585.999 210.521 586.012C210.521 586.012 210.521 586.012 210.521 586.025C210.507 586.052 210.507 586.079 210.494 586.105C210.494 586.105 210.494 586.105 210.494 586.119C210.494 586.132 210.494 586.132 210.494 586.145C210.494 586.159 210.494 586.159 210.481 586.159C210.481 586.199 210.467 586.252 210.467 586.292C210.454 586.305 210.454 586.319 210.454 586.332C210.454 586.345 210.454 586.345 210.454 586.345C210.454 586.385 210.441 586.425 210.441 586.479C210.427 586.492 210.427 586.505 210.427 586.519V586.532C210.427 586.545 210.427 586.559 210.427 586.559C210.427 586.572 210.427 586.572 210.427 586.572C210.427 586.585 210.414 586.599 210.414 586.612C210.414 586.625 210.414 586.625 210.414 586.639V586.652V586.665V586.665ZM240.934 558.839C240.947 558.825 240.961 558.812 240.974 558.799C240.961 558.812 240.947 558.825 240.934 558.839ZM241.001 558.785L241.014 558.772L241.001 558.785ZM241.041 558.745C241.054 558.745 241.054 558.745 241.054 558.745C241.054 558.745 241.054 558.745 241.041 558.745Z" fill="#EAAB5B"/>
<path d="M298.507 694.492C280.547 673.092 248.774 635.239 228.041 610.519L298.507 694.492V694.505V694.492ZM211.841 591.212C211.827 591.199 211.801 591.172 211.787 591.159L211.841 591.212ZM211.427 590.679C210.867 589.852 210.521 588.892 210.414 587.905C210.521 588.892 210.867 589.852 211.427 590.679ZM210.414 586.652V586.639V586.652ZM210.414 586.612C210.414 586.599 210.427 586.585 210.427 586.572C210.427 586.585 210.414 586.599 210.414 586.612ZM210.427 586.559C210.427 586.559 210.427 586.545 210.427 586.532C210.427 586.545 210.427 586.559 210.427 586.559ZM210.427 586.519C210.427 586.505 210.427 586.492 210.441 586.479C210.427 586.492 210.427 586.505 210.427 586.519ZM210.441 586.479C210.441 586.425 210.454 586.385 210.454 586.345C210.454 586.385 210.441 586.425 210.441 586.479ZM210.454 586.332C210.454 586.319 210.454 586.305 210.467 586.292C210.454 586.305 210.454 586.319 210.454 586.332ZM210.467 586.292C210.467 586.252 210.481 586.199 210.481 586.159C210.481 586.199 210.467 586.252 210.467 586.292ZM210.494 586.145C210.494 586.132 210.494 586.132 210.494 586.119C210.494 586.132 210.494 586.132 210.494 586.145ZM210.494 586.105C210.507 586.079 210.507 586.052 210.521 586.025C210.507 586.052 210.507 586.079 210.494 586.105ZM210.521 586.012C210.521 585.999 210.521 585.985 210.521 585.985C210.521 585.985 210.521 585.999 210.521 586.012ZM210.534 585.959V585.945V585.959ZM212.467 582.732L212.481 582.719L212.467 582.732ZM212.494 582.705C212.507 582.692 212.521 582.679 212.534 582.679C212.521 582.679 212.507 582.692 212.494 582.705ZM212.734 582.505C212.761 582.479 212.787 582.465 212.814 582.439L212.734 582.505ZM228.321 569.425C233.067 565.439 237.681 561.572 240.934 558.839C240.947 558.825 240.961 558.812 240.974 558.799C240.987 558.799 240.987 558.799 241.001 558.785L241.014 558.772C241.027 558.759 241.041 558.759 241.041 558.745C241.054 558.745 241.054 558.745 241.054 558.745C241.827 558.132 242.747 557.719 243.707 557.532L245.187 561.239L242.414 557.932C242.267 557.999 242.121 558.065 241.974 558.132C241.974 558.145 241.974 558.145 241.961 558.145L241.947 558.159C241.774 558.252 241.601 558.345 241.441 558.465H241.427C241.427 558.479 241.414 558.479 241.414 558.479C241.414 558.479 241.414 558.479 241.401 558.479C241.241 558.599 241.081 558.719 240.934 558.839L228.321 569.425" fill="#F89D0E"/>
<path d="M298.507 694.492L228.041 610.519L211.841 591.212L211.787 591.159C211.667 590.999 211.547 590.839 211.427 590.679C210.867 589.852 210.521 588.892 210.414 587.905C210.414 587.492 210.414 587.079 210.414 586.666V586.652V586.639C210.414 586.625 210.414 586.626 210.414 586.612C210.414 586.599 210.427 586.585 210.427 586.572C210.427 586.572 210.427 586.572 210.427 586.559C210.427 586.559 210.427 586.546 210.427 586.532V586.519C210.427 586.506 210.427 586.492 210.441 586.479C210.441 586.426 210.454 586.386 210.454 586.346C210.454 586.346 210.454 586.346 210.454 586.332C210.454 586.319 210.454 586.306 210.467 586.292C210.467 586.252 210.481 586.199 210.481 586.159C210.494 586.159 210.494 586.159 210.494 586.146C210.494 586.132 210.494 586.132 210.494 586.119C210.494 586.106 210.494 586.105 210.494 586.105C210.507 586.079 210.507 586.052 210.521 586.026C210.521 586.012 210.521 586.012 210.521 586.012C210.521 585.999 210.521 585.986 210.521 585.986C210.521 585.972 210.521 585.972 210.534 585.959V585.946C210.694 585.239 210.974 584.572 211.374 583.972L289.961 677.626L293.387 681.706L298.507 694.492" fill="#EE8015"/>
<path d="M241.401 558.479C241.415 558.479 241.415 558.479 241.415 558.479C241.415 558.479 241.415 558.479 241.401 558.479ZM241.428 558.466H241.441H241.428ZM241.948 558.159L241.961 558.146L241.948 558.159ZM241.975 558.132C242.121 558.066 242.268 557.999 242.415 557.932C242.268 557.999 242.121 558.066 241.975 558.132Z" fill="#F58113"/>
<path d="M289.961 677.625L211.374 583.972C211.681 583.519 212.041 583.092 212.467 582.732L212.481 582.719L212.494 582.705C212.507 582.692 212.521 582.679 212.534 582.679L212.734 582.505L212.814 582.439L221.641 575.039L228.321 569.425L240.934 558.839C241.081 558.719 241.241 558.599 241.401 558.479C241.414 558.479 241.414 558.479 241.414 558.479C241.414 558.479 241.427 558.479 241.427 558.465H241.441C241.601 558.345 241.774 558.252 241.947 558.159L241.961 558.146C241.974 558.146 241.974 558.145 241.974 558.132C242.121 558.065 242.267 557.999 242.414 557.932L245.187 561.239L252.187 578.746L229.814 597.519L233.267 601.625L254.294 583.986L257.627 592.332L238.761 608.172L242.201 612.279L259.721 597.572L263.067 605.919L247.694 618.825L251.147 622.932L265.161 611.159L268.507 619.519L256.641 629.479L260.081 633.586L270.601 624.759L273.947 633.106L265.574 640.132L267.294 642.186L263.147 645.665L289.961 677.625V677.625ZM243.601 567.786L220.881 586.865L224.321 590.972L247.054 571.892L243.601 567.786Z" fill="#F68B11"/>
<path d="M293.388 681.706L289.961 677.626L291.308 676.506L293.388 681.706Z" fill="#F78E11"/>
<path d="M289.961 677.625L263.147 645.665L267.294 642.186L269.027 644.239L276.041 638.345L279.374 646.692L274.521 650.786L277.961 654.892L281.481 651.945L284.814 660.292L283.454 661.439L286.907 665.545V665.532L291.307 676.506L289.961 677.625" fill="#F68113"/>
<path d="M286.907 665.545L283.454 661.439L284.814 660.292L286.907 665.532V665.545" fill="#F89D0E"/>
<path d="M277.961 654.892L274.521 650.785L279.375 646.692L281.482 651.945L277.961 654.892Z" fill="#F89D0E"/>
<path d="M269.027 644.239L267.294 642.185L265.574 640.132L273.948 633.105L276.041 638.345L269.027 644.239" fill="#F89D0E"/>
<path d="M260.082 633.585L256.642 629.479L268.508 619.519L270.602 624.759L260.082 633.585" fill="#F89D0E"/>
<path d="M251.148 622.932L247.694 618.825L263.068 605.919L265.161 611.159L251.148 622.932Z" fill="#F89D0E"/>
<path d="M242.201 612.279L238.761 608.172L257.627 592.332L259.721 597.572L242.201 612.279" fill="#F89D0E"/>
<path d="M233.268 601.625L229.814 597.519L252.188 578.746L254.294 583.986L233.268 601.625" fill="#F89D0E"/>
<path d="M224.321 590.972L220.881 586.866L243.601 567.786L247.054 571.892L224.321 590.972Z" fill="#F89D0E"/>
<path fill-rule="evenodd" clip-rule="evenodd" d="M223.148 665.132C223.148 663.532 222.508 662.012 221.388 660.879C220.254 659.745 218.721 659.119 217.121 659.119C191.614 659.119 92.601 659.119 67.0943 659.119C65.5077 659.119 63.9744 659.745 62.8411 660.879C61.7077 662.012 61.0811 663.532 61.0811 665.132C61.0811 674.572 61.0811 692.772 61.0811 702.212C61.0811 703.812 61.7077 705.345 62.8411 706.465C63.9744 707.599 65.5077 708.239 67.0943 708.239C92.601 708.239 191.614 708.239 217.121 708.239C218.721 708.239 220.254 707.599 221.388 706.465C222.508 705.345 223.148 703.812 223.148 702.212C223.148 692.772 223.148 674.572 223.148 665.132Z" fill="#F8EC09"/>
<path fill-rule="evenodd" clip-rule="evenodd" d="M222.894 663.412C223.001 663.785 223.081 664.159 223.121 664.545V702.799C223.081 703.185 223.001 703.559 222.894 703.932H197.987V663.412H222.894Z" fill="#FAC708"/>
<path fill-rule="evenodd" clip-rule="evenodd" d="M222.894 663.412C223.054 663.972 223.148 664.545 223.148 665.132C223.148 674.572 223.148 692.772 223.148 702.212C223.148 702.799 223.054 703.372 222.894 703.932H61.3344C61.1611 703.372 61.0811 702.799 61.0811 702.212C61.0811 692.772 61.0811 674.572 61.0811 665.132C61.0811 664.545 61.1611 663.972 61.3344 663.412H222.894Z" fill="#F7D807"/>
<path fill-rule="evenodd" clip-rule="evenodd" d="M137.561 703.932H61.3344C61.1611 703.372 61.0811 702.799 61.0811 702.212V665.132C61.0811 664.545 61.1611 663.972 61.3344 663.412H137.561V703.932Z" fill="#FAC708"/>
<path fill-rule="evenodd" clip-rule="evenodd" d="M70.1475 668.839H75.5075V698.505H70.1475V668.839Z" fill="#F8EC09"/>
<path fill-rule="evenodd" clip-rule="evenodd" d="M84.041 668.839H89.4143V698.505H84.041V668.839Z" fill="#F8EC09"/>
<path fill-rule="evenodd" clip-rule="evenodd" d="M97.9609 668.839H103.321V698.505H97.9609V668.839Z" fill="#F8EC09"/>
<path fill-rule="evenodd" clip-rule="evenodd" d="M111.868 668.839H117.228V698.505H111.868V668.839Z" fill="#F8EC09"/>
<path fill-rule="evenodd" clip-rule="evenodd" d="M125.774 668.839H131.134V698.505H125.774V668.839Z" fill="#F8EC09"/>
<path fill-rule="evenodd" clip-rule="evenodd" d="M139.681 668.839H145.041V698.505H139.681V668.839Z" fill="#F8EC09"/>
<path fill-rule="evenodd" clip-rule="evenodd" d="M153.588 668.839H158.948V698.505H153.588V668.839Z" fill="#F8EC09"/>
<path fill-rule="evenodd" clip-rule="evenodd" d="M167.481 668.839H172.855V698.505H167.481V668.839Z" fill="#F8EC09"/>
<path fill-rule="evenodd" clip-rule="evenodd" d="M181.401 698.505H186.762V668.839H181.401V698.505Z" fill="#F8EC09"/>
<path fill-rule="evenodd" clip-rule="evenodd" d="M195.308 698.505H200.668V668.839H195.308V698.505Z" fill="#F8EC09"/>
<path fill-rule="evenodd" clip-rule="evenodd" d="M209.215 698.505H214.575V668.839H209.215V698.505Z" fill="#F8EC09"/>
<path d="M221.388 706.465C222.254 705.599 222.828 704.492 223.041 703.305C223.041 703.305 223.041 703.305 223.041 703.292C223.041 703.292 223.054 703.292 223.054 703.279C223.054 703.265 223.054 703.252 223.054 703.239C222.854 704.452 222.268 705.585 221.388 706.465V706.465ZM223.054 703.225C223.054 703.212 223.068 703.212 223.068 703.212C223.068 703.212 223.054 703.212 223.054 703.225ZM223.121 702.799C223.134 702.665 223.134 702.519 223.148 702.385V702.372C223.134 702.519 223.134 702.665 223.121 702.799V702.799ZM223.148 702.372C223.148 702.359 223.148 702.345 223.148 702.319C223.148 702.345 223.148 702.359 223.148 702.372ZM223.148 702.319C223.148 702.305 223.148 702.292 223.148 702.279C223.148 702.292 223.148 702.305 223.148 702.319ZM223.148 702.265C223.148 702.239 223.148 702.225 223.148 702.212C223.148 692.772 223.148 674.572 223.148 665.132C223.148 674.572 223.148 692.772 223.148 702.212C223.148 702.225 223.148 702.239 223.148 702.265Z" fill="#E6BD74"/>
<path d="M220.601 707.132L217.415 703.932H222.895C222.895 703.919 222.908 703.905 222.908 703.892C222.935 703.812 222.948 703.732 222.975 703.652C222.975 703.639 222.975 703.625 222.988 703.599C222.988 703.599 222.988 703.585 222.988 703.572V703.559C223.015 703.479 223.028 703.385 223.041 703.305C222.828 704.492 222.255 705.599 221.388 706.465C221.361 706.479 221.348 706.492 221.335 706.519C221.108 706.745 220.855 706.945 220.601 707.132V707.132ZM223.041 703.292C223.041 703.292 223.055 703.292 223.055 703.279C223.055 703.292 223.041 703.292 223.041 703.292ZM223.121 702.799C223.135 702.665 223.135 702.519 223.148 702.385C223.135 702.519 223.135 702.665 223.121 702.799ZM223.148 702.372C223.148 702.359 223.148 702.345 223.148 702.319C223.148 702.345 223.148 702.359 223.148 702.372ZM223.148 702.319C223.148 702.305 223.148 702.292 223.148 702.279C223.148 702.292 223.148 702.305 223.148 702.319ZM223.148 702.265C223.148 702.239 223.148 702.225 223.148 702.212C223.148 702.225 223.148 702.239 223.148 702.265ZM223.148 665.132C223.148 665.119 223.148 665.105 223.148 665.092C223.148 665.105 223.148 665.119 223.148 665.132ZM223.148 665.079C223.148 665.052 223.148 665.039 223.148 665.025C223.148 665.039 223.148 665.052 223.148 665.079ZM223.148 665.025C223.148 665.012 223.148 664.985 223.148 664.972C223.148 664.985 223.148 665.012 223.148 665.025ZM223.148 664.959C223.148 664.945 223.148 664.932 223.148 664.919C223.148 664.932 223.148 664.945 223.148 664.959ZM223.148 664.919C223.135 664.892 223.135 664.879 223.135 664.865C223.135 664.879 223.135 664.892 223.148 664.919ZM223.135 664.852C223.135 664.759 223.121 664.652 223.121 664.545C223.121 664.652 223.135 664.759 223.135 664.852ZM223.028 663.959C223.001 663.852 222.988 663.732 222.948 663.625C222.948 663.612 222.948 663.599 222.935 663.572C222.935 663.572 222.935 663.572 222.935 663.559C222.935 663.545 222.935 663.545 222.921 663.532C222.921 663.519 222.921 663.519 222.921 663.505C222.921 663.492 222.908 663.479 222.908 663.479C222.908 663.465 222.908 663.465 222.908 663.452C222.908 663.439 222.895 663.425 222.895 663.412H197.988H176.895L172.588 659.119H182.961H217.121C218.721 659.119 220.255 659.745 221.388 660.879C222.228 661.732 222.801 662.799 223.028 663.959" fill="#F9AE0B"/>
<path d="M222.894 703.932C222.894 703.919 222.907 703.905 222.907 703.892C222.907 703.905 222.894 703.919 222.894 703.932ZM222.987 703.599C222.987 703.599 222.987 703.586 222.987 703.572C222.987 703.586 222.987 703.599 222.987 703.599ZM222.987 703.559C223.054 703.305 223.094 703.052 223.121 702.799C223.107 702.932 223.081 703.079 223.067 703.212C223.067 703.212 223.054 703.212 223.054 703.225C223.054 703.225 223.054 703.226 223.054 703.239C223.054 703.252 223.054 703.265 223.054 703.279C223.054 703.292 223.041 703.292 223.041 703.292C223.041 703.305 223.041 703.306 223.041 703.306C223.027 703.386 223.014 703.479 222.987 703.559V703.559ZM223.121 664.545C223.081 664.239 223.027 663.932 222.947 663.625C222.987 663.732 223.001 663.852 223.027 663.959C223.067 664.159 223.094 664.345 223.121 664.545V664.545ZM222.947 663.625C222.947 663.612 222.947 663.599 222.934 663.572C222.947 663.599 222.947 663.612 222.947 663.625ZM222.934 663.559C222.934 663.545 222.934 663.545 222.921 663.532C222.934 663.545 222.934 663.545 222.934 663.559ZM222.921 663.506C222.921 663.492 222.907 663.479 222.907 663.479C222.907 663.479 222.921 663.492 222.921 663.506ZM222.907 663.452C222.907 663.439 222.894 663.425 222.894 663.412H197.987H222.894C222.894 663.425 222.907 663.439 222.907 663.452Z" fill="#F7990F"/>
<path d="M222.895 703.932H217.415L211.988 698.506H214.575V668.839H209.215V695.732L200.668 687.186V668.839H195.308V681.825L186.761 673.279V668.839H182.321L176.895 663.412H197.988H222.895C222.895 663.425 222.908 663.439 222.908 663.452C222.908 663.466 222.908 663.465 222.908 663.479C222.908 663.479 222.921 663.492 222.921 663.506C222.921 663.519 222.921 663.519 222.921 663.532C222.935 663.545 222.935 663.545 222.935 663.559C222.935 663.572 222.935 663.572 222.935 663.572C222.948 663.599 222.948 663.612 222.948 663.625C223.028 663.932 223.081 664.239 223.121 664.545C223.121 664.652 223.135 664.759 223.135 664.852V664.865C223.135 664.879 223.135 664.892 223.148 664.919C223.148 664.932 223.148 664.945 223.148 664.959C223.148 664.972 223.148 664.972 223.148 664.972C223.148 664.986 223.148 665.012 223.148 665.025C223.148 665.039 223.148 665.052 223.148 665.079C223.148 665.079 223.148 665.079 223.148 665.092C223.148 665.105 223.148 665.119 223.148 665.132C223.148 674.572 223.148 692.772 223.148 702.212C223.148 702.225 223.148 702.239 223.148 702.265C223.148 702.265 223.148 702.265 223.148 702.279C223.148 702.292 223.148 702.306 223.148 702.319C223.148 702.346 223.148 702.359 223.148 702.372V702.386C223.135 702.519 223.135 702.665 223.121 702.799C223.095 703.052 223.055 703.305 222.988 703.559V703.572C222.988 703.586 222.988 703.599 222.988 703.599C222.975 703.625 222.975 703.639 222.975 703.652C222.948 703.732 222.935 703.812 222.908 703.892C222.908 703.905 222.895 703.919 222.895 703.932" fill="#F8A40D"/>
<path d="M186.761 673.279L182.321 668.839H186.761V673.279Z" fill="#F9AE0B"/>
<path d="M200.668 687.186L195.308 681.826V668.839H200.668V687.186" fill="#F9AE0B"/>
<path d="M214.575 698.505H211.988L209.215 695.732V668.839H214.575V698.505" fill="#F9AE0B"/>
<path fill-rule="evenodd" clip-rule="evenodd" d="M48.3477 566.892C48.3477 565.305 48.9877 563.772 50.1077 562.639C51.241 561.519 52.7743 560.879 54.3609 560.879C79.8809 560.879 178.881 560.879 204.388 560.879C205.988 560.879 207.521 561.519 208.654 562.639C209.774 563.772 210.414 565.305 210.414 566.892C210.414 576.345 210.414 594.532 210.414 603.972C210.414 605.572 209.774 607.105 208.654 608.239C207.521 609.359 205.988 609.999 204.388 609.999H54.3609C52.7743 609.999 51.241 609.359 50.1077 608.239C48.9877 607.105 48.3477 605.572 48.3477 603.972C48.3477 594.532 48.3477 576.345 48.3477 566.892Z" fill="#F8EC09"/>
<path fill-rule="evenodd" clip-rule="evenodd" d="M210.161 565.185C210.321 565.732 210.415 566.305 210.415 566.892V603.972C210.415 604.559 210.321 605.145 210.161 605.692H133.935V565.185H210.161Z" fill="#FAC708"/>
<path fill-rule="evenodd" clip-rule="evenodd" d="M210.161 565.185C210.321 565.732 210.414 566.305 210.414 566.892C210.414 576.345 210.414 594.532 210.414 603.972C210.414 604.559 210.321 605.145 210.161 605.692H48.601C48.4277 605.145 48.3477 604.559 48.3477 603.972C48.3477 594.532 48.3477 576.345 48.3477 566.892C48.3477 566.305 48.4277 565.732 48.601 565.185H210.161Z" fill="#F7D807"/>
<path fill-rule="evenodd" clip-rule="evenodd" d="M73.5074 605.692H48.6007C48.494 605.332 48.414 604.959 48.374 604.572V566.305C48.414 565.919 48.494 565.545 48.6007 565.185H73.5074V605.692" fill="#FAC708"/>
<path fill-rule="evenodd" clip-rule="evenodd" d="M195.987 600.279H201.347V570.599H195.987V600.279Z" fill="#F8EC09"/>
<path fill-rule="evenodd" clip-rule="evenodd" d="M182.081 600.279H187.441V570.599H182.081V600.279Z" fill="#F8EC09"/>
<path fill-rule="evenodd" clip-rule="evenodd" d="M168.175 600.279H173.535V570.599H168.175V600.279Z" fill="#F8EC09"/>
<path fill-rule="evenodd" clip-rule="evenodd" d="M154.268 570.599H159.627V600.279H154.268V570.599Z" fill="#F8EC09"/>
<path fill-rule="evenodd" clip-rule="evenodd" d="M140.361 570.599H145.721V600.279H140.361V570.599Z" fill="#F8EC09"/>
<path fill-rule="evenodd" clip-rule="evenodd" d="M126.454 570.599H131.814V600.279H126.454V570.599Z" fill="#F8EC09"/>
<path fill-rule="evenodd" clip-rule="evenodd" d="M112.548 570.599H117.908V600.279H112.548V570.599Z" fill="#F8EC09"/>
<path fill-rule="evenodd" clip-rule="evenodd" d="M98.6416 570.599H104.002V600.279H98.6416V570.599Z" fill="#F8EC09"/>
<path fill-rule="evenodd" clip-rule="evenodd" d="M84.7344 570.599H90.0943V600.279H84.7344V570.599Z" fill="#F8EC09"/>
<path fill-rule="evenodd" clip-rule="evenodd" d="M70.8281 570.599H76.1882V600.279H70.8281V570.599Z" fill="#F8EC09"/>
<path fill-rule="evenodd" clip-rule="evenodd" d="M56.9209 570.599H62.2809V600.279H56.9209V570.599Z" fill="#F8EC09"/>
<path d="M208.654 608.239L206.107 605.692H210.161C209.881 606.639 209.361 607.519 208.654 608.239Z" fill="#F9AA0C"/>
<path d="M210.401 604.239C210.401 604.225 210.415 604.212 210.415 604.199C210.415 604.212 210.401 604.225 210.401 604.239Z" fill="#F9AA0C"/>
<path d="M210.415 566.652L210.401 566.639L210.415 566.652Z" fill="#F9AA0C"/>
<path d="M210.161 565.186H165.601L161.294 560.879H204.387C205.987 560.879 207.521 561.519 208.654 562.639C209.361 563.359 209.881 564.226 210.161 565.186" fill="#F9AA0C"/>
<path d="M210.161 605.692H206.108L200.695 600.279H201.348V570.599H195.988V595.572L187.442 587.025V570.599H182.082V581.665L173.535 573.119V570.599H171.028L165.602 565.185H210.161C210.295 565.639 210.375 566.105 210.402 566.599C210.402 566.612 210.402 566.625 210.402 566.639L210.415 566.652C210.415 566.665 210.415 566.679 210.415 566.692C210.415 566.705 210.415 566.719 210.415 566.719C210.415 566.732 210.415 566.732 210.415 566.745C210.415 566.759 210.415 566.772 210.415 566.785V566.799C210.415 566.812 210.415 566.825 210.415 566.839V566.852C210.415 566.865 210.415 566.879 210.415 566.892C210.415 571.905 210.415 579.359 210.415 586.665C210.415 587.079 210.415 587.492 210.415 587.905C210.415 593.972 210.415 599.812 210.415 603.972C210.415 603.985 210.415 604.012 210.415 604.025V604.039C210.415 604.052 210.415 604.065 210.415 604.079C210.415 604.079 210.415 604.079 210.415 604.092C210.415 604.105 210.415 604.119 210.415 604.132C210.415 604.145 210.415 604.145 210.415 604.145C210.415 604.159 210.415 604.172 210.415 604.185V604.199C210.415 604.212 210.402 604.225 210.402 604.239C210.402 604.252 210.402 604.252 210.402 604.265C210.402 604.265 210.402 604.279 210.402 604.292V604.305C210.402 604.319 210.402 604.332 210.402 604.345C210.402 604.359 210.402 604.372 210.402 604.372C210.402 604.385 210.402 604.385 210.402 604.399C210.402 604.425 210.388 604.465 210.388 604.492C210.388 604.492 210.388 604.492 210.388 604.505C210.361 604.879 210.295 605.252 210.188 605.612V605.625C210.175 605.639 210.175 605.639 210.175 605.652C210.175 605.665 210.161 605.679 210.161 605.692" fill="#F8A00E"/>
<path d="M201.347 600.279H200.694L195.987 595.572V570.599H201.347V600.279" fill="#F9AA0C"/>
<path d="M187.441 587.025L182.081 581.665V570.599H187.441V587.025Z" fill="#F9AA0C"/>
<path d="M173.534 573.119L171.027 570.599H173.534V573.119Z" fill="#F9AA0C"/>
<path fill-rule="evenodd" clip-rule="evenodd" d="M188.974 616.012C188.974 614.425 188.348 612.892 187.214 611.759C186.094 610.625 184.561 609.999 182.961 609.999C157.454 609.999 58.441 609.999 32.9343 609.999C31.3343 609.999 29.8009 610.625 28.6809 611.759C27.5476 612.892 26.9209 614.425 26.9209 616.012C26.9209 625.465 26.9209 643.652 26.9209 653.092C26.9209 654.692 27.5476 656.225 28.6809 657.345C29.8009 658.479 31.3343 659.119 32.9343 659.119H182.961C184.561 659.119 186.094 658.479 187.214 657.345C188.348 656.225 188.974 654.692 188.974 653.092C188.974 643.652 188.974 625.465 188.974 616.012Z" fill="#F9E809"/>
<path fill-rule="evenodd" clip-rule="evenodd" d="M188.734 614.292C188.894 614.852 188.974 615.425 188.974 616.012C188.974 625.465 188.974 643.652 188.974 653.092C188.974 653.679 188.894 654.265 188.734 654.812H27.1609C27.0009 654.265 26.9209 653.679 26.9209 653.092V634.105V616.012C26.9209 615.425 27.0009 614.852 27.1609 614.292H188.734" fill="#F7C30B"/>
<path fill-rule="evenodd" clip-rule="evenodd" d="M38.6543 614.292H66.4677V654.812H38.6543V614.292Z" fill="#F9C909"/>
<path fill-rule="evenodd" clip-rule="evenodd" d="M66.4678 614.292H108.188V654.812H66.4678V614.292Z" fill="#EAAF0F"/>
<path fill-rule="evenodd" clip-rule="evenodd" d="M188.734 614.292C188.841 614.665 188.908 615.039 188.948 615.425V653.679C188.908 654.065 188.841 654.452 188.734 654.812H136.001V614.292H188.734Z" fill="#ECAF0E"/>
<path fill-rule="evenodd" clip-rule="evenodd" d="M35.9746 619.719H41.3346V649.385H35.9746V619.719Z" fill="#F9E809"/>
<path fill-rule="evenodd" clip-rule="evenodd" d="M49.8809 619.719H55.2409V649.385H49.8809V619.719Z" fill="#F9E809"/>
<path fill-rule="evenodd" clip-rule="evenodd" d="M63.7881 619.719H69.1481V649.385H63.7881V619.719Z" fill="#F9E809"/>
<path fill-rule="evenodd" clip-rule="evenodd" d="M77.6943 619.719H83.0544V649.385H77.6943V619.719Z" fill="#F9E809"/>
<path fill-rule="evenodd" clip-rule="evenodd" d="M91.6016 619.719H96.9615V649.385H91.6016V619.719Z" fill="#F9E809"/>
<path fill-rule="evenodd" clip-rule="evenodd" d="M105.508 619.719H110.868V649.385H105.508V619.719Z" fill="#F9E809"/>
<path fill-rule="evenodd" clip-rule="evenodd" d="M119.414 619.719H124.774V649.385H119.414V619.719Z" fill="#F9E809"/>
<path fill-rule="evenodd" clip-rule="evenodd" d="M133.321 649.385H138.695V619.719H133.321V649.385Z" fill="#F9E809"/>
<path fill-rule="evenodd" clip-rule="evenodd" d="M147.228 649.385H152.587V619.719H147.228V649.385Z" fill="#F9E809"/>
<path fill-rule="evenodd" clip-rule="evenodd" d="M161.135 649.385H166.495V619.719H161.135V649.385Z" fill="#F9E809"/>
<path fill-rule="evenodd" clip-rule="evenodd" d="M175.041 649.385H180.401V619.719H175.041V649.385Z" fill="#F9E809"/>
<path d="M182.961 659.119H172.587L168.294 654.812H188.734C188.441 655.759 187.934 656.639 187.214 657.345C186.094 658.479 184.561 659.119 182.961 659.119Z" fill="#F9A50D"/>
<path d="M188.961 653.625C188.961 653.612 188.961 653.612 188.961 653.612C188.961 653.612 188.961 653.612 188.961 653.625ZM188.961 653.519C188.961 653.506 188.961 653.505 188.961 653.492C188.961 653.505 188.961 653.506 188.961 653.519ZM188.974 653.465C188.974 653.452 188.974 653.439 188.974 653.425C188.974 653.439 188.974 653.452 188.974 653.465ZM188.974 653.412C188.974 653.399 188.974 653.386 188.974 653.386C188.974 653.386 188.974 653.399 188.974 653.412ZM188.974 653.359C188.974 653.345 188.974 653.332 188.974 653.319C188.974 653.332 188.974 653.345 188.974 653.359ZM188.974 653.306C188.974 653.292 188.974 653.279 188.974 653.265C188.974 653.279 188.974 653.292 188.974 653.306ZM188.974 653.252C188.974 653.239 188.974 653.225 188.974 653.212C188.974 653.225 188.974 653.239 188.974 653.252ZM188.974 653.199C188.974 653.185 188.974 653.172 188.974 653.159C188.974 653.172 188.974 653.185 188.974 653.199ZM188.974 653.145C188.974 653.132 188.974 653.105 188.974 653.092C188.974 653.105 188.974 653.132 188.974 653.145ZM188.974 616.012C188.974 615.999 188.974 615.986 188.974 615.972C188.974 615.986 188.974 615.999 188.974 616.012ZM188.974 615.959C188.974 615.945 188.974 615.932 188.974 615.919C188.974 615.932 188.974 615.945 188.974 615.959ZM188.974 615.906C188.974 615.892 188.974 615.879 188.974 615.852C188.974 615.879 188.974 615.892 188.974 615.906ZM188.974 615.839C188.974 615.826 188.974 615.825 188.974 615.812C188.974 615.825 188.974 615.826 188.974 615.839ZM188.974 615.786C188.974 615.772 188.974 615.759 188.974 615.745C188.974 615.759 188.974 615.772 188.974 615.786ZM188.974 615.732C188.974 615.719 188.974 615.719 188.974 615.706C188.974 615.719 188.974 615.719 188.974 615.732ZM188.961 615.612C188.961 615.612 188.961 615.612 188.961 615.599C188.961 615.612 188.961 615.612 188.961 615.612Z" fill="#F9A50D"/>
<path d="M188.948 653.679V615.425C188.962 615.492 188.962 615.545 188.962 615.599C188.962 615.612 188.962 615.612 188.962 615.612C188.975 615.639 188.975 615.679 188.975 615.705C188.975 615.719 188.975 615.719 188.975 615.732V615.745C188.975 615.759 188.975 615.772 188.975 615.785C188.975 615.799 188.975 615.799 188.975 615.812C188.975 615.825 188.975 615.825 188.975 615.839C188.975 615.852 188.975 615.852 188.975 615.852C188.975 615.879 188.975 615.892 188.975 615.905C188.975 615.905 188.975 615.905 188.975 615.919C188.975 615.932 188.975 615.945 188.975 615.959C188.975 615.959 188.975 615.959 188.975 615.972C188.975 615.985 188.975 615.999 188.975 616.012C188.975 625.465 188.975 643.652 188.975 653.092C188.975 653.105 188.975 653.132 188.975 653.145C188.975 653.145 188.975 653.145 188.975 653.159C188.975 653.172 188.975 653.185 188.975 653.199C188.975 653.199 188.975 653.199 188.975 653.212C188.975 653.225 188.975 653.239 188.975 653.252V653.265C188.975 653.279 188.975 653.292 188.975 653.305V653.319C188.975 653.332 188.975 653.345 188.975 653.359C188.975 653.372 188.975 653.372 188.975 653.385C188.975 653.385 188.975 653.399 188.975 653.412V653.425C188.975 653.439 188.975 653.452 188.975 653.465C188.975 653.479 188.975 653.492 188.962 653.492C188.962 653.505 188.962 653.505 188.962 653.519C188.962 653.545 188.962 653.572 188.962 653.612C188.962 653.612 188.962 653.612 188.962 653.625C188.962 653.639 188.948 653.665 188.948 653.679" fill="#F79110"/>
<path d="M188.734 614.292H127.774L123.468 609.999H182.961C184.561 609.999 186.094 610.625 187.214 611.759C187.934 612.479 188.441 613.345 188.734 614.292Z" fill="#F9A50D"/>
<path d="M133.321 619.852L127.774 614.292H188.734H136.001V619.719H133.321V619.852Z" fill="#F79110"/>
<path d="M188.734 654.812H168.294L162.868 649.385H166.494V619.719H161.134V647.665L152.588 639.119V619.719H147.228V633.759L138.694 625.212V619.719H136.001V614.292H188.734C188.841 614.665 188.908 615.039 188.948 615.425V653.679C188.908 654.065 188.841 654.452 188.734 654.812V654.812ZM175.041 619.719V649.385H180.401V619.719H175.041Z" fill="#F58612"/>
<path d="M138.695 625.212L133.321 619.852V619.719H138.695V625.212Z" fill="#F9A50D"/>
<path d="M152.588 639.119L147.228 633.759V619.719H152.588V639.119Z" fill="#F9A50D"/>
<path d="M166.495 649.385H162.868L161.135 647.665V619.719H166.495V649.385Z" fill="#F9A50D"/>
<path d="M175.041 649.385H180.401V619.719H175.041V649.385Z" fill="#F9A50D"/>
<path fill-rule="evenodd" clip-rule="evenodd" d="M188.735 654.812C188.441 655.759 187.935 656.639 187.215 657.345C186.095 658.479 184.561 659.119 182.961 659.119H32.9346C31.3346 659.119 29.8145 658.479 28.6812 657.345C27.9612 656.639 27.4545 655.759 27.1611 654.812H188.735Z" fill="#DBAC13"/>
<path fill-rule="evenodd" clip-rule="evenodd" d="M55.5615 517.786C55.5615 516.186 56.2015 514.652 57.3215 513.532C58.4549 512.399 59.9882 511.759 61.5882 511.759C87.0949 511.759 186.108 511.759 211.615 511.759C213.202 511.759 214.735 512.399 215.868 513.532C216.988 514.652 217.628 516.186 217.628 517.786C217.628 527.226 217.628 545.412 217.628 554.865C217.628 556.452 216.988 557.986 215.868 559.119C214.735 560.252 213.202 560.879 211.615 560.879H61.5882C59.9882 560.879 58.4549 560.252 57.3215 559.119C56.2015 557.986 55.5615 556.452 55.5615 554.865C55.5615 545.412 55.5615 527.226 55.5615 517.786Z" fill="#F9E809"/>
<path fill-rule="evenodd" clip-rule="evenodd" d="M217.374 556.572C217.094 557.532 216.574 558.399 215.868 559.119C214.734 560.239 213.201 560.879 211.614 560.879H61.5878C59.9878 560.879 58.4544 560.239 57.3211 559.119C56.6144 558.399 56.0945 557.532 55.8145 556.572H217.374" fill="#DBAC13"/>
<path fill-rule="evenodd" clip-rule="evenodd" d="M217.374 516.065C217.548 516.612 217.627 517.199 217.627 517.785C217.627 527.225 217.627 545.412 217.627 554.865C217.627 555.452 217.548 556.025 217.374 556.585H205.881V516.065H217.374Z" fill="#F7C908"/>
<path fill-rule="evenodd" clip-rule="evenodd" d="M217.375 516.065C217.548 516.612 217.628 517.199 217.628 517.785C217.628 527.225 217.628 545.412 217.628 554.865C217.628 555.452 217.548 556.025 217.375 556.585H55.8149C55.6549 556.025 55.5615 555.452 55.5615 554.865C55.5615 545.412 55.5615 527.225 55.5615 517.785C55.5615 517.199 55.6549 516.612 55.8149 516.065H217.375Z" fill="#F7C30B"/>
<path fill-rule="evenodd" clip-rule="evenodd" d="M108.535 556.572H55.8146C55.7079 556.212 55.6279 555.839 55.5879 555.452V517.186C55.6279 516.799 55.7079 516.426 55.8146 516.066H108.535V556.572Z" fill="#ECAF0E"/>
<path fill-rule="evenodd" clip-rule="evenodd" d="M178.067 516.065H205.881V556.585H178.067V516.065Z" fill="#F9C909"/>
<path fill-rule="evenodd" clip-rule="evenodd" d="M136.348 516.065H178.068V556.585H136.348V516.065Z" fill="#EAAF0F"/>
<path fill-rule="evenodd" clip-rule="evenodd" d="M203.201 521.492H208.561V551.159H203.201V521.492Z" fill="#F9E809"/>
<path fill-rule="evenodd" clip-rule="evenodd" d="M189.294 521.492H194.654V551.159H189.294V521.492Z" fill="#F9E809"/>
<path fill-rule="evenodd" clip-rule="evenodd" d="M175.388 521.492H180.761V551.159H175.388V521.492Z" fill="#F9E809"/>
<path fill-rule="evenodd" clip-rule="evenodd" d="M161.481 521.492H166.855V551.159H161.481V521.492Z" fill="#F9E809"/>
<path fill-rule="evenodd" clip-rule="evenodd" d="M147.574 521.492H152.934V551.159H147.574V521.492Z" fill="#F9E809"/>
<path fill-rule="evenodd" clip-rule="evenodd" d="M133.668 521.492H139.028V551.159H133.668V521.492Z" fill="#F9E809"/>
<path fill-rule="evenodd" clip-rule="evenodd" d="M119.761 521.492H125.121V551.159H119.761V521.492Z" fill="#F9E809"/>
<path fill-rule="evenodd" clip-rule="evenodd" d="M105.854 521.492H111.215V551.159H105.854V521.492Z" fill="#F9E809"/>
<path fill-rule="evenodd" clip-rule="evenodd" d="M91.9482 521.492H97.3083V551.159H91.9482V521.492Z" fill="#F9E809"/>
<path fill-rule="evenodd" clip-rule="evenodd" d="M78.041 521.492H83.401V551.159H78.041V521.492Z" fill="#F9E809"/>
<path fill-rule="evenodd" clip-rule="evenodd" d="M64.1348 521.492H69.4947V551.159H64.1348V521.492Z" fill="#F9E809"/>
<path fill-rule="evenodd" clip-rule="evenodd" d="M67.3344 543.892C67.3344 543.892 70.1611 546.772 72.7744 549.439C75.4811 552.186 79.4544 553.252 83.1744 552.226C86.7744 551.226 90.6678 550.146 90.6678 550.146C90.6678 550.146 87.7877 552.972 85.1077 555.586C82.3611 558.292 81.2944 562.266 82.3344 565.986C83.3344 569.586 84.4144 573.479 84.4144 573.479C84.4144 573.479 81.5877 570.599 78.961 567.919C76.2677 565.172 72.2811 564.106 68.5744 565.132C64.9744 566.146 61.0811 567.226 61.0811 567.226C61.0811 567.226 63.961 564.399 66.6277 561.772C69.3877 559.079 70.4544 555.092 69.4144 551.386C68.4144 547.772 67.3344 543.892 67.3344 543.892Z" fill="white"/>
<path fill-rule="evenodd" clip-rule="evenodd" d="M194.321 484.399C194.321 484.399 202.735 492.985 208.108 498.465C210.801 501.212 214.788 502.279 218.495 501.239C225.895 499.185 237.468 495.972 237.468 495.972C237.468 495.972 228.895 504.385 223.415 509.759C220.668 512.452 219.601 516.439 220.628 520.145C222.681 527.545 225.908 539.119 225.908 539.119C225.908 539.119 217.495 530.545 212.121 525.065C209.415 522.319 205.441 521.252 201.721 522.279C194.335 524.332 182.748 527.559 182.748 527.559C182.748 527.559 191.335 519.145 196.815 513.772C199.561 511.065 200.628 507.092 199.601 503.372C197.535 495.985 194.321 484.399 194.321 484.399Z" fill="white"/>
<path d="M522.134 368.159L533.414 371.186L527.481 393.306C572.748 412.732 590.014 444.692 579.188 485.119L576.681 494.479L514.001 477.692L517.321 465.346C523.014 444.066 513.108 432.732 491.961 427.079C470.828 421.412 456.574 426.252 450.868 447.546C434.454 508.852 563.361 546.586 540.548 631.732C529.708 672.159 498.054 691.466 449.148 685.652L447.068 693.426L468.774 708.226L443.334 707.359L389.108 692.826L394.921 671.119C349.094 651.546 331.908 619.159 342.734 578.719L348.214 558.292L362.201 541.212L383.988 567.879L410.881 575.079L404.601 598.492C398.908 619.786 410.134 631.012 431.268 636.666C452.414 642.332 467.761 638.239 473.454 616.946C489.881 555.639 360.974 517.906 383.788 432.759C386.268 423.479 389.814 415.319 394.401 408.319L416.508 369.506L413.334 389.466C428.441 379.826 448.481 376.106 473.254 378.786L479.188 356.652L508.948 315.292L522.134 368.159" fill="url(#paint0_linear)"/>
<path fill-rule="evenodd" clip-rule="evenodd" d="M414.534 667.639L394.921 671.119L389.107 692.825L408.027 691.959L414.534 667.639" fill="#173A25"/>
<path fill-rule="evenodd" clip-rule="evenodd" d="M576.681 494.479L618.174 469.719L547.961 450.906L514.001 477.692L576.681 494.479" fill="url(#paint1_linear)"/>
<path d="M402.054 400.572C376.494 495.972 520.934 538.252 502.534 606.932C496.134 630.785 478.948 635.385 455.268 629.039C431.588 622.692 419.001 610.119 425.388 586.265L432.414 560.025L362.201 541.212L356.068 564.105C343.921 609.412 363.188 645.705 414.534 667.639L408.027 691.959L468.774 708.239L475.294 683.919C530.094 690.425 565.561 668.799 577.694 623.492C603.254 528.105 458.814 485.812 477.227 417.132C483.614 393.279 499.574 387.852 523.268 394.199C546.948 400.545 558.054 413.225 551.668 437.079L547.961 450.905L618.174 469.732L620.988 459.239C633.121 413.932 613.774 378.119 563.054 356.372L569.708 331.572L508.948 315.292L502.308 340.092C448.054 334.225 414.068 355.745 402.054 400.572" fill="url(#paint2_linear)"/>
<path fill-rule="evenodd" clip-rule="evenodd" d="M577.361 356.106C577.361 356.106 577.307 362.439 577.254 367.519C577.214 371.372 579.281 374.946 582.627 376.839C587.054 379.332 592.574 382.452 592.574 382.452C592.574 382.452 586.241 382.386 581.161 382.332C577.307 382.306 573.734 384.359 571.841 387.719C569.347 392.132 566.227 397.652 566.227 397.652C566.227 397.652 566.294 391.319 566.334 386.239C566.374 382.386 564.321 378.826 560.961 376.919C556.534 374.426 551.027 371.319 551.027 371.319C551.027 371.319 557.361 371.372 562.441 371.426C566.294 371.466 569.854 369.399 571.747 366.052C574.254 361.626 577.361 356.106 577.361 356.106Z" fill="white"/>
<path fill-rule="evenodd" clip-rule="evenodd" d="M408.188 550.652C408.188 550.652 409.868 553.625 411.508 556.519C413.401 559.879 416.961 561.932 420.814 561.905C424.148 561.865 427.561 561.838 427.561 561.838C427.561 561.838 424.588 563.519 421.694 565.145C418.334 567.052 416.268 570.612 416.308 574.465C416.348 577.799 416.374 581.212 416.374 581.212C416.374 581.212 414.694 578.239 413.054 575.345C411.161 571.985 407.601 569.919 403.748 569.959C400.414 569.999 397.001 570.025 397.001 570.025C397.001 570.025 399.974 568.345 402.868 566.705C406.228 564.812 408.294 561.239 408.254 557.399C408.214 554.065 408.188 550.652 408.188 550.652Z" fill="white"/>
<path fill-rule="evenodd" clip-rule="evenodd" d="M434.721 160.932C434.721 160.932 440.841 160.852 444.334 159.812C447.827 158.759 449.614 158.679 450.507 159.812C451.414 160.932 450.667 164.079 447.827 164.145C444.987 164.199 441.201 167.639 441.201 167.639L434.721 160.932" fill="#E96158"/>
<path fill-rule="evenodd" clip-rule="evenodd" d="M293.335 258.705C293.335 258.705 298.855 265.385 308.948 269.039C319.055 272.692 335.002 265.385 335.002 265.385L341.335 246.465C341.335 246.465 303.002 236.705 293.335 258.705Z" fill="url(#paint3_linear)"/>
<path fill-rule="evenodd" clip-rule="evenodd" d="M421.095 164.412C421.095 164.412 424.935 159.812 430.175 159.812C435.428 159.812 441.201 165.399 447.828 168.079C454.455 170.772 465.295 171.492 469.055 172.026C472.815 172.559 472.908 176.946 469.055 177.226C465.201 177.492 452.255 177.572 442.988 175.612C433.721 173.652 430.175 175.612 430.175 175.612L421.095 164.412Z" fill="url(#paint4_linear)"/>
<path fill-rule="evenodd" clip-rule="evenodd" d="M307.575 420.359L377.655 424.639L341.335 281.439C341.335 281.439 330.001 282.919 308.575 285.172C287.148 287.425 303.495 347.625 303.495 347.625L307.575 420.359Z" fill="url(#paint5_linear)"/>
<path fill-rule="evenodd" clip-rule="evenodd" d="M307.574 265.479C307.574 265.479 312.228 275.199 310.668 285.052C309.108 294.905 329.508 294.905 329.508 294.905L341.334 281.439C341.334 281.439 335.588 278.399 334.734 261.905C333.881 245.412 307.574 265.479 307.574 265.479" fill="#E96158"/>
<path fill-rule="evenodd" clip-rule="evenodd" d="M289.521 245.065C289.521 245.065 280.081 241.612 277.615 245.065C275.161 248.505 274.748 254.812 280.081 257.825C285.428 260.825 298.428 257.825 298.428 257.825L289.521 245.065" fill="url(#paint6_linear)"/>
<path fill-rule="evenodd" clip-rule="evenodd" d="M328.255 186.772C328.255 186.772 336.001 189.359 340.388 197.346C345.495 206.666 347.348 220.586 347.348 220.586L343.308 226.399L313.708 192.212L328.255 186.772" fill="url(#paint7_linear)"/>
<path fill-rule="evenodd" clip-rule="evenodd" d="M344.975 223.866C344.975 223.866 345.788 217.706 348.535 217.852C351.268 217.986 353.868 221.266 353.455 227.159C353.041 233.039 348.535 234.959 348.535 234.959L344.975 223.866" fill="url(#paint8_linear)"/>
<path fill-rule="evenodd" clip-rule="evenodd" d="M285.282 212.105C279.695 221.519 280.495 228.252 285.282 238.105C290.082 247.959 297.881 260.145 303.495 263.839C309.108 267.545 324.162 266.745 330.868 263.839C337.575 260.932 345.361 255.225 347.295 247.559C349.241 239.892 349.348 235.639 344.975 223.865C340.588 212.105 337.628 201.559 328.682 195.532C320.055 189.732 292.268 200.332 285.282 212.105" fill="url(#paint9_linear)"/>
<path fill-rule="evenodd" clip-rule="evenodd" d="M281.388 243.532C281.388 243.532 265.188 226.839 270.535 208.225C275.868 189.612 283.668 189.825 289.148 181.719C294.628 173.612 300.161 161.359 307.574 160.039C314.988 158.719 328.534 162.772 331.814 178.439C335.094 194.119 297.708 201.185 292.428 204.705C287.148 208.225 281.388 222.079 291.028 248.559L281.388 243.532" fill="url(#paint10_linear)"/>
<path fill-rule="evenodd" clip-rule="evenodd" d="M356.575 662.692C356.575 662.692 371.908 687.865 396.495 691.679C396.495 691.679 401.455 702.012 401.455 708.239H332.015V699.119C332.015 699.119 331.295 673.359 333.908 662.692C336.521 652.012 356.575 662.692 356.575 662.692Z" fill="url(#paint11_linear)"/>
<path fill-rule="evenodd" clip-rule="evenodd" d="M283.468 657.946C283.468 657.946 286.654 686.906 291.028 696.679V708.226H237.468V696.679C237.468 696.679 248.801 657.132 255.241 650.679C261.694 644.239 283.468 657.946 283.468 657.946Z" fill="url(#paint12_linear)"/>
<path fill-rule="evenodd" clip-rule="evenodd" d="M307.574 420.359L377.654 424.639L375.361 440.239L295.388 435.186L307.574 420.359Z" fill="url(#paint13_linear)"/>
<path fill-rule="evenodd" clip-rule="evenodd" d="M281.388 453.039C281.388 453.039 271.935 578.065 247.441 650.505C247.441 650.505 249.855 659.252 287.148 657.505C287.148 657.505 316.135 531.119 326.548 476.412C326.868 474.639 327.948 473.092 329.495 472.172C331.041 471.252 332.921 471.039 334.641 471.599C336.388 472.172 337.575 473.825 337.561 475.665C337.361 495.212 336.028 602.332 330.521 662.679H361.468C361.468 662.679 385.095 517.959 380.895 457.879V437.519C380.895 437.519 310.788 432.892 293.335 432.132C275.868 431.385 281.388 453.039 281.388 453.039Z" fill="url(#paint14_linear)"/>
<path fill-rule="evenodd" clip-rule="evenodd" d="M319.055 298.639C319.055 298.639 326.242 303.506 328.575 304.759C330.895 306.012 334.415 303.506 334.415 303.506C334.415 303.506 341.335 295.412 341.335 293.452C341.335 291.506 330.522 287.412 330.522 287.412L326.975 287.972L317.335 289.479L319.055 298.639" fill="url(#paint15_linear)"/>
<path fill-rule="evenodd" clip-rule="evenodd" d="M326.974 287.972L313.987 305.465L307.574 282.919L310.814 277.545C313.001 281.345 317.494 283.852 326.974 287.972" fill="url(#paint16_linear)"/>
<path fill-rule="evenodd" clip-rule="evenodd" d="M326.975 287.972L343.908 300.172L341.335 281.439L336.948 274.639C336.948 274.639 337.068 282.372 326.975 287.972" fill="url(#paint17_linear)"/>
<path fill-rule="evenodd" clip-rule="evenodd" d="M326.975 303.812L329.335 399.532L341.335 412.039L353.495 399.532L335.441 300.172L326.975 303.812" fill="url(#paint18_linear)"/>
<path fill-rule="evenodd" clip-rule="evenodd" d="M336.948 274.638C336.948 274.638 396.348 176.532 417.895 163.385C417.895 163.385 430.522 166.292 435.428 176.532C435.428 176.532 383.242 238.292 364.108 287.572C364.108 287.572 388.402 402.212 387.042 455.945L364.108 463.132C364.108 463.132 349.442 299.172 336.948 274.638" fill="url(#paint19_linear)"/>
<path fill-rule="evenodd" clip-rule="evenodd" d="M164.294 188.852C164.294 188.852 155.534 188.599 151.454 184.145C147.374 179.679 144.374 180.985 143.054 181.905C141.747 182.825 139.761 185.132 144.374 190.052C148.974 194.959 149.054 191.839 150.254 196.332C151.454 200.825 164.294 188.852 164.294 188.852" fill="#E96158"/>
<path fill-rule="evenodd" clip-rule="evenodd" d="M185.668 193.905C185.668 193.905 177.908 186.772 170.988 186.772C164.068 186.772 153.081 195.985 144.748 195.985C136.414 195.985 127.214 193.679 125.934 195.985C124.654 198.292 123.054 201.585 134.201 206.585C147.814 212.705 162.574 204.532 166.774 206.585C170.988 208.652 180.854 216.719 180.854 216.719L185.668 193.905Z" fill="url(#paint20_linear)"/>
<path fill-rule="evenodd" clip-rule="evenodd" d="M307.574 282.919C307.574 282.919 314.988 296.332 318.388 340.412C321.788 384.492 311.068 468.399 311.068 468.399L272.454 448.412C272.454 448.412 289.521 372.399 287.148 307.972C287.148 307.972 241.254 252.932 166.774 213.786C166.774 213.786 180.748 203.306 185.668 193.892C185.668 193.892 263.388 241.932 302.361 282.919C302.361 282.919 304.148 285.226 307.574 282.919" fill="url(#paint21_linear)"/>
<path fill-rule="evenodd" clip-rule="evenodd" d="M292.428 700.759C292.428 699.625 291.521 698.719 290.388 698.719C281.588 698.719 246.908 698.719 238.095 698.719C236.975 698.719 236.055 699.625 236.055 700.759C236.055 702.359 236.055 704.585 236.055 706.185C236.055 707.319 236.975 708.239 238.095 708.239C246.908 708.239 281.588 708.239 290.388 708.239C291.521 708.239 292.428 707.319 292.428 706.185C292.428 704.585 292.428 702.359 292.428 700.759Z" fill="url(#paint22_linear)"/>
<path fill-rule="evenodd" clip-rule="evenodd" d="M401.455 700.759C401.455 700.212 401.241 699.692 400.855 699.319C400.481 698.932 399.962 698.719 399.415 698.719C389.108 698.719 342.868 698.719 332.561 698.719C332.028 698.719 331.508 698.932 331.121 699.319C330.748 699.692 330.521 700.212 330.521 700.759C330.521 702.359 330.521 704.585 330.521 706.185C330.521 706.732 330.748 707.252 331.121 707.639C331.508 708.012 332.028 708.239 332.561 708.239C342.868 708.239 389.108 708.239 399.415 708.239C399.962 708.239 400.481 708.012 400.855 707.639C401.241 707.252 401.455 706.732 401.455 706.185C401.455 704.585 401.455 702.359 401.455 700.759Z" fill="url(#paint23_linear)"/>
<path fill-rule="evenodd" clip-rule="evenodd" d="M166.774 118.679L174.214 131.612C174.214 131.612 189.988 111.426 217.081 118.679C217.081 118.679 222.574 103.626 208.588 90.5189C208.588 90.5189 185.374 96.5456 166.774 118.679" fill="url(#paint24_linear)"/>
<path fill-rule="evenodd" clip-rule="evenodd" d="M312.321 0.465531L302.748 20.6388C302.748 20.6388 312.828 44.5856 336.521 54.7456C336.521 54.7456 342.428 31.5189 341.335 22.8123C341.335 22.8123 319.868 25.8655 312.321 0.465531" fill="url(#paint25_linear)"/>
<path fill-rule="evenodd" clip-rule="evenodd" d="M428.321 70.8921C428.321 70.8921 431.468 50.5855 466.535 33.6521L469.428 13.572C469.428 13.572 432.908 35.1054 428.321 70.8921" fill="url(#paint26_linear)"/>
<path fill-rule="evenodd" clip-rule="evenodd" d="M497.001 115.639C497.001 115.639 498.161 118.985 509.308 114.519C520.454 110.065 550.788 95.3321 550.788 95.3321L557.108 122.079C557.108 122.079 516.241 137.799 512.774 138.545C509.308 139.292 507.201 139.905 505.708 137.799C504.228 135.705 497.708 122.532 497.001 115.639Z" fill="url(#paint27_linear)"/>
<path fill-rule="evenodd" clip-rule="evenodd" d="M563.107 192.119C563.107 192.119 574.334 193.986 578.467 186.772C578.467 186.772 578.134 206.479 586.387 213.906C594.641 221.332 607.681 213.906 607.681 213.906L594.641 234.959C594.641 234.959 575.654 231.799 569.374 219.186C563.107 206.586 563.107 192.119 563.107 192.119" fill="url(#paint28_linear)"/>
<path fill-rule="evenodd" clip-rule="evenodd" d="M497.001 244.305C497.001 244.305 507.041 257.625 515.801 260.585C515.801 260.585 516.454 290.306 489.548 308.146C489.548 308.146 476.081 296.545 471.921 281.439C471.921 281.439 494.734 268.799 497.001 244.305" fill="url(#paint29_linear)"/>
<path fill-rule="evenodd" clip-rule="evenodd" d="M134.201 284.132C134.201 284.132 131.228 307.639 164.575 304.572C164.575 304.572 169.535 314.145 164.575 331.145C164.575 331.145 131.881 331.799 121.975 306.772C121.975 306.772 125.121 291.612 134.201 284.132Z" fill="url(#paint30_linear)"/>
<path fill-rule="evenodd" clip-rule="evenodd" d="M12.1476 271.532L0.520859 279.652C0.520859 279.652 -1.15911 310.412 18.2809 329.226C18.2809 329.226 28.6275 327.439 36.0275 314.426C36.0275 314.426 14.0542 306.826 12.1476 271.532" fill="url(#paint31_linear)"/>
<path fill-rule="evenodd" clip-rule="evenodd" d="M134.015 430.292C134.015 430.292 148.508 427.532 164.295 404.919L176.495 420.359C176.495 420.359 163.575 445.679 141.175 442.959L134.015 430.292Z" fill="url(#paint32_linear)"/>
<path fill-rule="evenodd" clip-rule="evenodd" d="M220.321 436.132C220.321 436.132 240.468 447.465 258.361 432.119L261.015 456.012C261.015 456.012 250.521 463.785 237.935 462.465C225.348 461.159 220.321 454.732 220.321 454.732V436.132" fill="url(#paint33_linear)"/>
<path fill-rule="evenodd" clip-rule="evenodd" d="M67.0274 418.586C71.5474 421.199 72.3208 428.332 68.7608 434.492C65.2008 440.666 58.6408 443.546 54.1208 440.946C53.8275 440.772 53.5475 440.572 53.2808 440.359L50.8142 438.692L51.2675 437.892C49.5075 434.506 49.8008 429.519 52.3875 425.039C54.9741 420.559 59.1474 417.812 62.9608 417.639L63.7075 416.346L67.0274 418.586" fill="#ED9C11"/>
<path fill-rule="evenodd" clip-rule="evenodd" d="M63.7074 416.346C68.2274 418.946 69.014 426.079 65.454 432.239C61.894 438.412 55.334 441.292 50.814 438.692C46.294 436.079 45.5207 428.959 49.0807 422.786C52.6407 416.626 59.2007 413.732 63.7074 416.346" fill="#F8E105"/>
<path fill-rule="evenodd" clip-rule="evenodd" d="M62.6282 418.225C66.3882 420.385 67.0416 426.319 64.0683 431.452C61.1083 436.572 55.6548 438.985 51.8948 436.812C48.1348 434.639 47.4949 428.719 50.4549 423.585C53.4149 418.452 58.8682 416.052 62.6282 418.225Z" fill="#ED9C11"/>
<path fill-rule="evenodd" clip-rule="evenodd" d="M56.5876 419.119L64.7343 427.279C64.5343 428.279 64.1875 429.292 63.6942 430.292L54.0542 420.652C54.8542 419.999 55.7076 419.479 56.5876 419.119V419.119ZM53.241 421.386L63.1343 431.279C62.1476 432.906 60.8543 434.212 59.4676 435.105L50.3076 425.946C50.561 425.292 50.8543 424.652 51.2143 424.026C51.8009 423.026 52.481 422.132 53.241 421.386" fill="#F8E105"/>
<path fill-rule="evenodd" clip-rule="evenodd" d="M391.148 89.2522C396.574 92.3989 397.508 100.959 393.228 108.386C388.948 115.799 381.054 119.265 375.628 116.132C375.268 115.919 374.921 115.692 374.601 115.439L371.641 113.426L372.188 112.465C370.068 108.385 370.428 102.399 373.534 97.0122C376.654 91.6256 381.654 88.3188 386.254 88.1055L387.161 86.5456L391.148 89.2522" fill="#ED9C11"/>
<path fill-rule="evenodd" clip-rule="evenodd" d="M387.161 86.5454C392.588 89.6921 393.521 98.252 389.241 105.665C384.961 113.092 377.068 116.559 371.641 113.425C366.201 110.292 365.268 101.719 369.548 94.3053C373.841 86.892 381.721 83.4121 387.161 86.5454Z" fill="#F8E105"/>
<path fill-rule="evenodd" clip-rule="evenodd" d="M385.855 88.8122C390.375 91.4122 391.148 98.5456 387.588 104.719C384.028 110.879 377.468 113.772 372.948 111.172C368.428 108.559 367.642 101.426 371.202 95.2522C374.775 89.0922 381.335 86.1989 385.855 88.8122Z" fill="#ED9C11"/>
<path fill-rule="evenodd" clip-rule="evenodd" d="M378.588 89.892L388.388 99.692C388.134 100.905 387.721 102.119 387.121 103.319L375.534 91.7319C376.508 90.9453 377.534 90.3186 378.588 89.892V89.892ZM374.561 92.612L386.468 104.519C385.268 106.479 383.721 108.039 382.054 109.119L371.041 98.1052C371.334 97.3186 371.694 96.5453 372.134 95.7853C372.828 94.5853 373.654 93.5187 374.561 92.612Z" fill="#F8E105"/>
<path fill-rule="evenodd" clip-rule="evenodd" d="M72.3877 118.625C66.5477 121.999 65.5477 131.212 70.1477 139.172C74.7477 147.145 83.2278 150.879 89.0678 147.505C89.4544 147.279 89.8143 147.039 90.161 146.759L93.3477 144.599L92.761 143.572C95.0277 139.185 94.6544 132.745 91.3077 126.959C87.9611 121.172 82.5744 117.612 77.6411 117.399L76.681 115.719L72.3877 118.625" fill="#ED9C11"/>
<path fill-rule="evenodd" clip-rule="evenodd" d="M76.6811 115.719C70.8411 119.092 69.8277 128.292 74.4277 136.266C79.0277 144.239 87.5078 147.972 93.3478 144.599C99.1878 141.226 100.188 132.026 95.5877 124.052C90.9877 116.079 82.5078 112.346 76.6811 115.719Z" fill="#F8E105"/>
<path fill-rule="evenodd" clip-rule="evenodd" d="M78.0808 118.145C73.2142 120.945 72.3875 128.612 76.2142 135.239C80.0408 141.865 87.0942 144.972 91.9475 142.172C96.8008 139.372 97.6408 131.705 93.8142 125.079C89.9875 118.452 82.9342 115.345 78.0808 118.145Z" fill="#ED9C11"/>
<path fill-rule="evenodd" clip-rule="evenodd" d="M85.8814 119.319L75.3613 129.852C75.6147 131.132 76.0681 132.452 76.7081 133.746L89.1613 121.292C88.1213 120.439 87.0147 119.772 85.8814 119.319V119.319ZM90.2014 122.239L77.4147 135.026C78.708 137.132 80.3614 138.812 82.148 139.972L93.988 128.132C93.6814 127.292 93.2947 126.466 92.8147 125.652C92.068 124.359 91.1881 123.212 90.2014 122.239Z" fill="#F8E105"/>
<path fill-rule="evenodd" clip-rule="evenodd" d="M605.307 323.146C602.907 328.039 606.387 335.612 613.054 340.052C619.734 344.492 627.094 344.119 629.494 339.226C629.654 338.906 629.787 338.572 629.894 338.226L631.054 335.305L630.187 334.732C629.747 330.425 626.587 325.546 621.734 322.319C616.881 319.106 611.681 318.412 608.267 320.146L606.867 319.212L605.307 323.146Z" fill="#ED9C11"/>
<path fill-rule="evenodd" clip-rule="evenodd" d="M606.868 319.212C604.468 324.105 607.948 331.679 614.614 336.119C621.294 340.559 628.654 340.185 631.054 335.305C633.441 330.412 629.974 322.839 623.294 318.399C616.614 313.959 609.254 314.319 606.868 319.212" fill="#F8E105"/>
<path fill-rule="evenodd" clip-rule="evenodd" d="M608.895 320.572C606.908 324.639 609.788 330.932 615.348 334.625C620.895 338.319 627.028 338.012 629.015 333.945C631.002 329.879 628.122 323.572 622.562 319.879C617.015 316.185 610.882 316.492 608.895 320.572Z" fill="#ED9C11"/>
<path fill-rule="evenodd" clip-rule="evenodd" d="M614.654 318.452L612.348 330.746C613.108 331.652 614.001 332.505 615.001 333.265L617.734 318.732C616.654 318.465 615.614 318.372 614.654 318.452ZM618.868 319.065L616.054 333.999C617.868 335.145 619.734 335.812 621.454 336.012L624.054 322.199C623.481 321.665 622.841 321.172 622.161 320.719C621.068 319.999 619.961 319.439 618.868 319.065" fill="#F8E105"/>
<path fill-rule="evenodd" clip-rule="evenodd" d="M418.028 244.679C413.161 247.492 412.321 255.172 416.161 261.812C420.001 268.452 427.068 271.572 431.935 268.759C432.255 268.572 432.561 268.372 432.855 268.132L435.508 266.332L435.015 265.479C436.908 261.825 436.588 256.452 433.801 251.625C431.015 246.799 426.521 243.839 422.415 243.652L421.601 242.252L418.028 244.679" fill="#ED9C11"/>
<path fill-rule="evenodd" clip-rule="evenodd" d="M421.601 242.252C416.734 245.065 415.894 252.745 419.734 259.385C423.574 266.039 430.641 269.145 435.508 266.332C440.374 263.519 441.214 255.839 437.374 249.199C433.534 242.545 426.468 239.439 421.601 242.252Z" fill="#F8E105"/>
<path fill-rule="evenodd" clip-rule="evenodd" d="M422.774 244.279C418.721 246.612 418.028 252.999 421.214 258.532C424.414 264.052 430.281 266.652 434.334 264.305C438.388 261.972 439.081 255.585 435.894 250.052C432.708 244.519 426.828 241.932 422.774 244.279Z" fill="#ED9C11"/>
<path fill-rule="evenodd" clip-rule="evenodd" d="M429.281 245.252L420.508 254.025C420.721 255.105 421.094 256.212 421.628 257.279L432.014 246.892C431.148 246.185 430.228 245.625 429.281 245.252ZM432.881 247.679L422.228 258.345C423.294 260.105 424.681 261.505 426.174 262.465L436.041 252.599C435.788 251.905 435.455 251.212 435.068 250.532C434.441 249.452 433.708 248.492 432.881 247.679" fill="#F8E105"/>
<defs>
<linearGradient id="paint0_linear" x1="415.654" y1="452.146" x2="459.282" y2="527.862" gradientUnits="userSpaceOnUse">
<stop stop-color="#3C9768"/>
<stop offset="1" stop-color="#205A3B"/>
</linearGradient>
<linearGradient id="paint1_linear" x1="575.828" y1="456.452" x2="545.552" y2="510.074" gradientUnits="userSpaceOnUse">
<stop stop-color="#3C9768"/>
<stop offset="1" stop-color="#205A3B"/>
</linearGradient>
<linearGradient id="paint2_linear" x1="551.894" y1="331.305" x2="371.019" y2="858.425" gradientUnits="userSpaceOnUse">
<stop stop-color="#7FD3C5"/>
<stop offset="0.23" stop-color="#4BBE7F"/>
<stop offset="1" stop-color="#2F817B"/>
</linearGradient>
<linearGradient id="paint3_linear" x1="210.388" y1="257.185" x2="341.331" y2="257.185" gradientUnits="userSpaceOnUse">
<stop stop-color="#612F53"/>
<stop offset="1" stop-color="#2D1C35"/>
</linearGradient>
<linearGradient id="paint4_linear" x1="426.628" y1="167.492" x2="453.642" y2="169.106" gradientUnits="userSpaceOnUse">
<stop stop-color="#F5756C"/>
<stop offset="1" stop-color="#FBC591"/>
</linearGradient>
<linearGradient id="paint5_linear" x1="331.375" y1="295.665" x2="342.366" y2="424.048" gradientUnits="userSpaceOnUse">
<stop stop-color="#F1E1F2"/>
<stop offset="1" stop-color="#B39AC2"/>
</linearGradient>
<linearGradient id="paint6_linear" x1="275.868" y1="251.345" x2="353.494" y2="251.345" gradientUnits="userSpaceOnUse">
<stop stop-color="#F5756C"/>
<stop offset="1" stop-color="#FBC591"/>
</linearGradient>
<linearGradient id="paint7_linear" x1="321.641" y1="183.586" x2="336.129" y2="213.462" gradientUnits="userSpaceOnUse">
<stop stop-color="#612F53"/>
<stop offset="1" stop-color="#2D1C35"/>
</linearGradient>
<linearGradient id="paint8_linear" x1="350.628" y1="234.372" x2="348.296" y2="217.646" gradientUnits="userSpaceOnUse">
<stop stop-color="#F5756C"/>
<stop offset="1" stop-color="#FBC591"/>
</linearGradient>
<linearGradient id="paint9_linear" x1="318.401" y1="268.252" x2="311.771" y2="197.411" gradientUnits="userSpaceOnUse">
<stop stop-color="#F5756C"/>
<stop offset="1" stop-color="#FBC591"/>
</linearGradient>
<linearGradient id="paint10_linear" x1="308.321" y1="170.172" x2="286.972" y2="245.128" gradientUnits="userSpaceOnUse">
<stop stop-color="#612F53"/>
<stop offset="1" stop-color="#2D1C35"/>
</linearGradient>
<linearGradient id="paint11_linear" x1="368.828" y1="654.052" x2="366.277" y2="703.808" gradientUnits="userSpaceOnUse">
<stop stop-color="#F1E1F2"/>
<stop offset="1" stop-color="#B39AC2"/>
</linearGradient>
<linearGradient id="paint12_linear" x1="267.001" y1="648.839" x2="264.45" y2="698.595" gradientUnits="userSpaceOnUse">
<stop stop-color="#F1E1F2"/>
<stop offset="1" stop-color="#B39AC2"/>
</linearGradient>
<linearGradient id="paint13_linear" x1="336.521" y1="420.359" x2="336.521" y2="444.815" gradientUnits="userSpaceOnUse">
<stop stop-color="#533249"/>
<stop offset="1" stop-color="#2B1721"/>
</linearGradient>
<linearGradient id="paint14_linear" x1="306.455" y1="662.239" x2="326.991" y2="434.027" gradientUnits="userSpaceOnUse">
<stop stop-color="#612F53"/>
<stop offset="1" stop-color="#2D1C35"/>
</linearGradient>
<linearGradient id="paint15_linear" x1="327.842" y1="287.719" x2="332.79" y2="305.219" gradientUnits="userSpaceOnUse">
<stop stop-color="#612F53"/>
<stop offset="1" stop-color="#2D1C35"/>
</linearGradient>
<linearGradient id="paint16_linear" x1="315.588" y1="275.399" x2="322.121" y2="314.467" gradientUnits="userSpaceOnUse">
<stop stop-color="#F1E1F2"/>
<stop offset="1" stop-color="#B39AC2"/>
</linearGradient>
<linearGradient id="paint17_linear" x1="333.135" y1="275.105" x2="337.519" y2="311.175" gradientUnits="userSpaceOnUse">
<stop stop-color="#F1E1F2"/>
<stop offset="1" stop-color="#B39AC2"/>
</linearGradient>
<linearGradient id="paint18_linear" x1="340.441" y1="391.479" x2="329.637" y2="302.404" gradientUnits="userSpaceOnUse">
<stop stop-color="#612F53"/>
<stop offset="1" stop-color="#2D1C35"/>
</linearGradient>
<linearGradient id="paint19_linear" x1="389.735" y1="255.345" x2="412.906" y2="449.82" gradientUnits="userSpaceOnUse">
<stop stop-color="#612F53"/>
<stop offset="1" stop-color="#2D1C35"/>
</linearGradient>
<linearGradient id="paint20_linear" x1="183.614" y1="203.772" x2="147.316" y2="195.615" gradientUnits="userSpaceOnUse">
<stop stop-color="#F5756C"/>
<stop offset="1" stop-color="#FBC591"/>
</linearGradient>
<linearGradient id="paint21_linear" x1="240.468" y1="259.666" x2="270.941" y2="458.507" gradientUnits="userSpaceOnUse">
<stop stop-color="#612F53"/>
<stop offset="1" stop-color="#2D1C35"/>
</linearGradient>
<linearGradient id="paint22_linear" x1="264.241" y1="693.079" x2="264.241" y2="708.238" gradientUnits="userSpaceOnUse">
<stop stop-color="#612F53"/>
<stop offset="1" stop-color="#2D1C35"/>
</linearGradient>
<linearGradient id="paint23_linear" x1="365.588" y1="690.959" x2="366.127" y2="707.954" gradientUnits="userSpaceOnUse">
<stop stop-color="#612F53"/>
<stop offset="1" stop-color="#2D1C35"/>
</linearGradient>
<linearGradient id="paint24_linear" x1="193.254" y1="91.0389" x2="192.832" y2="149.858" gradientUnits="userSpaceOnUse">
<stop stop-color="#7FD3C5"/>
<stop offset="0.23" stop-color="#4BBE7F"/>
<stop offset="1" stop-color="#2F817B"/>
</linearGradient>
<linearGradient id="paint25_linear" x1="323.375" y1="1.07886" x2="320.378" y2="78.6281" gradientUnits="userSpaceOnUse">
<stop stop-color="#7FD3C5"/>
<stop offset="0.23" stop-color="#4BBE7F"/>
<stop offset="1" stop-color="#2F817B"/>
</linearGradient>
<linearGradient id="paint26_linear" x1="450.455" y1="14.2254" x2="447.341" y2="96.1318" gradientUnits="userSpaceOnUse">
<stop stop-color="#7FD3C5"/>
<stop offset="0.23" stop-color="#4BBE7F"/>
<stop offset="1" stop-color="#2F817B"/>
</linearGradient>
<linearGradient id="paint27_linear" x1="527.734" y1="95.9054" x2="527.39" y2="158.765" gradientUnits="userSpaceOnUse">
<stop stop-color="#7FD3C5"/>
<stop offset="0.23" stop-color="#4BBE7F"/>
<stop offset="1" stop-color="#2F817B"/>
</linearGradient>
<linearGradient id="paint28_linear" x1="586.081" y1="187.359" x2="584.86" y2="256.282" gradientUnits="userSpaceOnUse">
<stop stop-color="#7FD3C5"/>
<stop offset="0.23" stop-color="#4BBE7F"/>
<stop offset="1" stop-color="#2F817B"/>
</linearGradient>
<linearGradient id="paint29_linear" x1="495.414" y1="245.012" x2="491.477" y2="336.205" gradientUnits="userSpaceOnUse">
<stop stop-color="#7FD3C5"/>
<stop offset="0.23" stop-color="#4BBE7F"/>
<stop offset="1" stop-color="#2F817B"/>
</linearGradient>
<linearGradient id="paint30_linear" x1="145.548" y1="284.719" x2="144.457" y2="351.976" gradientUnits="userSpaceOnUse">
<stop stop-color="#7FD3C5"/>
<stop offset="0.23" stop-color="#4BBE7F"/>
<stop offset="1" stop-color="#2F817B"/>
</linearGradient>
<linearGradient id="paint31_linear" x1="19.9208" y1="272.159" x2="14.9811" y2="354.479" gradientUnits="userSpaceOnUse">
<stop stop-color="#7FD3C5"/>
<stop offset="0.23" stop-color="#4BBE7F"/>
<stop offset="1" stop-color="#2F817B"/>
</linearGradient>
<linearGradient id="paint32_linear" x1="155.988" y1="405.399" x2="155.428" y2="460.127" gradientUnits="userSpaceOnUse">
<stop stop-color="#7FD3C5"/>
<stop offset="0.23" stop-color="#4BBE7F"/>
<stop offset="1" stop-color="#2F817B"/>
</linearGradient>
<linearGradient id="paint33_linear" x1="241.081" y1="432.505" x2="240.823" y2="476.167" gradientUnits="userSpaceOnUse">
<stop stop-color="#7FD3C5"/>
<stop offset="0.23" stop-color="#4BBE7F"/>
<stop offset="1" stop-color="#2F817B"/>
</linearGradient>
</defs>
</svg>
