<svg width="448" height="521" viewBox="0 0 448 521" fill="none" xmlns="http://www.w3.org/2000/svg">
<path d="M355.679 520.086C337.263 520.086 318.825 516.02 304.737 507.886C286.285 497.233 279.869 482.244 285.499 468.597L231.861 499.767C227.301 502.417 221.312 503.743 215.315 503.743C209.319 503.743 203.315 502.417 198.725 499.768L7.58805 389.416C-1.59261 384.115 -1.64061 375.521 7.47979 370.22L31.6054 356.2C9.97605 339.869 11.9703 316.424 37.6641 301.492C51.6574 293.36 70.02 289.297 88.4107 289.297C103.789 289.297 119.191 292.14 132.059 297.823L197.375 259.865C201.935 257.216 207.924 255.891 213.92 255.891C219.917 255.891 225.921 257.216 230.512 259.865L421.648 370.219C430.829 375.52 430.877 384.112 421.756 389.413L338.251 437.94C343.817 437.16 349.513 436.769 355.213 436.769C373.611 436.769 392.032 440.836 406.12 448.969C434.296 465.237 434.477 491.619 406.484 507.886C392.487 516.02 374.093 520.086 355.679 520.086" fill="#E5EEF8"/>
<path d="M117.833 327.099C117.08 335.473 109.197 341.161 102.087 344.227C94.3413 347.564 85.8266 348.911 77.424 348.803C68.848 348.692 60.092 347.051 52.3586 343.247C45.6106 339.925 38.448 333.903 38.4706 325.711C38.4546 331.676 38.872 336.605 43.1706 341.263C48.7053 347.257 57.0373 350.487 64.8746 352.105C80.1666 355.261 100.987 353.737 112.603 341.965C117.276 337.229 117.915 332.237 117.932 325.937C117.916 326.325 117.883 326.713 117.833 327.099Z" fill="#B5CDED"/>
<path d="M106.195 309.54C121.76 318.528 121.861 333.1 106.396 342.087C90.9321 351.075 65.7548 351.075 50.1908 342.087C34.6241 333.1 34.5601 318.528 50.0254 309.54C65.4894 300.553 90.6308 300.553 106.195 309.54Z" fill="#E7EFFA"/>
<path d="M85.28 291.375L85.1813 326.105L79.1067 329.636L79.204 294.907L85.28 291.375" fill="#CDDAF2"/>
<path d="M79.2041 294.907L79.1067 329.636L72.9907 326.105L73.0881 291.375L79.2041 294.907Z" fill="#8BAADE"/>
<path d="M85.2801 291.375L79.2041 294.907L73.0881 291.375L79.1655 287.844L85.2801 291.375Z" fill="#5FA6DF"/>
<path d="M39.6881 178.768C39.6881 178.768 27.235 182.089 23.9141 189.56C20.5933 197.032 21.4236 253.485 38.8574 276.732C56.2921 299.976 88.6694 303.299 96.1414 299.976C103.612 296.656 146.783 275.072 150.104 264.279C153.424 253.485 136.821 245.184 127.689 241.033C118.556 236.883 112.745 231.071 107.764 216.127C102.783 201.184 100.292 175.447 94.4801 171.296C88.6694 167.145 74.5561 160.504 39.6881 178.768" fill="#5FAEE4"/>
<path d="M114.123 163.747C114.123 163.747 93.6935 146.835 89.5401 146.443C84.5561 146.053 78.3388 147.747 76.7161 154.812C75.0921 161.877 78.8575 167.253 82.6041 169.309C86.3508 171.365 119.225 186.965 125.037 186.935C130.848 186.904 134.557 181.904 130.789 175.697C127.021 169.491 114.123 163.747 114.123 163.747" fill="#E4EAF5"/>
<path d="M78.808 142.581C78.808 142.581 78.7667 142.841 78.8493 143.252C79.1533 144.768 80.1067 148.639 80.3293 150.264C80.5413 151.821 78.9 154.619 74.672 154.741C70.444 154.864 63.1907 153.451 60.5573 148.535C60.7067 147.631 59.9453 138.324 59.1213 133.707L78.808 142.581Z" fill="#E25736"/>
<path d="M87.8921 111.833C84.8374 99.0348 74.2415 92.2054 62.7988 95.4841C62.7988 95.4841 50.3121 97.3588 45.2801 108.657C40.2481 119.953 48.8935 128.817 54.4255 134.403C56.7548 136.693 58.5161 138.463 59.6295 139.591C60.0321 140.016 60.4295 140.449 60.8481 140.835L60.9668 140.956L60.9788 140.944C64.7361 144.348 68.9441 146.173 72.0254 146.928C77.1481 148.181 83.0761 147.028 86.1281 143.432C89.1801 139.836 90.9468 124.635 87.8921 111.833" fill="#F47147"/>
<path d="M61.5 143.585C61.5 143.585 41.388 159.507 39.5706 164.563C37.7533 169.619 37.992 183.431 42.7413 192.411C47.492 201.391 47.588 235.291 49.4613 241.829C51.3346 248.368 69.2786 249.576 80.2133 246.897C91.148 244.219 108.517 235.064 105.027 222.651C99.8706 204.319 101.096 185.852 101.511 180.019C101.925 174.185 100.445 159.659 97.272 150.028C96.604 147.996 89.4386 145.157 89.4386 145.157C89.4386 145.157 82.008 141.7 61.5 143.585" fill="#2746A2"/>
<path d="M65.1466 219.448C56.8453 208.932 69.0213 172.957 54.632 162.995C50.2426 159.956 46.4746 159.189 43.3533 159.583C41.424 161.607 39.996 163.383 39.5706 164.563C37.7533 169.619 37.992 183.431 42.7413 192.411C47.492 201.391 47.588 235.289 49.4613 241.829C51.1666 247.781 66.1746 249.305 77.104 247.512L92.82 231.071C92.82 231.071 73.4493 229.964 65.1466 219.448" fill="#273C80"/>
<path d="M60.8202 146.283C78.3055 144.676 86.3522 147.684 88.3508 148.608C88.6562 152.127 88.8015 156.775 88.0962 161.027C86.7268 169.291 83.4362 191.992 83.4362 191.992C83.4362 191.992 72.6482 173.341 65.5455 165.665C60.5468 160.263 55.6255 155.172 53.1428 152.624C57.3335 149.047 60.8202 146.283 60.8202 146.283" fill="#E4EAF5"/>
<path d="M78.808 142.581C78.808 142.581 78.7667 142.841 78.8493 143.252C79.1533 144.768 80.1067 148.639 80.3293 150.264C80.5413 151.821 78.9 154.619 74.672 154.741C70.444 154.864 63.1907 153.451 60.5573 148.535C60.7067 147.631 59.9453 138.324 59.1213 133.707L78.808 142.581Z" fill="#F47147"/>
<path d="M87.8921 111.833C84.8374 99.0348 74.2415 92.2054 62.7988 95.4841C62.7988 95.4841 50.3121 97.3588 45.2801 108.657C40.2481 119.953 48.8935 128.817 54.4255 134.403C56.7548 136.693 58.5161 138.463 59.6295 139.591C60.0321 140.016 60.4295 140.449 60.8481 140.835L60.9668 140.956L60.9788 140.944C64.7361 144.348 68.9441 146.173 72.0254 146.928C77.1481 148.181 83.0761 147.028 86.1281 143.432C89.1801 139.836 90.9468 124.635 87.8921 111.833" fill="#F78D65"/>
<path d="M85.8759 165.644L78.0826 158.741L71.8479 169.652L65.5613 165.683C72.6639 173.369 83.436 191.992 83.436 191.992C83.436 191.992 86.1813 173.055 87.6999 163.477L85.8759 165.644" fill="#D2DDE7"/>
<path d="M85.34 179.015L81.868 166.757L82.392 162.559L78.0827 158.741L75.0574 164.035L78.528 167.203L79.472 185.401C81.8374 189.231 83.436 191.992 83.436 191.992C83.436 191.992 84.308 185.977 85.34 179.015Z" fill="#599DDB"/>
<path d="M43.8388 107.371C43.8388 107.371 38.8575 116.503 45.0841 126.051C51.3108 135.599 57.9841 139.847 59.6295 139.591C61.2735 139.333 62.1028 138.919 61.6881 137.673C61.2735 136.428 59.1975 132.277 59.1975 132.277C59.1975 132.277 52.1402 131.447 52.1402 126.881C52.1402 122.315 54.6321 121.484 57.5375 122.729C60.4428 123.975 60.8588 126.051 62.5188 127.711C64.1788 129.372 64.5935 133.523 65.8388 133.108C67.0842 132.692 67.9148 131.447 67.9148 129.372C67.9148 127.296 67.9148 124.805 65.4242 122.315C62.9335 119.824 65.8388 115.673 63.3481 112.352C60.8588 109.032 59.1975 107.787 59.1975 107.787C59.1975 107.787 60.8588 110.277 69.1601 108.616C77.4615 106.956 81.1975 107.371 84.5188 105.296C87.8388 103.22 87.0095 98.6547 84.9335 96.9947C82.8588 95.3333 77.8775 94.5027 72.0655 92.428C66.2535 90.352 62.9335 91.5973 55.8775 93.2573C48.8201 94.9187 42.1788 102.389 43.8388 107.371" fill="#E25736"/>
<path d="M160.896 357.26C160.896 357.26 160.62 361.412 165.048 364.456C169.475 367.5 170.305 369.436 173.903 370.82C177.5 372.204 180.821 376.909 179.161 380.229C177.5 383.549 169.752 384.103 164.771 382.72C159.789 381.336 158.96 376.909 154.255 375.249C149.551 373.587 147.889 371.651 146.507 370.267C145.123 368.883 145.676 363.349 145.676 363.349L162.556 357.813" fill="#322441"/>
<path d="M182.481 341.209C182.481 341.209 182.205 345.362 186.633 348.406C191.06 351.45 191.891 353.387 195.488 354.769C199.085 356.153 202.407 360.859 200.747 364.179C199.085 367.5 191.337 368.053 186.356 366.669C181.375 365.285 180.544 360.859 175.84 359.197C171.136 357.537 169.475 355.6 168.092 354.216C166.708 352.833 167.261 347.299 167.261 347.299L184.141 341.763" fill="#322441"/>
<path d="M50.7573 242.001C50.7573 242.001 51.5867 245.323 51.5867 248.228C51.5867 251.133 49.512 259.436 53.6626 269.399C57.8133 279.361 85.6253 281.436 94.7573 285.587C103.889 289.739 109.285 293.473 110.947 294.719C112.607 295.965 114.959 313.536 122.155 324.052C129.349 334.569 141.525 355.6 144.292 364.456C144.292 364.456 152.167 366.313 159.236 361.689C162.937 359.267 162.556 357.813 162.556 357.813C162.556 357.813 148.167 326.267 144.847 312.983C141.525 299.7 137.651 284.203 131.563 280.329C125.475 276.455 106.104 262.617 101.676 259.851C97.248 257.084 85.3173 248.335 82.98 243.024C80.644 237.712 57.952 229.133 50.7573 242.001" fill="#939FC2"/>
<path d="M73.5867 228.304C73.5867 228.304 74.4173 231.624 74.4173 234.53C74.4173 237.436 72.3427 245.738 76.4933 255.7C80.644 265.663 108.456 267.737 117.588 271.888C126.72 276.039 132.116 279.776 133.777 281.021C135.437 282.265 137.789 299.839 144.984 310.355C152.18 320.869 164.356 341.903 167.123 350.758C167.123 350.758 174.997 352.615 182.067 347.99C185.768 345.57 185.388 344.116 185.388 344.116C185.388 344.116 170.997 312.568 167.676 299.285C164.356 286.001 160.481 270.506 154.393 266.631C148.305 262.756 128.935 248.92 124.507 246.152C120.079 243.385 108.147 234.636 105.811 229.326C103.475 224.014 80.7827 215.436 73.5867 228.304" fill="#939FC2"/>
<path d="M185.657 333.263L185.419 417.685L170.649 426.267L170.889 341.847L185.657 333.263" fill="#CDDAF2"/>
<path d="M170.889 341.847L170.649 426.267L155.784 417.685L156.023 333.263L170.889 341.847" fill="#8BAADE"/>
<path d="M185.657 333.263L170.889 341.847L156.023 333.263L170.792 324.681L185.657 333.263" fill="#5FA6DF"/>
<path d="M428.507 275.433C428.485 275.68 428.468 275.925 428.423 276.171C428.385 276.371 428.325 276.572 428.272 276.771C428.211 277.005 428.153 277.239 428.072 277.471C428.004 277.661 427.913 277.852 427.831 278.041C427.724 278.287 427.619 278.529 427.488 278.771C427.395 278.947 427.281 279.119 427.175 279.292C427.005 279.567 426.825 279.84 426.624 280.109C426.429 280.368 426.229 280.628 426.005 280.881L425.852 281.061C425.549 281.391 425.216 281.713 424.864 282.029C424.64 282.233 424.389 282.428 424.144 282.627C423.928 282.799 423.721 282.973 423.489 283.141C423.224 283.336 422.931 283.52 422.644 283.705C422.352 283.897 422.073 284.093 421.756 284.277L231.861 394.632C230.299 395.54 228.568 396.293 226.727 396.889C225.305 397.351 223.817 397.719 222.291 397.993C221.308 398.171 220.309 398.309 219.303 398.411C218.441 398.496 217.573 398.553 216.704 398.584C215.905 398.611 215.104 398.615 214.304 398.595C213.532 398.576 212.761 398.533 211.996 398.472L211.957 412.007C212.723 412.069 213.495 412.111 214.265 412.129C215.065 412.149 215.867 412.145 216.665 412.119C217.535 412.088 218.403 412.031 219.264 411.945C220.272 411.845 221.271 411.705 222.252 411.528C223.779 411.253 225.267 410.885 226.689 410.424C228.529 409.828 230.26 409.076 231.824 408.167L421.717 297.812L422.004 297.643C422.217 297.515 422.4 297.375 422.603 297.244C422.891 297.056 423.185 296.871 423.452 296.677C423.683 296.509 423.889 296.335 424.104 296.161C424.351 295.964 424.601 295.768 424.827 295.565L424.972 295.445C425.272 295.168 425.549 294.884 425.812 294.596L425.969 294.416C426.124 294.239 426.283 294.063 426.424 293.883L426.585 293.644C426.788 293.375 426.967 293.101 427.137 292.827L427.367 292.483L427.451 292.305C427.581 292.065 427.687 291.821 427.792 291.577C427.855 291.435 427.937 291.295 427.992 291.151L428.033 291.005C428.116 290.772 428.173 290.539 428.235 290.305C428.276 290.147 428.339 289.991 428.369 289.832L428.384 289.705C428.429 289.461 428.447 289.215 428.469 288.968C428.483 288.807 428.52 288.648 428.524 288.488L428.528 288.283L428.565 274.748C428.565 274.976 428.528 275.205 428.507 275.433" fill="#B5CDED"/>
<path d="M209.719 398.216C208.935 398.105 208.159 397.972 207.395 397.812C206.565 397.64 205.749 397.441 204.951 397.213C203.973 396.935 203.023 396.615 202.105 396.252C200.916 395.783 199.783 395.243 198.725 394.632L7.58804 284.279C2.96884 281.612 0.661511 278.111 0.671378 274.615L0.632844 288.149C0.622977 291.645 2.93031 295.147 7.55005 297.813L198.687 408.167C199.744 408.777 200.877 409.317 202.067 409.788C202.984 410.149 203.935 410.471 204.912 410.749C205.711 410.975 206.528 411.176 207.357 411.348C208.12 411.505 208.896 411.64 209.68 411.751C210.433 411.859 211.193 411.943 211.957 412.007L211.996 398.472C211.231 398.408 210.471 398.323 209.719 398.216" fill="#B5CDED"/>
<path d="M421.648 265.619C430.829 270.919 430.877 279.513 421.756 284.813L231.861 395.168C222.741 400.469 207.905 400.469 198.725 395.168L7.5881 284.815C-1.59203 279.515 -1.64056 270.921 7.47984 265.621L197.375 155.267C206.496 149.967 221.331 149.967 230.512 155.267L421.648 265.619Z" fill="#E7EFFA"/>
<path d="M216.219 305.588L268.544 335.997L305.351 314.748L253.027 284.339L216.219 305.588" fill="white"/>
<path d="M260.692 298.023L252.459 302.805L242.033 299.735C244.944 296.405 251.971 295.081 257.728 296.777C258.879 297.117 259.776 297.493 260.692 298.023Z" fill="#F03963"/>
<path d="M262.579 298.643C268.111 301.839 268.139 307.019 262.641 310.212C257.145 313.407 248.204 313.408 242.672 310.212C238.245 307.656 237.205 303.935 240.021 300.715L252.624 304.428L262.579 298.643" fill="#A386CA"/>
<path d="M255.009 321.38C254.549 321.645 254.547 322.068 255.003 322.332C255.459 322.596 256.188 322.596 256.645 322.332L280.004 308.847C280.463 308.581 280.465 308.16 280.009 307.895C279.553 307.631 278.825 307.631 278.367 307.895L255.009 321.38Z" fill="#B5CDED"/>
<path d="M271.145 315.183C270.696 315.441 270.695 315.873 271.14 316.133C271.596 316.399 272.341 316.399 272.792 316.139L282.704 310.416C283.163 310.151 283.156 309.724 282.7 309.46C282.253 309.199 281.517 309.195 281.059 309.46L271.145 315.183Z" fill="#D6DAE1"/>
<path d="M268.072 319.88C267.613 320.144 267.603 320.572 268.059 320.836C268.515 321.101 269.251 321.096 269.709 320.832L285.219 311.876C285.677 311.612 285.68 311.191 285.224 310.925C284.768 310.66 284.04 310.66 283.583 310.925L268.072 319.88" fill="#D6DAE1"/>
<path d="M277.825 348.899C279.099 349.635 279.103 350.823 277.841 351.556L240.492 373.243C239.227 373.976 237.177 373.976 235.904 373.243L209.835 358.191C208.564 357.457 208.555 356.268 209.82 355.533L247.169 333.848C248.431 333.115 250.485 333.115 251.756 333.848L277.825 348.899" fill="#F6FBFE"/>
<path d="M278.776 350.332L278.764 350.433L278.744 350.517L278.716 350.613L278.683 350.693L278.636 350.793L278.592 350.864L278.516 350.979L278.464 351.044L278.325 351.192L278.272 351.245L278.172 351.327L278.081 351.399L277.965 351.476L277.841 351.556L240.492 373.243C240.351 373.324 240.196 373.393 240.039 373.457L239.912 373.505L239.607 373.597L239.283 373.68C239.153 373.705 239.023 373.731 238.889 373.747L238.793 373.76C238.612 373.78 238.429 373.789 238.248 373.791H238.161C237.98 373.789 237.801 373.78 237.623 373.76L237.543 373.751C237.365 373.731 237.192 373.7 237.023 373.663L236.928 373.639C236.773 373.601 236.624 373.555 236.477 373.503L236.4 373.475C236.225 373.409 236.059 373.331 235.904 373.243L209.835 358.191C209.355 357.915 209.055 357.572 208.936 357.213C208.896 357.095 208.876 356.973 208.876 356.853L208.867 358.349L208.883 358.529C208.951 358.952 209.265 359.363 209.825 359.687L235.895 374.739C236.041 374.823 236.199 374.897 236.364 374.963L236.391 374.972L236.469 374.999L236.759 375.096L236.919 375.136L237.013 375.159L237.097 375.18L237.417 375.236L237.533 375.248L237.613 375.256L237.733 375.269L238.052 375.288L238.152 375.287H238.239L238.383 375.285C238.504 375.281 238.624 375.273 238.743 375.261L238.784 375.256L238.88 375.243L239.155 375.204L239.273 375.175L239.599 375.093L239.769 375.052L239.903 375.001L240.029 374.953C240.189 374.889 240.341 374.82 240.483 374.739L277.832 353.052L277.872 353.028L277.956 352.972L278.072 352.895L278.163 352.823L278.263 352.741L278.283 352.724L278.316 352.688L278.455 352.54L278.484 352.508L278.507 352.475L278.584 352.361L278.615 352.313L278.627 352.289L278.673 352.189L278.701 352.129L278.707 352.109L278.735 352.013L278.753 351.947L278.755 351.929L278.767 351.827L278.775 351.76L278.776 351.732L278.784 350.237L278.776 350.332" fill="url(#paint0_linear)"/>
<path d="M273.975 349.372C274.383 349.607 274.385 349.989 273.977 350.227L238.528 370.828C238.121 371.064 237.46 371.064 237.053 370.829L213.569 357.271C213.16 357.035 213.159 356.651 213.564 356.416L249.015 335.813C249.421 335.579 250.084 335.579 250.492 335.813L273.975 349.372Z" fill="url(#paint1_linear)"/>
<path d="M99.9919 225.889L152.316 256.299L189.123 235.048L136.799 204.64L99.9919 225.889Z" fill="white"/>
<path d="M144.464 218.323L136.231 223.107L125.805 220.035C128.716 216.707 135.743 215.383 141.5 217.079C142.652 217.417 143.548 217.795 144.464 218.323Z" fill="#A386CA"/>
<path d="M146.351 218.944C151.884 222.139 151.912 227.319 146.415 230.513C140.917 233.708 131.976 233.708 126.444 230.513C122.017 227.957 120.977 224.236 123.793 221.016L136.396 224.729L146.351 218.944Z" fill="#60CCF5"/>
<path d="M138.781 241.681C138.323 241.947 138.32 242.368 138.776 242.633C139.231 242.897 139.96 242.897 140.417 242.633L163.776 229.147C164.235 228.883 164.237 228.461 163.781 228.196C163.325 227.931 162.597 227.931 162.139 228.196L138.781 241.681" fill="#B5CDED"/>
<path d="M154.919 235.483C154.469 235.743 154.467 236.175 154.913 236.435C155.369 236.699 156.113 236.699 156.564 236.44L166.476 230.717C166.936 230.452 166.929 230.025 166.473 229.76C166.027 229.5 165.289 229.496 164.831 229.76L154.919 235.483" fill="#D6DAE1"/>
<path d="M151.844 240.181C151.387 240.445 151.375 240.872 151.831 241.137C152.287 241.403 153.023 241.397 153.481 241.133L168.992 232.177C169.449 231.913 169.452 231.492 168.997 231.227C168.541 230.961 167.813 230.961 167.355 231.227L151.844 240.181" fill="#60CCF5"/>
<path d="M184.141 319.617L184.133 322.76L176.884 326.973L176.892 323.831L184.141 319.617Z" fill="#503B9D"/>
<path d="M176.892 323.831L176.884 326.973L115.239 291.384L115.248 288.241L176.892 323.831Z" fill="#3F2C8C"/>
<path d="M184.141 319.617L176.892 323.831L115.248 288.241L122.499 284.028L184.141 319.617" fill="#6D66B9"/>
<path d="M156.744 320.223L156.735 323.365L149.489 327.577L149.499 324.433L156.744 320.223Z" fill="#527BC7"/>
<path d="M149.499 324.433L149.489 327.577L101.067 299.62L101.076 296.476L149.499 324.433Z" fill="#474FAA"/>
<path d="M156.744 320.223L149.499 324.433L101.076 296.476L108.321 292.265L156.744 320.223Z" fill="#73ABE1"/>
<path d="M116.303 313.299L116.293 316.441L109.048 320.651L109.057 317.508L116.303 313.299Z" fill="#ED1669"/>
<path d="M109.057 317.508L109.048 320.651L86.8894 307.859L86.8987 304.715L109.057 317.508Z" fill="#EE208E"/>
<path d="M116.303 313.299L109.057 317.508L86.8987 304.715L94.144 300.505L116.303 313.299Z" fill="#EE1F9A"/>
<path d="M67.3973 295.935C66.6746 296.353 66.6706 297.017 67.3893 297.435C68.1066 297.852 69.2546 297.852 69.9773 297.435L106.795 276.179C107.519 275.76 107.523 275.096 106.804 274.679C106.085 274.26 104.939 274.26 104.215 274.679L67.3973 295.935Z" fill="#B5CDED"/>
<path d="M92.8333 286.165C92.124 286.575 92.12 287.255 92.8253 287.664C93.544 288.083 94.7187 288.083 95.428 287.672L111.052 278.651C111.775 278.235 111.765 277.561 111.047 277.144C110.341 276.735 109.181 276.727 108.457 277.144L92.8333 286.165" fill="#B5CDED"/>
<path d="M87.988 293.571C87.2654 293.987 87.248 294.66 87.9667 295.077C88.6854 295.495 89.8454 295.487 90.568 295.069L115.016 280.955C115.739 280.537 115.743 279.872 115.024 279.456C114.305 279.037 113.159 279.037 112.435 279.456L87.988 293.571" fill="#B5CDED"/>
<path d="M85.7786 259.516L79.9279 262.916C74.6173 260.017 66.2733 260.067 61.1053 263.069L60.7959 263.26L54.9053 259.859L55.2199 259.671C63.6159 254.791 77.2173 254.74 85.7786 259.516" fill="#90CFF2"/>
<path d="M86.6814 260.048C93.6321 264.4 94.3507 270.884 88.8187 275.656L82.7481 272.151C85.1827 269.361 84.5401 265.899 80.8228 263.452L86.6814 260.048Z" fill="#90CFF2"/>
<path d="M88.0602 276.269C87.4828 276.708 86.8495 277.132 86.1575 277.532C77.8815 282.343 64.5535 282.463 55.9722 277.893L61.8295 274.489C67.1508 277.184 75.2268 277.067 80.2722 274.136C80.9722 273.728 81.5748 273.287 82.0868 272.82L88.0602 276.269" fill="#67A5DE"/>
<path d="M59.9627 263.828C55.9654 266.839 56.2827 271.153 60.9014 273.973L55.0507 277.373C47.1841 272.672 46.8387 265.317 54.0441 260.411L59.9627 263.828" fill="#67A5DE"/>
<path d="M201.685 102.388C204.373 103.939 206.553 107.715 206.544 110.804L206.492 157.859C206.483 160.947 204.288 162.197 201.601 160.645L188.479 153.069L187.84 153.959L185.28 157.563L182.74 151.015L182.109 149.392L168.988 141.816C166.3 140.264 164.128 136.493 164.137 133.405L164.189 86.3506C164.199 83.2613 166.384 82.0066 169.072 83.5586L201.685 102.388" fill="#73ABE1"/>
<path d="M178.936 102.892L178.932 104.217C178.929 104.997 178.084 105.483 177.409 105.091L171.164 101.468C170.849 101.285 170.657 100.949 170.659 100.588L170.663 99.2641C170.664 98.4828 171.509 97.9974 172.185 98.3894L178.431 102.013C178.744 102.195 178.937 102.529 178.936 102.892" fill="white"/>
<path d="M198.693 120.881L198.689 122.208C198.688 122.988 197.843 123.473 197.168 123.084L171.147 108.06C170.832 107.879 170.639 107.541 170.639 107.179L170.643 105.852C170.645 105.072 171.489 104.587 172.165 104.976L198.187 120C198.5 120.181 198.695 120.517 198.693 120.881" fill="#B5CDED"/>
<path d="M177.359 120.361L177.355 121.88L173.831 133.912L172.321 133.04L175.831 121.033L171.229 118.377L171.233 116.827L177.359 120.361" fill="white"/>
<path d="M184.515 124.493L184.509 126.044L180.532 123.749L180.301 128.409C180.74 127.809 181.408 127.761 182.323 128.289C184.064 129.296 184.829 131.208 184.824 133.425L184.815 136.461C184.808 138.847 183.816 139.828 181.756 138.637C179.68 137.439 178.712 135.327 178.719 132.941L178.721 131.908L180.144 132.728L180.14 133.88C180.137 135.28 180.628 136.416 181.716 137.044C182.791 137.665 183.301 137.108 183.305 135.707L183.313 132.688C183.317 131.287 182.812 130.143 181.737 129.523C180.911 129.045 180.343 129.252 180.209 130.311L180.208 130.661L178.785 129.839L179.188 121.417L184.515 124.493" fill="white"/>
<path d="M195.74 144.205L195.755 139.152C195.756 138.301 195.468 137.584 194.8 137.197C194.119 136.804 193.827 137.187 193.824 138.037L193.809 143.091C193.807 143.925 194.096 144.676 194.777 145.071C195.445 145.456 195.737 145.039 195.74 144.205V144.205ZM194.804 136.18C196.139 136.952 196.731 138.296 196.727 139.78L196.713 144.667C196.708 146.185 196.111 146.841 194.776 146.071C193.455 145.308 192.833 143.947 192.837 142.429L192.852 137.543C192.856 136.059 193.483 135.417 194.804 136.18" fill="white"/>
<path d="M189.109 134.58L189.123 129.509C189.125 128.676 188.837 127.924 188.155 127.531C187.457 127.129 187.195 127.561 187.193 128.395L187.179 133.465C187.176 134.316 187.436 135.017 188.132 135.42C188.815 135.813 189.107 135.431 189.109 134.58V134.58ZM190.081 135.057C190.077 136.559 189.451 137.2 188.129 136.437C186.823 135.683 186.201 134.321 186.207 132.821L186.22 127.9C186.224 126.416 186.852 125.759 188.157 126.513C189.479 127.276 190.1 128.653 190.096 130.139L190.081 135.057Z" fill="white"/>
<path d="M193.659 129.773L194.557 130.292L189.188 142.777L188.273 142.251L193.659 129.773" fill="white"/>
<path d="M261.165 199.955C276.731 208.941 276.831 223.515 261.365 232.501C245.903 241.488 220.725 241.488 205.16 232.501C189.595 223.515 189.531 208.941 204.995 199.955C220.459 190.968 245.6 190.968 261.165 199.955Z" fill="#B5CDED"/>
<path d="M261.531 190.328L261.516 196.05L251.623 201.799L251.639 196.076L261.531 190.328" fill="#CC106B"/>
<path d="M221.743 200.111L221.944 200.028C222.497 199.817 223.065 199.628 223.64 199.447C224.039 199.321 224.447 199.211 224.855 199.1C225.165 199.016 225.472 198.925 225.787 198.849C226.216 198.745 226.653 198.659 227.089 198.571C227.409 198.505 227.724 198.433 228.047 198.376C228.179 198.353 228.312 198.335 228.444 198.313C228.987 198.224 229.533 198.147 230.084 198.081C230.243 198.061 230.401 198.041 230.56 198.024C231.197 197.956 231.837 197.901 232.48 197.864L232.836 197.845C233.267 197.824 233.7 197.817 234.133 197.809C234.565 197.803 234.996 197.799 235.428 197.804C235.789 197.808 236.149 197.82 236.511 197.833C236.912 197.849 237.309 197.871 237.708 197.897C238.075 197.923 238.437 197.953 238.801 197.989C239.195 198.028 239.588 198.071 239.98 198.121C240.335 198.167 240.688 198.216 241.037 198.271C241.459 198.336 241.875 198.409 242.291 198.488C242.725 198.571 243.161 198.653 243.589 198.751L243.897 198.821C244.5 198.964 245.092 199.125 245.677 199.299C245.845 199.348 246.011 199.401 246.176 199.453C246.661 199.607 247.14 199.769 247.612 199.944C247.749 199.995 247.888 200.041 248.024 200.095C248.452 200.26 248.863 200.444 249.276 200.627C249.479 200.717 249.691 200.799 249.889 200.893C250.484 201.176 251.065 201.476 251.623 201.799L251.639 195.125C251.081 194.803 250.501 194.503 249.905 194.22C249.707 194.125 249.499 194.044 249.297 193.955C248.943 193.797 248.595 193.635 248.229 193.491L248.039 193.42C247.904 193.368 247.765 193.321 247.629 193.271C247.157 193.096 246.679 192.933 246.192 192.78C246.027 192.728 245.861 192.675 245.695 192.625L245.36 192.521C244.884 192.387 244.401 192.263 243.915 192.147L243.605 192.077C243.368 192.024 243.135 191.967 242.895 191.917C242.701 191.877 242.501 191.852 242.305 191.815C241.891 191.736 241.475 191.663 241.053 191.597C240.885 191.571 240.721 191.533 240.552 191.509C240.368 191.484 240.181 191.471 239.997 191.448C239.604 191.397 239.212 191.355 238.816 191.316C238.629 191.297 238.443 191.268 238.253 191.252C238.079 191.239 237.901 191.237 237.725 191.224C237.327 191.197 236.927 191.176 236.528 191.161C236.327 191.152 236.127 191.133 235.925 191.128C235.765 191.124 235.605 191.133 235.445 191.131C235.012 191.125 234.581 191.128 234.148 191.137C233.935 191.14 233.72 191.132 233.505 191.139C233.288 191.147 233.071 191.161 232.853 191.172L232.496 191.191C231.957 191.223 231.419 191.261 230.884 191.315L230.577 191.351C230.417 191.368 230.259 191.389 230.099 191.408C229.549 191.473 229.004 191.551 228.463 191.639C228.329 191.661 228.195 191.68 228.061 191.703L227.869 191.735C227.612 191.78 227.364 191.845 227.109 191.896C226.671 191.985 226.232 192.072 225.803 192.176C225.488 192.252 225.184 192.341 224.875 192.425C224.465 192.537 224.056 192.648 223.656 192.773L223.396 192.848C222.909 193.005 222.431 193.176 221.96 193.355L221.757 193.437C221.243 193.639 220.739 193.856 220.247 194.084C220.1 194.151 219.955 194.219 219.812 194.288C219.265 194.552 218.729 194.828 218.217 195.125L217.929 195.296L217.669 195.459C217.525 195.549 217.381 195.639 217.241 195.731C217.112 195.815 216.989 195.9 216.864 195.985C216.729 196.079 216.595 196.172 216.464 196.268L216.113 196.529C215.988 196.627 215.864 196.723 215.743 196.82L215.417 197.091L215.077 197.389L214.937 197.511L214.819 197.628C214.633 197.804 214.455 197.981 214.284 198.161L214.111 198.341C213.893 198.577 213.688 198.815 213.497 199.056L213.471 199.087L213.348 199.255C213.233 199.407 213.12 199.559 213.015 199.712L212.849 199.967C212.759 200.105 212.672 200.245 212.591 200.385L212.52 200.499L212.431 200.671L212.248 201.027L212.109 201.324C212.056 201.444 212.005 201.563 211.957 201.683L211.891 201.843L211.843 201.988L211.729 202.331L211.639 202.641L211.555 202.987L211.508 203.173L211.489 203.3L211.433 203.653L211.393 203.964L211.368 204.321L211.353 204.529L211.351 205.688L211.333 211.411C211.335 211.272 211.344 211.133 211.352 210.995L211.377 210.637L211.417 210.327L211.472 209.973L211.537 209.66L211.621 209.315L211.713 209.003L211.827 208.661L211.943 208.356L212.092 207.997L212.232 207.699L212.415 207.344L212.575 207.057C212.656 206.917 212.744 206.779 212.833 206.639L212.999 206.387C213.104 206.232 213.217 206.081 213.332 205.929L213.481 205.729C213.672 205.489 213.877 205.251 214.093 205.015L214.267 204.835C214.439 204.655 214.616 204.477 214.803 204.303L215.06 204.061L215.4 203.765L215.727 203.493C215.848 203.396 215.972 203.3 216.097 203.204L216.448 202.941C216.579 202.847 216.712 202.752 216.848 202.66C216.972 202.575 217.096 202.488 217.225 202.404C217.365 202.312 217.509 202.223 217.655 202.133C217.835 202.02 218.013 201.908 218.201 201.799C218.713 201.5 219.251 201.225 219.796 200.961C219.939 200.891 220.084 200.824 220.228 200.757C220.723 200.529 221.225 200.312 221.743 200.111" fill="#CC106B"/>
<path d="M218.327 215.436L218.309 221.157L208.417 226.907L208.433 221.184L218.327 215.436" fill="#CC106B"/>
<path d="M208.433 221.184L208.417 226.907C200.989 222.617 197.28 216.989 197.296 211.371L197.312 205.649C197.297 211.268 201.005 216.896 208.433 221.184" fill="#CC106B"/>
<path d="M261.531 190.328L251.639 196.076C242.38 190.731 227.416 190.731 218.217 196.077C209.019 201.421 209.068 210.089 218.327 215.436L208.433 221.184C193.671 212.661 193.599 198.848 208.26 190.328C222.921 181.807 246.769 181.805 261.531 190.328" fill="#F03963"/>
<path d="M251.639 197.828L251.623 201.799C256.279 204.487 258.604 208.016 258.593 211.542L258.611 205.82C258.621 202.295 256.295 200.516 251.639 197.828" fill="#4772C1"/>
<path d="M261.407 223.099L261.391 227.069L251.432 221.32L251.449 217.349L261.407 223.099Z" fill="#4772C1"/>
<path d="M272.62 206.523C272.609 206.712 272.597 206.903 272.579 207.092C272.563 207.256 272.539 207.421 272.517 207.585C272.489 207.775 272.463 207.963 272.427 208.151C272.397 208.317 272.361 208.483 272.324 208.648C272.283 208.832 272.239 209.016 272.191 209.199C272.144 209.364 272.095 209.531 272.044 209.696C271.988 209.877 271.928 210.06 271.863 210.241C271.805 210.404 271.744 210.565 271.68 210.728C271.604 210.919 271.524 211.109 271.439 211.299C271.368 211.457 271.295 211.616 271.217 211.775C271.125 211.964 271.027 212.152 270.925 212.34C270.843 212.492 270.759 212.644 270.671 212.796C270.54 213.02 270.401 213.243 270.257 213.465C270.171 213.599 270.087 213.735 269.996 213.868C269.828 214.112 269.647 214.356 269.463 214.597L269.227 214.913C268.921 215.299 268.593 215.677 268.249 216.053L267.972 216.341C267.699 216.627 267.416 216.911 267.119 217.191C266.984 217.317 266.848 217.445 266.708 217.572C266.531 217.732 266.349 217.889 266.164 218.047C265.993 218.192 265.821 218.336 265.645 218.479C265.453 218.635 265.255 218.788 265.055 218.941C264.871 219.081 264.687 219.223 264.495 219.361C264.288 219.512 264.073 219.66 263.859 219.808C263.66 219.945 263.463 220.081 263.257 220.215C263.033 220.361 262.805 220.505 262.573 220.648C262.285 220.828 262.001 221.007 261.7 221.181L261.407 221.347L261.391 227.069L261.685 226.904C261.84 226.813 261.992 226.723 262.144 226.632C262.285 226.547 262.417 226.457 262.555 226.371C262.787 226.227 263.019 226.083 263.243 225.936C263.445 225.803 263.643 225.667 263.84 225.531C264.056 225.383 264.271 225.233 264.479 225.083C264.671 224.944 264.855 224.804 265.037 224.663C265.239 224.509 265.436 224.356 265.629 224.2C265.805 224.057 265.977 223.913 266.148 223.769C266.332 223.611 266.515 223.453 266.692 223.293L266.916 223.099L267.103 222.912C267.4 222.632 267.684 222.349 267.956 222.063L268.233 221.776C268.579 221.4 268.905 221.02 269.209 220.636L269.251 220.587L269.447 220.319C269.631 220.077 269.811 219.835 269.979 219.589C270.071 219.456 270.155 219.32 270.243 219.185C270.385 218.964 270.525 218.743 270.655 218.519L270.768 218.335L270.909 218.061C271.011 217.873 271.108 217.687 271.2 217.497C271.277 217.339 271.352 217.179 271.423 217.02C271.508 216.831 271.587 216.64 271.663 216.449L271.771 216.195L271.848 215.963C271.912 215.781 271.972 215.6 272.028 215.417C272.08 215.252 272.129 215.087 272.173 214.92C272.223 214.737 272.265 214.555 272.307 214.371L272.38 214.073L272.412 213.872C272.445 213.685 272.473 213.497 272.5 213.308C272.524 213.143 272.545 212.979 272.563 212.813C272.581 212.624 272.592 212.435 272.603 212.245L272.627 211.912L272.632 211.581L272.648 205.86C272.647 206.081 272.632 206.301 272.62 206.523" fill="#4772C1"/>
<path d="M261.531 192.079C276.289 200.599 276.361 214.413 261.7 222.933L261.407 223.099L251.449 217.349L251.744 217.184C260.941 211.839 260.893 203.171 251.639 197.828L261.531 192.079" fill="#73ABE1"/>
<path d="M255.812 229.679C256.225 229.521 256.632 229.357 257.033 229.188C257.276 229.087 257.517 228.987 257.755 228.883C258.183 228.695 258.601 228.499 259.017 228.299C259.216 228.203 259.417 228.111 259.613 228.013C260.217 227.711 260.812 227.397 261.391 227.069L261.407 225.793C260.829 226.121 260.235 226.435 259.631 226.737C259.433 226.835 259.231 226.927 259.031 227.023C258.616 227.223 258.197 227.419 257.771 227.607C257.533 227.711 257.292 227.811 257.051 227.912C256.647 228.08 256.241 228.245 255.829 228.403C255.577 228.5 255.324 228.595 255.069 228.688C254.647 228.841 254.22 228.988 253.791 229.131C253.521 229.221 253.252 229.312 252.979 229.399C252.772 229.463 252.565 229.524 252.357 229.587C251.979 229.7 251.597 229.809 251.213 229.915C251 229.973 250.787 230.032 250.572 230.088C250.167 230.195 249.757 230.293 249.348 230.391C249.157 230.436 248.971 230.483 248.78 230.527C248.181 230.661 247.564 230.789 246.956 230.905V232.181C247.564 232.065 248.167 231.937 248.764 231.801C248.955 231.759 249.14 231.712 249.329 231.667C249.741 231.571 250.149 231.471 250.556 231.364C250.771 231.308 250.984 231.249 251.197 231.191C251.581 231.085 251.963 230.976 252.34 230.863C252.548 230.801 252.756 230.739 252.964 230.673L253.284 230.577C253.451 230.524 253.609 230.461 253.775 230.407C254.204 230.264 254.631 230.117 255.052 229.964C255.307 229.871 255.561 229.776 255.812 229.679" fill="#DF9918"/>
<path d="M261.407 225.793C257.191 228.192 252.241 229.893 246.972 230.905L242.367 223.213C245.679 222.592 248.796 221.533 251.449 220.044L261.407 225.793" fill="#FAB727"/>
<path d="M245.348 230.076C244.971 230.137 244.593 230.201 244.213 230.256C243.772 230.32 243.327 230.372 242.881 230.427C242.503 230.473 242.125 230.523 241.744 230.563C241.039 230.636 240.333 230.697 239.624 230.748L239.433 230.763C238.648 230.816 237.861 230.851 237.073 230.875C236.872 230.881 236.672 230.883 236.472 230.887C235.891 230.899 235.308 230.904 234.727 230.901C234.485 230.899 234.245 230.897 234.004 230.893C233.361 230.883 232.719 230.863 232.077 230.833C231.955 230.828 231.832 230.825 231.709 230.819C230.952 230.78 230.196 230.725 229.444 230.66C229.245 230.643 229.048 230.621 228.849 230.603C228.265 230.545 227.684 230.481 227.105 230.409C226.896 230.383 226.685 230.357 226.476 230.329C225.725 230.228 224.979 230.116 224.237 229.988L224.223 229.985C223.487 229.859 222.759 229.712 222.035 229.557C221.777 229.503 221.521 229.443 221.265 229.384C220.769 229.272 220.276 229.153 219.787 229.028C219.519 228.959 219.251 228.888 218.985 228.816C218.563 228.7 218.144 228.576 217.727 228.449C217.344 228.335 216.961 228.219 216.584 228.095C216.199 227.969 215.817 227.836 215.439 227.703C215.067 227.571 214.696 227.439 214.331 227.299C213.775 227.085 213.223 226.868 212.683 226.637L212.52 226.571C211.888 226.296 211.271 226.005 210.663 225.705C210.516 225.633 210.369 225.56 210.224 225.485C209.615 225.176 209.015 224.859 208.433 224.524L208.417 226.907C208.999 227.243 209.599 227.559 210.208 227.868C210.353 227.943 210.5 228.016 210.647 228.088C211.255 228.389 211.872 228.679 212.504 228.953L212.665 229.02C213.064 229.191 213.467 229.36 213.875 229.52C214.019 229.577 214.168 229.625 214.313 229.68C214.68 229.821 215.052 229.953 215.425 230.085C215.804 230.22 216.181 230.352 216.565 230.477C216.944 230.601 217.328 230.719 217.713 230.833C217.947 230.904 218.175 230.983 218.411 231.051C218.593 231.103 218.783 231.147 218.968 231.197C219.235 231.271 219.503 231.341 219.772 231.411C220.26 231.536 220.752 231.655 221.248 231.767C221.504 231.825 221.76 231.887 222.019 231.941L222.355 232.017C222.968 232.143 223.584 232.26 224.205 232.368L224.228 232.372C224.84 232.479 225.455 232.576 226.073 232.663C226.201 232.681 226.332 232.695 226.46 232.712C226.669 232.74 226.88 232.765 227.089 232.792C227.668 232.864 228.249 232.928 228.833 232.984C229.031 233.004 229.228 233.025 229.428 233.043L229.733 233.072C230.385 233.125 231.037 233.168 231.692 233.201C231.816 233.208 231.941 233.211 232.065 233.217C232.523 233.237 232.98 233.259 233.44 233.271C233.623 233.276 233.805 233.273 233.987 233.276C234.229 233.28 234.471 233.281 234.711 233.284C235.293 233.287 235.873 233.281 236.456 233.269C236.656 233.265 236.857 233.264 237.057 233.257L237.3 233.253C238.007 233.229 238.712 233.193 239.417 233.145L239.608 233.131C240.232 233.087 240.856 233.037 241.475 232.975L241.727 232.945C242.108 232.905 242.487 232.856 242.865 232.809C243.311 232.755 243.756 232.703 244.197 232.639C244.579 232.584 244.955 232.52 245.332 232.459C245.657 232.405 245.985 232.361 246.308 232.303C246.525 232.263 246.741 232.223 246.956 232.181L246.972 229.799C246.435 229.901 245.891 229.987 245.348 230.076" fill="#6D66B9"/>
<path d="M242.367 222.1L246.972 229.792C233.893 232.305 218.884 230.551 208.433 224.517L218.327 218.768C224.847 222.532 234.197 223.64 242.367 222.1Z" fill="#A386CA"/>
<path d="M263.656 1.87077L263.357 1.70281C263.228 1.63347 263.099 1.56547 262.971 1.50281C262.843 1.44014 262.715 1.38013 262.588 1.32279C262.463 1.26679 262.336 1.2135 262.211 1.16283C262.084 1.11217 261.957 1.06415 261.831 1.01882L261.757 0.996165L261.731 0.98679L261.453 0.896165C261.323 0.857498 261.193 0.821459 261.065 0.789459C260.935 0.756126 260.805 0.728139 260.679 0.702806C260.539 0.676139 260.403 0.653472 260.265 0.636139L259.989 0.606777L259.948 0.602806L259.848 0.592129C259.697 0.581462 259.551 0.576147 259.405 0.57748C259.24 0.578814 259.077 0.585439 258.917 0.601439C258.732 0.617439 258.551 0.64415 258.375 0.68015L258.361 0.682819L258.345 0.688157C258.129 0.732157 257.919 0.789496 257.716 0.860163C257.451 0.954829 257.196 1.07215 256.956 1.21348L250.711 4.84148C251.136 4.59481 251.601 4.42015 252.1 4.31615L252.119 4.31081C252.615 4.21081 253.145 4.1828 253.704 4.2308L253.748 4.23477C254.303 4.28677 254.884 4.41078 255.487 4.61478L255.515 4.62416C256.128 4.83349 256.763 5.12417 257.413 5.49883L431.812 106.189L438.056 102.56L263.656 1.87077" fill="url(#paint2_linear)"/>
<path d="M447.437 118.393C447.432 118.241 447.425 118.089 447.416 117.937C447.407 117.784 447.395 117.632 447.379 117.479C447.364 117.325 447.348 117.171 447.328 117.017C447.308 116.86 447.287 116.701 447.26 116.544L447.257 116.531L447.256 116.52C447.233 116.369 447.207 116.219 447.179 116.067C447.147 115.904 447.115 115.74 447.079 115.576C447.043 115.412 447.004 115.248 446.964 115.083C446.921 114.916 446.879 114.749 446.832 114.583C446.797 114.453 446.757 114.324 446.719 114.195L446.709 114.165L446.688 114.084C446.637 113.923 446.584 113.76 446.531 113.597C446.476 113.439 446.421 113.277 446.363 113.117C446.308 112.964 446.251 112.811 446.191 112.659C446.132 112.505 446.071 112.353 446.007 112.2L445.857 111.851L445.848 111.829L445.813 111.751C445.747 111.597 445.677 111.445 445.605 111.295C445.528 111.128 445.449 110.964 445.367 110.8C445.272 110.611 445.176 110.423 445.076 110.236C444.969 110.035 444.855 109.837 444.741 109.639L444.683 109.535L444.612 109.409C444.389 109.032 444.156 108.661 443.915 108.297C443.721 108.009 443.523 107.725 443.317 107.448C443.181 107.263 443.041 107.08 442.9 106.899C442.78 106.748 442.659 106.597 442.536 106.451C442.417 106.307 442.296 106.165 442.172 106.025C442.052 105.888 441.929 105.752 441.805 105.619L441.732 105.541L441.705 105.513L441.421 105.216C441.291 105.083 441.159 104.952 441.025 104.824C440.888 104.693 440.751 104.564 440.611 104.439C440.472 104.313 440.333 104.192 440.192 104.073L439.979 103.899L439.931 103.86L439.772 103.731C439.636 103.623 439.497 103.517 439.36 103.415C439.223 103.315 439.085 103.219 438.949 103.124C438.816 103.032 438.683 102.944 438.548 102.859C438.417 102.775 438.283 102.693 438.149 102.615L438.056 102.56L431.812 106.189C432.456 106.56 433.083 106.999 433.689 107.489L433.735 107.527C434.333 108.016 434.912 108.556 435.463 109.141L435.488 109.169C436.599 110.353 437.597 111.713 438.439 113.163L438.497 113.268C438.905 113.979 439.277 114.711 439.603 115.456L439.615 115.483C439.947 116.244 440.233 117.017 440.467 117.793L440.475 117.824C440.709 118.601 440.891 119.38 441.013 120.149L441.015 120.159C441.139 120.935 441.201 121.7 441.199 122.447L440.861 241.608C440.86 242.339 440.792 243.015 440.671 243.636L440.657 243.693C440.533 244.303 440.356 244.857 440.127 245.352L440.113 245.384C439.917 245.8 439.668 246.147 439.407 246.476L439.144 246.801C438.833 247.132 438.497 247.428 438.116 247.649L444.36 244.021C444.741 243.799 445.077 243.504 445.388 243.172L445.649 242.849C445.761 242.708 445.888 242.585 445.989 242.428C446.117 242.227 446.236 242.012 446.344 241.784L446.357 241.753L446.369 241.725C446.44 241.572 446.509 241.415 446.571 241.249C446.631 241.089 446.685 240.924 446.735 240.753C446.781 240.597 446.823 240.437 446.861 240.272L446.903 240.065L446.913 240.007L446.953 239.811C446.977 239.664 447 239.513 447.02 239.361C447.039 239.212 447.055 239.06 447.067 238.907C447.08 238.761 447.087 238.612 447.095 238.463C447.1 238.312 447.104 238.16 447.105 238.005V237.979L447.443 118.819C447.444 118.677 447.441 118.535 447.437 118.393" fill="url(#paint3_linear)"/>
<path d="M431.813 106.189C437.017 109.193 441.216 116.468 441.199 122.447L440.861 241.608C440.845 247.587 436.617 249.996 431.413 246.992L257.015 146.301C251.811 143.297 247.611 136.023 247.628 130.044L247.965 10.8826C247.983 4.90398 252.209 2.49466 257.413 5.49866L431.813 106.189" fill="#333897"/>
<path d="M381.277 57.3294C382.913 58.2734 384.232 60.5601 384.227 62.4401L384.121 99.8947C384.116 101.775 382.787 102.531 381.151 101.587L326.333 69.9374C324.697 68.9934 323.377 66.7067 323.383 64.8281L323.488 27.3721C323.495 25.4934 324.823 24.7361 326.459 25.6801L381.277 57.3294" fill="#527BC7"/>
<path d="M277.501 40.7081L277.497 42.4094C277.493 43.4107 276.408 44.0348 275.541 43.5321L267.521 38.8787C267.119 38.6454 266.871 38.2147 266.872 37.7481L266.877 36.0481C266.88 35.0467 267.967 34.4227 268.833 34.9254L276.853 39.5787C277.255 39.8121 277.503 40.2428 277.501 40.7081" fill="white"/>
<path d="M302.872 63.8067L302.867 65.5107C302.864 66.512 301.78 67.136 300.915 66.6347L267.5 47.3426C267.095 47.1093 266.848 46.6786 266.849 46.212L266.853 44.508C266.856 43.5067 267.94 42.8827 268.807 43.384L302.221 62.676C302.625 62.9093 302.873 63.34 302.872 63.8067" fill="#74D2EA"/>
<path d="M262.431 120.081L275.185 113.575L283.604 127.172L293.729 137.473L303.82 131.384L324.027 124.867L333.167 137.924L342.532 145.619L351.667 159.049L363.425 134.34L377.26 140.928L384.687 134.852L399.697 138.811L422.403 136.792L422.285 135.464L399.812 137.461L384.368 133.389L377.071 139.36L362.793 132.563L351.461 156.377L343.527 144.709L334.153 137.009L324.555 123.295L303.264 130.163L293.943 135.788L284.659 126.344L275.673 111.829L261.825 118.893L262.431 120.081" fill="#55C7D9"/>
<path d="M340.787 42.9053C335.737 39.9906 330.956 40.7333 328.981 45.3279C326.511 51.0733 329.32 60.7493 335.269 67.4426L336.649 64.2293C332.62 59.5266 330.743 52.8813 332.453 48.9093C333.847 45.6693 337.215 45.1466 340.775 47.2026C341.641 47.7026 342.521 48.3573 343.385 49.1613L344.765 45.9493C343.452 44.6853 342.109 43.6693 340.787 42.9053" fill="#F4F4F4"/>
<path d="M344.765 45.9494L343.387 49.16C343.604 49.3627 343.821 49.5747 344.036 49.7973C348.617 54.5173 350.856 61.768 349.037 65.9987C348.971 66.1493 348.9 66.296 348.824 66.4387L348.74 66.5893C347.415 68.9213 344.876 69.492 342.063 68.3627C341.623 68.188 341.176 67.9693 340.724 67.7093L340.363 67.492C340.143 67.3547 339.975 67.2413 339.809 67.1293L339.735 67.076C339.373 66.82 339.015 66.544 338.653 66.2347L338.517 66.116C338.384 66 338.251 65.88 338.119 65.756L337.972 65.6173C337.797 65.4547 337.624 65.284 337.453 65.1093C337.176 64.8227 336.911 64.528 336.649 64.2293L335.269 67.4427C335.532 67.7373 335.799 68.0307 336.073 68.312C336.319 68.564 336.565 68.8053 336.813 69.04L337.025 69.2387C337.212 69.4133 337.403 69.584 337.593 69.7507L337.785 69.9173C338.297 70.352 338.811 70.7533 339.323 71.112L339.445 71.1947C339.68 71.3613 339.915 71.512 340.145 71.66L340.227 71.7093C340.385 71.808 340.545 71.904 340.704 71.996C341.084 72.2147 341.46 72.4133 341.836 72.592C342.119 72.7253 342.385 72.84 342.652 72.9467C346.945 74.6493 350.791 73.5747 352.508 69.5747C355.087 63.576 351.912 53.284 345.417 46.5907C345.199 46.3694 344.983 46.156 344.765 45.9494" fill="#F9B20D"/>
<path d="M364.511 63.6586L364.507 64.64C364.505 65.22 363.877 65.5799 363.376 65.2893L358.741 62.6C358.508 62.4653 358.365 62.216 358.365 61.948L358.368 60.964C358.371 60.3853 358.999 60.0253 359.5 60.316L364.136 63.0053C364.367 63.14 364.511 63.3879 364.511 63.6586" fill="white"/>
<path d="M379.173 77.0081L379.171 77.9934C379.169 78.5721 378.543 78.9321 378.041 78.6428L358.729 67.4934C358.495 67.3588 358.352 67.1095 358.353 66.8388L358.356 65.8548C358.357 65.2761 358.983 64.9148 359.484 65.2041L378.797 76.3548C379.029 76.4894 379.175 76.7388 379.173 77.0081Z" fill="white"/>
<path d="M370.427 83.9333C370.301 83.9333 370.173 83.9013 370.052 83.832L358.7 77.2787C358.468 77.1427 358.324 76.8933 358.324 76.624L358.327 75.64C358.329 75.2014 358.689 74.888 359.081 74.888C359.207 74.888 359.336 74.92 359.457 74.9893L370.807 81.5427C371.04 81.6774 371.184 81.9267 371.184 82.196L371.181 83.1814C371.179 83.62 370.819 83.9333 370.427 83.9333Z" fill="#A4C7EC"/>
<path d="M376.164 80.1722L376.161 81.1575C376.16 81.7362 375.533 82.0962 375.032 81.8069L358.715 72.3855C358.481 72.2508 358.337 72.0015 358.339 71.7322L358.341 70.7469C358.343 70.1682 358.969 69.8082 359.471 70.0975L375.789 79.5188C376.023 79.6535 376.165 79.9029 376.164 80.1722" fill="#73ABE1"/>
<path d="M422.389 123.772C416.764 120.524 412.173 123.139 412.155 129.604C412.137 136.068 416.697 143.94 422.323 147.188C427.949 150.436 432.515 147.833 432.533 141.369C432.552 134.905 428.016 127.02 422.389 123.772Z" fill="#EF2770"/>
<path d="M422.364 130.187C419.821 128.719 417.747 129.901 417.737 132.824C417.729 135.747 419.792 139.305 422.335 140.773C424.877 142.241 426.943 141.065 426.951 138.143C426.959 135.22 424.908 131.656 422.364 130.187Z" fill="#2A2F71"/>
<path d="M278.204 62.728V64.4813C278.204 65.5147 277.085 66.1613 276.191 65.6453L267.904 60.872C267.487 60.632 267.231 60.188 267.231 59.708V57.9546C267.231 56.92 268.349 56.2733 269.245 56.7906L277.531 61.564C277.948 61.804 278.204 62.248 278.204 62.728Z" fill="#74D2EA"/>
<path d="M304.447 86.4721V88.2307C304.447 89.2627 303.331 89.9094 302.435 89.3961L267.908 69.6027C267.491 69.3641 267.233 68.9187 267.233 68.4387L267.232 66.6801C267.232 65.6481 268.348 65.0014 269.244 65.5148L303.771 85.3081C304.189 85.5467 304.447 85.9921 304.447 86.4721Z" fill="#74D2EA"/>
<path d="M288.871 98.8787C288.648 98.8787 288.42 98.8226 288.204 98.6986L267.913 87.0667C267.495 86.828 267.237 86.3827 267.237 85.9013V84.144C267.237 83.36 267.88 82.7973 268.581 82.7973C268.804 82.7973 269.032 82.8547 269.248 82.9773L289.54 94.6107C289.957 94.8507 290.215 95.2947 290.215 95.776V97.5333C290.216 98.3173 289.572 98.8787 288.871 98.8787Z" fill="#4794D4"/>
<path d="M299.093 92.136L299.095 93.892C299.095 94.9253 297.979 95.572 297.084 95.0587L267.911 78.3347C267.493 78.096 267.236 77.6507 267.236 77.1694L267.235 75.412C267.235 74.38 268.351 73.7334 269.247 74.2467L298.419 90.9707C298.836 91.2094 299.093 91.6547 299.093 92.136" fill="#74D2EA"/>
<path d="M397.335 211.295L402.043 208.559L401.952 240.519L397.245 243.255L397.335 211.295Z" fill="#30AE41"/>
<path d="M406.947 210.441V210.403L406.944 210.364L406.941 210.325L406.937 210.285L406.931 210.247L406.924 210.205L406.916 210.164L406.915 210.155L406.913 210.152L406.907 210.121L406.895 210.08L406.883 210.036L406.868 209.993L406.855 209.953L406.839 209.912L406.823 209.871L406.805 209.829L406.785 209.787L406.764 209.744L392.109 180.568L392.091 180.533L392.052 180.463L391.98 180.348L391.932 180.281L391.899 180.236L391.865 180.196L391.835 180.16L391.817 180.141L391.816 180.139L391.803 180.124L391.768 180.089L391.733 180.055L391.696 180.02L391.659 179.987L391.623 179.957L391.584 179.928L391.549 179.903L391.513 179.88L391.479 179.859L391.472 179.855L391.444 179.839L391.411 179.821L391.377 179.805L391.344 179.792L391.309 179.779L391.276 179.768L391.243 179.759L391.207 179.751L391.171 179.745L391.157 179.744L391.156 179.743L391.135 179.741L391.095 179.74L391.053 179.741L391.007 179.748L390.949 179.764L390.88 179.795L386.172 182.531L386.448 182.479H386.449L386.763 182.589C386.881 182.657 386.999 182.755 387.108 182.875L387.109 182.877C387.219 182.997 387.319 183.141 387.401 183.305L402.056 212.479C402.128 212.621 402.176 212.759 402.205 212.888V212.889C402.235 213.019 402.244 213.139 402.236 213.247V213.248L402.161 213.525L402.159 213.531L401.995 213.708L406.701 210.972L406.845 210.833L406.865 210.795L406.869 210.789L406.877 210.776L406.899 210.724L406.915 210.681L406.924 210.637L406.933 210.597L406.939 210.556L406.943 210.519L406.944 210.512V210.511L406.945 210.479L406.947 210.441" fill="#6BC62F"/>
<path d="M386.763 182.589C387 182.727 387.236 182.977 387.401 183.305L402.056 212.479C402.489 213.347 402.103 214.047 401.412 213.648L397.335 211.295L397.245 243.255L375.836 230.895L375.927 198.933L371.985 196.659C371.287 196.255 370.905 195.112 371.351 194.751L386.123 182.565C386.289 182.432 386.527 182.452 386.763 182.589" fill="#46BB3A"/>
<path d="M234.816 250.729L277.168 293.961L318.301 283.265L275.949 240.035L234.816 250.729" fill="white"/>
<path d="M280.289 253.379L276.235 254.912C273.184 252.521 267.904 251.675 264.323 253.028L264.108 253.116L260.744 250.348L260.961 250.261C266.78 248.061 275.381 249.46 280.289 253.379" fill="#E7EFFA"/>
<path d="M280.804 253.809C284.739 257.291 284.511 261.464 280.513 263.897L277.044 261.044C278.876 259.537 278.835 257.281 276.744 255.344L280.804 253.809" fill="#E7EFFA"/>
<path d="M279.969 264.205C279.557 264.421 279.112 264.623 278.633 264.804C272.897 266.972 264.463 265.647 259.521 261.857L263.58 260.323C266.659 262.584 271.775 263.36 275.271 262.037C275.756 261.853 276.184 261.639 276.556 261.397L279.969 264.205" fill="#67A5DE"/>
<path d="M263.521 253.388C260.679 254.871 260.425 257.631 263.047 259.897L258.992 261.432C254.516 257.633 255.072 252.948 260.14 250.607L263.521 253.388" fill="#67A5DE"/>
<path d="M276.085 464.564C276.085 464.564 272.765 466.847 275.879 472.243C278.992 477.639 281.691 474.317 288.748 479.715C295.804 485.111 298.295 486.148 302.029 485.733C305.765 485.317 308.049 483.451 308.672 481.375C309.295 479.3 307.425 475.771 307.425 475.771L276.085 464.564" fill="#939FC2"/>
<path d="M305.973 464.771C305.973 464.771 307.425 471.828 308.256 477.224C308.464 479.715 305.143 483.104 300.369 482.897C295.596 482.689 292.897 481.238 291.237 479.162C289.577 477.086 279.199 473.074 277.332 471.414C275.464 469.752 275.048 464.771 275.879 463.527C276.708 462.28 279.821 460.204 283.143 461.657C286.464 463.111 289.161 465.808 295.804 466.224C302.445 466.639 305.973 464.771 305.973 464.771" fill="#322441"/>
<path d="M309.017 446.576C309.017 446.576 305.696 448.86 308.809 454.255C311.923 459.651 314.621 456.331 321.679 461.727C328.735 467.124 331.225 468.161 334.961 467.747C338.696 467.331 340.98 465.462 341.603 463.387C342.225 461.311 340.357 457.784 340.357 457.784L309.017 446.576" fill="#939FC2"/>
<path d="M338.905 446.784C338.905 446.784 340.357 453.84 341.188 459.236C341.395 461.727 338.075 465.117 333.301 464.909C328.528 464.702 325.829 463.249 324.168 461.173C322.508 459.097 312.131 455.085 310.263 453.424C308.395 451.764 307.979 446.784 308.809 445.537C309.64 444.293 312.753 442.217 316.075 443.671C319.395 445.123 322.092 447.821 328.735 448.236C335.376 448.651 338.905 446.784 338.905 446.784" fill="#322441"/>
<path d="M313.099 389.361C314.759 402.644 321.401 437.513 322.508 449.689C322.508 449.689 325.276 454.117 333.577 453.011L337.519 451.368C339.105 450.707 340.057 449.076 339.845 447.369C339.011 440.655 337.133 423.747 338.005 413.713C339.112 400.984 335.792 393.236 335.792 393.236C336.068 389.084 336.621 374.695 328.319 370.82C328.319 370.82 307.979 367.084 313.099 389.361" fill="#28387A"/>
<path d="M329.98 376.909L327.765 381.336C327.765 381.336 293.728 382.996 284.596 392.959C284.596 392.959 278.508 394.067 280.168 407.349C281.828 420.632 288.471 455.5 289.577 467.677C289.577 467.677 292.344 472.104 300.645 470.997L304.587 469.356C306.175 468.695 307.127 467.064 306.915 465.357C306.08 458.641 304.201 441.735 305.075 431.701C306.181 418.972 302.861 411.223 302.861 411.223C302.861 411.223 317.804 413.991 333.855 420.632C349.905 427.273 363.741 419.525 369.829 416.204C375.917 412.884 378.132 410.669 378.132 410.669C378.132 410.669 385.88 410.669 393.075 404.583C400.269 398.493 401.376 382.443 393.629 373.033C385.88 363.625 329.98 376.909 329.98 376.909Z" fill="#2A3C8E"/>
<path d="M342.156 292.781C342.156 292.781 347.656 290.744 347.295 283.396C345.625 276.161 343.607 275.675 343.607 275.675C343.607 275.675 351.303 268.564 360.583 270.805C360.583 270.805 366.315 282.436 372.8 287.417C372.8 287.417 367.616 301.084 342.156 292.781" fill="#CD6D49"/>
<path d="M354.195 296.932C354.195 296.932 374.533 279.915 378.685 279.499C383.665 279.084 389.892 280.744 391.553 287.801C393.213 294.857 389.477 300.253 385.741 302.329C382.005 304.405 349.212 320.179 343.401 320.179C337.589 320.179 333.855 315.196 337.589 308.972C341.325 302.745 354.195 296.932 354.195 296.932" fill="#DF9918"/>
<path d="M360.42 285.587C360.42 285.587 338.836 292.781 332.748 302.745C326.659 312.707 327.765 323.776 332.195 339.273C336.621 354.769 327.765 368.607 329.98 376.909C332.195 385.211 347.691 392.959 370.383 389.084C393.075 385.211 394.736 376.356 396.396 371.373C398.056 366.393 391.968 342.593 397.503 323.223C403.037 303.852 391.968 290.568 387.54 287.248C383.112 283.927 374.256 279.499 360.42 285.587Z" fill="#FAB727"/>
<path d="M387.54 287.248C383.112 283.925 374.256 279.499 360.42 285.587C360.42 285.587 338.836 292.781 332.748 302.745C331.272 305.159 330.227 307.639 329.542 310.231C338.282 298.869 350.687 293.881 358.76 313.26C366.296 331.345 347.124 384.503 330.372 367.791C329.668 371.276 329.3 374.356 329.98 376.909C332.195 385.211 347.691 392.959 370.383 389.084C393.075 385.211 394.736 376.356 396.396 371.373C398.056 366.393 391.968 342.593 397.503 323.223C403.037 303.852 391.968 290.568 387.54 287.248Z" fill="#DF9918"/>
<path d="M339.804 294.996C339.804 294.996 345.616 298.732 360.143 296.656C374.672 294.581 375.503 284.203 374.256 283.372C373.012 282.543 370.521 279.223 370.521 279.223C370.521 279.223 355.163 286.279 349.765 288.355C344.369 290.429 341.465 291.675 341.465 291.675L339.804 294.996" fill="white"/>
<path d="M330.256 249.751C330.256 249.751 329.012 264.693 336.899 274.656C344.785 284.619 352.672 278.807 357.653 276.316C362.635 273.825 364.709 269.675 366.369 257.637C368.029 245.599 368.029 233.976 359.313 230.24C350.596 226.504 341.049 225.675 335.652 234.807C330.256 243.939 330.256 249.751 330.256 249.751" fill="#F89B75"/>
<path d="M336.068 231.901C336.068 231.901 329.012 237.297 329.425 245.184C329.841 253.071 327.352 254.316 328.181 258.467C329.012 262.617 335.652 263.863 336.068 269.675C336.483 275.485 345.2 277.561 349.765 279.223C354.332 280.883 361.805 275.485 363.88 272.581C365.955 269.675 365.54 262.203 368.029 255.561C370.521 248.92 369.276 240.617 367.2 234.807C365.125 228.995 360.973 227.751 360.973 227.751C360.973 227.751 358.899 223.184 353.917 222.353C348.936 221.524 333.577 222.353 336.068 231.901" fill="#442860"/>
<path d="M402.591 477.364C401.837 485.74 393.956 491.426 386.844 494.492C379.099 497.829 370.584 499.176 362.181 499.068C353.605 498.957 344.849 497.316 337.116 493.512C330.367 490.192 323.205 484.168 323.228 475.976C323.212 481.941 323.631 486.871 327.928 491.528C333.463 497.524 341.795 500.752 349.633 502.371C364.923 505.528 385.745 504.003 397.36 492.231C402.033 487.495 402.672 482.502 402.691 476.203C402.673 476.591 402.64 476.979 402.591 477.364" fill="#B5CDED"/>
<path d="M390.953 459.805C406.519 468.793 406.619 483.365 391.153 492.353C375.691 501.34 350.513 501.34 334.948 492.353C319.381 483.365 319.317 468.793 334.783 459.805C350.247 450.819 375.387 450.819 390.953 459.805" fill="#E7EFFA"/>
<path d="M370.037 441.64L369.939 476.371L363.863 479.901L363.963 445.172L370.037 441.64Z" fill="#CDDAF2"/>
<path d="M363.963 445.172L363.863 479.901L357.748 476.371L357.847 441.64L363.963 445.172" fill="#8BAADE"/>
<path d="M370.037 441.64L363.963 445.172L357.847 441.64L363.921 438.109L370.037 441.64Z" fill="#5FA6DF"/>
<path d="M440.869 323.06C440.695 318.245 435.917 314.973 431.369 316.569C411.517 323.532 366.012 340.025 363.088 345.872C360.303 351.444 351.301 382.569 346.868 398.161C345.587 402.667 340.396 404.731 336.361 402.351L308.859 386.132C303.627 383.045 297.173 387.475 298.171 393.467L302.587 419.961C302.939 422.076 304.221 423.919 306.08 424.987L335.507 441.892C351.952 451.34 372.037 451.92 389.003 443.437L411.688 432.095C431.528 422.175 443.743 401.579 442.932 379.412L440.869 323.06" fill="#4772C1"/>
<path d="M363.088 345.872C360.303 351.444 351.301 382.569 346.868 398.161C345.587 402.667 340.396 404.731 336.361 402.351L308.859 386.132C303.627 383.045 297.173 387.475 298.171 393.467L302.587 419.961C302.691 420.58 302.893 421.163 303.147 421.721C303.497 422.273 303.851 422.824 304.209 423.372C304.74 424.001 305.349 424.568 306.08 424.987L335.507 441.892C341.741 445.473 348.499 447.775 355.412 448.797C379.281 430.273 376.272 352.961 367.616 346.468C366.333 345.507 365.204 344.908 364.207 344.584C363.667 345.055 363.28 345.488 363.088 345.872" fill="#5FAEE4"/>
<path d="M309.917 322.392C309.917 322.392 330.256 305.373 334.408 304.959C339.389 304.543 345.616 306.203 347.276 313.26C348.936 320.316 345.2 325.713 341.465 327.789C337.728 329.864 304.936 345.639 299.124 345.639C293.312 345.639 289.577 340.656 293.312 334.429C297.048 328.203 309.917 322.392 309.917 322.392" fill="#FAB727"/>
<path d="M281.275 295.412C281.275 295.412 280.237 293.336 280.029 291.883C279.821 290.429 280.652 288.561 279.821 285.241C278.992 281.92 277.539 279.015 276.917 276.732C275.256 274.656 273.804 278.392 275.048 281.505C276.295 284.619 275.879 286.485 274.633 286.695C273.388 286.901 268.199 283.788 266.747 282.128C265.295 280.468 256.992 272.372 256.161 273.411C255.331 274.448 255.331 275.485 258.237 278.599C261.143 281.712 262.181 283.165 262.388 283.996C262.595 284.825 262.388 285.656 263.425 288.147C264.464 290.637 263.633 292.299 265.501 294.581C267.369 296.863 270.897 297.279 272.559 298.732C274.219 300.185 274.219 300.185 274.219 300.185L281.275 295.412" fill="#F89B75"/>
<path d="M299.124 345.639C299.124 345.639 290.408 347.299 285.703 337.612C280.999 327.927 272.972 301.915 271.865 299.423C271.865 299.423 274.633 293.336 281.552 293.612C281.552 293.612 289.301 308.832 293.728 315.751C298.156 322.669 313.929 342.869 299.124 345.639" fill="#FAB727"/>
<path d="M170.844 180.641C170.844 180.641 173.551 178.92 175.148 179.412C176.748 179.904 182.281 180.765 184.003 180.888C185.724 181.011 189.168 177.936 189.783 177.444C190.399 176.952 190.767 175.845 191.505 175.108C192.243 174.369 192.612 174.493 192.612 173.14C192.612 171.787 193.965 170.557 194.58 169.943C195.195 169.328 197.653 167.852 197.408 166.745C197.163 165.639 195.932 166.253 195.195 166.5C194.456 166.745 191.628 169.328 190.399 170.065C189.168 170.804 186.217 171.911 184.741 171.911C183.265 171.911 181.913 171.541 181.913 171.541C181.913 171.541 181.544 171.541 183.02 171.049C184.496 170.557 185.356 170.927 186.585 170.68C187.816 170.435 188.431 169.696 188.307 169.083C188.184 168.467 186.585 168.467 185.971 168.467C185.356 168.467 181.667 168.589 180.191 168.344C178.715 168.097 176.256 170.557 175.764 171.049C175.272 171.541 172.689 172.279 171.336 172.403C169.984 172.525 170.844 180.641 170.844 180.641" fill="#F78D65"/>
<path d="M117.919 179.324C117.919 179.324 120.492 187.816 131.255 187.489C142.017 187.164 168.784 182.204 171.504 182.028C171.504 182.028 175.613 176.752 172.159 170.752C172.159 170.752 155.081 170.949 146.897 170.237C138.715 169.525 113.5 164.924 117.919 179.324" fill="#E4EAF5"/>
<path d="M60.9507 196.328C60.9507 196.328 56.452 170.191 53.556 167.189C50.0267 163.649 44.204 160.887 38.372 165.193C32.5413 169.5 31.8987 176.032 33.404 180.031C34.9107 184.031 49.7093 217.275 54.14 221.035C58.572 224.795 64.6427 223.413 65.8227 216.249C67.0027 209.084 60.9507 196.328 60.9507 196.328" fill="#E4EAF5"/>
<path d="M106.311 210.247C106.311 210.247 109.839 210.453 111.084 210.453C112.331 210.453 121.877 209.624 123.537 209.624C125.197 209.624 125.197 211.492 125.197 211.492C125.197 211.492 126.859 214.191 126.859 215.228C126.859 216.265 126.859 217.719 127.273 218.756C127.689 219.793 127.065 220.624 126.651 221.455C126.236 222.284 125.197 222.699 124.16 223.323C123.123 223.944 121.877 223.944 121.047 223.529C120.217 223.115 120.217 222.907 121.255 222.284C122.292 221.661 123.123 220.832 123.123 220.832C123.123 220.832 121.877 222.077 120.009 222.284C118.141 222.492 115.236 222.492 113.576 221.661C111.915 220.832 109.009 219.379 109.009 219.379L105.688 218.964L106.311 210.247" fill="#F78D65"/>
<path d="M53.44 217.513C53.44 217.513 56.0133 226.005 66.776 225.679C77.5386 225.353 104.305 220.393 107.027 220.219C107.027 220.219 111.135 214.943 107.68 208.941C107.68 208.941 90.6026 209.139 82.4186 208.427C74.236 207.715 49.0226 203.113 53.44 217.513Z" fill="#E4EAF5"/>
<defs>
<linearGradient id="paint0_linear" x1="233.04" y1="271.328" x2="241.796" y2="338.712" gradientUnits="userSpaceOnUse">
<stop stop-color="#CDEAFA"/>
<stop offset="1" stop-color="#9195D3"/>
</linearGradient>
<linearGradient id="paint1_linear" x1="227.568" y1="389.616" x2="252.55" y2="333.656" gradientUnits="userSpaceOnUse">
<stop stop-color="#73D1EA"/>
<stop offset="1" stop-color="#EDF1F0"/>
</linearGradient>
<linearGradient id="paint2_linear" x1="371.541" y1="255.533" x2="332.494" y2="-34.6558" gradientUnits="userSpaceOnUse">
<stop stop-color="#73D1EA"/>
<stop offset="0.704338" stop-color="#EDF1F0"/>
<stop offset="1" stop-color="#EDF1F0"/>
</linearGradient>
<linearGradient id="paint3_linear" x1="447.443" y1="175.105" x2="431.813" y2="175.105" gradientUnits="userSpaceOnUse">
<stop stop-color="#5252AD"/>
<stop offset="1" stop-color="#84D6E4"/>
</linearGradient>
</defs>
</svg>
