<svg width="3467" height="2167" viewBox="0 0 3467 2167" fill="none" xmlns="http://www.w3.org/2000/svg">
<path d="M0 2166.67V0.00318437H3466.66V7.59585H2921.38C2921.38 7.59585 2921.12 7.59585 2920.65 7.59585C2901.47 7.59585 2500.63 11.7004 2526.32 355.215C2552.68 707.141 2089.09 549.531 1841.5 659.643C1593.91 769.755 1767.74 968.389 1672.92 1087.14C1578.11 1205.88 1344.17 1141.11 1280.96 1341.91C1217.75 1542.69 1051.3 1631.21 737.861 1654.97C424.417 1678.72 462.806 1762.92 404.859 1883.83C346.911 2004.73 290.511 2166.67 0.00104167 2166.67H0ZM676.665 1073.33C667.46 1073.33 659.999 1080.8 659.999 1090C659.999 1099.21 667.46 1106.67 676.665 1106.67C685.872 1106.67 693.332 1099.21 693.332 1090C693.332 1080.8 685.872 1073.33 676.665 1073.33ZM575.332 1073.33C566.127 1073.33 558.666 1080.8 558.666 1090C558.666 1099.21 566.127 1106.67 575.332 1106.67C584.539 1106.67 592 1099.21 592 1090C592 1080.8 584.539 1073.33 575.332 1073.33ZM473.999 1073.33C464.794 1073.33 457.334 1080.8 457.334 1090C457.334 1099.21 464.794 1106.67 473.999 1106.67C483.204 1106.67 490.667 1099.21 490.667 1090C490.667 1080.8 483.204 1073.33 473.999 1073.33ZM271.333 1073.33C262.129 1073.33 254.666 1080.8 254.666 1090C254.666 1099.21 262.129 1106.67 271.333 1106.67C280.538 1106.67 287.999 1099.21 287.999 1090C287.999 1080.8 280.538 1073.33 271.333 1073.33ZM1582.17 867.811C1564.74 867.811 1550.61 881.945 1550.61 899.385C1550.61 916.823 1564.74 930.957 1582.17 930.957C1599.61 930.957 1613.74 916.823 1613.74 899.385C1613.74 881.945 1599.61 867.811 1582.17 867.811ZM2197.14 344.285C2187.29 344.285 2179.3 352.271 2179.3 362.118C2179.3 371.967 2187.29 379.952 2197.14 379.952C2206.99 379.952 2214.96 371.967 2214.96 362.118C2214.96 352.271 2206.99 344.285 2197.14 344.285Z" fill="url(#paint0_linear)"/>
<defs>
<linearGradient id="paint0_linear" x1="-465.766" y1="-1176.64" x2="6415.11" y2="2263.8" gradientUnits="userSpaceOnUse">
<stop stop-color="white"/>
<stop offset="0.0027027" stop-color="white"/>
<stop offset="0.19149" stop-color="white"/>
<stop offset="1" stop-color="#D2D2FF"/>
</linearGradient>
</defs>
</svg>
