<svg width="1869" height="1287" viewBox="0 0 1869 1287" fill="none" xmlns="http://www.w3.org/2000/svg">
<path d="M610.493 778.934C610.493 778.934 756.933 513.127 696.733 332.486C622.907 110.987 520.84 33.9603 520.84 33.9603C520.84 33.9603 230.413 372.406 610.493 778.934" fill="url(#paint0_linear)"/>
<path d="M581.68 162.467L576.507 167.334L521.92 218.507C512.44 92.5869 520.84 33.9603 520.84 33.9603C509.64 89.8937 505.48 150.974 506.04 213.16L471.827 171.44L506.48 236.806C507.267 265.418 509 294.15 511.44 322.63L466.507 251.43L513.573 345.776C515.893 369.114 518.667 392.191 521.747 414.816L451.173 320.352L526.68 448.834C531.467 480.071 536.773 510.136 542.253 538.467L475.8 472.016L550.92 581.271C557.013 610.099 563.107 636.44 568.733 659.48L502.76 574.584L574.787 699.738C584.88 732.067 598.747 766.107 598.747 766.107L610.493 778.934L621.72 757.067C611.987 732.694 604.453 713.08 598.64 688.656L637.973 580.679L591.973 652.358C586.2 627.098 580.853 602.69 575.907 579.082L642.573 460.119L569.08 545.778C562.44 512.616 556.627 481.187 551.533 451.436L617.08 343.296L546.813 422.98C542.613 397.03 538.987 372.455 535.867 349.236L595.88 232.6L531.693 316.69C528.053 286.68 525.267 259.176 523.173 234.142L581.68 162.467" fill="#149173"/>
<path d="M629 766.04C629 766.04 371.027 788.027 251.08 678.478C104.013 544.13 79.36 437.862 79.36 437.862C79.36 437.862 443.88 328.812 629 766.04" fill="url(#paint1_linear)"/>
<path d="M158.44 529.851L164.027 527.502L222.84 502.694C127.973 451.647 79.36 437.862 79.36 437.862C126.84 448.53 175.893 466.463 224.187 488.465L203.52 447.322L242.467 496.997C264.493 507.531 286.293 518.841 307.64 530.619L267.72 470.907L324.947 540.305C342.333 550.205 359.36 560.367 375.933 570.622L326.76 482.854L400.733 586.251C423.427 600.813 445.027 615.374 465.213 629.471L436.44 554.637L495.573 651.065C515.933 665.813 534.347 679.694 550.36 692.07L507.053 611.209L579.64 710.745C601.347 729.827 623.08 752.44 623.08 752.44L629 766.04L608.067 767.214C592.44 751.174 579.76 738.494 562.733 725.501L464.933 718.725L536.747 707.721C519.067 694.455 501.893 681.83 485.2 669.79L369.36 680.507L461.613 652.918C438.053 636.247 415.573 620.819 394.147 606.537L287.12 620.135L373.6 592.985C354.827 580.719 336.933 569.371 319.92 558.885L208.187 565.233L295.987 544.35C273.867 531.102 253.387 519.395 234.6 509.086L158.44 529.851" fill="#149173"/>
<path d="M620.306 770.507C620.306 770.507 409.36 685.599 358.72 552.22C296.627 388.66 319.387 295.59 319.387 295.59C319.387 295.59 648.32 354.45 620.306 770.507Z" fill="url(#paint2_linear)"/>
<path d="M344.947 399.019L350.253 399.39L406.187 403.23C352.027 325.644 319.387 295.59 319.387 295.59C352.387 322.758 383.733 356.241 412.88 392.608L412.973 352.175L423.827 406.535C436.92 423.518 449.533 441.015 461.613 458.704L453.96 396.086L471.333 473.151C481.053 487.798 490.373 502.507 499.293 517.104L495.507 428.831L512.56 539.183C524.587 559.584 535.747 579.551 545.987 598.594L553.067 528.538L561.24 627.546C571.36 647.17 580.307 665.347 587.947 681.387L586.027 600.85L603.507 707.624C612.973 731.174 621.053 757.507 621.053 757.507L620.307 770.507L603.427 763.147C597.533 744.387 592.613 729.427 584.413 712.496L510.413 668.451L571.08 688.267C562.467 670.863 554 654.166 545.693 638.118L450.627 600.644L533.88 615.548C522.013 593.154 510.507 572.156 499.36 552.474L410.08 520.755L488.627 533.716C478.76 516.666 469.227 500.682 460.04 485.723L369.933 446.454L447.04 464.854C434.933 445.707 423.52 428.42 412.867 412.899L344.947 399.019" fill="#149173"/>
<path d="M1868 1184.41V1215.8C1868 1217.08 1867.57 1218.33 1866.69 1219.6V1188.2C1867.57 1186.95 1868 1185.68 1868 1184.41Z" fill="#21692B"/>
<path d="M1868 1184.41C1868 1185.75 1867.51 1187.08 1866.53 1188.4C1866.35 1188.67 1866.13 1188.93 1865.89 1189.2L1865.58 1189.56C1865.36 1189.8 1865.1 1190.05 1864.84 1190.29C1864.72 1190.4 1864.6 1190.52 1864.48 1190.63C1864.1 1190.95 1863.73 1191.27 1863.31 1191.59L1863.21 1191.67C1862.73 1192.01 1862.25 1192.36 1861.72 1192.71C1861.52 1192.84 1861.3 1192.96 1861.1 1193.09C1860.82 1193.27 1860.54 1193.44 1860.24 1193.61C1860.02 1193.75 1859.78 1193.88 1859.55 1194.01C1859.23 1194.19 1858.93 1194.36 1858.61 1194.52C1858.35 1194.67 1858.09 1194.8 1857.81 1194.93C1857.5 1195.11 1857.16 1195.28 1856.82 1195.44C1856.54 1195.57 1856.26 1195.72 1855.96 1195.85C1855.61 1196.01 1855.25 1196.19 1854.89 1196.35C1854.57 1196.49 1854.27 1196.63 1853.95 1196.76C1853.56 1196.93 1853.18 1197.09 1852.8 1197.25C1852.46 1197.39 1852.12 1197.53 1851.78 1197.67C1851.39 1197.83 1850.97 1198 1850.53 1198.16C1850.19 1198.29 1849.85 1198.43 1849.48 1198.56C1849.04 1198.73 1848.6 1198.89 1848.14 1199.07C1847.78 1199.2 1847.41 1199.33 1847.03 1199.47C1846.57 1199.63 1846.07 1199.8 1845.59 1199.96C1845.2 1200.09 1844.8 1200.23 1844.38 1200.37C1844.08 1200.47 1843.78 1200.57 1843.47 1200.67C1842.93 1200.84 1842.41 1201.01 1841.87 1201.17C1841.53 1201.28 1841.2 1201.39 1840.88 1201.49C1840.32 1201.65 1839.78 1201.83 1839.23 1201.99C1838.89 1202.09 1838.53 1202.2 1838.19 1202.29C1837.59 1202.48 1836.98 1202.65 1836.36 1202.83C1836.04 1202.92 1835.74 1203 1835.41 1203.09C1834.65 1203.31 1833.89 1203.52 1833.12 1203.72C1832.92 1203.77 1832.72 1203.84 1832.52 1203.89C1831.52 1204.16 1830.53 1204.41 1829.49 1204.68C1829.24 1204.75 1828.96 1204.81 1828.68 1204.89C1827.92 1205.08 1827.15 1205.28 1826.37 1205.47C1825.97 1205.56 1825.59 1205.65 1825.2 1205.75C1824.52 1205.92 1823.82 1206.08 1823.11 1206.25C1822.67 1206.35 1822.25 1206.45 1821.81 1206.56C1821.12 1206.72 1820.42 1206.88 1819.7 1207.04C1819.26 1207.13 1818.83 1207.24 1818.37 1207.33C1817.61 1207.51 1816.88 1207.67 1816.12 1207.84C1815.68 1207.93 1815.26 1208.03 1814.85 1208.11C1813.95 1208.31 1813.04 1208.49 1812.12 1208.69C1811.82 1208.76 1811.52 1208.81 1811.22 1208.88C1809.97 1209.13 1808.72 1209.39 1807.46 1209.65C1807.22 1209.69 1806.99 1209.75 1806.75 1209.79C1805.71 1210 1804.66 1210.2 1803.6 1210.41C1803.14 1210.49 1802.71 1210.57 1802.25 1210.67C1801.37 1210.83 1800.52 1211 1799.62 1211.16C1799.1 1211.27 1798.59 1211.36 1798.05 1211.45C1797.21 1211.61 1796.36 1211.76 1795.5 1211.92C1794.96 1212.01 1794.43 1212.12 1793.89 1212.21C1793.01 1212.37 1792.12 1212.53 1791.22 1212.68C1790.69 1212.77 1790.17 1212.87 1789.63 1212.96C1788.64 1213.13 1787.62 1213.31 1786.61 1213.48C1786.17 1213.56 1785.73 1213.63 1785.29 1213.71C1783.84 1213.95 1782.35 1214.2 1780.85 1214.44C1780.67 1214.47 1780.5 1214.49 1780.32 1214.52C1779 1214.75 1777.65 1214.96 1776.32 1215.17C1775.8 1215.25 1775.26 1215.33 1774.72 1215.41C1773.71 1215.57 1772.67 1215.73 1771.64 1215.89C1771.02 1215.99 1770.43 1216.08 1769.81 1216.17C1768.83 1216.33 1767.84 1216.48 1766.84 1216.63C1766.21 1216.72 1765.57 1216.81 1764.93 1216.91C1763.92 1217.05 1762.9 1217.21 1761.89 1217.36C1761.25 1217.44 1760.63 1217.53 1759.98 1217.63C1758.86 1217.79 1757.71 1217.96 1756.57 1218.12C1756.04 1218.19 1755.52 1218.27 1755 1218.33C1753.33 1218.57 1751.64 1218.8 1749.93 1219.04H1749.89C1748.16 1219.28 1746.42 1219.51 1744.67 1219.75C1744.1 1219.83 1743.52 1219.89 1742.94 1219.97C1741.75 1220.13 1740.55 1220.28 1739.34 1220.44C1738.66 1220.53 1737.99 1220.61 1737.29 1220.71C1736.17 1220.85 1735.04 1221 1733.89 1221.13C1733.17 1221.23 1732.43 1221.32 1731.72 1221.41C1730.58 1221.55 1729.45 1221.69 1728.29 1221.84C1727.58 1221.92 1726.86 1222.01 1726.12 1222.09C1724.89 1222.25 1723.64 1222.4 1722.38 1222.55C1721.75 1222.63 1721.11 1222.71 1720.45 1222.77C1718.88 1222.96 1717.29 1223.15 1715.68 1223.33C1715.36 1223.37 1715.04 1223.41 1714.72 1223.45C1712.79 1223.68 1710.84 1223.89 1708.89 1224.12C1708.29 1224.19 1707.67 1224.25 1707.08 1224.32C1705.7 1224.48 1704.31 1224.63 1702.92 1224.79C1702.18 1224.87 1701.43 1224.95 1700.69 1225.03C1699.42 1225.16 1698.14 1225.31 1696.85 1225.44C1696.05 1225.53 1695.26 1225.61 1694.46 1225.69C1693.19 1225.84 1691.89 1225.97 1690.62 1226.11C1689.82 1226.19 1689.03 1226.27 1688.25 1226.35C1686.9 1226.49 1685.54 1226.63 1684.21 1226.77C1683.43 1226.85 1682.68 1226.92 1681.9 1227C1680.33 1227.16 1678.78 1227.32 1677.21 1227.48C1676.65 1227.53 1676.11 1227.59 1675.57 1227.64C1673.42 1227.85 1671.29 1228.07 1669.13 1228.28C1668.61 1228.32 1668.07 1228.37 1667.55 1228.43C1665.9 1228.59 1664.25 1228.75 1662.58 1228.89C1661.78 1228.97 1661 1229.05 1660.21 1229.12C1658.8 1229.25 1657.36 1229.39 1655.93 1229.52C1655.07 1229.6 1654.2 1229.68 1653.32 1229.76C1651.91 1229.89 1650.5 1230.03 1649.06 1230.15C1648.23 1230.23 1647.37 1230.31 1646.52 1230.39C1645.04 1230.51 1643.57 1230.64 1642.08 1230.77C1641.26 1230.85 1640.45 1230.92 1639.61 1231C1637.94 1231.15 1636.25 1231.28 1634.56 1231.43C1633.92 1231.49 1633.3 1231.55 1632.66 1231.6C1630.34 1231.8 1628.01 1232 1625.64 1232.19C1625.2 1232.23 1624.74 1232.27 1624.31 1232.31C1622.4 1232.47 1620.46 1232.61 1618.55 1232.77C1617.7 1232.85 1616.84 1232.92 1615.99 1232.99C1614.45 1233.11 1612.9 1233.24 1611.37 1233.36C1610.39 1233.44 1609.44 1233.51 1608.5 1233.59C1606.99 1233.71 1605.48 1233.83 1603.99 1233.95C1603.01 1234.03 1602.06 1234.09 1601.08 1234.17C1599.55 1234.29 1598 1234.41 1596.44 1234.53C1595.53 1234.6 1594.61 1234.67 1593.68 1234.73C1591.95 1234.87 1590.19 1235 1588.46 1235.13C1587.71 1235.19 1586.93 1235.25 1586.17 1235.31C1583.67 1235.49 1581.16 1235.67 1578.65 1235.85C1578.33 1235.88 1578.01 1235.91 1577.7 1235.92C1575.47 1236.09 1573.22 1236.25 1570.95 1236.41C1570.13 1236.47 1569.32 1236.52 1568.5 1236.59C1566.75 1236.71 1565 1236.83 1563.25 1236.95C1562.23 1237.01 1561.22 1237.09 1560.2 1237.16C1558.61 1237.27 1557.04 1237.37 1555.43 1237.48C1554.37 1237.56 1553.32 1237.63 1552.26 1237.69C1550.61 1237.81 1548.96 1237.92 1547.31 1238.03C1546.31 1238.09 1545.32 1238.16 1544.34 1238.23C1542.55 1238.35 1540.76 1238.47 1538.97 1238.57C1538.07 1238.64 1537.2 1238.69 1536.3 1238.75C1533.83 1238.91 1531.34 1239.07 1528.86 1239.23C1528.66 1239.24 1528.44 1239.25 1528.24 1239.27C1525.55 1239.43 1522.87 1239.6 1520.14 1239.76C1519.22 1239.83 1518.33 1239.88 1517.41 1239.93C1515.56 1240.04 1513.73 1240.16 1511.88 1240.27C1510.85 1240.33 1509.79 1240.39 1508.76 1240.45C1507.02 1240.56 1505.29 1240.65 1503.54 1240.76C1502.43 1240.83 1501.29 1240.89 1500.16 1240.96C1498.47 1241.05 1496.77 1241.16 1495.06 1241.25C1493.97 1241.32 1492.85 1241.37 1491.76 1241.44C1489.89 1241.55 1488.02 1241.65 1486.13 1241.76C1485.19 1241.81 1484.24 1241.87 1483.28 1241.92C1480.91 1242.05 1478.5 1242.17 1476.12 1242.31C1475.66 1242.33 1475.2 1242.36 1474.74 1242.39C1471.9 1242.53 1469.03 1242.69 1466.17 1242.84C1465.25 1242.89 1464.33 1242.93 1463.44 1242.99C1461.43 1243.09 1459.44 1243.2 1457.41 1243.29C1456.33 1243.36 1455.26 1243.41 1454.16 1243.47C1452.33 1243.56 1450.46 1243.65 1448.61 1243.75C1447.46 1243.8 1446.28 1243.87 1445.13 1243.92C1443.32 1244.01 1441.49 1244.11 1439.68 1244.19C1438.5 1244.25 1437.33 1244.31 1436.17 1244.36C1434.3 1244.45 1432.45 1244.55 1430.58 1244.63C1429.45 1244.68 1428.33 1244.75 1427.18 1244.8C1424.97 1244.89 1422.74 1245 1420.51 1245.11C1419.75 1245.15 1419 1245.17 1418.24 1245.21C1415.22 1245.35 1412.19 1245.49 1409.15 1245.63C1408.49 1245.65 1407.81 1245.69 1407.12 1245.72C1404.79 1245.83 1402.46 1245.93 1400.11 1246.03C1398.96 1246.08 1397.78 1246.13 1396.63 1246.19C1394.72 1246.27 1392.81 1246.35 1390.88 1246.43C1389.64 1246.48 1388.41 1246.53 1387.16 1246.59C1385.28 1246.67 1383.39 1246.75 1381.48 1246.83C1380.27 1246.88 1379.06 1246.92 1377.84 1246.97C1375.85 1247.05 1373.84 1247.13 1371.83 1247.23C1370.72 1247.27 1369.58 1247.31 1368.45 1247.36C1366.22 1247.44 1363.97 1247.53 1361.74 1247.63C1360.83 1247.65 1359.91 1247.69 1358.99 1247.73C1355.85 1247.85 1352.71 1247.97 1349.54 1248.09C1348.98 1248.12 1348.41 1248.13 1347.83 1248.16C1345.24 1248.25 1342.67 1248.35 1340.07 1248.45C1338.93 1248.49 1337.76 1248.53 1336.6 1248.57C1334.55 1248.65 1332.5 1248.72 1330.44 1248.8C1329.14 1248.84 1327.87 1248.89 1326.57 1248.93C1324.62 1249 1322.65 1249.07 1320.7 1249.13C1319.41 1249.19 1318.14 1249.23 1316.86 1249.27C1314.83 1249.33 1312.78 1249.41 1310.75 1249.48C1309.5 1249.52 1308.26 1249.56 1307.01 1249.6C1304.86 1249.68 1302.73 1249.75 1300.58 1249.81C1299.45 1249.85 1298.31 1249.89 1297.18 1249.92C1293.92 1250.03 1290.65 1250.13 1287.37 1250.24H1287.25C1283.98 1250.33 1280.74 1250.44 1277.46 1250.53C1276.42 1250.57 1275.37 1250.6 1274.31 1250.63C1272.04 1250.69 1269.79 1250.76 1267.53 1250.83C1266.23 1250.87 1264.94 1250.91 1263.64 1250.95C1261.55 1251 1259.5 1251.07 1257.42 1251.12C1256.1 1251.16 1254.81 1251.19 1253.49 1251.23C1251.38 1251.29 1249.24 1251.35 1247.11 1251.4C1245.85 1251.44 1244.58 1251.47 1243.3 1251.51C1241.04 1251.56 1238.79 1251.63 1236.52 1251.68C1235.38 1251.72 1234.25 1251.75 1233.11 1251.77C1230.09 1251.85 1227.04 1251.93 1224 1252C1223.62 1252.01 1223.28 1252.03 1222.93 1252.03C1219.52 1252.12 1216.12 1252.2 1212.7 1252.28C1211.62 1252.31 1210.55 1252.33 1209.47 1252.35C1207.1 1252.41 1204.75 1252.47 1202.39 1252.52C1201.05 1252.55 1199.7 1252.57 1198.35 1252.61C1196.28 1252.65 1194.19 1252.71 1192.08 1252.75C1190.62 1252.77 1189.19 1252.81 1187.76 1252.84C1185.63 1252.88 1183.5 1252.93 1181.37 1252.97C1180.04 1253 1178.7 1253.03 1177.39 1253.05C1175.1 1253.11 1172.83 1253.15 1170.54 1253.2C1169.29 1253.23 1168.08 1253.24 1166.82 1253.27C1164.06 1253.32 1161.29 1253.37 1158.5 1253.43C1157.79 1253.44 1157.05 1253.45 1156.31 1253.47C1152.83 1253.53 1149.33 1253.6 1145.83 1253.65C1144.77 1253.68 1143.74 1253.69 1142.7 1253.71C1140.19 1253.76 1137.67 1253.8 1135.16 1253.84C1133.82 1253.87 1132.51 1253.88 1131.2 1253.91C1128.95 1253.95 1126.72 1253.97 1124.49 1254.01C1123.08 1254.04 1121.7 1254.05 1120.29 1254.08C1118.04 1254.12 1115.77 1254.15 1113.5 1254.19C1112.17 1254.2 1110.84 1254.23 1109.48 1254.24C1107.16 1254.28 1104.81 1254.31 1102.48 1254.33C1101.19 1254.36 1099.91 1254.37 1098.64 1254.39C1095.89 1254.43 1093.14 1254.47 1090.4 1254.51C1089.54 1254.51 1088.69 1254.52 1087.85 1254.53C1084.23 1254.57 1080.61 1254.63 1076.98 1254.67C1076.17 1254.68 1075.37 1254.68 1074.58 1254.69C1071.73 1254.72 1068.9 1254.76 1066.06 1254.79C1064.75 1254.8 1063.45 1254.81 1062.14 1254.83C1059.83 1254.85 1057.52 1254.88 1055.21 1254.89C1053.72 1254.91 1052.23 1254.93 1050.71 1254.95C1048.55 1254.96 1046.34 1254.99 1044.15 1255C1042.63 1255.01 1041.14 1255.03 1039.63 1255.04C1037.38 1255.07 1035.11 1255.08 1032.84 1255.09C1031.43 1255.11 1030.02 1255.12 1028.6 1255.13C1026 1255.15 1023.41 1255.17 1020.8 1255.19C1019.73 1255.2 1018.67 1255.2 1017.6 1255.21C1013.9 1255.24 1010.19 1255.25 1006.49 1255.28C1005.94 1255.28 1005.38 1255.28 1004.82 1255.29C1001.68 1255.31 998.512 1255.32 995.327 1255.33C994.093 1255.35 992.84 1255.35 991.586 1255.36C989.098 1255.37 986.61 1255.37 984.103 1255.39C982.69 1255.4 981.277 1255.4 979.864 1255.4C977.555 1255.41 975.246 1255.43 972.938 1255.43C971.425 1255.43 969.913 1255.44 968.4 1255.44C966.052 1255.45 963.703 1255.45 961.335 1255.45C959.942 1255.47 958.529 1255.47 957.116 1255.47C954.548 1255.47 951.961 1255.48 949.374 1255.48C948.2 1255.48 947.006 1255.48 945.831 1255.48C942.05 1255.48 938.289 1255.49 934.487 1255.49C418.936 1255.49 0.988281 1223.67 0.988281 1184.41V1215.8C0.988281 1255.07 418.936 1286.88 934.487 1286.88C938.289 1286.88 942.05 1286.88 945.831 1286.88C947.006 1286.88 948.2 1286.87 949.374 1286.87C951.961 1286.87 954.548 1286.87 957.116 1286.85C958.529 1286.85 959.942 1286.85 961.335 1286.85C963.703 1286.84 966.052 1286.84 968.4 1286.84C969.913 1286.83 971.425 1286.83 972.938 1286.83C975.246 1286.81 977.555 1286.8 979.864 1286.8C981.277 1286.79 982.69 1286.79 984.103 1286.79C986.61 1286.77 989.098 1286.76 991.586 1286.75C992.84 1286.75 994.093 1286.73 995.327 1286.73C998.512 1286.72 1001.68 1286.69 1004.82 1286.68C1005.38 1286.68 1005.94 1286.68 1006.49 1286.67C1010.19 1286.65 1013.9 1286.63 1017.6 1286.6C1018.67 1286.6 1019.73 1286.59 1020.8 1286.57C1023.41 1286.56 1026 1286.55 1028.6 1286.52C1030.02 1286.51 1031.43 1286.51 1032.84 1286.49C1035.11 1286.47 1037.38 1286.45 1039.63 1286.44C1041.14 1286.43 1042.63 1286.41 1044.15 1286.4C1046.34 1286.37 1048.55 1286.36 1050.71 1286.33C1052.23 1286.32 1053.72 1286.31 1055.21 1286.29C1057.52 1286.27 1059.83 1286.24 1062.14 1286.23C1063.45 1286.21 1064.75 1286.2 1066.06 1286.17C1068.9 1286.15 1071.73 1286.12 1074.58 1286.08C1075.37 1286.08 1076.17 1286.07 1076.98 1286.05C1080.61 1286.01 1084.23 1285.97 1087.85 1285.92C1088.69 1285.92 1089.54 1285.91 1090.4 1285.89C1093.14 1285.85 1095.89 1285.83 1098.64 1285.79C1099.91 1285.77 1101.19 1285.75 1102.48 1285.73C1104.81 1285.69 1107.16 1285.67 1109.48 1285.63C1110.84 1285.61 1112.17 1285.6 1113.5 1285.57C1115.77 1285.55 1118.04 1285.51 1120.29 1285.47C1121.7 1285.45 1123.08 1285.43 1124.49 1285.41C1126.72 1285.37 1128.95 1285.33 1131.2 1285.29C1132.51 1285.28 1133.82 1285.25 1135.16 1285.24C1137.67 1285.19 1140.19 1285.15 1142.7 1285.11C1143.74 1285.09 1144.77 1285.07 1145.83 1285.05C1149.33 1284.99 1152.83 1284.93 1156.31 1284.87C1157.05 1284.85 1157.79 1284.84 1158.5 1284.83C1161.29 1284.77 1164.06 1284.72 1166.82 1284.67C1168.08 1284.64 1169.29 1284.61 1170.54 1284.59C1172.83 1284.55 1175.1 1284.49 1177.39 1284.45C1178.7 1284.43 1180.04 1284.4 1181.37 1284.37C1183.5 1284.32 1185.63 1284.28 1187.76 1284.23C1189.19 1284.2 1190.62 1284.17 1192.08 1284.15C1194.19 1284.09 1196.28 1284.05 1198.35 1284C1199.7 1283.97 1201.05 1283.95 1202.39 1283.91C1204.75 1283.85 1207.1 1283.8 1209.47 1283.75C1210.55 1283.72 1211.62 1283.69 1212.7 1283.67C1216.12 1283.59 1219.52 1283.51 1222.93 1283.43C1223.28 1283.41 1223.62 1283.4 1224 1283.4C1227.04 1283.32 1230.09 1283.24 1233.11 1283.17C1234.25 1283.13 1235.38 1283.11 1236.52 1283.08C1238.79 1283.01 1241.04 1282.96 1243.3 1282.89C1244.58 1282.87 1245.85 1282.83 1247.11 1282.8C1249.24 1282.73 1251.38 1282.68 1253.49 1282.63C1254.81 1282.59 1256.1 1282.55 1257.42 1282.51C1259.5 1282.45 1261.55 1282.4 1263.64 1282.33C1264.94 1282.29 1266.23 1282.27 1267.53 1282.23C1269.79 1282.16 1272.04 1282.09 1274.31 1282.03C1275.37 1282 1276.42 1281.96 1277.46 1281.93C1280.74 1281.83 1283.98 1281.73 1287.25 1281.63H1287.37C1290.65 1281.52 1293.92 1281.43 1297.18 1281.32C1298.31 1281.28 1299.45 1281.24 1300.58 1281.21C1302.73 1281.13 1304.86 1281.07 1307.01 1281C1308.26 1280.96 1309.5 1280.91 1310.75 1280.87C1312.78 1280.8 1314.83 1280.73 1316.86 1280.67C1318.14 1280.61 1319.41 1280.57 1320.7 1280.53C1322.65 1280.47 1324.62 1280.4 1326.57 1280.32C1327.87 1280.28 1329.14 1280.24 1330.44 1280.19C1332.5 1280.12 1334.55 1280.04 1336.6 1279.97C1337.76 1279.92 1338.93 1279.88 1340.07 1279.84C1342.67 1279.75 1345.24 1279.65 1347.83 1279.55C1348.41 1279.53 1348.98 1279.51 1349.54 1279.49C1352.71 1279.37 1355.85 1279.24 1358.99 1279.12C1359.91 1279.09 1360.83 1279.05 1361.74 1279.01C1363.97 1278.93 1366.22 1278.84 1368.45 1278.75C1369.58 1278.71 1370.72 1278.65 1371.83 1278.61C1373.84 1278.53 1375.85 1278.45 1377.84 1278.37C1379.06 1278.32 1380.27 1278.27 1381.48 1278.21C1383.39 1278.13 1385.28 1278.05 1387.16 1277.97C1388.41 1277.93 1389.64 1277.88 1390.88 1277.83C1392.81 1277.73 1394.72 1277.65 1396.63 1277.57C1397.78 1277.52 1398.96 1277.48 1400.11 1277.43C1402.46 1277.32 1404.79 1277.21 1407.12 1277.11C1407.81 1277.08 1408.49 1277.05 1409.15 1277.03C1412.19 1276.88 1415.22 1276.75 1418.24 1276.6C1419 1276.57 1419.75 1276.53 1420.51 1276.51C1422.74 1276.4 1424.97 1276.29 1427.18 1276.19C1428.33 1276.13 1429.45 1276.08 1430.58 1276.03C1432.45 1275.93 1434.3 1275.84 1436.17 1275.76C1437.33 1275.69 1438.5 1275.64 1439.68 1275.59C1441.49 1275.49 1443.32 1275.4 1445.13 1275.32C1446.28 1275.25 1447.46 1275.2 1448.61 1275.13C1450.46 1275.05 1452.33 1274.95 1454.16 1274.85C1455.26 1274.8 1456.33 1274.75 1457.41 1274.69C1459.44 1274.59 1461.43 1274.48 1463.44 1274.37C1464.33 1274.33 1465.25 1274.28 1466.17 1274.24C1469.03 1274.08 1471.9 1273.93 1474.74 1273.77C1475.2 1273.75 1475.66 1273.72 1476.12 1273.71C1478.5 1273.57 1480.91 1273.44 1483.28 1273.31C1484.24 1273.25 1485.19 1273.2 1486.13 1273.15C1488.02 1273.04 1489.89 1272.93 1491.76 1272.84C1492.85 1272.77 1493.97 1272.71 1495.06 1272.64C1496.77 1272.55 1498.47 1272.45 1500.16 1272.35C1501.29 1272.28 1502.43 1272.21 1503.54 1272.16C1505.29 1272.05 1507.02 1271.95 1508.76 1271.84C1509.79 1271.79 1510.85 1271.72 1511.88 1271.65C1513.73 1271.55 1515.56 1271.44 1517.41 1271.32C1518.33 1271.27 1519.22 1271.21 1520.14 1271.16C1522.87 1270.99 1525.55 1270.83 1528.24 1270.65C1528.44 1270.64 1528.66 1270.63 1528.86 1270.61C1531.34 1270.45 1533.83 1270.31 1536.3 1270.15C1537.2 1270.08 1538.07 1270.03 1538.97 1269.97C1540.76 1269.85 1542.55 1269.73 1544.34 1269.61C1545.32 1269.56 1546.31 1269.49 1547.31 1269.43C1548.96 1269.32 1550.61 1269.2 1552.26 1269.09C1553.32 1269.03 1554.37 1268.95 1555.43 1268.88C1557.04 1268.77 1558.61 1268.67 1560.2 1268.55C1561.22 1268.48 1562.23 1268.41 1563.25 1268.35C1565 1268.23 1566.75 1268.09 1568.5 1267.97C1569.32 1267.92 1570.13 1267.85 1570.95 1267.8C1573.22 1267.64 1575.47 1267.48 1577.7 1267.32C1578.01 1267.29 1578.33 1267.27 1578.65 1267.25C1581.16 1267.07 1583.67 1266.88 1586.17 1266.69C1586.93 1266.64 1587.71 1266.59 1588.46 1266.52C1590.19 1266.4 1591.95 1266.27 1593.68 1266.13C1594.61 1266.07 1595.53 1265.99 1596.44 1265.92C1598 1265.8 1599.55 1265.68 1601.08 1265.56C1602.06 1265.49 1603.01 1265.41 1603.99 1265.33C1605.48 1265.23 1606.99 1265.11 1608.5 1264.99C1609.44 1264.91 1610.39 1264.83 1611.37 1264.76C1612.9 1264.63 1614.45 1264.51 1615.99 1264.37C1616.84 1264.31 1617.7 1264.24 1618.55 1264.17C1620.46 1264.01 1622.4 1263.85 1624.31 1263.69C1624.74 1263.65 1625.2 1263.63 1625.64 1263.59C1628.01 1263.39 1630.34 1263.19 1632.66 1262.99C1633.3 1262.93 1633.92 1262.88 1634.56 1262.83C1636.25 1262.68 1637.94 1262.53 1639.61 1262.39C1640.45 1262.32 1641.26 1262.24 1642.08 1262.17C1643.57 1262.04 1645.04 1261.91 1646.52 1261.77C1647.37 1261.69 1648.23 1261.61 1649.06 1261.55C1650.5 1261.41 1651.91 1261.28 1653.32 1261.16C1654.2 1261.08 1655.07 1261 1655.93 1260.92C1657.36 1260.79 1658.8 1260.65 1660.21 1260.52C1661 1260.44 1661.78 1260.37 1662.58 1260.29C1664.25 1260.13 1665.9 1259.97 1667.55 1259.81C1668.07 1259.77 1668.61 1259.72 1669.13 1259.67C1671.29 1259.45 1673.42 1259.24 1675.57 1259.04C1676.11 1258.99 1676.65 1258.92 1677.21 1258.87C1678.78 1258.72 1680.33 1258.56 1681.9 1258.4C1682.68 1258.32 1683.43 1258.24 1684.21 1258.16C1685.54 1258.03 1686.9 1257.88 1688.25 1257.75C1689.03 1257.67 1689.82 1257.59 1690.62 1257.49C1691.89 1257.36 1693.19 1257.23 1694.46 1257.09C1695.26 1257 1696.05 1256.92 1696.85 1256.84C1698.14 1256.69 1699.42 1256.56 1700.69 1256.41C1701.43 1256.33 1702.18 1256.25 1702.92 1256.17C1704.31 1256.03 1705.7 1255.87 1707.08 1255.71C1707.67 1255.64 1708.29 1255.57 1708.89 1255.51C1710.84 1255.29 1712.79 1255.07 1714.72 1254.84C1715.04 1254.81 1715.36 1254.77 1715.68 1254.73C1717.29 1254.55 1718.88 1254.36 1720.45 1254.17C1721.11 1254.09 1721.75 1254.01 1722.38 1253.95C1723.64 1253.79 1724.89 1253.64 1726.12 1253.49C1726.86 1253.4 1727.58 1253.32 1728.29 1253.23C1729.45 1253.08 1730.58 1252.95 1731.72 1252.8C1732.43 1252.72 1733.17 1252.63 1733.89 1252.53C1735.04 1252.39 1736.17 1252.24 1737.29 1252.09C1737.99 1252.01 1738.66 1251.92 1739.34 1251.84C1740.55 1251.68 1741.75 1251.52 1742.94 1251.36C1743.52 1251.29 1744.1 1251.21 1744.67 1251.13C1746.42 1250.91 1748.16 1250.67 1749.89 1250.44L1749.93 1250.43C1751.64 1250.2 1753.33 1249.96 1755 1249.73C1755.52 1249.65 1756.04 1249.59 1756.57 1249.51C1757.71 1249.35 1758.86 1249.19 1759.98 1249.03C1760.63 1248.93 1761.25 1248.84 1761.89 1248.75C1762.9 1248.6 1763.92 1248.45 1764.93 1248.31C1765.57 1248.21 1766.21 1248.11 1766.84 1248.01C1767.84 1247.87 1768.83 1247.72 1769.81 1247.57C1770.43 1247.48 1771.02 1247.39 1771.64 1247.29C1772.67 1247.13 1773.71 1246.97 1774.72 1246.81C1775.26 1246.73 1775.8 1246.64 1776.32 1246.56C1777.65 1246.35 1779 1246.13 1780.32 1245.92C1780.5 1245.89 1780.67 1245.87 1780.85 1245.84C1782.35 1245.59 1783.84 1245.35 1785.29 1245.09C1785.73 1245.03 1786.17 1244.95 1786.61 1244.88C1787.62 1244.71 1788.64 1244.53 1789.63 1244.36C1790.17 1244.27 1790.69 1244.17 1791.22 1244.08C1792.12 1243.92 1793.01 1243.76 1793.89 1243.61C1794.43 1243.51 1794.96 1243.41 1795.5 1243.32C1796.36 1243.16 1797.21 1243 1798.05 1242.84C1798.59 1242.75 1799.1 1242.65 1799.62 1242.56C1800.52 1242.39 1801.37 1242.23 1802.25 1242.05C1802.71 1241.97 1803.14 1241.89 1803.6 1241.8C1804.66 1241.6 1805.71 1241.39 1806.75 1241.19C1806.99 1241.13 1807.22 1241.09 1807.46 1241.04C1808.72 1240.79 1809.97 1240.53 1811.22 1240.28C1811.52 1240.21 1811.82 1240.15 1812.12 1240.08C1813.04 1239.89 1813.95 1239.69 1814.85 1239.51C1815.26 1239.41 1815.68 1239.32 1816.12 1239.23C1816.88 1239.07 1817.61 1238.89 1818.37 1238.73C1818.83 1238.63 1819.26 1238.53 1819.7 1238.43C1820.42 1238.27 1821.12 1238.11 1821.81 1237.95C1822.25 1237.84 1822.67 1237.75 1823.11 1237.64C1823.82 1237.48 1824.52 1237.31 1825.2 1237.15C1825.59 1237.05 1825.97 1236.95 1826.37 1236.85C1827.15 1236.67 1827.92 1236.47 1828.68 1236.28C1828.96 1236.21 1829.24 1236.15 1829.49 1236.07C1830.53 1235.81 1831.52 1235.55 1832.52 1235.28C1832.72 1235.23 1832.92 1235.17 1833.12 1235.12C1833.89 1234.91 1834.65 1234.71 1835.41 1234.49C1835.74 1234.4 1836.04 1234.31 1836.36 1234.21C1836.98 1234.04 1837.59 1233.87 1838.19 1233.69C1838.53 1233.59 1838.89 1233.49 1839.23 1233.39C1839.78 1233.21 1840.32 1233.05 1840.88 1232.88C1841.2 1232.77 1841.53 1232.68 1841.87 1232.57C1842.41 1232.4 1842.93 1232.23 1843.47 1232.05C1843.78 1231.96 1844.08 1231.87 1844.38 1231.76L1844.76 1231.64C1845.04 1231.55 1845.3 1231.45 1845.59 1231.35C1846.07 1231.19 1846.57 1231.03 1847.03 1230.85C1847.41 1230.72 1847.78 1230.59 1848.14 1230.45C1848.6 1230.29 1849.04 1230.12 1849.48 1229.96C1849.85 1229.83 1850.19 1229.69 1850.53 1229.55C1850.97 1229.39 1851.39 1229.23 1851.78 1229.05C1852.12 1228.92 1852.46 1228.79 1852.8 1228.65C1853.18 1228.48 1853.56 1228.32 1853.95 1228.16C1854.27 1228.01 1854.57 1227.88 1854.89 1227.75C1855.25 1227.57 1855.61 1227.41 1855.96 1227.24C1856.26 1227.11 1856.54 1226.97 1856.82 1226.84C1857.16 1226.67 1857.5 1226.49 1857.81 1226.33C1858.09 1226.2 1858.35 1226.05 1858.61 1225.92C1858.93 1225.75 1859.23 1225.59 1859.55 1225.41C1859.78 1225.28 1860.02 1225.13 1860.24 1225C1860.54 1224.83 1860.82 1224.65 1861.1 1224.48C1861.26 1224.39 1861.44 1224.29 1861.58 1224.19L1861.72 1224.09C1862.25 1223.75 1862.73 1223.4 1863.21 1223.05L1863.31 1222.99C1863.73 1222.67 1864.1 1222.33 1864.48 1222.01C1864.6 1221.91 1864.72 1221.8 1864.84 1221.69C1865.1 1221.44 1865.36 1221.2 1865.58 1220.95L1865.89 1220.6C1866.13 1220.33 1866.35 1220.07 1866.53 1219.8L1866.69 1219.6V1219.59C1867.57 1218.33 1868 1217.07 1868 1215.8V1184.41" fill="url(#paint3_linear)"/>
<path d="M934.487 1113.33C1450.07 1113.33 1868 1145.15 1868 1184.41C1868 1223.67 1450.07 1255.49 934.487 1255.49C418.936 1255.49 0.988281 1223.67 0.988281 1184.41C0.988281 1145.15 418.936 1113.33 934.487 1113.33Z" fill="url(#paint4_linear)"/>
<path d="M463.391 507.592H1339.28V1046.6H463.391V507.592" fill="url(#paint5_linear)"/>
<path d="M463.397 1029.76V524.434C463.397 515.134 470.942 507.59 480.229 507.59H1322.44C1331.74 507.59 1339.29 515.134 1339.29 524.434V1029.76C1339.29 1039.07 1331.74 1046.6 1322.44 1046.6H480.229C470.942 1046.6 463.397 1039.07 463.397 1029.76ZM1329.05 440.215H473.606C430.824 440.215 396.015 474.94 396.015 517.626V1130.83C396.015 1140.13 403.544 1147.67 412.865 1147.67H1389.82C1399.14 1147.67 1406.67 1140.13 1406.67 1130.83V517.626C1406.67 474.94 1371.84 440.215 1329.05 440.215" fill="url(#paint6_linear)"/>
<path d="M1423.51 1113.99H379.178C369.865 1113.99 362.332 1121.52 362.332 1130.82C362.332 1168.01 392.586 1198.27 429.769 1198.27H1372.92C1410.1 1198.27 1440.36 1168.01 1440.36 1130.82C1440.36 1121.52 1432.82 1113.99 1423.51 1113.99" fill="url(#paint7_linear)"/>
<path d="M833.965 1147.66H968.732C987.336 1147.66 1002.41 1132.58 1002.41 1113.98H800.273C800.273 1132.58 815.361 1147.66 833.965 1147.66Z" fill="#FAF9F9"/>
<path d="M1060.85 722.078C1060.85 800.282 997.447 863.682 919.243 863.682C841.04 863.682 777.637 800.282 777.637 722.078C777.637 643.873 841.04 580.473 919.243 580.473C997.447 580.473 1060.85 643.873 1060.85 722.078Z" fill="url(#paint8_linear)"/>
<path d="M921.673 580.493C843.481 579.158 779 641.464 777.669 719.654C776.907 763.986 796.671 803.839 828.142 830.333C830.19 828.546 832.388 826.893 834.84 825.559L877.09 802.506C882.637 799.492 886.09 793.679 886.09 787.359V770.052C886.09 770.052 873.681 755.213 868.957 734.612C865.04 732.066 862.409 727.681 862.409 722.685V703.738C862.409 699.57 864.262 695.844 867.148 693.237V665.846C867.148 665.846 861.512 623.22 919.251 623.22C976.96 623.22 971.338 665.846 971.338 665.846V693.237C974.224 695.844 976.078 699.57 976.078 703.738V722.685C976.078 729.052 971.802 734.412 966.001 736.199C962.757 746.253 958.092 755.839 951.932 764.546C950.378 766.745 948.927 768.599 947.657 770.052V787.799C947.657 794.332 951.349 800.318 957.195 803.24L1002.45 825.852C1005.16 827.213 1007.61 828.932 1009.87 830.838C1040.38 805.385 1060.08 767.345 1060.82 724.497C1062.16 646.304 999.864 581.83 921.673 580.493Z" fill="url(#paint9_linear)"/>
<path d="M1046.42 975.561H792.049C784.095 975.561 777.637 969.107 777.637 961.148V906.067C777.637 898.108 784.095 891.654 792.049 891.654H1046.42C1054.39 891.654 1060.85 898.108 1060.85 906.067V961.148C1060.85 969.107 1054.39 975.561 1046.42 975.561Z" fill="url(#paint10_linear)"/>
<path d="M841.204 936.668L837.405 926.495L833.715 936.668H841.204ZM851.384 947.507H845.371L842.966 941.28H832.007L829.739 947.507H823.876L834.562 920.094H840.411L851.384 947.507" fill="url(#paint11_linear)"/>
<path d="M871.883 937.425L877.247 939.132C876.417 942.118 875.063 944.345 873.141 945.798C871.233 947.252 868.8 947.985 865.856 947.985C862.22 947.985 859.221 946.732 856.871 944.251C854.534 941.759 853.373 938.358 853.373 934.038C853.373 929.478 854.534 925.932 856.898 923.412C859.262 920.878 862.359 919.624 866.188 919.624C869.547 919.624 872.27 920.611 874.371 922.598C875.616 923.771 876.555 925.451 877.178 927.652L871.703 928.958C871.372 927.531 870.68 926.412 869.657 925.585C868.635 924.772 867.377 924.359 865.911 924.359C863.893 924.359 862.234 925.079 860.963 926.546C859.705 927.999 859.069 930.372 859.069 933.625C859.069 937.106 859.691 939.572 860.935 941.039C862.179 942.505 863.81 943.252 865.801 943.252C867.28 943.252 868.538 942.772 869.588 941.839C870.667 940.906 871.427 939.439 871.883 937.425" fill="url(#paint12_linear)"/>
<path d="M899.54 937.426L904.913 939.132C904.087 942.118 902.73 944.346 900.813 945.798C898.896 947.252 896.461 947.985 893.522 947.985C889.884 947.985 886.89 946.732 884.539 944.252C882.188 941.758 881.026 938.358 881.026 934.038C881.026 929.478 882.202 925.932 884.567 923.412C886.918 920.879 890.024 919.625 893.858 919.625C897.217 919.625 899.945 920.612 902.03 922.599C903.29 923.773 904.213 925.452 904.843 927.652L899.358 928.959C899.036 927.533 898.35 926.412 897.329 925.585C896.293 924.772 895.048 924.359 893.578 924.359C891.535 924.359 889.898 925.078 888.639 926.546C887.365 927.999 886.722 930.372 886.722 933.625C886.722 937.106 887.351 939.573 888.611 941.039C889.842 942.506 891.479 943.251 893.466 943.251C894.936 943.251 896.209 942.773 897.259 941.839C898.322 940.906 899.092 939.438 899.54 937.426" fill="url(#paint13_linear)"/>
<path d="M914.223 933.79C914.223 936.897 914.946 939.243 916.378 940.843C917.81 942.444 919.639 943.256 921.837 943.256C924.049 943.256 925.85 942.456 927.282 940.87C928.7 939.283 929.409 936.897 929.409 933.709C929.409 930.563 928.714 928.229 927.338 926.682C925.949 925.137 924.12 924.363 921.837 924.363C919.569 924.363 917.725 925.137 916.322 926.709C914.932 928.271 914.223 930.63 914.223 933.79V933.79ZM908.523 933.976C908.523 931.177 908.949 928.843 909.771 926.936C910.409 925.55 911.26 924.296 912.337 923.176C913.415 922.07 914.592 921.244 915.882 920.71C917.584 919.99 919.554 919.63 921.795 919.63C925.836 919.63 929.054 920.883 931.479 923.39C933.903 925.897 935.123 929.376 935.123 933.843C935.123 938.269 933.917 941.736 931.507 944.23C929.111 946.737 925.892 947.99 921.866 947.99C917.796 947.99 914.549 946.737 912.139 944.257C909.729 941.763 908.523 938.336 908.523 933.976" fill="url(#paint14_linear)"/>
<path d="M939.422 920.091H944.972V934.943C944.972 937.291 945.029 938.824 945.172 939.518C945.416 940.65 945.975 941.545 946.864 942.225C947.753 942.904 948.972 943.25 950.521 943.25C952.084 943.25 953.274 942.93 954.077 942.278C954.88 941.638 955.353 940.851 955.511 939.918C955.683 938.984 955.755 937.424 955.755 935.265V920.091H961.29V934.49C961.29 937.784 961.146 940.104 960.845 941.465C960.544 942.824 959.999 943.971 959.196 944.905C958.379 945.851 957.318 946.584 955.97 947.145C954.622 947.704 952.858 947.983 950.693 947.983C948.069 947.983 946.09 947.678 944.728 947.064C943.38 946.465 942.304 945.678 941.516 944.717C940.742 943.745 940.225 942.731 939.967 941.677C939.609 940.104 939.422 937.784 939.422 934.717V920.091" fill="url(#paint15_linear)"/>
<path d="M967.171 947.506V920.093H972.568L983.783 938.399V920.093H988.934V947.506H983.377L972.322 929.626V947.506H967.171Z" fill="url(#paint16_linear)"/>
<path d="M1000.97 947.504V924.731H992.829V920.091H1014.62V924.731H1006.5V947.504H1000.97Z" fill="url(#paint17_linear)"/>
<path d="M998.99 273.744L991.198 309.816C988.804 320.968 992.715 332.535 1001.43 339.915L1029.79 363.983L1047.85 349.178L1028.73 319.429L1040.42 291.806L998.99 273.744Z" fill="url(#paint18_linear)"/>
<path d="M1163.66 289.68L1200.84 273.744L1210.17 311.066C1212.93 322.106 1209.41 333.767 1201 341.429L1172.15 367.683V318.863L1163.66 289.68Z" fill="url(#paint19_linear)"/>
<path d="M1079.72 213.188L1099.91 241.872L1115.85 213.188L1151.65 216.566C1164.43 217.771 1175.73 225.382 1181.64 236.776L1200.83 273.746L1163.67 289.683L1172.16 310.932V367.687L1096.72 402.833L1048.91 375.74L1028.72 319.431L1040.41 291.808L998.988 273.746L1023.59 234.533C1029.53 225.046 1039.4 218.687 1050.49 217.174L1079.72 213.188" fill="url(#paint20_linear)"/>
<path d="M1019.17 375.733V310.925H1182.8V375.733L1096.72 402.828L1019.17 375.733Z" fill="url(#paint21_linear)"/>
<path d="M1177.46 447.987C1177.46 447.987 1013.85 429.925 956.482 400.176C899.102 370.428 960.73 341.743 1013.85 358.741C1066.96 375.74 1179.45 418.723 1179.45 418.723L1177.46 447.987" fill="url(#paint22_linear)"/>
<path d="M1026.6 447.983L1022.77 422.037C1022.77 422.037 1210.42 336.427 1261.4 362.987C1312.4 389.549 1176.41 438.421 1026.6 447.983Z" fill="url(#paint23_linear)"/>
<path d="M1022.9 421.954L1026.6 447.984C1026.6 447.984 959.149 456.485 953.828 453.829C948.521 451.171 930.981 439.485 942.139 428.33C953.297 417.175 1007.48 416.641 1022.9 421.954Z" fill="url(#paint24_linear)"/>
<path d="M1179.68 424.606L1175.97 449.573C1175.97 449.573 1243.43 458.072 1248.74 455.417C1254.05 452.761 1271.58 441.075 1260.42 429.918C1249.27 418.762 1195.09 419.294 1179.68 424.606" fill="url(#paint25_linear)"/>
<path d="M1079.73 213.183L1099.93 247.711L1115.86 213.183V188.747H1079.73V213.183" fill="url(#paint26_linear)"/>
<path d="M1089.9 202.87C1089.9 202.87 1064.8 187.005 1061.96 167.5C1059.1 147.995 1059.11 131.978 1065.66 130.5C1072.22 129.021 1115.93 118.99 1118.47 120.314C1121.01 121.637 1129.97 146.519 1130.4 155.679C1131.25 173.915 1111.94 201.344 1106.29 204.513C1100.63 207.683 1089.9 202.87 1089.9 202.87" fill="url(#paint27_linear)"/>
<path d="M1062.38 169.71C1062.38 169.71 1053.42 156.245 1051.03 140.942C1047.33 117.095 1058.99 104.935 1064.77 102.139C1097.71 86.2014 1103.92 102.792 1132.08 92.1689C1132.08 92.1689 1138.74 107.011 1137.06 122.082C1134.56 144.517 1129.58 156.981 1129.58 156.981C1129.58 156.981 1129.58 132.053 1112.66 130.85C1104.94 130.3 1077.6 137.755 1071.22 130.85C1071.22 130.85 1058.31 132.605 1062.38 169.71" fill="url(#paint28_linear)"/>
<path d="M1568.76 1068.16L1599.59 1186.41H1693.5L1721.89 1068.16H1568.76Z" fill="url(#paint29_linear)"/>
<path d="M1719.03 924.307C1719.04 911.945 1712.89 900.401 1702.64 893.506C1713.84 879.506 1711.56 859.092 1697.57 847.893C1691.8 843.279 1684.64 840.773 1677.27 840.773C1676.8 840.773 1676.34 840.826 1675.87 840.852C1681.07 823.68 1671.37 805.546 1654.18 800.345C1637.02 795.16 1618.9 804.866 1613.7 822.026C1611.84 828.172 1611.84 834.719 1613.7 840.852C1613.22 840.852 1612.77 840.773 1612.31 840.773C1594.37 840.759 1579.82 855.279 1579.82 873.2C1579.82 880.587 1582.33 887.747 1586.94 893.506C1569.93 904.946 1565.41 928.026 1576.86 945.026C1579.54 949 1582.96 952.426 1586.94 955.107C1575.74 969.093 1578 989.519 1592 1000.72C1597.77 1005.33 1604.93 1007.84 1612.31 1007.83H1677.27C1695.2 1007.84 1709.74 993.334 1709.76 975.399C1709.76 968.026 1707.25 960.866 1702.64 955.107C1712.89 948.212 1719.04 936.653 1719.03 924.307Z" fill="url(#paint30_linear)"/>
<path d="M1680.57 902.465C1678.75 900.651 1675.82 900.651 1674 902.465L1649.44 927.025V859.332C1649.44 856.771 1647.36 854.69 1644.79 854.69C1642.24 854.69 1640.15 856.771 1640.15 859.332V892.225L1619.07 871.144C1617.23 869.358 1614.28 869.412 1612.52 871.251C1610.78 873.052 1610.78 875.905 1612.52 877.704L1640.15 905.345V968.784L1620.23 948.864C1618.39 947.078 1615.45 947.131 1613.68 948.971C1611.94 950.772 1611.94 953.626 1613.68 955.425L1640.15 981.906V1068.16C1640.15 1070.72 1642.24 1072.8 1644.79 1072.8C1647.36 1072.8 1649.44 1070.72 1649.44 1068.16V939.825C1649.78 939.651 1650.1 939.439 1650.4 939.185L1680.57 909.024C1682.37 907.211 1682.37 904.277 1680.57 902.465" fill="url(#paint31_linear)"/>
<path d="M1723.66 1072.8H1565.89C1563.34 1072.8 1561.24 1070.72 1561.24 1068.16C1561.24 1065.59 1563.34 1063.52 1565.89 1063.52H1723.66C1726.23 1063.52 1728.3 1065.59 1728.3 1068.16C1728.3 1070.72 1726.23 1072.8 1723.66 1072.8Z" fill="url(#paint32_linear)"/>
<path d="M206.173 325.955C188.747 325.955 174.613 311.82 174.613 294.383C174.613 276.944 188.747 262.81 206.173 262.81C223.613 262.81 237.747 276.944 237.747 294.383C237.747 311.82 223.613 325.955 206.173 325.955ZM188.147 282.848V310.459H228.667V282.848H188.147Z" fill="url(#paint33_linear)"/>
<path d="M188.147 310.459H228.666V282.849H188.147V310.459Z" fill="url(#paint34_linear)"/>
<path d="M227.333 309.126H186.813V281.515H227.333V309.126Z" fill="white"/>
<path d="M186.813 309.126C190.067 306.194 193.387 303.341 196.72 300.501C198.373 299.065 200.067 297.682 201.733 296.275L206.773 292.069L207.08 291.818L207.373 292.069L212.413 296.274C214.08 297.683 215.787 299.063 217.44 300.499C220.76 303.339 224.08 306.193 227.333 309.126C223.827 306.495 220.4 303.782 216.973 301.059C215.253 299.713 213.573 298.311 211.867 296.937L206.773 292.797H207.373L202.28 296.937C200.587 298.311 198.907 299.71 197.173 301.058C193.747 303.782 190.32 306.494 186.813 309.126" fill="#ABA6E2"/>
<path d="M186.813 281.515L207.08 298.208L227.333 281.515" fill="white"/>
<path d="M186.813 281.515C190.32 284.147 193.747 286.859 197.173 289.583C198.907 290.93 200.587 292.33 202.28 293.705L207.373 297.845H206.773L211.867 293.703C213.573 292.33 215.253 290.929 216.973 289.582C220.4 286.859 223.827 284.146 227.333 281.515C224.08 284.449 220.76 287.302 217.44 290.142C215.787 291.578 214.08 292.958 212.413 294.366L207.373 298.573L207.08 298.823L206.773 298.573L201.733 294.366C200.067 292.959 198.373 291.575 196.72 290.141C193.387 287.301 190.067 284.447 186.813 281.515" fill="#ABA6E2"/>
<path d="M1667.06 232.823C1657.2 232.823 1649.24 224.84 1649.24 214.992C1649.24 205.143 1657.2 197.159 1667.06 197.159C1676.92 197.159 1684.9 205.143 1684.9 214.992C1684.9 224.84 1676.92 232.823 1667.06 232.823ZM1657.47 209.058V224.652H1680.34V209.058H1657.47Z" fill="url(#paint35_linear)"/>
<path d="M1680.34 224.653H1657.46V209.06H1680.34V224.653Z" fill="url(#paint36_linear)"/>
<path d="M1678.99 223.327H1656.1V207.731H1678.99V223.327Z" fill="white"/>
<path d="M1656.1 223.327C1657.9 221.604 1659.74 219.962 1661.6 218.334C1663.45 216.696 1665.34 215.114 1667.24 213.534L1667.56 213.283L1667.84 213.534C1669.75 215.114 1671.64 216.694 1673.5 218.332C1675.37 219.962 1677.21 221.602 1678.99 223.327C1676.97 221.906 1675 220.405 1673.05 218.892C1671.08 217.385 1669.17 215.824 1667.26 214.261H1667.84C1665.94 215.824 1664.01 217.385 1662.06 218.892C1660.12 220.403 1658.13 221.904 1656.1 223.327" fill="#ABA6E2"/>
<path d="M1656.1 207.731L1667.56 217.161L1678.99 207.731" fill="white"/>
<path d="M1656.1 207.731C1658.13 209.154 1660.12 210.655 1662.06 212.168C1664.01 213.671 1665.94 215.234 1667.84 216.797H1667.26C1669.17 215.234 1671.08 213.671 1673.05 212.166C1675 210.653 1676.97 209.152 1678.99 207.731C1677.21 209.454 1675.37 211.096 1673.5 212.726C1671.64 214.364 1669.75 215.944 1667.84 217.524L1667.56 217.773L1667.24 217.524C1665.34 215.944 1663.45 214.364 1661.6 212.724C1659.74 211.096 1657.9 209.454 1656.1 207.731" fill="#ABA6E2"/>
<path d="M955.154 51.1798C959.184 45.9023 961.594 39.3341 961.594 32.1779C961.594 14.8252 947.525 0.756505 930.187 0.756505C912.834 0.756505 898.78 14.8252 898.78 32.1779C898.78 49.5162 912.834 63.5848 930.187 63.5848C936.31 63.5848 942.004 61.8064 946.851 58.7661L961.594 66.9692L955.154 51.1798Z" fill="url(#paint37_linear)"/>
<path d="M918.301 33.8734C918.301 36.773 915.95 39.1235 913.051 39.1235C910.151 39.1235 907.815 36.773 907.815 33.8734C907.815 30.9739 910.151 28.6233 913.051 28.6233C915.95 28.6233 918.301 30.9739 918.301 33.8734Z" fill="white"/>
<path d="M935.427 33.8704C935.427 36.7632 933.087 39.1172 930.18 39.1172C927.287 39.1172 924.933 36.7632 924.933 33.8704C924.933 30.9634 927.287 28.6236 930.18 28.6236C933.087 28.6236 935.427 30.9634 935.427 33.8704Z" fill="white"/>
<path d="M952.553 33.8651C952.553 36.765 950.21 39.1079 947.296 39.1079C944.41 39.1079 942.053 36.765 942.053 33.8651C942.053 30.9651 944.41 28.608 947.296 28.608C950.21 28.608 952.553 30.9651 952.553 33.8651Z" fill="white"/>
<path d="M1757.58 590.379C1759.67 587.636 1760.92 584.222 1760.92 580.508C1760.92 571.498 1753.61 564.194 1744.62 564.194C1735.6 564.194 1728.3 571.498 1728.3 580.508C1728.3 589.517 1735.6 596.82 1744.62 596.82C1747.8 596.82 1750.74 595.894 1753.26 594.318L1760.92 598.577L1757.58 590.379" fill="url(#paint38_linear)"/>
<path d="M1738.45 581.383C1738.45 582.888 1737.23 584.109 1735.74 584.109C1734.23 584.109 1733.01 582.888 1733.01 581.383C1733.01 579.877 1734.23 578.656 1735.74 578.656C1737.23 578.656 1738.45 579.877 1738.45 581.383Z" fill="white"/>
<path d="M1747.34 581.385C1747.34 582.891 1746.13 584.109 1744.62 584.109C1743.11 584.109 1741.88 582.891 1741.88 581.385C1741.88 579.878 1743.11 578.658 1744.62 578.658C1746.13 578.658 1747.34 579.878 1747.34 581.385Z" fill="white"/>
<path d="M1756.23 581.385C1756.23 582.891 1755 584.111 1753.5 584.111C1751.98 584.111 1750.77 582.891 1750.77 581.385C1750.77 579.88 1751.98 578.658 1753.5 578.658C1755 578.658 1756.23 579.88 1756.23 581.385Z" fill="white"/>
<path d="M92.92 683.504C95.0133 680.762 96.2666 677.348 96.2666 673.634C96.2666 664.623 88.9733 657.319 79.9599 657.319C70.9466 657.319 63.6399 664.623 63.6399 673.634C63.6399 682.642 70.9466 689.946 79.9599 689.946C83.1466 689.946 86.1065 689.022 88.6132 687.444L96.2666 691.7L92.92 683.504Z" fill="url(#paint39_linear)"/>
<path d="M73.8001 674.509C73.8001 676.016 72.5734 677.237 71.0667 677.237C69.5601 677.237 68.3467 676.016 68.3467 674.509C68.3467 673.004 69.5601 671.783 71.0667 671.783C72.5734 671.783 73.8001 673.004 73.8001 674.509Z" fill="white"/>
<path d="M82.6799 674.509C82.6799 676.016 81.4667 677.237 79.96 677.237C78.4534 677.237 77.2267 676.016 77.2267 674.509C77.2267 673.004 78.4534 671.783 79.96 671.783C81.4667 671.783 82.6799 673.004 82.6799 674.509Z" fill="white"/>
<path d="M91.5734 674.509C91.5734 676.016 90.3601 677.237 88.8535 677.237C87.3468 677.237 86.1201 676.016 86.1201 674.509C86.1201 673.004 87.3468 671.783 88.8535 671.783C90.3601 671.783 91.5734 673.004 91.5734 674.509Z" fill="white"/>
<path d="M1534.29 656.739C1534.29 672.272 1521.68 684.863 1506.17 684.863C1490.62 684.863 1478.03 672.272 1478.03 656.739C1478.03 641.205 1490.62 628.614 1506.17 628.614C1521.68 628.614 1534.29 641.205 1534.29 656.739Z" fill="url(#paint40_linear)"/>
<path d="M1518.98 645.627C1511.85 642.824 1506.18 652.678 1506.18 652.678C1506.18 652.678 1500.47 642.824 1493.34 645.627C1482.79 649.764 1497.35 668.862 1506.18 673.215C1514.97 668.862 1529.53 649.764 1518.98 645.627Z" fill="white"/>
<path d="M291.48 895.787C291.48 905.134 283.92 912.707 274.573 912.707C265.24 912.707 257.667 905.134 257.667 895.787C257.667 886.454 265.24 878.88 274.573 878.88C283.92 878.88 291.48 886.454 291.48 895.787Z" fill="url(#paint41_linear)"/>
<path d="M282.28 889.107C277.986 887.427 274.573 893.347 274.573 893.347C274.573 893.347 271.16 887.427 266.867 889.107C260.52 891.6 269.28 903.081 274.573 905.694C279.867 903.081 288.626 891.6 282.28 889.107Z" fill="white"/>
<path d="M819.219 318.72C819.219 328.059 811.65 335.631 802.304 335.631C792.971 335.631 785.388 328.059 785.388 318.72C785.388 309.378 792.971 301.807 802.304 301.807C811.65 301.807 819.219 309.378 819.219 318.72Z" fill="url(#paint42_linear)"/>
<path d="M810.015 312.037C805.725 310.353 802.295 316.277 802.295 316.277C802.295 316.277 798.878 310.353 794.588 312.037C788.239 314.526 797.009 326.009 802.295 328.626C807.594 326.009 816.35 314.526 810.015 312.037Z" fill="white"/>
<defs>
<linearGradient id="paint0_linear" x1="718.293" y1="704.939" x2="358.768" y2="6.43366" gradientUnits="userSpaceOnUse">
<stop stop-color="#30944C"/>
<stop offset="0.920082" stop-color="#FFED7F"/>
<stop offset="1" stop-color="#FFED7F"/>
</linearGradient>
<linearGradient id="paint1_linear" x1="498.24" y1="617.946" x2="0.0413055" y2="540.905" gradientUnits="userSpaceOnUse">
<stop stop-color="#30944C"/>
<stop offset="0.920082" stop-color="#FFED7F"/>
<stop offset="1" stop-color="#FFED7F"/>
</linearGradient>
<linearGradient id="paint2_linear" x1="635.933" y1="799.734" x2="304.657" y2="265.583" gradientUnits="userSpaceOnUse">
<stop stop-color="#30944C"/>
<stop offset="0.920082" stop-color="#FFED7F"/>
<stop offset="1" stop-color="#FFED7F"/>
</linearGradient>
<linearGradient id="paint3_linear" x1="637.611" y1="1075.03" x2="3548.42" y2="1075.03" gradientUnits="userSpaceOnUse">
<stop stop-color="#44A552"/>
<stop offset="0.10747" stop-color="#44A552"/>
<stop offset="1" stop-color="#79E27A"/>
</linearGradient>
<linearGradient id="paint4_linear" x1="3548.38" y1="1001.31" x2="390.092" y2="995.418" gradientUnits="userSpaceOnUse">
<stop stop-color="#44A552"/>
<stop offset="0.10747" stop-color="#44A552"/>
<stop offset="1" stop-color="#79E27A"/>
</linearGradient>
<linearGradient id="paint5_linear" x1="830.82" y1="993.175" x2="2261.58" y2="70.4357" gradientUnits="userSpaceOnUse">
<stop stop-color="white"/>
<stop offset="0.0027027" stop-color="white"/>
<stop offset="0.19149" stop-color="white"/>
<stop offset="1" stop-color="#D2D2FF"/>
</linearGradient>
<linearGradient id="paint6_linear" x1="892.833" y1="578.701" x2="2186.84" y2="578.701" gradientUnits="userSpaceOnUse">
<stop stop-color="#BE73DE"/>
<stop offset="0.00678367" stop-color="#BE73DE"/>
<stop offset="1" stop-color="#514EB7"/>
</linearGradient>
<linearGradient id="paint7_linear" x1="1574.13" y1="951.779" x2="1577.71" y2="1138.18" gradientUnits="userSpaceOnUse">
<stop stop-color="#FFD571"/>
<stop offset="0.10747" stop-color="#FFD571"/>
<stop offset="1" stop-color="#FF6421"/>
</linearGradient>
<linearGradient id="paint8_linear" x1="1038.77" y1="620.278" x2="1356.32" y2="620.278" gradientUnits="userSpaceOnUse">
<stop stop-color="#7DE1F6"/>
<stop offset="0.920082" stop-color="#006DDB"/>
<stop offset="1" stop-color="#006DDB"/>
</linearGradient>
<linearGradient id="paint9_linear" x1="1019.3" y1="740.329" x2="1450.43" y2="448.771" gradientUnits="userSpaceOnUse">
<stop stop-color="#FFD571"/>
<stop offset="0.10747" stop-color="#FFD571"/>
<stop offset="1" stop-color="#FF6421"/>
</linearGradient>
<linearGradient id="paint10_linear" x1="929.379" y1="942.707" x2="1493.55" y2="763.347" gradientUnits="userSpaceOnUse">
<stop stop-color="#7DE1F6"/>
<stop offset="0.920082" stop-color="#006DDB"/>
<stop offset="1" stop-color="#006DDB"/>
</linearGradient>
<linearGradient id="paint11_linear" x1="829.37" y1="926.493" x2="1158.23" y2="886.804" gradientUnits="userSpaceOnUse">
<stop stop-color="white"/>
<stop offset="0.0027027" stop-color="white"/>
<stop offset="0.19149" stop-color="white"/>
<stop offset="1" stop-color="#D2D2FF"/>
</linearGradient>
<linearGradient id="paint12_linear" x1="855.322" y1="921.952" x2="1188" y2="881.802" gradientUnits="userSpaceOnUse">
<stop stop-color="white"/>
<stop offset="0.0027027" stop-color="white"/>
<stop offset="0.19149" stop-color="white"/>
<stop offset="1" stop-color="#D2D2FF"/>
</linearGradient>
<linearGradient id="paint13_linear" x1="883.125" y1="917.554" x2="1219.89" y2="876.91" gradientUnits="userSpaceOnUse">
<stop stop-color="white"/>
<stop offset="0.0027027" stop-color="white"/>
<stop offset="0.19149" stop-color="white"/>
<stop offset="1" stop-color="#D2D2FF"/>
</linearGradient>
<linearGradient id="paint14_linear" x1="913.486" y1="912.582" x2="1254.7" y2="871.4" gradientUnits="userSpaceOnUse">
<stop stop-color="white"/>
<stop offset="0.0027027" stop-color="white"/>
<stop offset="0.19149" stop-color="white"/>
<stop offset="1" stop-color="#D2D2FF"/>
</linearGradient>
<linearGradient id="paint15_linear" x1="939.795" y1="908.545" x2="1284.88" y2="866.897" gradientUnits="userSpaceOnUse">
<stop stop-color="white"/>
<stop offset="0.0027027" stop-color="white"/>
<stop offset="0.19149" stop-color="white"/>
<stop offset="1" stop-color="#D2D2FF"/>
</linearGradient>
<linearGradient id="paint16_linear" x1="967.664" y1="904.752" x2="1316.83" y2="862.611" gradientUnits="userSpaceOnUse">
<stop stop-color="white"/>
<stop offset="0.0027027" stop-color="white"/>
<stop offset="0.19149" stop-color="white"/>
<stop offset="1" stop-color="#D2D2FF"/>
</linearGradient>
<linearGradient id="paint17_linear" x1="993.46" y1="900.447" x2="1346.42" y2="857.849" gradientUnits="userSpaceOnUse">
<stop stop-color="white"/>
<stop offset="0.0027027" stop-color="white"/>
<stop offset="0.19149" stop-color="white"/>
<stop offset="1" stop-color="#D2D2FF"/>
</linearGradient>
<linearGradient id="paint18_linear" x1="1263.29" y1="175.605" x2="1327.25" y2="175.605" gradientUnits="userSpaceOnUse">
<stop stop-color="#FFECDC"/>
<stop offset="0.10747" stop-color="#FFECDC"/>
<stop offset="1" stop-color="#D39364"/>
</linearGradient>
<linearGradient id="paint19_linear" x1="1717.77" y1="95.7001" x2="1628.74" y2="72.4546" gradientUnits="userSpaceOnUse">
<stop stop-color="#FFECDC"/>
<stop offset="0.10747" stop-color="#FFECDC"/>
<stop offset="1" stop-color="#D39364"/>
</linearGradient>
<linearGradient id="paint20_linear" x1="1564.04" y1="-82.1792" x2="1555.01" y2="155.247" gradientUnits="userSpaceOnUse">
<stop stop-color="#7DE1F6"/>
<stop offset="0.920082" stop-color="#006DDB"/>
<stop offset="1" stop-color="#006DDB"/>
</linearGradient>
<linearGradient id="paint21_linear" x1="1540.29" y1="85.8918" x2="1540.29" y2="193.016" gradientUnits="userSpaceOnUse">
<stop stop-color="#BE73DE"/>
<stop offset="0.00678367" stop-color="#BE73DE"/>
<stop offset="1" stop-color="#514EB7"/>
</linearGradient>
<linearGradient id="paint22_linear" x1="1339.53" y1="196.722" x2="1628.75" y2="196.722" gradientUnits="userSpaceOnUse">
<stop stop-color="#808080"/>
<stop offset="0.89253" stop-color="#3C3C35"/>
<stop offset="1" stop-color="#3C3C35"/>
</linearGradient>
<linearGradient id="paint23_linear" x1="1547.1" y1="149.643" x2="1851.22" y2="149.643" gradientUnits="userSpaceOnUse">
<stop stop-color="#808080"/>
<stop offset="0.89253" stop-color="#3C3C35"/>
<stop offset="1" stop-color="#3C3C35"/>
</linearGradient>
<linearGradient id="paint24_linear" x1="1175.43" y1="335.815" x2="1310.46" y2="295.398" gradientUnits="userSpaceOnUse">
<stop stop-color="#FFD571"/>
<stop offset="0.10747" stop-color="#FFD571"/>
<stop offset="1" stop-color="#FF6421"/>
</linearGradient>
<linearGradient id="paint25_linear" x1="1840.07" y1="219.118" x2="1704.3" y2="174.199" gradientUnits="userSpaceOnUse">
<stop stop-color="#FFD571"/>
<stop offset="0.10747" stop-color="#FFD571"/>
<stop offset="1" stop-color="#FF6421"/>
</linearGradient>
<linearGradient id="paint26_linear" x1="1464.36" y1="58.7654" x2="1456.17" y2="-57.943" gradientUnits="userSpaceOnUse">
<stop stop-color="#E3CBBA"/>
<stop offset="0.10747" stop-color="#E3CBBA"/>
<stop offset="1" stop-color="#BF7C4A"/>
</linearGradient>
<linearGradient id="paint27_linear" x1="1483.9" y1="9.98828" x2="1465.21" y2="-126.094" gradientUnits="userSpaceOnUse">
<stop stop-color="#FFECDC"/>
<stop offset="0.10747" stop-color="#FFECDC"/>
<stop offset="1" stop-color="#D39364"/>
</linearGradient>
<linearGradient id="paint28_linear" x1="1450.76" y1="-37.6953" x2="1510.34" y2="-146.766" gradientUnits="userSpaceOnUse">
<stop stop-color="#808080"/>
<stop offset="0.89253" stop-color="#3C3C35"/>
<stop offset="1" stop-color="#3C3C35"/>
</linearGradient>
<linearGradient id="paint29_linear" x1="2821.49" y1="942.488" x2="3039.76" y2="942.488" gradientUnits="userSpaceOnUse">
<stop stop-color="#BE73DE"/>
<stop offset="0.00678367" stop-color="#BE73DE"/>
<stop offset="1" stop-color="#514EB7"/>
</linearGradient>
<linearGradient id="paint30_linear" x1="2797.58" y1="628.654" x2="3112.12" y2="619.448" gradientUnits="userSpaceOnUse">
<stop stop-color="#FFD571"/>
<stop offset="0.10747" stop-color="#FFD571"/>
<stop offset="1" stop-color="#FF6421"/>
</linearGradient>
<linearGradient id="paint31_linear" x1="2827.17" y1="720.357" x2="2926.66" y2="720.357" gradientUnits="userSpaceOnUse">
<stop stop-color="#808080"/>
<stop offset="0.89253" stop-color="#3C3C35"/>
<stop offset="1" stop-color="#3C3C35"/>
</linearGradient>
<linearGradient id="paint32_linear" x1="2819.46" y1="856.762" x2="3058.06" y2="856.762" gradientUnits="userSpaceOnUse">
<stop stop-color="#808080"/>
<stop offset="0.89253" stop-color="#3C3C35"/>
<stop offset="1" stop-color="#3C3C35"/>
</linearGradient>
<linearGradient id="paint33_linear" x1="190.547" y1="265.091" x2="231.784" y2="342.368" gradientUnits="userSpaceOnUse">
<stop stop-color="#FFD582"/>
<stop offset="0.10747" stop-color="#FFD582"/>
<stop offset="1" stop-color="#FF7530"/>
</linearGradient>
<linearGradient id="paint34_linear" x1="190.547" y1="265.091" x2="231.784" y2="342.368" gradientUnits="userSpaceOnUse">
<stop stop-color="#B59C70"/>
<stop offset="1" stop-color="#B55629"/>
</linearGradient>
<linearGradient id="paint35_linear" x1="2897.38" y1="-358.269" x2="2930.18" y2="-296.797" gradientUnits="userSpaceOnUse">
<stop stop-color="#FFD582"/>
<stop offset="0.10747" stop-color="#FFD582"/>
<stop offset="1" stop-color="#FF7530"/>
</linearGradient>
<linearGradient id="paint36_linear" x1="2891" y1="-355.407" x2="2923.76" y2="-294.027" gradientUnits="userSpaceOnUse">
<stop stop-color="#B59C70"/>
<stop offset="1" stop-color="#B55629"/>
</linearGradient>
<linearGradient id="paint37_linear" x1="1138.42" y1="-22.7055" x2="1079.84" y2="-127.468" gradientUnits="userSpaceOnUse">
<stop stop-color="#30944C"/>
<stop offset="0.920082" stop-color="#FFED7F"/>
<stop offset="1" stop-color="#FFED7F"/>
</linearGradient>
<linearGradient id="paint38_linear" x1="3151.87" y1="187.8" x2="3111.04" y2="114.783" gradientUnits="userSpaceOnUse">
<stop stop-color="#30944C"/>
<stop offset="0.920082" stop-color="#FFED7F"/>
<stop offset="1" stop-color="#FFED7F"/>
</linearGradient>
<linearGradient id="paint39_linear" x1="96.3466" y1="702.948" x2="68.0613" y2="652.361" gradientUnits="userSpaceOnUse">
<stop stop-color="#30944C"/>
<stop offset="0.920082" stop-color="#FFED7F"/>
<stop offset="1" stop-color="#FFED7F"/>
</linearGradient>
<linearGradient id="paint40_linear" x1="2469.22" y1="330.21" x2="2549.51" y2="440.983" gradientUnits="userSpaceOnUse">
<stop stop-color="#AB75C7"/>
<stop offset="0.89253" stop-color="#514EB7"/>
<stop offset="1" stop-color="#514EB7"/>
</linearGradient>
<linearGradient id="paint41_linear" x1="268.173" y1="886.96" x2="304.224" y2="936.701" gradientUnits="userSpaceOnUse">
<stop stop-color="#AB75C7"/>
<stop offset="0.89253" stop-color="#514EB7"/>
<stop offset="1" stop-color="#514EB7"/>
</linearGradient>
<linearGradient id="paint42_linear" x1="817.764" y1="297.282" x2="854.178" y2="347.524" gradientUnits="userSpaceOnUse">
<stop stop-color="#AB75C7"/>
<stop offset="0.89253" stop-color="#514EB7"/>
<stop offset="1" stop-color="#514EB7"/>
</linearGradient>
</defs>
</svg>
