<svg width="1921" height="247" viewBox="0 0 1921 247" fill="none" xmlns="http://www.w3.org/2000/svg">
<path d="M1 129L418.921 229.458C474.791 242.888 502.725 249.602 528.805 241.634C554.884 233.665 574.295 212.483 613.116 170.12L662.377 116.365C731.233 41.2275 765.66 3.65893 809.043 3.21147C811.02 3.19108 812.998 3.22935 814.973 3.32623C858.306 5.45169 891.254 44.3241 957.151 122.069V122.069C1024.57 201.608 1058.28 241.378 1102.35 243.006C1104.36 243.08 1106.37 243.093 1108.37 243.047C1152.47 242.019 1186.71 202.712 1255.21 124.097L1282.53 92.7346C1330.62 37.5414 1354.67 9.94477 1387.69 3.1251C1420.71 -3.69457 1453.72 12.1192 1519.74 43.7468L1920 235.5" stroke="#F3F6F7" stroke-width="2"/>
</svg>
