<svg width="1000" height="667" viewBox="0 0 1000 667" fill="none" xmlns="http://www.w3.org/2000/svg">
<path fill-rule="evenodd" clip-rule="evenodd" d="M188.168 41.0451C122.437 41.0451 68.6579 94.8252 68.6579 160.556C68.6579 226.286 122.437 280.065 188.168 280.065C201.359 280.065 212.152 290.86 212.152 304.05C212.152 317.241 201.359 328.034 188.168 328.034H125.633C93.5678 328.034 67.3307 354.269 67.3307 386.336C67.3307 418.402 93.5678 444.638 125.633 444.638C153.365 444.638 176.055 467.329 176.055 495.06C176.055 545.66 217.453 587.059 268.053 587.059H295.555H700.724H808.108C873.841 587.059 927.619 533.278 927.619 467.548C927.619 401.817 873.84 348.037 808.108 348.037H796.552C783.361 348.037 772.568 337.245 772.568 324.053C772.568 310.861 783.361 300.069 796.552 300.069H874.365C906.432 300.069 932.669 273.832 932.669 241.765C932.669 209.737 906.493 183.524 874.477 183.464C874.441 183.464 811.905 183.464 811.868 183.464C784.139 183.464 761.448 160.775 761.448 133.043C761.448 82.4438 720.049 41.0451 669.449 41.0451C579.668 41.0451 277.951 41.0451 188.168 41.0451" fill="#EAF1F5"/>
<path fill-rule="evenodd" clip-rule="evenodd" d="M686.264 102.836C678.381 102.836 670.499 105.842 664.485 111.854C658.472 117.869 655.464 125.753 655.465 133.634C655.465 141.516 658.472 149.398 664.485 155.412C670.499 161.425 678.381 164.434 686.264 164.434C694.143 164.434 702.028 161.425 708.041 155.412C714.055 149.398 717.063 141.516 717.063 133.634C717.063 125.753 714.055 117.869 708.041 111.854C702.028 105.842 694.145 102.836 686.264 102.836ZM660.845 108.216C667.861 101.197 677.064 97.6877 686.264 97.6877C695.463 97.6877 704.663 101.197 711.683 108.216C718.7 115.234 722.211 124.434 722.211 133.634C722.211 142.833 718.7 152.034 711.683 159.052C704.663 166.072 695.463 169.581 686.264 169.581C677.064 169.581 667.864 166.072 660.845 159.052C653.825 152.034 650.316 142.833 650.316 133.634C650.316 124.434 653.825 115.234 660.845 108.216Z" fill="#414EA9"/>
<path fill-rule="evenodd" clip-rule="evenodd" d="M708.041 159.052C707.036 158.048 707.036 156.417 708.041 155.412C709.047 154.407 710.676 154.407 711.683 155.412L720.191 163.92C721.195 164.925 721.195 166.556 720.191 167.56C719.184 168.565 717.555 168.565 716.549 167.56L708.041 159.052Z" fill="#414EA9"/>
<path fill-rule="evenodd" clip-rule="evenodd" d="M716.897 171.548C714.887 169.537 714.887 166.277 716.897 164.268C718.907 162.256 722.168 162.256 724.177 164.268L763.425 203.516C765.437 205.528 765.437 208.787 763.425 210.799C761.417 212.808 758.155 212.808 756.145 210.799L716.897 171.548Z" fill="#414EA9"/>
<path fill-rule="evenodd" clip-rule="evenodd" d="M666.932 119.704C666.417 120.422 665.416 120.585 664.699 120.068C663.983 119.552 663.819 118.553 664.335 117.836C664.764 117.241 665.213 116.669 665.679 116.122L665.753 116.04C666.239 115.476 666.703 114.969 667.151 114.521C667.777 113.894 668.795 113.894 669.421 114.521C670.048 115.148 670.048 116.165 669.421 116.792C668.947 117.265 668.535 117.708 668.181 118.117L668.111 118.205C667.687 118.704 667.293 119.202 666.932 119.704V119.704ZM669.421 150.344C670.048 150.97 670.048 151.988 669.421 152.614C668.795 153.241 667.777 153.241 667.151 152.614C664.579 150.041 662.633 147.065 661.313 143.881C659.945 140.581 659.261 137.07 659.261 133.568C659.261 131.936 659.416 130.285 659.719 128.64C660.017 127.032 660.467 125.438 661.064 123.882C661.379 123.058 662.304 122.645 663.128 122.962C663.952 123.276 664.364 124.2 664.049 125.026C663.528 126.384 663.132 127.788 662.867 129.217C662.604 130.636 662.472 132.093 662.472 133.568C662.472 136.67 663.073 139.768 664.273 142.665C665.427 145.449 667.143 148.065 669.421 150.344V150.344ZM706.169 146.389C706.647 145.645 707.639 145.428 708.384 145.906C709.129 146.385 709.344 147.376 708.865 148.12C708.353 148.918 707.791 149.698 707.179 150.457C706.563 151.22 705.917 151.942 705.244 152.614C704.617 153.241 703.601 153.241 702.975 152.614C702.347 151.988 702.347 150.97 702.975 150.344C703.6 149.718 704.169 149.085 704.683 148.449C705.217 147.786 705.713 147.1 706.169 146.389V146.389ZM702.975 116.792C702.347 116.165 702.347 115.148 702.975 114.521C703.601 113.894 704.617 113.894 705.244 114.521C707.816 117.093 709.764 120.069 711.083 123.254C712.445 126.545 713.127 130.057 713.127 133.568H713.133C713.133 136.078 712.784 138.592 712.084 141.028C711.84 141.88 710.953 142.374 710.101 142.132C709.251 141.889 708.755 141.001 708.996 140.149C709.613 138.006 709.921 135.788 709.921 133.568H709.928C709.928 130.474 709.327 127.38 708.121 124.47C706.969 121.688 705.253 119.07 702.975 116.792Z" fill="white"/>
<path fill-rule="evenodd" clip-rule="evenodd" d="M694.019 144.384C693.275 144.813 693.023 145.762 693.452 146.505C693.88 147.248 694.831 147.5 695.575 147.07C697.932 145.704 699.901 143.73 701.269 141.362C702.591 139.07 703.347 136.421 703.347 133.604C703.347 129.306 701.605 125.418 698.789 122.604C695.975 119.789 692.084 118.048 687.791 118.048C683.496 118.048 679.605 119.789 676.792 122.604C673.975 125.418 672.235 129.306 672.235 133.604C672.235 134.464 672.931 135.16 673.792 135.16C674.649 135.16 675.347 134.464 675.347 133.604C675.347 130.168 676.741 127.057 678.992 124.805C681.244 122.552 684.355 121.16 687.791 121.16C691.227 121.16 694.337 122.552 696.588 124.805C698.841 127.057 700.235 130.168 700.235 133.604C700.235 135.874 699.633 137.997 698.583 139.818C697.492 141.706 695.913 143.285 694.019 144.384" fill="#C2CEE6"/>
<path fill-rule="evenodd" clip-rule="evenodd" d="M834.144 420.836C827.092 417.916 819.355 416.304 811.235 416.304C803.116 416.304 795.376 417.916 788.324 420.836C781.004 423.869 774.409 428.318 768.881 433.846C763.355 439.373 758.903 445.969 755.869 453.289C752.949 460.342 751.337 468.081 751.337 476.198C751.337 484.32 752.949 492.057 755.869 499.109C758.903 506.43 763.355 513.028 768.881 518.554C774.409 524.082 781.004 528.53 788.324 531.564C795.376 534.484 803.116 536.097 811.235 536.097C819.355 536.097 827.092 534.484 834.144 531.564C841.467 528.53 848.061 524.082 853.588 518.554C859.116 513.028 863.567 506.43 866.597 499.109C869.52 492.057 871.132 484.32 871.132 476.198C871.132 468.081 869.52 460.342 866.597 453.289C863.567 445.969 859.116 439.373 853.588 433.846C848.063 428.318 841.467 423.869 834.144 420.836ZM811.235 413.934C819.661 413.934 827.701 415.612 835.043 418.652C842.669 421.81 849.528 426.434 855.264 432.172C860.999 437.906 865.624 444.765 868.784 452.393C871.823 459.732 873.501 467.773 873.501 476.198C873.501 484.626 871.823 492.668 868.784 500.008C865.624 507.636 860.999 514.494 855.264 520.229C849.528 525.965 842.671 530.589 835.043 533.749C827.703 536.788 819.661 538.466 811.235 538.466C802.808 538.466 794.765 536.788 787.427 533.749C779.799 530.589 772.941 525.965 767.204 520.229C761.471 514.494 756.847 507.636 753.687 500.008C750.645 492.668 748.969 484.626 748.969 476.198C748.969 467.773 750.645 459.732 753.687 452.393C756.847 444.765 761.471 437.906 767.204 432.172C772.941 426.434 779.799 421.812 787.427 418.652C794.765 415.612 802.808 413.934 811.235 413.934Z" fill="#C2CEE6"/>
<path fill-rule="evenodd" clip-rule="evenodd" d="M635.767 204.773C635.767 204.773 666.957 151.032 679.593 131.08C685.14 122.321 693.556 124.793 688.361 136.452C685.5 142.878 675.443 158.797 675.443 158.797C689.557 160.174 694.212 177.266 690.403 184.234C688.523 187.67 677.075 197.464 674.32 199.242C671.568 201.022 659.811 216.129 659.811 216.129L635.767 204.773" fill="#F57A8F"/>
<path fill-rule="evenodd" clip-rule="evenodd" d="M658.859 165.384C662.095 159.916 665.364 154.421 668.441 149.298C669.441 149.401 670.531 149.522 671.725 149.662C676.785 150.254 680.468 148.621 683.212 146.012C679.513 152.354 675.443 158.797 675.443 158.797C677.655 159.013 679.636 159.614 681.385 160.505C678.116 162.208 672.048 164.145 662.044 165.317C660.82 165.461 659.765 165.476 658.859 165.384" fill="#F14B61"/>
<path fill-rule="evenodd" clip-rule="evenodd" d="M654.003 173.608C656.216 169.852 658.501 165.985 660.781 162.14C665.485 160.976 671.008 159.752 676.311 158.907C689.745 160.885 694.133 177.412 690.403 184.235C689.24 186.357 684.428 190.905 680.268 194.493C668.783 191.25 659.471 181.015 654.003 173.608Z" fill="#F14B61"/>
<path fill-rule="evenodd" clip-rule="evenodd" d="M687.599 169.132C693.155 172.282 696.999 175.324 693.367 182.708C689.736 190.094 681.824 189.468 681.96 186.68C682.093 183.893 688.607 173.893 688.607 173.893C688.607 173.893 680.124 168.301 687.599 169.132Z" fill="#F57A8F"/>
<path fill-rule="evenodd" clip-rule="evenodd" d="M682.956 164.487C691.8 162.752 692.037 169.503 687.975 177.765C683.912 186.028 677.697 186.707 675.305 183.053C672.917 179.399 682.476 169.547 682.476 169.547C682.476 169.547 674.589 163.557 682.956 164.487Z" fill="#F57A8F"/>
<path fill-rule="evenodd" clip-rule="evenodd" d="M683.311 170.712C679.249 178.974 673.512 179.174 671.121 175.52C668.731 171.866 678.292 162.014 678.292 162.014C678.292 162.014 675.575 159.508 676.125 157.862C677.447 153.922 686.273 153.652 686.613 161.006C686.723 163.378 685.305 166.652 683.311 170.712" fill="#F57A8F"/>
<path fill-rule="evenodd" clip-rule="evenodd" d="M644.828 193.528C639.092 178.469 645.067 156.956 651.521 157.435C657.975 157.913 678.652 155.881 679.368 161.5C680.084 167.116 657.975 170.583 657.975 170.583C657.975 170.583 673.033 188.271 663.711 193.289C654.391 198.309 644.589 198.548 644.828 193.528" fill="#F57A8F"/>
<path fill-rule="evenodd" clip-rule="evenodd" d="M469.129 299.158C469.129 299.158 552.221 293.257 555.981 292.756C559.744 292.254 562.597 291.097 570.776 281.973C578.953 272.853 638.596 191.084 638.596 191.084C640.627 187.837 674.177 209.22 669.061 221.757C666.553 227.9 603.369 324.724 603.369 324.724C603.369 324.724 591.085 346.537 571.028 355.064C550.969 363.586 504.332 386.654 504.332 386.654L469.129 299.158" fill="#232656"/>
<path fill-rule="evenodd" clip-rule="evenodd" d="M547.191 293.485C565.112 302.13 588.301 321.145 565.833 357.328C567.707 356.494 569.449 355.734 571.028 355.064C573.032 354.21 574.959 353.224 576.804 352.141C591.723 321.144 576.028 302.417 559.287 291.932C558.155 292.397 557.109 292.606 555.981 292.756C555.305 292.845 552.055 293.112 547.191 293.485V293.485ZM527.253 294.972C532.661 294.576 537.725 294.2 542.057 293.876C560.568 303.876 581.112 323.57 563.308 358.458C559.861 360.014 556.071 361.76 552.124 363.605C579.813 321.028 545.029 301.686 527.253 294.972Z" fill="#414EA9"/>
<path fill-rule="evenodd" clip-rule="evenodd" d="M470.757 300.16C542.62 312.627 543.939 395.783 533.281 467.221C530.98 502.608 535.059 556.773 531.152 571.847C530.795 573.226 529.567 575.259 528.109 577.338L444.704 580.026H351.265C349.808 577.948 348.583 575.914 348.224 574.532C344.316 559.461 352.408 481.547 350.111 446.16L343.432 327.432L418.649 300.16H470.757Z" fill="#232656"/>
<path fill-rule="evenodd" clip-rule="evenodd" d="M497.252 216.362C497.651 216.416 498.043 216.482 498.431 216.562L498.443 216.565C505.607 218.065 511.049 224.352 511.195 231.982C511.361 240.852 504.305 248.181 495.437 248.349C486.567 248.517 479.24 241.462 479.072 232.593C478.972 227.438 481.315 222.804 485.032 219.796C484.625 224.537 485.379 230.408 491.432 230.996L491.255 221.733C491.185 217.984 494.681 216.258 497.252 216.362" fill="#F14B61"/>
<path fill-rule="evenodd" clip-rule="evenodd" d="M387.797 216.362C387.4 216.416 387.008 216.482 386.619 216.562L386.608 216.565H386.609C379.444 218.065 374.003 224.352 373.856 231.982C373.689 240.852 380.744 248.181 389.613 248.349C398.483 248.517 405.812 241.462 405.98 232.593C406.079 227.438 403.737 222.804 400.017 219.796C400.425 224.537 399.673 230.408 393.62 230.996L393.795 221.733C393.867 217.984 390.368 216.258 387.797 216.362Z" fill="#F14B61"/>
<path fill-rule="evenodd" clip-rule="evenodd" d="M506.016 177.922L500.769 225.824L489.84 180.689L506.016 177.922Z" fill="#161A36"/>
<path fill-rule="evenodd" clip-rule="evenodd" d="M470.757 299.042C474.137 298.802 475.288 298.45 477.979 298.528C485.117 323.58 471.097 341.973 444.704 341.973C425.143 341.973 409.172 326.002 409.172 306.442V303.596L418.649 300.16L470.757 299.042Z" fill="#C2CEE6"/>
<path fill-rule="evenodd" clip-rule="evenodd" d="M613.463 592.75H428.293C421.296 592.75 415.571 587.026 415.571 580.028V580.026C415.571 573.028 421.296 567.303 428.293 567.303H613.463C620.459 567.303 626.185 573.028 626.185 580.026V580.028C626.185 587.026 620.459 592.75 613.463 592.75" fill="#5162B7"/>
<path fill-rule="evenodd" clip-rule="evenodd" d="M428.861 592.75H345.463C338.464 592.75 332.74 587.026 332.74 580.028V580.026C332.74 573.028 338.464 567.303 345.463 567.303H428.861C435.86 567.303 441.584 573.028 441.584 580.026V580.028C441.584 587.026 435.86 592.75 428.861 592.75Z" fill="#414EA9"/>
<path fill-rule="evenodd" clip-rule="evenodd" d="M444.704 245.925C430.373 245.925 418.649 257.648 418.649 271.978V306.442C418.649 320.772 430.373 332.496 444.704 332.496C459.033 332.496 470.757 320.772 470.757 306.442V271.978C470.757 257.648 459.033 245.925 444.704 245.925Z" fill="#F57A8F"/>
<path fill-rule="evenodd" clip-rule="evenodd" d="M418.748 269.741C418.684 270.479 418.649 271.225 418.649 271.977V306.443C418.649 309.648 419.237 312.721 420.308 315.562L470.757 293.004V273.643C461.472 271.932 438.956 269.603 437.645 268.511C436.803 267.808 427.496 268.712 418.748 269.741Z" fill="#F14B61"/>
<path fill-rule="evenodd" clip-rule="evenodd" d="M500.757 190.246C500.764 190.532 500.769 190.822 500.769 191.117V207.202V241.142C500.769 271.392 476.016 296.141 445.765 296.141C415.523 296.141 390.769 271.392 390.769 241.142V233.797V207.202V191.117C390.769 185.836 391.131 182.197 392.369 177.974C398.304 154.016 420.047 136.117 445.765 136.117C475.725 136.117 500.285 160.396 500.757 190.246" fill="#F57A8F"/>
<path fill-rule="evenodd" clip-rule="evenodd" d="M500.757 190.246L500.765 190.78L467.237 177.157L452.915 185.526L434.399 180.398C432.555 183.418 429.263 182.833 429.263 182.833L409.804 175.805L412.216 147.618C415.019 145.449 418.031 143.542 421.221 141.938L479.703 147.921C492.293 157.846 500.487 173.128 500.757 190.246Z" fill="#F14B61"/>
<path fill-rule="evenodd" clip-rule="evenodd" d="M439.063 243.94C438.752 251.795 444.871 258.413 452.723 258.721C460.58 259.031 467.197 252.915 467.505 245.06H467.481C467.536 243.708 466.475 242.559 465.123 242.507L441.639 241.584C440.288 241.529 439.137 242.591 439.085 243.94H439.063" fill="#161A36"/>
<path fill-rule="evenodd" clip-rule="evenodd" d="M443.925 255.221C446.285 257.287 449.344 258.587 452.723 258.721C455.484 258.832 458.092 258.145 460.325 256.872C459.348 253.909 456.243 251.599 452.4 251.304C448.736 251.023 445.451 252.657 443.925 255.221Z" fill="#F03562"/>
<path fill-rule="evenodd" clip-rule="evenodd" d="M465.435 242.542L443.363 241.672C442.916 244.1 443.949 246.61 445.571 247.213C447.543 247.942 463.531 248.156 464.712 246.944C465.281 246.357 465.433 244.404 465.435 242.542" fill="white"/>
<path fill-rule="evenodd" clip-rule="evenodd" d="M422.649 231.705C426.643 231.63 429.944 234.806 430.019 238.8C430.093 242.794 426.917 246.093 422.924 246.169C418.932 246.245 415.632 243.068 415.555 239.074C415.479 235.082 418.657 231.782 422.649 231.705Z" fill="#F14B61"/>
<path fill-rule="evenodd" clip-rule="evenodd" d="M482.728 230.524C486.721 230.448 490.021 233.625 490.099 237.617C490.173 241.612 486.997 244.912 483.001 244.988C479.009 245.063 475.709 241.887 475.632 237.893C475.559 233.9 478.735 230.6 482.728 230.524Z" fill="#F14B61"/>
<path fill-rule="evenodd" clip-rule="evenodd" d="M485.765 206.812C486.727 207.293 487.901 206.901 488.383 205.94C488.864 204.977 488.473 203.802 487.515 203.324C482.337 200.654 475.417 200.344 470.34 203.392C469.421 203.944 469.117 205.148 469.669 206.069C470.22 206.99 471.427 207.293 472.348 206.742C476.459 204.277 481.604 204.824 485.765 206.812" fill="#161A36"/>
<path fill-rule="evenodd" clip-rule="evenodd" d="M473.9 222.857C473.9 221.502 474.432 220.213 475.391 219.256C476.347 218.298 477.637 217.766 478.989 217.766C480.345 217.766 481.633 218.298 482.589 219.256C483.545 220.213 484.081 221.502 484.081 222.857C484.081 223.937 484.957 224.814 486.039 224.814C487.119 224.814 487.996 223.937 487.996 222.857C487.996 220.461 487.051 218.181 485.357 216.486C483.665 214.794 481.385 213.85 478.989 213.85C476.595 213.85 474.315 214.794 472.621 216.486C470.928 218.181 469.984 220.461 469.984 222.857C469.984 223.937 470.861 224.814 471.943 224.814C473.023 224.814 473.9 223.937 473.9 222.857" fill="#161A36"/>
<path fill-rule="evenodd" clip-rule="evenodd" d="M460.631 227.256C461.979 229.111 464.329 232.489 464.523 233.743C464.795 235.509 460.853 236.529 458.135 235.781C456.201 235.251 456.5 230.928 457.067 228.216C457.691 225.223 458.505 224.331 460.631 227.256" fill="#F8A1AF"/>
<path fill-rule="evenodd" clip-rule="evenodd" d="M434.556 206.812C435.517 207.293 436.692 206.901 437.172 205.94C437.653 204.977 437.263 203.802 436.305 203.324C431.128 200.654 424.209 200.344 419.131 203.392C418.211 203.944 417.908 205.148 418.459 206.069C419.011 206.99 420.217 207.293 421.139 206.742C425.248 204.277 430.395 204.824 434.556 206.812" fill="#161A36"/>
<path fill-rule="evenodd" clip-rule="evenodd" d="M422.692 222.857C422.692 221.502 423.225 220.213 424.181 219.256C425.139 218.298 426.428 217.766 427.781 217.766C429.136 217.766 430.424 218.298 431.38 219.256C432.336 220.213 432.872 221.502 432.872 222.857C432.872 223.937 433.749 224.814 434.829 224.814C435.911 224.814 436.787 223.937 436.787 222.857C436.787 220.461 435.841 218.181 434.149 216.486C432.456 214.794 430.176 213.85 427.781 213.85C425.387 213.85 423.107 214.794 421.413 216.486C419.719 218.181 418.776 220.461 418.776 222.857C418.776 223.937 419.652 224.814 420.733 224.814C421.813 224.814 422.692 223.937 422.692 222.857" fill="#161A36"/>
<path fill-rule="evenodd" clip-rule="evenodd" d="M390.769 233.797C390.769 233.797 402.991 219.916 397.137 201.364C397.137 201.364 418.488 189.743 418.488 172.175C418.488 172.175 421.056 178.257 425.244 179.743C429.435 181.229 431.596 175.555 429.568 172.987C429.568 172.987 445.111 184.337 457.947 186.905C470.785 189.473 474.569 176.5 469.299 171.905C469.299 171.905 489.976 186.365 503.219 182.851C516.463 179.337 524.3 127.716 478.893 116.364C433.489 105.013 404.841 116.907 395.111 123.392C385.383 129.879 379.167 147.445 385.923 159.337C385.923 159.337 377.815 167.175 375.652 178.527C373.491 189.877 382.011 218.303 382.011 218.303C382.011 218.303 390.769 219.203 390.769 233.797" fill="#161A36"/>
<path fill-rule="evenodd" clip-rule="evenodd" d="M507.004 135.6L506.972 135.579C451.459 154.483 423.195 132.66 410.62 116.305C406.637 117.576 403.26 118.976 400.497 120.333C430.848 170.095 480.517 169.037 513.448 161.263C513.829 153.068 512.089 143.765 507.004 135.6" fill="#232656"/>
<path fill-rule="evenodd" clip-rule="evenodd" d="M409.464 393.113C411.46 395.905 413.423 398.609 415.783 400.756C418.145 402.905 439.357 410.468 439.357 410.468C439.357 410.468 437.833 415.317 433.117 415.317C428.403 415.317 424.936 415.317 420.916 415.317C416.893 415.317 413.843 428.352 399.283 434.176C388.221 438.601 392.605 408.049 395.352 393.113H409.464" fill="#F14B61"/>
<path fill-rule="evenodd" clip-rule="evenodd" d="M454.7 319.852H419.668C416.891 319.852 414.619 322.124 414.619 324.902V406.11C414.619 408.889 416.891 411.16 419.668 411.16H454.7C457.479 411.16 459.751 408.889 459.751 406.11V324.902C459.751 322.124 457.479 319.852 454.7 319.852Z" fill="white"/>
<path fill-rule="evenodd" clip-rule="evenodd" d="M414.619 329.797V331.552H459.751V329.797H414.619" fill="#D1CBEA"/>
<path fill-rule="evenodd" clip-rule="evenodd" d="M414.619 399.461V401.214H459.751V399.461H414.619" fill="#D1CBEA"/>
<path fill-rule="evenodd" clip-rule="evenodd" d="M413.275 345.822C413.275 345.822 415.089 347.321 415.293 350.922C415.497 354.526 413.059 358.172 412.103 360.56L408.583 372.594C408.583 372.594 406.905 389.332 406.611 389.917C406.479 390.182 407.86 391.993 409.717 394.129L395.671 395.468C396.087 390.685 396.488 387.466 396.488 387.466L394.952 378.958C394.952 378.958 399.595 365.994 401.436 361.92C403.276 357.845 412.367 345.069 413.275 345.822" fill="#F14B61"/>
<path fill-rule="evenodd" clip-rule="evenodd" d="M437.185 350.958C441.341 350.958 444.729 347.569 444.729 343.413C444.729 339.257 441.341 335.868 437.185 335.868C433.029 335.868 429.639 339.257 429.639 343.413C429.639 347.569 433.029 350.958 437.185 350.958Z" fill="#D1CBEA"/>
<path fill-rule="evenodd" clip-rule="evenodd" d="M384.201 466.396C384.201 466.396 393.909 448.645 396.544 444.903C399.179 441.157 402.784 434.501 402.784 425.351C402.784 416.196 401.259 411.62 405.141 408.709C409.024 405.797 414.433 404.271 414.433 404.271C414.433 404.271 422.476 404.548 424.071 404.617C425.664 404.688 432.944 406.697 434.677 406.628C436.412 406.56 438.075 405.104 438.353 403.993C438.629 402.885 438.629 402.192 436.065 401.22C433.5 400.251 426.705 397.892 424.347 397.545C421.989 397.199 414.015 396.713 412.213 396.713C410.411 396.713 405.557 397.892 405.557 397.892C405.557 397.892 410.689 395.465 411.867 394.912C413.045 394.356 422.197 393.663 424.763 394.079C427.329 394.495 435.232 398.863 440.572 395.743C440.572 395.743 441.751 394.805 440.329 393.315C438.907 391.825 424.729 385.516 422.927 384.821C421.124 384.128 418.975 384.335 415.231 384.612C411.487 384.891 407.743 385.028 406.008 386.069C404.275 387.108 401.295 388.703 401.295 388.703C401.295 388.703 406.493 378.859 407.187 378.164C407.881 377.472 418.489 372.964 419.181 372.755C419.876 372.548 427.156 371.368 429.167 369.775C431.176 368.18 431.731 365.613 431.731 364.712C431.731 363.811 431.453 363.188 427.64 363.533C423.828 363.88 419.389 364.296 416.337 364.641C413.287 364.988 406.216 368.248 402.68 369.635C399.144 371.021 396.163 376.497 392.279 383.431C388.397 390.364 382.987 405.201 380.492 410.887C377.996 416.573 379.66 433.351 369.813 446.385C359.968 459.42 357.335 461.777 357.335 461.777L384.201 466.396" fill="#F57A8F"/>
<path fill-rule="evenodd" clip-rule="evenodd" d="M343.432 327.432C343.432 327.432 325.763 334.037 317.239 365.129C308.715 396.218 299.688 505.036 297.683 529.105C295.677 553.177 331.031 573.985 350.336 550.669C369.643 527.352 395.471 455.138 395.471 455.138C395.471 455.138 387.571 443.353 372.779 438.716L363.377 450.124C363.377 450.124 399.484 320.997 343.432 327.432" fill="#232656"/>
<path fill-rule="evenodd" clip-rule="evenodd" d="M307.344 428.546C335.615 424.748 355.995 431.061 366.855 435.988C366.003 439.781 365.232 442.954 364.633 445.334C355.449 440.804 335.487 433.729 306.251 438.25C306.609 434.997 306.972 431.757 307.344 428.546V428.546ZM309.771 408.665C309.36 411.82 308.955 415.048 308.553 418.333C341.803 413.805 362.595 424.289 368.587 427.898C369.207 424.849 369.833 421.577 370.441 418.145C361.153 413.32 340.22 405.134 309.771 408.665Z" fill="#414EA9"/>
<path fill-rule="evenodd" clip-rule="evenodd" d="M419.971 327.432C421.351 327.432 422.477 326.305 422.477 324.925C422.477 323.544 421.351 322.418 419.971 322.418C418.589 322.418 417.463 323.544 417.463 324.925C417.463 326.305 418.589 327.432 419.971 327.432Z" fill="#D1CBEA"/>
<path fill-rule="evenodd" clip-rule="evenodd" d="M425.831 326.455C426.672 326.455 427.36 325.768 427.36 324.925C427.36 324.084 426.672 323.397 425.831 323.397C424.988 323.397 424.303 324.084 424.303 324.925C424.303 325.768 424.988 326.455 425.831 326.455Z" fill="#C2CEE6"/>
<path fill-rule="evenodd" clip-rule="evenodd" d="M419.971 326.774C420.989 326.774 421.82 325.944 421.82 324.925C421.82 323.906 420.989 323.077 419.971 323.077C418.952 323.077 418.12 323.906 418.12 324.925C418.12 325.944 418.952 326.774 419.971 326.774Z" fill="#C2CEE6"/>
<path fill-rule="evenodd" clip-rule="evenodd" d="M419.971 325.756C420.427 325.756 420.8 325.383 420.8 324.925C420.8 324.468 420.427 324.096 419.971 324.096C419.513 324.096 419.139 324.468 419.139 324.925C419.139 325.383 419.513 325.756 419.971 325.756Z" fill="#D1CBEA"/>
<path fill-rule="evenodd" clip-rule="evenodd" d="M420.801 324.784C421.257 324.784 421.631 324.41 421.631 323.953C421.631 323.497 421.257 323.124 420.801 323.124C420.344 323.124 419.971 323.497 419.971 323.953C419.971 324.41 420.344 324.784 420.801 324.784Z" fill="white"/>
<path fill-rule="evenodd" clip-rule="evenodd" d="M425.831 325.694C426.253 325.694 426.599 325.349 426.599 324.925C426.599 324.502 426.253 324.157 425.831 324.157C425.408 324.157 425.063 324.502 425.063 324.925C425.063 325.349 425.408 325.694 425.831 325.694Z" fill="#D1CBEA"/>
<path d="M346.76 555.53C346.429 555.53 346.099 555.393 345.865 555.125C345.436 554.63 345.488 553.881 345.983 553.453C347.188 552.406 348.347 551.214 349.424 549.914C367.465 528.124 391.636 462.24 394.143 455.322C392.528 453.154 385.26 444.149 373.18 440.09L364.292 450.876C363.937 451.306 363.327 451.434 362.831 451.173C362.335 450.914 362.087 450.345 362.236 449.805C362.351 449.4 373.565 408.886 373.637 374.898C373.637 374.245 374.167 373.716 374.82 373.716C374.823 373.716 374.823 373.716 374.824 373.716C375.479 373.717 376.007 374.249 376.005 374.904C375.948 401.98 368.9 433.106 365.873 445.232L371.864 437.961C372.171 437.59 372.673 437.44 373.133 437.584C388.151 442.294 396.121 453.982 396.455 454.478C396.664 454.792 396.712 455.182 396.584 455.536C395.528 458.493 370.467 528.213 351.249 551.425C350.088 552.825 348.84 554.11 347.537 555.242C347.312 555.436 347.036 555.53 346.76 555.53" fill="#191F40"/>
<path d="M326.016 496.648C325.752 496.648 325.484 496.56 325.264 496.379C324.759 495.963 324.688 495.216 325.104 494.711L366.751 444.168C367.167 443.665 367.912 443.589 368.419 444.008C368.923 444.424 368.995 445.169 368.579 445.675L326.932 496.217C326.696 496.501 326.359 496.648 326.016 496.648" fill="#191F40"/>
<path d="M326.265 486.653C325.808 486.653 325.375 486.387 325.179 485.943C324.917 485.343 325.191 484.645 325.789 484.383C329.791 482.633 337.284 479.917 337.601 479.803C338.215 479.583 338.895 479.899 339.117 480.515C339.339 481.129 339.023 481.808 338.408 482.029C338.331 482.059 330.669 484.833 326.739 486.553C326.584 486.621 326.424 486.653 326.265 486.653" fill="#191F40"/>
<path d="M370.136 421.04C370 421.04 369.863 421.016 369.729 420.966C369.115 420.744 368.799 420.062 369.024 419.449C369.105 419.221 377.3 396.805 378.033 394.361C378.223 393.734 378.887 393.38 379.508 393.568C380.136 393.754 380.489 394.416 380.303 395.041C379.548 397.553 371.587 419.336 371.249 420.261C371.073 420.742 370.619 421.04 370.136 421.04" fill="#191F40"/>
<path d="M538.631 405.997C537.993 405.997 537.467 405.492 537.447 404.849C536.483 372.322 529.52 346.897 516.751 329.277C516.365 328.746 516.485 328.005 517.015 327.621C517.547 327.236 518.284 327.356 518.669 327.886C531.724 345.897 538.837 371.769 539.815 404.778C539.835 405.433 539.32 405.977 538.665 405.997C538.655 405.997 538.643 405.997 538.631 405.997" fill="#191F40"/>
<path d="M555.98 293.94C555.369 293.94 554.851 293.469 554.803 292.851C554.751 292.197 555.236 291.627 555.887 291.575C556.047 291.563 571.952 290.296 580.293 290.172C580.959 290.177 581.484 290.685 581.495 291.339C581.504 291.993 580.981 292.531 580.327 292.54C572.064 292.663 556.235 293.923 556.077 293.936C556.044 293.94 556.013 293.94 555.98 293.94" fill="#191F40"/>
<path fill-rule="evenodd" clip-rule="evenodd" d="M681.096 400.879H469.027C465.971 400.879 463.187 403.38 462.839 406.433L447.756 539.095C447.408 542.149 449.625 544.649 452.68 544.649H664.751C667.804 544.649 670.588 542.149 670.936 539.095L686.02 406.433C686.367 403.377 684.152 400.879 681.096 400.879Z" fill="#D1CBEA"/>
<path fill-rule="evenodd" clip-rule="evenodd" d="M699.155 400.879H477.36C474.305 400.879 471.521 403.38 471.173 406.433L456.091 539.095C455.744 542.149 457.959 544.649 461.015 544.649H682.808C685.863 544.649 688.647 542.149 688.993 539.095L704.079 406.433C704.424 403.377 702.209 400.879 699.155 400.879Z" fill="white"/>
<path fill-rule="evenodd" clip-rule="evenodd" d="M596.799 482.523H554.229C551.471 482.523 549.777 484.777 550.465 487.536L572.284 575.013C572.972 577.769 575.791 580.026 578.549 580.026H588.111H591.085H600.647C603.405 580.026 605.572 577.769 605.463 575.013L602.009 487.536C601.903 484.777 599.556 482.523 596.799 482.523" fill="#C2CEE6"/>
<path fill-rule="evenodd" clip-rule="evenodd" d="M603.223 482.523H560.653C557.895 482.523 556.201 484.777 556.889 487.536L578.709 575.013C579.397 577.769 582.216 580.026 584.973 580.026H594.535H597.511H607.072C609.831 580.026 611.996 577.769 611.887 575.013L608.435 487.536C608.327 484.777 605.981 482.523 603.223 482.523" fill="#E6E7F4"/>
<path fill-rule="evenodd" clip-rule="evenodd" d="M640.955 588.213H528.124C523.623 588.213 519.937 584.529 519.937 580.026C519.937 575.524 523.623 571.84 528.124 571.84H640.955C645.459 571.84 649.143 575.524 649.143 580.026C649.143 584.529 645.459 588.213 640.955 588.213Z" fill="white"/>
<path fill-rule="evenodd" clip-rule="evenodd" d="M540.248 588.213H497.243C492.741 588.213 489.056 584.529 489.056 580.026C489.056 575.524 492.741 571.84 497.243 571.84H540.248C544.751 571.84 548.435 575.524 548.435 580.026C548.435 584.529 544.751 588.213 540.248 588.213Z" fill="#C2CEE6"/>
<path fill-rule="evenodd" clip-rule="evenodd" d="M80.5073 625.621C84.2219 625.621 87.262 622.583 87.262 618.866V618.304C87.262 614.588 84.2219 611.548 80.5073 611.548C76.7917 611.548 73.7521 614.588 73.7521 618.304V618.866C73.7521 622.583 76.7917 625.621 80.5073 625.621V625.621ZM75.2312 580.026H924.769C930.34 580.026 934.901 584.586 934.901 590.157V590.16C934.901 595.729 930.343 600.292 924.769 600.292H890.584C887.488 600.292 884.956 602.825 884.956 605.919C884.956 609.016 887.488 611.548 890.584 611.548H903.092C906.96 611.548 910.129 614.714 910.129 618.584V618.585C910.129 622.454 906.961 625.621 903.092 625.621H98.0271C94.1584 625.621 90.9917 622.455 90.9917 618.585V618.584C90.9917 614.714 94.1584 611.548 98.0271 611.548H107.878C110.975 611.548 113.507 609.016 113.507 605.919C113.507 602.824 110.975 600.292 107.878 600.292H75.2312C69.6584 600.292 65.0989 595.73 65.0989 590.16V590.157C65.0989 584.586 69.6615 580.026 75.2312 580.026Z" fill="#161A36"/>
<path fill-rule="evenodd" clip-rule="evenodd" d="M807.669 409.94C824.516 409.94 839.768 416.768 850.808 427.808C861.848 438.848 868.676 454.1 868.676 470.947C868.676 487.795 861.848 503.047 850.808 514.087C839.768 525.127 824.516 531.955 807.669 531.955C790.821 531.955 775.569 525.127 764.529 514.087C753.489 503.047 746.661 487.795 746.661 470.947C746.661 454.1 753.489 438.848 764.529 427.808C775.569 416.768 790.821 409.94 807.669 409.94Z" fill="#9CA8BF"/>
<path fill-rule="evenodd" clip-rule="evenodd" d="M807.669 517.589C833.36 517.589 854.312 496.637 854.312 470.946C854.312 445.256 833.36 424.304 807.669 424.304C781.979 424.304 761.027 445.256 761.027 470.946C761.027 496.637 781.979 517.589 807.669 517.589Z" fill="white"/>
<path fill-rule="evenodd" clip-rule="evenodd" d="M807.668 427.301H807.671C808.228 427.301 808.684 427.754 808.684 428.313V430.785C808.684 431.342 808.228 431.797 807.671 431.797H807.668C807.109 431.797 806.655 431.342 806.655 430.785V428.313C806.655 427.754 807.109 427.301 807.668 427.301Z" fill="#414EA9"/>
<path fill-rule="evenodd" clip-rule="evenodd" d="M807.668 510.097H807.671C808.228 510.097 808.684 510.552 808.684 511.109V513.582C808.684 514.14 808.228 514.596 807.671 514.596H807.668C807.109 514.596 806.655 514.14 806.655 513.582V511.109C806.655 510.552 807.109 510.097 807.668 510.097Z" fill="#414EA9"/>
<path fill-rule="evenodd" clip-rule="evenodd" d="M829.492 433.149L829.495 433.15C829.975 433.428 830.144 434.05 829.864 434.533L828.628 436.672C828.351 437.156 827.728 437.322 827.245 437.044L827.244 437.041C826.76 436.762 826.593 436.14 826.872 435.657L828.108 433.52C828.387 433.036 829.009 432.868 829.492 433.149" fill="#414EA9"/>
<path fill-rule="evenodd" clip-rule="evenodd" d="M788.092 504.853L788.096 504.855C788.58 505.133 788.744 505.753 788.467 506.237L787.231 508.376C786.952 508.86 786.332 509.027 785.848 508.749L785.845 508.747C785.361 508.467 785.195 507.847 785.473 507.363L786.709 505.223C786.988 504.74 787.611 504.573 788.092 504.853" fill="#414EA9"/>
<path fill-rule="evenodd" clip-rule="evenodd" d="M845.468 449.122L845.469 449.125C845.748 449.608 845.583 450.23 845.097 450.509L842.959 451.745C842.475 452.025 841.853 451.856 841.575 451.374L841.572 451.37C841.295 450.888 841.461 450.268 841.943 449.988L844.084 448.752C844.568 448.473 845.191 448.64 845.468 449.122" fill="#414EA9"/>
<path fill-rule="evenodd" clip-rule="evenodd" d="M773.764 490.522V490.525C774.044 491.006 773.877 491.63 773.395 491.908L771.255 493.142C770.772 493.422 770.148 493.253 769.871 492.773L769.868 492.769C769.589 492.286 769.757 491.666 770.24 491.386L772.38 490.149C772.863 489.872 773.484 490.038 773.764 490.522" fill="#414EA9"/>
<path fill-rule="evenodd" clip-rule="evenodd" d="M851.316 470.946V470.949C851.316 471.508 850.861 471.962 850.304 471.962H847.832C847.275 471.962 846.819 471.508 846.819 470.949V470.946C846.819 470.388 847.275 469.934 847.832 469.934H850.304C850.861 469.934 851.316 470.388 851.316 470.946Z" fill="#414EA9"/>
<path fill-rule="evenodd" clip-rule="evenodd" d="M768.52 470.946V470.949C768.52 471.508 768.064 471.962 767.505 471.962H765.035C764.477 471.962 764.023 471.508 764.023 470.949V470.946C764.023 470.388 764.477 469.934 765.035 469.934H767.505C768.064 469.934 768.52 470.388 768.52 470.946Z" fill="#414EA9"/>
<path fill-rule="evenodd" clip-rule="evenodd" d="M845.469 492.769L845.468 492.773C845.188 493.253 844.568 493.42 844.084 493.143L841.943 491.908C841.461 491.629 841.295 491.007 841.572 490.525L841.575 490.523C841.853 490.039 842.475 489.872 842.959 490.149L845.097 491.387C845.583 491.667 845.748 492.287 845.469 492.769Z" fill="#414EA9"/>
<path fill-rule="evenodd" clip-rule="evenodd" d="M773.764 451.37V451.374C773.484 451.856 772.863 452.025 772.38 451.745L770.24 450.509C769.756 450.23 769.589 449.608 769.868 449.125L769.871 449.122C770.148 448.64 770.772 448.473 771.255 448.752L773.393 449.986C773.876 450.268 774.044 450.888 773.764 451.37Z" fill="#414EA9"/>
<path fill-rule="evenodd" clip-rule="evenodd" d="M829.495 508.747L829.491 508.749C829.008 509.027 828.387 508.86 828.107 508.376L826.871 506.237C826.593 505.753 826.759 505.132 827.243 504.855L827.245 504.853C827.728 504.572 828.349 504.74 828.628 505.223L829.864 507.363C830.144 507.847 829.975 508.467 829.495 508.747" fill="#414EA9"/>
<path fill-rule="evenodd" clip-rule="evenodd" d="M788.095 437.041L788.091 437.044C787.609 437.321 786.988 437.156 786.708 436.672L785.472 434.53C785.195 434.048 785.361 433.428 785.844 433.149L785.847 433.146C786.329 432.868 786.952 433.034 787.229 433.518L788.467 435.657C788.744 436.14 788.577 436.761 788.095 437.041" fill="#414EA9"/>
<path fill-rule="evenodd" clip-rule="evenodd" d="M809.105 470.946C809.105 471.742 808.464 472.384 807.669 472.384C806.876 472.384 806.232 471.742 806.232 470.946V437.292C806.232 436.498 806.876 435.856 807.669 435.856C808.464 435.856 809.105 436.498 809.105 437.292V470.946Z" fill="#414EA9"/>
<path fill-rule="evenodd" clip-rule="evenodd" d="M808.716 469.968C809.257 470.545 809.227 471.453 808.651 471.995C808.073 472.536 807.164 472.505 806.624 471.927L789.999 454.099C789.457 453.521 789.488 452.613 790.067 452.072C790.644 451.529 791.552 451.561 792.093 452.139L808.716 469.968" fill="#F03562"/>
<path fill-rule="evenodd" clip-rule="evenodd" d="M251.569 98.4707H341.397C348.893 98.4707 355.027 104.603 355.027 112.097V168.3V172.456V208.231C355.027 208.86 354.667 209.396 354.085 209.636C353.507 209.877 352.873 209.752 352.428 209.305L329.205 186.084H251.569C244.073 186.084 237.94 179.952 237.94 172.456V112.097C237.94 104.601 244.075 98.4707 251.569 98.4707Z" fill="white"/>
<path fill-rule="evenodd" clip-rule="evenodd" d="M335.38 103.304H245.551C241.476 103.304 237.772 104.97 235.088 107.654C232.405 110.338 230.739 114.041 230.739 118.116V178.473C230.739 182.549 232.403 186.252 235.087 188.936C237.772 191.62 241.476 193.286 245.551 193.286H322.697L345.573 216.162C345.951 216.536 346.408 216.784 346.896 216.893L346.957 216.908C347.469 217.009 348.009 216.958 348.521 216.746C349.036 216.532 349.453 216.186 349.743 215.753C350.031 215.313 350.193 214.796 350.193 214.248V118.116C350.193 114.041 348.527 110.338 345.843 107.654C343.159 104.97 339.453 103.304 335.38 103.304V103.304ZM245.551 105.672H335.38C338.799 105.672 341.912 107.073 344.167 109.328C346.424 111.584 347.824 114.696 347.824 118.116V214.248C347.824 214.328 347.807 214.392 347.776 214.44C347.736 214.49 347.683 214.534 347.615 214.562C347.549 214.59 347.48 214.597 347.42 214.585L347.399 214.581C347.344 214.568 347.295 214.536 347.248 214.49L324.027 191.264C323.795 191.033 323.491 190.917 323.189 190.917H245.551C242.131 190.917 239.02 189.517 236.763 187.261C234.507 185.005 233.107 181.893 233.107 178.473V118.116C233.107 114.696 234.509 111.584 236.763 109.328C239.02 107.073 242.131 105.672 245.551 105.672" fill="#C2CEE6"/>
<path fill-rule="evenodd" clip-rule="evenodd" d="M319.943 124.139C313.9 118.097 304.015 118.097 297.975 124.139L296.483 125.629L294.992 124.139C288.952 118.097 279.065 118.097 273.025 124.139C266.983 130.179 266.983 140.064 273.025 146.107L274.517 147.596L296.483 169.562L318.449 147.596L319.943 146.107C325.984 140.064 325.984 130.179 319.943 124.139" fill="#F57A8F"/>
<path fill-rule="evenodd" clip-rule="evenodd" d="M880.836 216.272C882.885 216.862 884.829 217.696 886.635 218.738C888.483 219.808 890.193 221.098 891.72 222.572C892.02 222.86 892.463 222.902 892.804 222.702L899.676 218.736L899.713 218.713C900.107 218.5 900.556 218.461 900.968 218.57C901.391 218.682 901.769 218.954 902.003 219.36L902.031 219.408L906.867 227.782C907.1 228.188 907.145 228.653 907.031 229.077C906.919 229.5 906.647 229.878 906.241 230.112L906.196 230.141L899.377 234.077C899.02 234.282 898.857 234.696 898.949 235.08H898.948C899.199 236.093 899.392 237.137 899.523 238.204C899.648 239.245 899.713 240.308 899.713 241.39C899.713 242.472 899.648 243.537 899.523 244.577C899.392 245.644 899.199 246.688 898.948 247.702C898.844 248.124 899.053 248.548 899.428 248.733L906.244 252.668H906.241C906.647 252.901 906.919 253.281 907.031 253.705C907.145 254.129 907.1 254.594 906.867 254.998L902.004 263.422L902.003 263.42C901.769 263.825 901.391 264.098 900.968 264.21C900.544 264.325 900.08 264.278 899.676 264.046L899.627 264.018L892.801 260.077C892.443 259.872 892.004 259.937 891.72 260.208C890.193 261.682 888.484 262.973 886.635 264.042C884.819 265.092 882.861 265.929 880.799 266.522C880.399 266.637 880.139 267 880.137 267.396V275.324C880.137 275.79 879.945 276.217 879.637 276.525C879.329 276.833 878.903 277.025 878.436 277.025H868.707C868.241 277.025 867.816 276.833 867.507 276.525C867.199 276.217 867.007 275.79 867.007 275.324V267.396C867.007 266.966 866.707 266.605 866.307 266.51C864.259 265.92 862.315 265.085 860.511 264.042C858.66 262.973 856.952 261.682 855.424 260.208C855.113 259.909 854.641 259.877 854.297 260.105L847.469 264.048C847.065 264.278 846.601 264.325 846.177 264.21C845.753 264.098 845.376 263.825 845.141 263.42L845.113 263.373L840.276 254.996L840.277 254.994C840.044 254.59 839.999 254.128 840.111 253.705C840.225 253.28 840.496 252.901 840.899 252.668L847.765 248.705C848.125 248.497 848.288 248.084 848.195 247.702H848.196C847.945 246.689 847.752 245.645 847.621 244.577C847.495 243.537 847.429 242.472 847.429 241.39C847.429 240.308 847.495 239.245 847.621 238.204C847.752 237.137 847.945 236.093 848.196 235.08C848.3 234.658 848.089 234.232 847.716 234.048L840.899 230.112C840.496 229.881 840.225 229.5 840.111 229.077C839.999 228.654 840.044 228.189 840.277 227.786L840.304 227.736L845.14 219.36H845.141C845.376 218.954 845.753 218.682 846.177 218.57C846.6 218.457 847.065 218.502 847.469 218.734L847.467 218.736L854.341 222.702C854.708 222.917 855.161 222.844 855.444 222.554C856.968 221.086 858.668 219.804 860.511 218.738C862.327 217.69 864.284 216.85 866.345 216.26C866.745 216.145 867.007 215.781 867.007 215.385V207.457C867.007 206.99 867.199 206.565 867.507 206.257C867.816 205.948 868.241 205.756 868.707 205.756H878.436C878.903 205.756 879.329 205.948 879.637 206.257C879.945 206.565 880.137 206.99 880.137 207.457V215.385C880.137 215.816 880.436 216.174 880.836 216.272V216.272ZM884.031 230.932C881.355 228.254 877.657 226.6 873.572 226.6C869.487 226.6 865.791 228.254 863.113 230.932C860.436 233.609 858.78 237.305 858.78 241.39C858.78 245.474 860.436 249.173 863.113 251.85C865.791 254.528 869.487 256.182 873.572 256.182C877.657 256.182 881.355 254.528 884.031 251.85C886.708 249.173 888.363 245.474 888.363 241.39C888.363 237.305 886.708 233.609 884.031 230.932Z" fill="#C2CEE6"/>
<path fill-rule="evenodd" clip-rule="evenodd" d="M178.312 430.625H255.357C258.867 430.625 261.739 427.753 261.739 424.245V365.752C261.739 362.242 258.867 359.37 255.357 359.37H252.225V356.4C252.225 355.433 251.435 354.642 250.469 354.642H227.193C226.227 354.642 225.436 355.433 225.436 356.4V359.37H178.312C174.803 359.37 171.931 362.242 171.931 365.752V424.245C171.931 427.753 174.803 430.625 178.312 430.625" fill="#9CA8BF"/>
<path fill-rule="evenodd" clip-rule="evenodd" d="M232.079 430.625H183.393C180.533 430.625 178.195 428.286 178.195 425.426V375.734C178.195 372.873 180.533 370.534 183.393 370.534H232.079C234.939 370.534 237.277 372.873 237.277 375.734V425.426C237.277 428.286 234.939 430.625 232.079 430.625Z" fill="white"/>
<path fill-rule="evenodd" clip-rule="evenodd" d="M185.993 430.625H257.131C260.64 430.625 264.791 427.753 266.353 424.245L288.777 373.906C290.34 370.396 288.749 367.525 285.24 367.525H281.5L282.907 364.362C283.479 363.084 282.897 362.034 281.616 362.034H255.652C254.369 362.034 252.856 363.084 252.284 364.362L250.877 367.525H214.103C210.593 367.525 206.443 370.396 204.879 373.906L182.455 424.245C180.891 427.753 182.484 430.625 185.993 430.625" fill="#C2CEE6"/>
<path fill-rule="evenodd" clip-rule="evenodd" d="M490.988 60.3988H634.099C638.089 60.3988 641.357 63.6654 641.357 67.6561V97.5827V99.7974V118.847C641.357 119.181 641.165 119.467 640.857 119.595C640.547 119.724 640.209 119.657 639.973 119.42L627.607 107.053H490.988C486.995 107.053 483.731 103.788 483.731 99.7974V67.6561C483.731 63.6654 486.997 60.3988 490.988 60.3988" fill="white"/>
<path fill-rule="evenodd" clip-rule="evenodd" d="M512.272 100.889C521.333 100.889 528.723 93.4998 528.723 84.4385C528.723 75.3785 521.333 67.9879 512.272 67.9879C503.212 67.9879 495.821 75.3785 495.821 84.4385C495.821 93.4998 503.212 100.889 512.272 100.889Z" fill="#FAB33A"/>
<path fill-rule="evenodd" clip-rule="evenodd" d="M512.272 81.5693C514.748 81.5693 516.765 79.552 516.765 77.076C516.765 74.6026 514.748 72.5827 512.272 72.5827C509.797 72.5827 507.779 74.6026 507.779 77.076C507.779 79.552 509.797 81.5693 512.272 81.5693Z" fill="white"/>
<path fill-rule="evenodd" clip-rule="evenodd" d="M512.272 82.9945C515.777 82.9945 518.644 85.8612 518.644 89.3665V92.1065V93.7772V95.5826C518.644 95.9746 518.323 96.2959 517.931 96.2959H506.613C506.221 96.2959 505.9 95.9746 505.9 95.5826V93.7772V92.1065V89.3665C505.9 85.8612 508.767 82.9945 512.272 82.9945Z" fill="white"/>
<path fill-rule="evenodd" clip-rule="evenodd" d="M553.151 82.9385H585.849C586.676 82.9385 587.349 83.6145 587.349 84.4385V84.4398C587.349 85.2638 586.676 85.9385 585.849 85.9385H553.151C552.325 85.9385 551.651 85.2638 551.651 84.4398V84.4385C551.651 83.6145 552.325 82.9385 553.151 82.9385Z" fill="#C2CEE6"/>
<path fill-rule="evenodd" clip-rule="evenodd" d="M543.624 82.9385H539.237C538.412 82.9385 537.737 83.6145 537.737 84.4385V84.4398C537.737 85.2638 538.412 85.9385 539.237 85.9385H543.624C544.449 85.9385 545.124 85.2638 545.124 84.4398V84.4385C545.124 83.6145 544.449 82.9385 543.624 82.9385Z" fill="#C2CEE6"/>
<path fill-rule="evenodd" clip-rule="evenodd" d="M539.237 73.7214H585.849C586.676 73.7214 587.349 74.396 587.349 75.2214C587.349 76.048 586.676 76.7227 585.849 76.7227H539.237C538.412 76.7227 537.737 76.048 537.737 75.2214C537.737 74.396 538.412 73.7214 539.237 73.7214" fill="#C2CEE6"/>
<path fill-rule="evenodd" clip-rule="evenodd" d="M539.237 92.1559H585.849C586.676 92.1559 587.349 92.8305 587.349 93.6559C587.349 94.4812 586.676 95.1572 585.849 95.1572H539.237C538.412 95.1572 537.737 94.4812 537.737 93.6559C537.737 92.8305 538.412 92.1559 539.237 92.1559" fill="#C2CEE6"/>
<path fill-rule="evenodd" clip-rule="evenodd" d="M613.493 100.889C622.555 100.889 629.944 93.4998 629.944 84.4385C629.944 75.3785 622.555 67.9879 613.493 67.9879C604.432 67.9879 597.043 75.3785 597.043 84.4385C597.043 93.4998 604.432 100.889 613.493 100.889Z" fill="#F57A8F"/>
<path fill-rule="evenodd" clip-rule="evenodd" d="M615.968 75.8809C616.667 76.0822 617.328 76.3663 617.943 76.7209C618.573 77.0863 619.155 77.5249 619.676 78.0276C619.777 78.1262 619.928 78.1396 620.045 78.0716L622.387 76.7209L622.4 76.7129C622.533 76.6396 622.688 76.6262 622.825 76.6636C622.972 76.7022 623.1 76.7942 623.179 76.9329L623.188 76.9489L624.837 79.8022C624.916 79.9409 624.931 80.0996 624.892 80.2422C624.855 80.3876 624.761 80.5169 624.623 80.5956L624.608 80.6049L622.285 81.9476C622.163 82.0169 622.107 82.1582 622.139 82.2889C622.225 82.6329 622.291 82.9889 622.335 83.3516C622.376 83.7063 622.4 84.0689 622.4 84.4382C622.4 84.8062 622.376 85.1689 622.335 85.5263C622.291 85.8876 622.223 86.2436 622.139 86.5889C622.103 86.7329 622.175 86.8769 622.303 86.9396L624.623 88.2809C624.761 88.3609 624.855 88.4902 624.892 88.6329C624.931 88.7782 624.916 88.9369 624.837 89.0743L623.18 91.9436H623.179C623.1 92.0823 622.972 92.1756 622.825 92.2129C622.683 92.2516 622.524 92.2356 622.387 92.1582L622.368 92.1476L620.044 90.8049C619.921 90.7356 619.773 90.7583 619.676 90.8489C619.155 91.3516 618.573 91.7916 617.943 92.1556C617.324 92.5129 616.657 92.7996 615.955 93.0022C615.817 93.0396 615.729 93.1636 615.729 93.2983V95.9996C615.729 96.1582 615.664 96.3036 615.56 96.4089C615.455 96.5142 615.308 96.5796 615.149 96.5796H611.835C611.677 96.5796 611.531 96.5142 611.427 96.4089C611.32 96.3036 611.255 96.1582 611.255 95.9996V93.2983C611.255 93.1516 611.153 93.0302 611.019 92.9969C610.32 92.7956 609.657 92.5116 609.043 92.1556C608.412 91.7916 607.831 91.3516 607.309 90.8489C607.204 90.7476 607.044 90.7369 606.925 90.8142L604.6 92.1582C604.464 92.2356 604.305 92.2516 604.16 92.2129C604.016 92.1756 603.887 92.0823 603.807 91.9436L603.797 91.9276L602.148 89.0743H602.149C602.071 88.9369 602.053 88.7782 602.092 88.6329C602.132 88.4902 602.225 88.3609 602.361 88.2809L604.701 86.9302C604.821 86.8609 604.879 86.7209 604.847 86.5889C604.761 86.2436 604.696 85.8876 604.652 85.5263C604.608 85.1689 604.587 84.8062 604.587 84.4382C604.587 84.0689 604.608 83.7063 604.652 83.3516C604.696 82.9889 604.761 82.6329 604.847 82.2889C604.883 82.1449 604.811 81.9995 604.684 81.9369L602.361 80.5956C602.225 80.5169 602.132 80.3876 602.092 80.2422C602.053 80.0996 602.071 79.9409 602.149 79.8035L602.159 79.7862L603.805 76.9329H603.807C603.887 76.7942 604.016 76.7022 604.16 76.6636C604.304 76.6262 604.461 76.6396 604.599 76.7209L606.941 78.0716C607.067 78.1436 607.22 78.1196 607.316 78.0209C607.836 77.5209 608.416 77.0836 609.043 76.7209C609.663 76.3636 610.328 76.0796 611.031 75.8769C611.167 75.8383 611.255 75.7156 611.255 75.5796V72.8782C611.255 72.7196 611.32 72.5742 611.427 72.4689C611.531 72.3636 611.677 72.2983 611.835 72.2983H615.149C615.308 72.2983 615.455 72.3636 615.56 72.4689C615.664 72.5742 615.729 72.7196 615.729 72.8782V75.5796C615.729 75.7249 615.831 75.8489 615.968 75.8809V75.8809ZM617.057 80.8743C616.144 79.9636 614.884 79.3996 613.493 79.3996C612.101 79.3996 610.841 79.9636 609.929 80.8743C609.017 81.7876 608.453 83.0476 608.453 84.4382C608.453 85.8302 609.017 87.0902 609.929 88.0022C610.841 88.9142 612.101 89.4769 613.493 89.4769C614.884 89.4769 616.144 88.9142 617.057 88.0022C617.968 87.0902 618.532 85.8302 618.532 84.4382C618.532 83.0476 617.968 81.7876 617.057 80.8743Z" fill="white"/>
<path fill-rule="evenodd" clip-rule="evenodd" d="M309.732 567.679H209.617V576.86H309.732V567.679Z" fill="#FAFDFF"/>
<path fill-rule="evenodd" clip-rule="evenodd" d="M221.951 568.48C223.047 568.48 223.935 567.592 223.935 566.497C223.935 565.401 223.047 564.512 221.951 564.512H151.227C149.097 564.512 147.16 565.385 145.753 566.789L145.747 566.797C144.344 568.2 143.471 570.14 143.471 572.269C143.471 574.4 144.344 576.338 145.747 577.743C147.152 579.155 149.092 580.026 151.227 580.026H221.951C223.047 580.026 223.935 579.138 223.935 578.043C223.935 576.948 223.047 576.06 221.951 576.06H218.711C218.169 575.656 217.627 575.2 217.152 574.705C216.241 573.757 215.588 572.672 215.695 571.576C215.815 570.314 216.623 569.277 217.563 568.48H221.951" fill="#414EA9"/>
<path fill-rule="evenodd" clip-rule="evenodd" d="M309.732 568.48C310.827 568.48 311.715 567.592 311.715 566.497C311.715 565.401 310.827 564.512 309.732 564.512H221.032C218.901 564.512 216.964 565.385 215.559 566.789L215.551 566.797C214.148 568.2 213.276 570.14 213.276 572.269C213.276 574.4 214.148 576.338 215.551 577.743C216.956 579.155 218.897 580.026 221.032 580.026H309.732C310.827 580.026 311.715 579.138 311.715 578.043C311.715 576.948 310.827 576.06 309.732 576.06H221.032C219.992 576.06 219.044 575.632 218.357 574.944C217.668 574.26 217.243 573.312 217.243 572.269C217.243 571.228 217.668 570.279 218.353 569.589C219.041 568.907 219.991 568.48 221.032 568.48H309.732" fill="#5162B7"/>
<path fill-rule="evenodd" clip-rule="evenodd" d="M154.333 550.128H238.271V561.265H154.333V550.128Z" fill="#FAFDFF"/>
<path fill-rule="evenodd" clip-rule="evenodd" d="M223.308 551.098C221.979 551.098 220.9 550.022 220.9 548.693C220.9 547.364 221.979 546.285 223.308 546.285H288.487C291.069 546.285 293.421 547.345 295.125 549.047L295.135 549.057C296.837 550.76 297.895 553.113 297.895 555.694C297.895 558.28 296.837 560.631 295.135 562.336C293.431 564.048 291.077 565.106 288.487 565.106H223.308C221.979 565.106 220.9 564.028 220.9 562.7C220.9 561.37 221.979 560.294 223.308 560.294H227.237C227.896 559.805 228.553 559.252 229.129 558.652C230.236 557.501 231.028 556.184 230.899 554.853C230.751 553.325 229.771 552.066 228.631 551.098H223.308" fill="#F14B61"/>
<path fill-rule="evenodd" clip-rule="evenodd" d="M154.333 551.098C153.005 551.098 151.925 550.022 151.925 548.693C151.925 547.364 153.005 546.285 154.333 546.285H224.423C227.005 546.285 229.357 547.345 231.061 549.047L231.071 549.057C232.775 550.76 233.833 553.113 233.833 555.694C233.833 558.28 232.775 560.631 231.071 562.336C229.367 564.048 227.012 565.106 224.423 565.106H154.333C153.005 565.106 151.925 564.028 151.925 562.7C151.925 561.37 153.005 560.294 154.333 560.294H224.423C225.683 560.294 226.833 559.774 227.667 558.94C228.501 558.112 229.02 556.961 229.02 555.694C229.02 554.431 228.501 553.281 227.671 552.445C226.836 551.616 225.687 551.098 224.423 551.098H154.333" fill="#D43744"/>
<path fill-rule="evenodd" clip-rule="evenodd" d="M271.217 530.956H216.748V542.353H271.217V530.956Z" fill="#FAFDFF"/>
<path fill-rule="evenodd" clip-rule="evenodd" d="M232.059 531.949C233.419 531.949 234.523 530.846 234.523 529.486C234.523 528.128 233.419 527.025 232.059 527.025H191.904C189.26 527.025 186.853 528.109 185.109 529.85L185.101 529.861C183.357 531.604 182.275 534.009 182.275 536.653C182.275 539.298 183.357 541.704 185.101 543.448C186.843 545.2 189.252 546.284 191.904 546.284H232.059C233.419 546.284 234.523 545.181 234.523 543.821C234.523 542.462 233.419 541.359 232.059 541.359H228.039C227.364 540.86 226.692 540.293 226.103 539.678C224.969 538.502 224.16 537.153 224.292 535.79C224.443 534.228 225.444 532.938 226.611 531.949H232.059Z" fill="#161A36"/>
<path fill-rule="evenodd" clip-rule="evenodd" d="M271.217 531.949C272.577 531.949 273.679 530.846 273.679 529.486C273.679 528.128 272.577 527.025 271.217 527.025H230.919C228.275 527.025 225.869 528.109 224.125 529.85L224.116 529.861C222.372 531.604 221.288 534.009 221.288 536.653C221.288 539.298 222.372 541.704 224.116 543.448C225.86 545.2 228.268 546.284 230.919 546.284H271.217C272.577 546.284 273.679 545.181 273.679 543.821C273.679 542.462 272.577 541.359 271.217 541.359H230.919C229.628 541.359 228.451 540.828 227.599 539.973C226.744 539.125 226.215 537.948 226.215 536.653C226.215 535.361 226.744 534.183 227.592 533.329C228.448 532.478 229.625 531.949 230.919 531.949H271.217" fill="#292D67"/>
<path fill-rule="evenodd" clip-rule="evenodd" d="M695.221 571.898H763.059C765.293 571.898 767.121 573.726 767.121 575.964C767.121 578.197 765.292 580.026 763.059 580.026H695.221C692.985 580.026 691.156 578.197 691.156 575.964C691.156 573.726 692.984 571.898 695.221 571.898Z" fill="#F57A8F"/>
<path fill-rule="evenodd" clip-rule="evenodd" d="M697.499 571.898H760.78C762.041 571.898 763.076 570.864 763.076 569.602C763.076 568.34 762.041 567.307 760.78 567.307H697.499C696.236 567.307 695.203 568.341 695.203 569.602C695.203 570.864 696.236 571.898 697.499 571.898Z" fill="#414EA9"/>
<path fill-rule="evenodd" clip-rule="evenodd" d="M697.631 559.63H760.647C762.76 559.63 764.487 561.357 764.487 563.469C764.487 565.581 762.76 567.308 760.647 567.308H697.631C695.519 567.308 693.792 565.581 693.792 563.469C693.792 561.357 695.519 559.63 697.631 559.63Z" fill="#F14B61"/>
<path fill-rule="evenodd" clip-rule="evenodd" d="M700.011 561.872L704.909 556.974C705.628 556.254 706.801 556.254 707.521 556.974L712.417 561.872C713.139 562.592 713.139 563.765 712.417 564.484L707.521 569.382C706.801 570.102 705.628 570.102 704.909 569.382L700.011 564.484C699.291 563.765 699.291 562.592 700.011 561.872Z" fill="#FAB33A"/>
<path fill-rule="evenodd" clip-rule="evenodd" d="M711.477 561.872L716.376 556.974C717.095 556.254 718.268 556.254 718.987 556.974L723.885 561.872C724.605 562.592 724.605 563.765 723.885 564.484L718.987 569.382C718.268 570.102 717.095 570.102 716.376 569.382L711.477 564.484C710.757 563.765 710.757 562.592 711.477 561.872Z" fill="#FAB33A"/>
<path fill-rule="evenodd" clip-rule="evenodd" d="M722.945 561.872L727.844 556.974C728.563 556.254 729.736 556.254 730.455 556.974L735.353 561.872C736.071 562.592 736.071 563.765 735.353 564.484L730.455 569.382C729.736 570.102 728.563 570.102 727.844 569.382L722.945 564.484C722.225 563.765 722.225 562.592 722.945 561.872Z" fill="#FAB33A"/>
<path fill-rule="evenodd" clip-rule="evenodd" d="M734.411 561.872L739.309 556.974C740.029 556.254 741.203 556.254 741.921 556.974L746.82 561.872C747.537 562.592 747.537 563.765 746.82 564.484L741.921 569.382C741.203 570.102 740.029 570.102 739.309 569.382L734.411 564.484C733.693 563.765 733.693 562.592 734.411 561.872Z" fill="#FAB33A"/>
<path fill-rule="evenodd" clip-rule="evenodd" d="M745.877 561.872L750.777 556.974C751.495 556.254 752.669 556.254 753.388 556.974L758.288 561.872C759.005 562.592 759.005 563.765 758.288 564.484L753.388 569.382C752.669 570.102 751.495 570.102 750.777 569.382L745.877 564.484C745.16 563.765 745.16 562.592 745.877 561.872Z" fill="#FAB33A"/>
<path fill-rule="evenodd" clip-rule="evenodd" d="M692.288 559.63H765.812C766.881 559.63 767.753 560.502 767.753 561.571C767.753 562.638 766.88 563.512 765.812 563.512H692.288C691.219 563.512 690.347 562.638 690.347 561.571C690.347 560.502 691.219 559.63 692.288 559.63Z" fill="#5162B7"/>
<path fill-rule="evenodd" clip-rule="evenodd" d="M768.811 554.054V554.06L768.812 554.198V554.2C768.812 557.186 766.369 559.63 763.385 559.63H694.895C689.149 559.63 688.355 555.01 689.941 548.586C692.475 538.35 701.767 530.7 712.759 530.7H745.313C758.192 530.7 768.733 541.196 768.811 554.054Z" fill="#F57A8F"/>
<path fill-rule="evenodd" clip-rule="evenodd" d="M707.985 534.241L707.988 534.244C708.287 534.541 708.287 535.028 707.988 535.326L705.952 537.361C705.655 537.661 705.167 537.661 704.868 537.361H704.867C704.569 537.064 704.569 536.576 704.867 536.277L706.903 534.241C707.2 533.944 707.689 533.944 707.985 534.241Z" fill="#F14B61"/>
<path fill-rule="evenodd" clip-rule="evenodd" d="M716.896 534.241V534.244C717.195 534.541 717.195 535.028 716.896 535.326L714.86 537.361C714.563 537.661 714.075 537.661 713.776 537.361C713.477 537.064 713.477 536.576 713.776 536.277L715.809 534.241C716.108 533.944 716.596 533.944 716.896 534.241" fill="#F14B61"/>
<path fill-rule="evenodd" clip-rule="evenodd" d="M725.804 534.241V534.244C726.101 534.541 726.101 535.028 725.804 535.326L723.769 537.361C723.471 537.661 722.983 537.661 722.685 537.361H722.684C722.385 537.064 722.385 536.576 722.684 536.277L724.72 534.241C725.017 533.944 725.505 533.944 725.804 534.241Z" fill="#F14B61"/>
<path fill-rule="evenodd" clip-rule="evenodd" d="M734.711 534.241L734.712 534.244C735.011 534.541 735.011 535.028 734.712 535.326L732.677 537.361C732.379 537.661 731.892 537.661 731.593 537.361H731.591C731.295 537.064 731.295 536.576 731.591 536.277L733.628 534.241C733.925 533.944 734.413 533.944 734.711 534.241" fill="#F14B61"/>
<path fill-rule="evenodd" clip-rule="evenodd" d="M743.619 534.241L743.621 534.244C743.917 534.541 743.917 535.028 743.621 535.326L741.584 537.361C741.288 537.661 740.8 537.661 740.501 537.361H740.5C740.201 537.064 740.201 536.576 740.5 536.277L742.535 534.241C742.833 533.944 743.32 533.944 743.619 534.241" fill="#F14B61"/>
<path fill-rule="evenodd" clip-rule="evenodd" d="M752.528 534.241V534.244C752.827 534.541 752.827 535.028 752.528 535.326L750.493 537.361C750.195 537.661 749.707 537.661 749.409 537.361C749.111 537.064 749.111 536.576 749.409 536.277L751.443 534.241C751.743 533.944 752.229 533.944 752.528 534.241Z" fill="#F14B61"/>
<path fill-rule="evenodd" clip-rule="evenodd" d="M754.607 541.335H754.604C754.305 541.635 754.305 542.121 754.604 542.419L756.639 544.453C756.937 544.752 757.425 544.752 757.724 544.453C758.024 544.155 758.024 543.667 757.724 543.368L755.691 541.335C755.392 541.035 754.905 541.035 754.607 541.335Z" fill="#F14B61"/>
<path fill-rule="evenodd" clip-rule="evenodd" d="M745.696 541.335C745.399 541.635 745.399 542.121 745.696 542.419L747.731 544.453C748.029 544.752 748.516 544.752 748.816 544.453C749.115 544.155 749.115 543.667 748.816 543.368L746.783 541.335C746.481 541.035 745.996 541.035 745.696 541.335" fill="#F14B61"/>
<path fill-rule="evenodd" clip-rule="evenodd" d="M736.789 541.335C736.488 541.635 736.488 542.121 736.789 542.419L738.823 544.453C739.12 544.752 739.608 544.752 739.909 544.453C740.207 544.155 740.205 543.667 739.909 543.368L737.872 541.335C737.575 541.035 737.087 541.035 736.789 541.335Z" fill="#F14B61"/>
<path fill-rule="evenodd" clip-rule="evenodd" d="M727.881 541.335H727.88C727.581 541.635 727.581 542.121 727.88 542.419L729.916 544.453C730.212 544.752 730.7 544.752 730.999 544.453C731.299 544.155 731.299 543.667 730.999 543.368L728.965 541.335C728.667 541.035 728.18 541.035 727.881 541.335Z" fill="#F14B61"/>
<path fill-rule="evenodd" clip-rule="evenodd" d="M718.973 541.335H718.972C718.673 541.635 718.673 542.121 718.972 542.419L721.005 544.453C721.305 544.752 721.793 544.752 722.091 544.453C722.391 544.155 722.391 543.667 722.091 543.368L720.057 541.335C719.759 541.035 719.272 541.035 718.973 541.335Z" fill="#F14B61"/>
<path fill-rule="evenodd" clip-rule="evenodd" d="M710.065 541.335H710.064C709.765 541.635 709.765 542.121 710.064 542.419L712.097 544.453C712.397 544.752 712.883 544.752 713.184 544.453C713.481 544.155 713.481 543.667 713.184 543.368L711.149 541.335C710.849 541.035 710.363 541.035 710.065 541.335" fill="#F14B61"/>
<path fill-rule="evenodd" clip-rule="evenodd" d="M666.431 384.021H748.584C754.188 384.021 758.767 379.441 758.767 373.838V261.726C758.767 256.124 754.188 251.544 748.584 251.544H666.431C660.831 251.544 656.251 256.124 656.251 261.726V373.838C656.251 379.441 660.831 384.021 666.431 384.021Z" fill="#C2CEE6"/>
<path fill-rule="evenodd" clip-rule="evenodd" d="M667.279 261.559H747.736C748.764 261.559 749.601 262.397 749.601 263.424V263.425C749.601 264.455 748.764 265.292 747.736 265.292H667.279C666.251 265.292 665.413 264.455 665.413 263.425V263.424C665.413 262.397 666.251 261.559 667.279 261.559Z" fill="#5162B7"/>
<path fill-rule="evenodd" clip-rule="evenodd" d="M667.279 273.271H747.736C748.764 273.271 749.601 274.109 749.601 275.136V275.139C749.601 276.167 748.764 277.005 747.736 277.005H667.279C666.251 277.005 665.413 276.167 665.413 275.139V275.136C665.413 274.109 666.251 273.271 667.279 273.271Z" fill="#5162B7"/>
<path fill-rule="evenodd" clip-rule="evenodd" d="M732.543 286.169H747.736C748.764 286.169 749.601 287.008 749.601 288.037V288.038C749.601 289.065 748.764 289.904 747.736 289.904H732.543C731.515 289.904 730.677 289.065 730.677 288.038V288.037C730.677 287.008 731.515 286.169 732.543 286.169Z" fill="#5162B7"/>
<path fill-rule="evenodd" clip-rule="evenodd" d="M732.543 299.409H747.736C748.764 299.409 749.601 300.247 749.601 301.276V301.277C749.601 302.305 748.764 303.143 747.736 303.143H732.543C731.515 303.143 730.677 302.305 730.677 301.277V301.276C730.677 300.247 731.515 299.409 732.543 299.409Z" fill="#5162B7"/>
<path fill-rule="evenodd" clip-rule="evenodd" d="M732.543 312.648H747.736C748.764 312.648 749.601 313.486 749.601 314.513V314.517C749.601 315.544 748.764 316.382 747.736 316.382H732.543C731.515 316.382 730.677 315.544 730.677 314.517V314.513C730.677 313.486 731.515 312.648 732.543 312.648Z" fill="#5162B7"/>
<path fill-rule="evenodd" clip-rule="evenodd" d="M732.543 325.886H747.736C748.764 325.886 749.601 326.725 749.601 327.753V327.754C749.601 328.782 748.764 329.621 747.736 329.621H732.543C731.515 329.621 730.677 328.782 730.677 327.754V327.753C730.677 326.725 731.515 325.886 732.543 325.886Z" fill="#5162B7"/>
<path fill-rule="evenodd" clip-rule="evenodd" d="M732.543 339.127H747.736C748.764 339.127 749.601 339.967 749.601 340.992V340.993C749.601 342.023 748.764 342.86 747.736 342.86H732.543C731.515 342.86 730.677 342.023 730.677 340.993V340.992C730.677 339.967 731.515 339.127 732.543 339.127Z" fill="#5162B7"/>
<path fill-rule="evenodd" clip-rule="evenodd" d="M732.543 352.364H747.736C748.764 352.364 749.601 353.204 749.601 354.23V354.233C749.601 355.26 748.764 356.1 747.736 356.1H732.543C731.515 356.1 730.677 355.26 730.677 354.233V354.23C730.677 353.204 731.515 352.364 732.543 352.364Z" fill="#5162B7"/>
<path fill-rule="evenodd" clip-rule="evenodd" d="M709.204 365.604H747.74C748.765 365.604 749.605 366.442 749.605 367.472C749.605 368.5 748.765 369.338 747.74 369.338H709.204C708.176 369.338 707.339 368.5 707.339 367.472C707.339 366.442 708.176 365.604 709.204 365.604" fill="#5162B7"/>
<path fill-rule="evenodd" clip-rule="evenodd" d="M713.023 352.364H724.396C725.424 352.364 726.263 353.204 726.263 354.23V354.233C726.263 355.26 725.424 356.1 724.396 356.1H713.023C711.995 356.1 711.156 355.26 711.156 354.233V354.23C711.156 353.204 711.995 352.364 713.023 352.364Z" fill="#5162B7"/>
<path fill-rule="evenodd" clip-rule="evenodd" d="M718.115 339.127H723.847C724.872 339.127 725.712 339.967 725.712 340.992V340.993C725.712 342.023 724.872 342.86 723.847 342.86H718.115C717.088 342.86 716.249 342.023 716.249 340.993V340.992C716.249 339.967 717.088 339.127 718.115 339.127Z" fill="#5162B7"/>
<path fill-rule="evenodd" clip-rule="evenodd" d="M722.109 325.886H726.305C727.333 325.886 728.172 326.725 728.172 327.753V327.754C728.172 328.782 727.333 329.621 726.305 329.621H722.109C721.081 329.621 720.244 328.782 720.244 327.754V327.753C720.244 326.725 721.081 325.886 722.109 325.886Z" fill="#5162B7"/>
<path fill-rule="evenodd" clip-rule="evenodd" d="M665.413 298.296H672.627V365.733C672.627 367.716 671.003 369.338 669.02 369.338H669.019C667.035 369.338 665.413 367.716 665.413 365.733V363.57V307.67V298.296" fill="white"/>
<path fill-rule="evenodd" clip-rule="evenodd" d="M672.627 330.873V365.733C672.627 367.716 671.003 369.338 669.02 369.338H669.019C667.035 369.338 665.413 367.716 665.413 365.733V363.57V330.873C665.413 331.768 666.143 332.497 667.036 332.497H671.001C671.895 332.497 672.627 329.981 672.627 330.873" fill="white"/>
<path fill-rule="evenodd" clip-rule="evenodd" d="M668.252 284.569C668.048 284.997 665.413 295.793 665.413 298.296C666.589 301.156 671.269 300.39 672.627 298.296C672.627 295.793 669.989 284.997 669.788 284.569C669.473 283.91 668.565 283.91 668.252 284.569Z" fill="#D1CBEA"/>
<path fill-rule="evenodd" clip-rule="evenodd" d="M668.252 284.569C668.189 284.701 667.892 285.831 667.513 287.399C667.972 287.612 668.483 287.732 669.019 287.732H669.02C669.556 287.732 670.067 287.612 670.525 287.399C670.145 285.831 669.849 284.701 669.788 284.569C669.473 283.911 668.565 283.911 668.252 284.569Z" fill="#414EA9"/>
<path fill-rule="evenodd" clip-rule="evenodd" d="M671.001 361.972H667.036C666.143 361.972 665.413 361.242 665.413 360.35V363.774C665.413 364.668 666.143 365.398 667.036 365.398H671.001C671.895 365.398 672.627 364.668 672.627 363.774V360.35C672.627 361.242 671.895 361.972 671.001 361.972Z" fill="#D1CBEA"/>
<path fill-rule="evenodd" clip-rule="evenodd" d="M706.175 289.8C707.437 290.164 708.635 290.677 709.747 291.32C710.885 291.978 711.937 292.774 712.879 293.681C713.063 293.858 713.336 293.884 713.545 293.761L717.78 291.317L717.804 291.304C718.047 291.172 718.321 291.148 718.576 291.217C718.835 291.285 719.071 291.453 719.213 291.702L719.232 291.73L722.211 296.89C722.353 297.138 722.381 297.426 722.311 297.689C722.241 297.948 722.073 298.182 721.824 298.325L721.796 298.344L717.596 300.768C717.375 300.894 717.275 301.149 717.333 301.385L717.331 301.386C717.487 302.009 717.605 302.653 717.687 303.31C717.764 303.95 717.804 304.606 717.804 305.273C717.804 305.941 717.764 306.594 717.687 307.237C717.605 307.894 717.487 308.536 717.331 309.161C717.268 309.42 717.397 309.682 717.627 309.796L721.825 312.22L721.824 312.222C722.073 312.365 722.241 312.598 722.311 312.858C722.381 313.12 722.353 313.406 722.211 313.657L719.213 318.844C719.071 319.092 718.835 319.26 718.576 319.33C718.313 319.401 718.028 319.372 717.78 319.229L717.749 319.212L713.544 316.784C713.324 316.658 713.053 316.697 712.879 316.865C711.937 317.773 710.885 318.568 709.747 319.226C708.628 319.874 707.423 320.39 706.151 320.754C705.905 320.824 705.745 321.049 705.744 321.293V326.177C705.744 326.464 705.627 326.725 705.436 326.917C705.245 327.106 704.984 327.225 704.696 327.225H698.703C698.416 327.225 698.155 327.106 697.964 326.917C697.773 326.725 697.655 326.464 697.655 326.177V321.293C697.655 321.028 697.472 320.806 697.225 320.748C695.963 320.384 694.765 319.869 693.653 319.228C692.515 318.568 691.463 317.773 690.52 316.865C690.329 316.681 690.037 316.66 689.825 316.802L685.62 319.229C685.371 319.373 685.085 319.401 684.824 319.33C684.564 319.26 684.329 319.092 684.187 318.844L684.168 318.814L681.189 313.654V313.653C681.045 313.405 681.019 313.12 681.088 312.858C681.157 312.597 681.324 312.364 681.573 312.222L685.803 309.778C686.023 309.652 686.125 309.397 686.067 309.161C685.913 308.536 685.795 307.894 685.713 307.237C685.636 306.594 685.595 305.941 685.595 305.273C685.595 304.606 685.636 303.95 685.713 303.309C685.795 302.653 685.913 302.009 686.067 301.386C686.132 301.125 686.003 300.864 685.773 300.75L681.573 298.325C681.324 298.184 681.157 297.948 681.088 297.689C681.019 297.428 681.045 297.141 681.189 296.893L681.207 296.861L684.185 291.701L684.187 291.702C684.329 291.453 684.564 291.285 684.824 291.217C685.084 291.146 685.371 291.174 685.62 291.316V291.317L689.852 293.761C690.08 293.893 690.359 293.848 690.532 293.669C691.472 292.768 692.52 291.976 693.653 291.32C694.772 290.673 695.976 290.157 697.249 289.793C697.495 289.722 697.655 289.498 697.655 289.254V284.37C697.655 284.084 697.773 283.82 697.964 283.63C698.155 283.44 698.416 283.322 698.703 283.322H704.696C704.984 283.322 705.245 283.44 705.436 283.63C705.627 283.82 705.744 284.084 705.744 284.37V289.254C705.744 289.518 705.927 289.741 706.175 289.8V289.8ZM708.143 298.83C706.493 297.181 704.215 296.161 701.699 296.161C699.185 296.161 696.905 297.181 695.256 298.83C693.608 300.48 692.588 302.757 692.588 305.273C692.588 307.788 693.608 310.066 695.256 311.716C696.905 313.364 699.185 314.385 701.699 314.385C704.215 314.385 706.493 313.364 708.143 311.716C709.792 310.066 710.811 307.788 710.811 305.273C710.811 302.757 709.792 300.48 708.143 298.83Z" fill="white"/>
<path fill-rule="evenodd" clip-rule="evenodd" d="M693.581 337.175C694.361 337.4 695.101 337.716 695.789 338.115C696.495 338.523 697.145 339.015 697.728 339.576C697.841 339.685 698.011 339.7 698.139 339.625L700.759 338.113L700.775 338.104C700.923 338.024 701.093 338.008 701.251 338.049C701.413 338.093 701.556 338.196 701.645 338.352L701.656 338.369L703.499 341.559C703.587 341.713 703.604 341.892 703.563 342.053C703.519 342.213 703.415 342.36 703.26 342.447L703.243 342.459L700.645 343.959C700.511 344.036 700.447 344.195 700.481 344.34C700.577 344.725 700.649 345.124 700.7 345.529C700.749 345.927 700.775 346.332 700.775 346.745C700.775 347.157 700.749 347.563 700.7 347.96C700.649 348.365 700.577 348.763 700.481 349.149C700.441 349.309 700.521 349.472 700.663 349.541L703.26 351.041C703.415 351.132 703.519 351.275 703.563 351.436C703.604 351.597 703.587 351.776 703.499 351.929L701.645 355.139C701.556 355.292 701.413 355.396 701.251 355.439C701.089 355.483 700.913 355.465 700.759 355.375L700.74 355.365L698.139 353.863C698.003 353.785 697.836 353.811 697.728 353.915C697.145 354.475 696.495 354.968 695.789 355.375C695.099 355.775 694.353 356.093 693.568 356.319C693.415 356.363 693.313 356.501 693.313 356.651V359.673C693.313 359.852 693.241 360.013 693.124 360.131C693.007 360.248 692.844 360.321 692.667 360.321H688.961C688.781 360.321 688.62 360.248 688.503 360.131C688.384 360.013 688.311 359.852 688.311 359.673V356.651C688.311 356.488 688.197 356.352 688.045 356.315C687.264 356.089 686.524 355.772 685.836 355.375C685.132 354.968 684.481 354.475 683.899 353.915C683.78 353.8 683.601 353.789 683.471 353.875L680.867 355.376C680.713 355.465 680.537 355.483 680.376 355.439C680.215 355.396 680.072 355.292 679.981 355.139L679.971 355.121L678.127 351.927H678.129C678.039 351.775 678.023 351.597 678.065 351.436C678.109 351.275 678.212 351.129 678.364 351.041L680.98 349.531C681.117 349.453 681.181 349.295 681.144 349.149C681.048 348.763 680.975 348.365 680.925 347.96C680.877 347.563 680.853 347.157 680.853 346.745C680.853 346.332 680.877 345.927 680.925 345.529C680.975 345.124 681.048 344.725 681.144 344.34C681.185 344.179 681.104 344.017 680.963 343.947L678.364 342.447C678.212 342.36 678.109 342.215 678.065 342.053C678.023 341.892 678.039 341.716 678.129 341.56L678.139 341.543L679.981 338.349V338.352C680.072 338.196 680.215 338.093 680.376 338.049C680.537 338.007 680.713 338.024 680.867 338.111V338.113L683.485 339.625C683.627 339.705 683.8 339.679 683.908 339.568C684.487 339.009 685.135 338.52 685.836 338.115C686.528 337.715 687.275 337.395 688.06 337.169C688.212 337.125 688.311 336.988 688.311 336.836V333.816C688.311 333.639 688.384 333.475 688.503 333.359C688.62 333.24 688.781 333.168 688.961 333.168H692.667C692.844 333.168 693.007 333.24 693.124 333.359C693.241 333.475 693.313 333.639 693.313 333.816V336.836C693.313 337 693.428 337.137 693.581 337.175V337.175ZM694.799 342.759C693.777 341.74 692.369 341.108 690.813 341.108C689.257 341.108 687.849 341.74 686.829 342.759C685.808 343.779 685.177 345.188 685.177 346.745C685.177 348.301 685.808 349.709 686.829 350.729C687.849 351.751 689.257 352.38 690.813 352.38C692.369 352.38 693.777 351.751 694.799 350.729C695.819 349.709 696.448 348.301 696.448 346.745C696.448 345.188 695.819 343.779 694.799 342.759Z" fill="white"/>
<path fill-rule="evenodd" clip-rule="evenodd" d="M283.668 234.493H314.775C316.796 234.493 318.449 236.146 318.449 238.17V269.277C318.449 271.3 316.796 272.953 314.775 272.953H283.668C281.645 272.953 279.992 271.3 279.992 269.277V238.17C279.992 236.146 281.645 234.493 283.668 234.493Z" fill="white"/>
<path fill-rule="evenodd" clip-rule="evenodd" d="M283.668 285.96H314.775C316.796 285.96 318.449 287.613 318.449 289.637V320.743C318.449 322.767 316.796 324.42 314.775 324.42H283.668C281.645 324.42 279.992 322.767 279.992 320.743V289.637C279.992 287.613 281.645 285.96 283.668 285.96Z" fill="white"/>
<path fill-rule="evenodd" clip-rule="evenodd" d="M309.885 231.29H278.779C278.095 231.29 277.472 231.572 277.019 232.024C276.565 232.472 276.285 233.094 276.285 233.784V264.889C276.285 265.55 276.545 266.153 276.967 266.597L277.019 266.648C277.472 267.1 278.095 267.381 278.779 267.381H309.885C310.569 267.381 311.193 267.1 311.643 266.648C312.095 266.196 312.376 265.574 312.376 264.889V233.784C312.376 233.121 312.117 232.519 311.697 232.075L311.643 232.024C311.193 231.572 310.569 231.29 309.885 231.29V231.29ZM278.779 228.92H309.885C311.223 228.92 312.44 229.468 313.32 230.349L313.388 230.424C314.228 231.301 314.747 232.485 314.747 233.784V264.889C314.747 266.226 314.199 267.442 313.32 268.324C312.44 269.204 311.223 269.75 309.885 269.75H278.779C277.44 269.75 276.224 269.204 275.344 268.324L275.275 268.248C274.435 267.371 273.917 266.186 273.917 264.889V233.784C273.917 232.448 274.464 231.233 275.345 230.35C276.224 229.468 277.44 228.92 278.779 228.92" fill="#C2CEE6"/>
<path fill-rule="evenodd" clip-rule="evenodd" d="M309.885 282.757H278.779C278.095 282.757 277.472 283.038 277.019 283.49C276.565 283.94 276.285 284.561 276.285 285.249V316.356C276.285 317.018 276.545 317.62 276.967 318.064L277.019 318.114C277.472 318.566 278.095 318.848 278.779 318.848H309.885C310.569 318.848 311.193 318.566 311.643 318.114C312.097 317.666 312.376 317.044 312.376 316.356V285.249C312.376 284.588 312.117 283.985 311.697 283.541L311.643 283.49C311.193 283.038 310.569 282.757 309.885 282.757ZM278.779 280.388H309.885C311.223 280.388 312.44 280.934 313.32 281.814L313.388 281.89C314.228 282.768 314.747 283.952 314.747 285.249V316.356C314.747 317.69 314.197 318.905 313.316 319.788C312.44 320.67 311.223 321.216 309.885 321.216H278.779C277.44 321.216 276.224 320.67 275.344 319.789L275.275 319.714C274.435 318.837 273.917 317.653 273.917 316.356V285.249C273.917 283.916 274.464 282.7 275.345 281.817C276.224 280.934 277.44 280.388 278.779 280.388" fill="#C2CEE6"/>
<path fill-rule="evenodd" clip-rule="evenodd" d="M283.139 292.688C282.327 291.889 282.312 290.584 283.111 289.77C283.909 288.957 285.217 288.944 286.029 289.742L294.307 297.885L302.447 289.61C303.245 288.797 304.552 288.784 305.365 289.582C306.177 290.381 306.191 291.689 305.391 292.501L297.251 300.778L305.525 308.917C306.337 309.716 306.349 311.024 305.552 311.836C304.755 312.649 303.447 312.662 302.635 311.864L294.355 303.721L286.216 311.997C285.417 312.809 284.111 312.821 283.297 312.022C282.484 311.224 282.472 309.917 283.271 309.104L291.413 300.826L283.139 292.688Z" fill="#F57A8F"/>
<path fill-rule="evenodd" clip-rule="evenodd" d="M284.303 251.617C283.481 250.827 283.457 249.52 284.248 248.696C285.037 247.876 286.345 247.852 287.167 248.641L291.492 252.799L301.373 241.531C302.125 240.672 303.429 240.585 304.285 241.336C305.143 242.085 305.231 243.389 304.48 244.248L293.107 257.216C292.316 258.039 291.007 258.063 290.185 257.273L284.303 251.617" fill="#FAB33A"/>
<path fill-rule="evenodd" clip-rule="evenodd" d="M235 215.168H228.493C226.928 215.168 225.648 213.888 225.648 212.323V205.816C225.648 204.249 226.928 202.972 228.493 202.972H235C236.565 202.972 237.845 204.249 237.845 205.816V212.323C237.845 213.888 236.565 215.168 235 215.168Z" fill="#C2CEE6"/>
<path fill-rule="evenodd" clip-rule="evenodd" d="M212.435 215.168H205.928C204.363 215.168 203.083 213.888 203.083 212.323V205.816C203.083 204.249 204.363 202.972 205.928 202.972H212.435C214.001 202.972 215.28 204.249 215.28 205.816V212.323C215.28 213.888 214.001 215.168 212.435 215.168Z" fill="#C2CEE6"/>
<path fill-rule="evenodd" clip-rule="evenodd" d="M189.871 215.168H183.361C181.797 215.168 180.517 213.888 180.517 212.323V205.816C180.517 204.249 181.797 202.972 183.361 202.972H189.871C191.436 202.972 192.716 204.249 192.716 205.816V212.323C192.716 213.888 191.436 215.168 189.871 215.168Z" fill="#C2CEE6"/>
<path fill-rule="evenodd" clip-rule="evenodd" d="M167.305 215.168H160.799C159.231 215.168 157.949 213.888 157.949 212.323V205.816C157.949 204.249 159.231 202.972 160.799 202.972H167.305C168.868 202.972 170.149 204.249 170.149 205.816V212.323C170.149 213.888 168.868 215.168 167.305 215.168Z" fill="#C2CEE6"/>
<path fill-rule="evenodd" clip-rule="evenodd" d="M144.737 215.168H138.231C136.664 215.168 135.385 213.888 135.385 212.323V205.816C135.385 204.249 136.664 202.972 138.231 202.972H144.737C146.303 202.972 147.583 204.249 147.583 205.816V212.323C147.583 213.888 146.303 215.168 144.737 215.168Z" fill="#C2CEE6"/>
<path fill-rule="evenodd" clip-rule="evenodd" d="M122.171 215.168H115.665C114.099 215.168 112.82 213.888 112.82 212.323V205.816C112.82 204.249 114.099 202.972 115.665 202.972H122.171C123.738 202.972 125.016 204.249 125.016 205.816V212.323C125.016 213.888 123.738 215.168 122.171 215.168Z" fill="#C2CEE6"/>
<path fill-rule="evenodd" clip-rule="evenodd" d="M189.053 190.566H182.544C180.979 190.566 179.699 189.286 179.699 187.72V181.213C179.699 179.648 180.979 178.368 182.544 178.368H189.053C190.617 178.368 191.897 179.648 191.897 181.213V187.72C191.897 189.286 190.617 190.566 189.053 190.566Z" fill="#C2CEE6"/>
<path fill-rule="evenodd" clip-rule="evenodd" d="M166.487 190.566H159.98C158.413 190.566 157.135 189.286 157.135 187.72V181.213C157.135 179.648 158.413 178.368 159.98 178.368H166.487C168.052 178.368 169.332 179.648 169.332 181.213V187.72C169.332 189.286 168.052 190.566 166.487 190.566Z" fill="#C2CEE6"/>
<path fill-rule="evenodd" clip-rule="evenodd" d="M143.921 190.566H137.415C135.849 190.566 134.569 189.286 134.569 187.72V181.213C134.569 179.648 135.849 178.368 137.415 178.368H143.921C145.488 178.368 146.767 179.648 146.767 181.213V187.72C146.767 189.286 145.488 190.566 143.921 190.566Z" fill="#C2CEE6"/>
<path fill-rule="evenodd" clip-rule="evenodd" d="M167.305 241.596H160.799C159.231 241.596 157.952 240.316 157.952 238.75V232.244C157.952 230.677 159.231 229.398 160.799 229.398H167.305C168.869 229.398 170.149 230.677 170.149 232.244V238.75C170.149 240.316 168.869 241.596 167.305 241.596Z" fill="#C2CEE6"/>
<path fill-rule="evenodd" clip-rule="evenodd" d="M144.737 241.596H138.231C136.664 241.596 135.385 240.316 135.385 238.75V232.244C135.385 230.677 136.664 229.398 138.231 229.398H144.737C146.303 229.398 147.583 230.677 147.583 232.244V238.75C147.583 240.316 146.303 241.596 144.737 241.596Z" fill="#C2CEE6"/>
<path fill-rule="evenodd" clip-rule="evenodd" d="M633.747 167.028H627.24C625.672 167.028 624.395 165.748 624.395 164.183V157.676C624.395 156.109 625.672 154.831 627.24 154.831H633.747C635.311 154.831 636.591 156.109 636.591 157.676V164.183C636.591 165.748 635.311 167.028 633.747 167.028Z" fill="#C2CEE6"/>
<path fill-rule="evenodd" clip-rule="evenodd" d="M611.181 167.028H604.673C603.108 167.028 601.828 165.748 601.828 164.183V157.676C601.828 156.109 603.108 154.831 604.673 154.831H611.181C612.748 154.831 614.027 156.109 614.027 157.676V164.183C614.027 165.748 612.748 167.028 611.181 167.028Z" fill="#C2CEE6"/>
<path fill-rule="evenodd" clip-rule="evenodd" d="M588.615 167.028H582.108C580.543 167.028 579.261 165.748 579.261 164.183V157.676C579.261 156.109 580.543 154.831 582.108 154.831H588.615C590.18 154.831 591.461 156.109 591.461 157.676V164.183C591.461 165.748 590.18 167.028 588.615 167.028Z" fill="#C2CEE6"/>
<path fill-rule="evenodd" clip-rule="evenodd" d="M566.047 167.028H559.54C557.975 167.028 556.695 165.748 556.695 164.183V157.676C556.695 156.109 557.975 154.831 559.54 154.831H566.047C567.615 154.831 568.895 156.109 568.895 157.676V164.183C568.895 165.748 567.615 167.028 566.047 167.028Z" fill="#C2CEE6"/>
<path fill-rule="evenodd" clip-rule="evenodd" d="M543.483 167.028H536.976C535.409 167.028 534.129 165.748 534.129 164.183V157.676C534.129 156.109 535.409 154.831 536.976 154.831H543.483C545.048 154.831 546.328 156.109 546.328 157.676V164.183C546.328 165.748 545.048 167.028 543.483 167.028Z" fill="#C2CEE6"/>
<path fill-rule="evenodd" clip-rule="evenodd" d="M610.361 142.426H603.856C602.291 142.426 601.011 141.146 601.011 139.58V133.073C601.011 131.508 602.291 130.228 603.856 130.228H610.361C611.929 130.228 613.208 131.508 613.208 133.073V139.58C613.208 141.146 611.929 142.426 610.361 142.426Z" fill="#C2CEE6"/>
<path fill-rule="evenodd" clip-rule="evenodd" d="M587.799 142.426H581.291C579.725 142.426 578.445 141.146 578.445 139.58V133.073C578.445 131.508 579.725 130.228 581.291 130.228H587.799C589.363 130.228 590.643 131.508 590.643 133.073V139.58C590.643 141.146 589.363 142.426 587.799 142.426Z" fill="#C2CEE6"/>
<path fill-rule="evenodd" clip-rule="evenodd" d="M565.233 142.426H558.727C557.159 142.426 555.879 141.146 555.879 139.58V133.073C555.879 131.508 557.159 130.228 558.727 130.228H565.233C566.799 130.228 568.079 131.508 568.079 133.073V139.58C568.079 141.146 566.799 142.426 565.233 142.426Z" fill="#C2CEE6"/>
<path fill-rule="evenodd" clip-rule="evenodd" d="M588.615 193.456H582.108C580.543 193.456 579.263 192.177 579.263 190.61V184.104C579.263 182.537 580.543 181.258 582.108 181.258H588.615C590.181 181.258 591.461 182.537 591.461 184.104V190.61C591.461 192.177 590.181 193.456 588.615 193.456Z" fill="#C2CEE6"/>
<path fill-rule="evenodd" clip-rule="evenodd" d="M566.047 193.456H559.54C557.975 193.456 556.695 192.177 556.695 190.61V184.104C556.695 182.537 557.975 181.258 559.54 181.258H566.047C567.615 181.258 568.895 182.537 568.895 184.104V190.61C568.895 192.177 567.615 193.456 566.047 193.456Z" fill="#C2CEE6"/>
<path fill-rule="evenodd" clip-rule="evenodd" d="M195.012 100.369C195.703 99.6787 196.824 99.6787 197.515 100.369C198.205 101.06 198.205 102.181 197.515 102.871L191.888 108.496C191.197 109.187 190.077 109.187 189.385 108.496C188.695 107.805 188.695 106.685 189.385 105.995L195.012 100.369ZM201.472 112.425C202.448 112.425 203.241 113.219 203.241 114.195C203.241 115.172 202.448 115.963 201.472 115.963H193.516C192.539 115.963 191.747 115.172 191.747 114.195C191.747 113.219 192.539 112.425 193.516 112.425H201.472ZM197.515 125.519C198.205 126.209 198.205 127.331 197.515 128.019C196.824 128.712 195.703 128.712 195.012 128.019L189.385 122.395C188.695 121.704 188.695 120.583 189.385 119.892C190.077 119.201 191.197 119.201 191.888 119.892L197.515 125.519ZM185.459 131.977C185.459 132.955 184.665 133.748 183.689 133.748C182.712 133.748 181.92 132.955 181.92 131.977V124.021C181.92 123.044 182.712 122.252 183.689 122.252C184.665 122.252 185.459 123.044 185.459 124.021V131.977ZM172.364 128.019C171.675 128.712 170.553 128.712 169.863 128.019C169.172 127.331 169.172 126.209 169.863 125.519L175.489 119.892C176.18 119.201 177.301 119.201 177.992 119.892C178.683 120.583 178.683 121.704 177.992 122.395L172.364 128.019ZM165.905 115.963C164.929 115.963 164.136 115.172 164.136 114.195C164.136 113.219 164.929 112.425 165.905 112.425H173.861C174.837 112.425 175.632 113.219 175.632 114.195C175.632 115.172 174.837 115.963 173.861 115.963H165.905ZM169.863 102.871C169.172 102.181 169.172 101.06 169.863 100.369C170.553 99.6787 171.675 99.6787 172.364 100.369L177.992 105.995C178.683 106.685 178.683 107.805 177.992 108.496C177.301 109.187 176.18 109.187 175.489 108.496L169.863 102.871ZM181.92 96.412C181.92 95.4347 182.712 94.6427 183.689 94.6427C184.665 94.6427 185.459 95.4347 185.459 96.412V104.368C185.459 105.344 184.665 106.136 183.689 106.136C182.712 106.136 181.92 105.344 181.92 104.368V96.412Z" fill="white"/>
<path fill-rule="evenodd" clip-rule="evenodd" d="M259.2 471.45C259.891 470.76 261.011 470.76 261.701 471.45C262.393 472.141 262.393 473.262 261.701 473.953L256.076 479.581C255.385 480.27 254.264 480.27 253.573 479.581C252.883 478.888 252.883 477.768 253.573 477.078L259.2 471.45ZM265.66 483.509C266.636 483.509 267.427 484.301 267.427 485.277C267.427 486.252 266.636 487.046 265.66 487.046H257.703C256.725 487.046 255.933 486.252 255.933 485.277C255.933 484.301 256.725 483.509 257.703 483.509H265.66ZM261.701 496.6C262.393 497.292 262.393 498.413 261.701 499.101C261.011 499.794 259.891 499.794 259.2 499.101L253.573 493.476C252.883 492.786 252.883 491.664 253.573 490.973C254.264 490.284 255.385 490.284 256.076 490.973L261.701 496.6ZM249.644 503.06C249.644 504.036 248.853 504.829 247.876 504.829C246.9 504.829 246.107 504.036 246.107 503.06V495.104C246.107 494.128 246.9 493.334 247.876 493.334C248.853 493.334 249.644 494.128 249.644 495.104V503.06ZM236.553 499.101C235.861 499.794 234.741 499.794 234.051 499.101C233.36 498.413 233.36 497.292 234.051 496.6L239.677 490.973C240.368 490.284 241.488 490.284 242.177 490.973C242.868 491.664 242.868 492.786 242.177 493.476L236.553 499.101ZM230.092 487.046C229.116 487.046 228.324 486.252 228.324 485.277C228.324 484.301 229.116 483.509 230.092 483.509H238.049C239.027 483.509 239.817 484.301 239.817 485.277C239.817 486.252 239.027 487.046 238.049 487.046H230.092ZM234.051 473.953C233.36 473.262 233.36 472.141 234.051 471.45C234.741 470.76 235.861 470.76 236.553 471.45L242.177 477.078C242.868 477.768 242.868 478.888 242.177 479.581C241.488 480.27 240.368 480.27 239.677 479.581L234.051 473.953ZM246.107 467.494C246.107 466.517 246.9 465.724 247.876 465.724C248.853 465.724 249.644 466.517 249.644 467.494V475.45C249.644 476.426 248.853 477.218 247.876 477.218C246.9 477.218 246.107 476.426 246.107 475.45V467.494Z" fill="white"/>
<path fill-rule="evenodd" clip-rule="evenodd" d="M808.803 244.79C809.493 244.1 810.615 244.1 811.305 244.79C811.996 245.481 811.996 246.601 811.305 247.293L805.679 252.917C804.988 253.609 803.868 253.609 803.176 252.917C802.487 252.228 802.487 251.106 803.176 250.417L808.803 244.79ZM815.261 256.847C816.24 256.847 817.031 257.639 817.031 258.616C817.031 259.591 816.24 260.385 815.261 260.385H807.305C806.329 260.385 805.537 259.591 805.537 258.616C805.537 257.639 806.329 256.847 807.305 256.847H815.261ZM811.305 269.939C811.996 270.631 811.996 271.751 811.305 272.441C810.615 273.132 809.493 273.132 808.803 272.441L803.176 266.815C802.487 266.124 802.487 265.004 803.176 264.313C803.868 263.623 804.988 263.623 805.679 264.313L811.305 269.939ZM799.249 276.4C799.249 277.376 798.455 278.167 797.479 278.167C796.503 278.167 795.711 277.376 795.711 276.4V268.443C795.711 267.467 796.503 266.673 797.479 266.673C798.455 266.673 799.249 267.467 799.249 268.443V276.4ZM786.155 272.441C785.465 273.132 784.344 273.132 783.655 272.441C782.964 271.751 782.964 270.631 783.655 269.939L789.28 264.313C789.971 263.623 791.091 263.623 791.783 264.313C792.472 265.004 792.472 266.124 791.783 266.815L786.155 272.441ZM779.695 260.385C778.72 260.385 777.925 259.591 777.925 258.616C777.925 257.639 778.72 256.847 779.695 256.847H787.652C788.628 256.847 789.421 257.639 789.421 258.616C789.421 259.591 788.628 260.385 787.652 260.385H779.695ZM783.655 247.293C782.964 246.601 782.964 245.481 783.655 244.79C784.344 244.1 785.465 244.1 786.155 244.79L791.783 250.417C792.472 251.106 792.472 252.228 791.783 252.917C791.091 253.609 789.971 253.609 789.28 252.917L783.655 247.293ZM795.711 240.832C795.711 239.856 796.503 239.064 797.479 239.064C798.455 239.064 799.249 239.856 799.249 240.832V248.788C799.249 249.766 798.455 250.557 797.479 250.557C796.503 250.557 795.711 249.766 795.711 248.788V240.832Z" fill="white"/>
<path fill-rule="evenodd" clip-rule="evenodd" d="M112.3 375.921V378.79H115.17C116.369 378.79 117.347 379.77 117.347 380.969C117.347 382.166 116.369 383.146 115.17 383.146H112.3V386.016C112.3 387.214 111.321 388.194 110.123 388.194C108.925 388.194 107.945 387.214 107.945 386.016V383.146H105.075C103.878 383.146 102.896 382.166 102.896 380.969C102.896 379.77 103.878 378.79 105.075 378.79H107.945V375.921C107.945 374.724 108.925 373.745 110.123 373.745C111.321 373.745 112.3 374.724 112.3 375.921Z" fill="white"/>
<path fill-rule="evenodd" clip-rule="evenodd" d="M353.003 271.619V274.487H355.872C357.071 274.487 358.049 275.467 358.049 276.664C358.049 277.864 357.071 278.843 355.872 278.843H353.003V281.713C353.003 282.912 352.023 283.891 350.825 283.891C349.627 283.891 348.647 282.912 348.647 281.713V278.843H345.777C344.58 278.843 343.599 277.864 343.599 276.664C343.599 275.467 344.58 274.487 345.777 274.487H348.647V271.619C348.647 270.42 349.627 269.44 350.825 269.44C352.023 269.44 353.003 270.42 353.003 271.619Z" fill="white"/>
<path fill-rule="evenodd" clip-rule="evenodd" d="M386.857 72.6747V75.908H390.089C391.44 75.908 392.545 77.0107 392.545 78.364C392.545 79.7134 391.44 80.816 390.089 80.816H386.857V84.0494C386.857 85.4 385.752 86.5054 384.403 86.5054C383.051 86.5054 381.947 85.4 381.947 84.0494V80.816H378.713C377.364 80.816 376.259 79.7134 376.259 78.364C376.259 77.0107 377.364 75.908 378.713 75.908H381.947V72.6747C381.947 71.324 383.051 70.2214 384.403 70.2214C385.752 70.2214 386.857 71.324 386.857 72.6747Z" fill="white"/>
<path fill-rule="evenodd" clip-rule="evenodd" d="M806.08 373.552V376.785H809.311C810.661 376.785 811.767 377.889 811.767 379.241C811.767 380.589 810.661 381.694 809.311 381.694H806.08V384.926C806.08 386.277 804.975 387.382 803.625 387.382C802.275 387.382 801.169 386.277 801.169 384.926V381.694H797.936C796.585 381.694 795.483 380.589 795.483 379.241C795.483 377.889 796.585 376.785 797.936 376.785H801.169V373.552C801.169 372.201 802.275 371.097 803.625 371.097C804.975 371.097 806.08 372.201 806.08 373.552Z" fill="white"/>
<path fill-rule="evenodd" clip-rule="evenodd" d="M719.829 477.857V481.088H723.061C724.412 481.088 725.516 482.195 725.516 483.543C725.516 484.893 724.412 485.999 723.061 485.999H719.829V489.232C719.829 490.583 718.724 491.687 717.373 491.687C716.023 491.687 714.919 490.583 714.919 489.232V485.999H711.685C710.335 485.999 709.231 484.893 709.231 483.543C709.231 482.195 710.335 481.088 711.685 481.088H714.919V477.857C714.919 476.507 716.023 475.401 717.373 475.401C718.724 475.401 719.829 476.507 719.829 477.857Z" fill="white"/>
</svg>
