<svg width="538" height="650" viewBox="0 0 538 650" fill="none" xmlns="http://www.w3.org/2000/svg">
<path d="M494.073 639.421C494.073 639.421 383.471 650 247.037 650C110.605 650 0 639.421 0 639.421C0 639.421 110.605 628.845 247.037 628.845C383.471 628.845 494.073 639.421 494.073 639.421Z" fill="#B5B5B4"/>
<path d="M122.654 344.004C138.231 380.39 156.533 416.094 182.324 446.123C208.112 476.149 242.052 500.334 280.699 508.894C275.037 501.639 278.826 490.301 286.094 484.657C293.365 479.011 302.901 477.483 311.956 475.839C332.316 472.14 354.777 465.124 364.206 446.708C373.997 427.588 365.669 404.126 370.185 383.123C377.288 350.1 412.327 332.662 442.082 316.672C482.987 294.687 523.11 264.032 537.337 219.828C493.359 232.908 445.105 231.15 402.197 214.902C368.518 202.146 338.544 180.977 304.92 168.095C245.912 145.486 155.257 130.414 107.368 177.056C67.3062 216.078 104.132 300.731 122.654 344.004Z" fill="#921923"/>
<path d="M136.816 329.726C163.924 380.364 197.19 432.02 249.353 456.069C255.739 459.012 265.565 460.139 267.733 453.449C268.647 450.629 267.568 447.586 266.499 444.821C257.751 422.174 249.004 399.523 240.259 376.872C252.24 400.608 266.373 424.038 287.163 440.612C293.524 445.684 300.698 450.148 308.729 451.427C316.762 452.7 325.791 450.187 330.523 443.571C334.972 437.356 334.833 428.773 332.168 421.608C329.503 414.444 324.657 408.342 320.031 402.256C284.537 355.581 257.651 302.388 241.115 246.132C252.273 263.592 263.44 281.071 275.851 297.662C291.366 318.407 310.954 338.952 336.554 342.893C342.052 343.739 347.867 343.732 352.948 341.475C358.033 339.22 362.206 334.323 362.358 328.767C362.442 325.656 361.315 322.658 360.207 319.754C356.476 309.979 352.741 300.208 349.01 290.433C355.222 296.829 361.56 303.325 369.384 307.602C377.208 311.882 386.886 313.681 395.103 310.221C388.798 301.451 382.492 292.681 376.187 283.914C381.995 289.076 390.471 290.339 398.13 289.031C405.786 287.722 412.847 284.153 419.747 280.577C431.005 274.74 442.605 268.405 449.96 258.068C428.188 256.876 406.387 253.245 386.12 245.212C339.445 226.722 304.377 186.579 258.921 165.272C233.12 153.184 204.345 147.512 175.889 148.907C159.066 149.734 142.036 153.123 127.49 161.608C112.94 170.094 101.111 184.192 98.0585 200.753C94.3663 220.797 64.3343 192.306 83.9777 186.837C93.3714 184.224 94.9768 205.951 96.046 211.93C103.65 254.541 116.3 291.402 136.816 329.726Z" fill="#6C1220"/>
<path d="M189.45 288.004V382.176C176.994 382.176 160.743 437.892 160.743 437.892C160.743 437.892 158.798 492.494 148.962 505.312C148.371 506.077 147.757 507.082 147.127 508.294C143.987 514.328 140.372 525.508 136.89 537.977C129.383 564.908 122.528 597.828 122.528 597.828H92.6705C92.6705 597.828 92.2894 594.407 91.7015 588.876C91.5173 587.109 91.3073 585.126 91.0909 582.971C88.8006 560.605 84.921 519.677 86.0129 508.113C86.4586 503.413 88.8265 495.366 91.9631 486.315C99.6092 464.252 111.81 436.229 111.81 436.229C111.81 436.229 110.721 403.351 115.318 381.059C118.481 365.734 133.731 328.595 142.953 306.885C144.497 303.254 145.87 300.053 146.991 297.452C147.101 297.207 147.208 296.961 147.304 296.729C147.495 296.296 147.673 295.876 147.841 295.482C148.031 295.052 148.209 294.645 148.37 294.267C149.459 291.767 150.086 290.339 150.086 290.339L189.45 288.004Z" fill="#AB1C26"/>
<path d="M157.506 343.216C131.806 371.122 118.781 410.28 122.632 448.02C122.767 449.354 122.919 450.717 122.657 452.032C122.276 453.944 121.058 455.559 119.921 457.148C110.424 470.431 101.896 489.648 104.367 506.352C107.171 525.314 108.615 543.178 105.181 562.281C104.264 567.395 103.001 572.622 99.8999 576.792C97.7001 579.744 94.5635 581.828 91.0941 582.972C88.8039 560.608 84.9211 519.68 86.0161 508.113C86.4619 503.416 88.8298 495.369 91.9664 486.318C99.6125 464.255 111.813 436.232 111.813 436.232C111.813 436.232 110.725 403.354 115.318 381.062C118.481 365.738 133.731 328.599 142.953 306.888C144.501 303.254 145.873 300.053 146.994 297.456C147.104 297.207 147.211 296.965 147.308 296.729C147.495 296.296 147.673 295.879 147.844 295.485C148.031 295.055 148.212 294.648 148.374 294.267C157.464 297.175 165.856 302.24 172.414 309.191C173.88 310.745 175.308 312.457 175.812 314.531C176.438 317.093 163.63 336.552 157.506 343.216Z" fill="#E2183A"/>
<path d="M119.802 622.969C114.284 627.259 107.236 625.417 95.2773 634.927C83.3188 644.434 52.7957 641.863 53.1058 638.18C53.4127 634.504 81.9846 606.223 92.6737 597.831H122.531L121.95 601.817C121.95 601.817 125.322 618.676 119.802 622.969Z" fill="#E9EEF3"/>
<path d="M287.192 577.125C285.732 589.164 284.573 597.828 284.573 597.828H256.366C256.366 597.828 251.113 572.615 244.772 548.272C240.715 532.676 236.196 517.429 232.335 509.408C231.499 507.686 230.698 506.297 229.939 505.312C220.096 492.494 218.158 437.892 218.158 437.892C218.158 437.892 201.906 382.176 189.45 382.176V288.004L205.33 288.947L228.814 290.339C228.814 290.339 229.338 291.525 230.249 293.624C230.633 294.503 231.085 295.543 231.596 296.729C232.584 299.012 233.789 301.82 235.156 305.021C244.268 326.405 260.329 365.285 263.582 381.059C268.172 403.351 267.09 436.229 267.09 436.229C267.09 436.229 286.989 481.941 291.886 502.566C292.39 504.714 292.736 506.585 292.881 508.113C293.889 518.727 289.986 554.099 287.192 577.125Z" fill="#AB1C26"/>
<path d="M244.772 548.084V548.271C240.715 532.676 236.195 517.429 232.335 509.408C231.499 507.686 230.698 506.297 229.938 505.312C220.096 492.494 218.158 437.892 218.158 437.892C218.158 437.892 201.906 382.176 189.45 382.176C176.994 382.176 160.742 437.892 160.742 437.892C160.742 437.892 158.798 492.494 148.961 505.312C148.37 506.077 147.757 507.082 147.127 508.293C143.987 514.328 140.372 525.508 136.89 537.977C136.079 535.331 135.194 532.721 133.782 530.363C130.562 524.984 125.626 520.559 128.414 513.714C130.319 509.027 134.829 507.993 138.017 504.433C146.526 494.936 148.435 478.646 149.485 466.548C150.858 450.681 150.767 434.219 157.221 419.664C161.398 410.244 168.301 401.564 168.773 391.282C169.18 382.57 164.848 374.42 160.642 366.784C170.207 367.869 179.895 367.818 189.45 366.664C199.732 365.421 209.865 362.895 219.527 359.125C214.714 364.529 209.662 370.486 209.087 377.702C208.583 383.976 211.594 389.932 214.255 395.64C217.45 402.495 220.251 409.524 222.648 416.692C224.547 422.387 226.195 428.243 226.327 434.239C226.43 439.194 225.487 444.124 225.477 449.076C225.448 459.484 229.48 469.407 232.794 479.272C240.22 501.426 244.281 524.716 244.772 548.084Z" fill="#921824"/>
<path d="M287.196 577.128C286.12 576.401 285.125 575.564 284.218 574.602C276.998 566.955 278.248 554.965 279.123 544.486C282.037 509.676 275.134 473.645 256.805 443.91C255.109 441.152 253.304 438.429 252.202 435.392C251.194 432.598 250.81 429.62 250.396 426.683C245.952 394.91 237.621 363.683 225.649 333.919C222.338 325.678 218.488 317.212 211.504 311.724L201.183 310.738C197.694 309.42 196.163 305.04 196.903 301.39C197.633 297.73 200.075 294.674 202.569 291.899C203.46 290.904 204.384 289.916 205.334 288.947L228.818 290.342C228.818 290.342 229.341 291.525 230.252 293.627C230.637 294.503 231.089 295.543 231.599 296.729C232.588 299.012 233.793 301.82 235.159 305.024C244.269 326.405 260.333 365.285 263.586 381.062C268.173 403.354 267.094 436.232 267.094 436.232C267.094 436.232 286.992 481.944 291.89 502.569C292.393 504.714 292.739 506.588 292.884 508.112C293.892 518.73 289.99 554.102 287.196 577.128Z" fill="#E2183A"/>
<path d="M325.801 638.18C326.108 641.863 295.588 644.434 283.63 634.927C271.668 625.417 264.619 627.259 259.095 622.969C253.578 618.676 256.957 601.817 256.957 601.817L256.366 597.831H284.576C296.347 606.982 325.491 634.504 325.801 638.18Z" fill="#E9EEF3"/>
<path d="M136.199 200.298C135.178 201.574 133.647 203.208 131.747 205.088C128.01 208.787 122.857 213.432 117.466 218.139C104.622 229.338 90.38 240.877 90.38 240.877C98.6108 244.475 101.789 256.169 104.361 263.544C105.062 265.553 105.717 267.249 106.418 268.367C109.691 273.603 128.998 293.896 128.998 293.896L115.253 315.493C95.9458 308.7 74.2867 294.871 58.6166 283.73C48.9354 276.836 41.5348 270.973 38.3788 268.425C37.2934 267.543 36.7087 267.058 36.7087 267.058C39.8518 230.582 75.6337 178.38 78.4312 174.362C78.541 174.2 78.5991 174.113 78.5991 174.113C78.5991 174.113 84.4912 152.515 93.6523 140.734C102.817 128.95 131.847 134.626 131.847 134.626C131.847 134.626 132.096 135.753 132.493 137.708C132.493 137.708 132.493 137.708 132.493 137.717C134.91 149.563 142.94 191.873 136.199 200.298Z" fill="#E9EEF3"/>
<path d="M339.749 267.058C339.749 267.058 329.674 275.451 315.28 285.536C299.858 296.331 279.485 309.062 261.205 315.493L247.457 293.896C247.457 293.896 266.767 273.603 270.04 268.367C271.225 266.47 272.278 262.943 273.648 258.996C276.042 252.05 279.391 243.797 286.075 240.877C286.075 240.877 273.005 230.288 260.62 219.554C255.477 215.096 250.454 210.612 246.53 206.846C243.794 204.235 241.594 201.965 240.26 200.298C232.403 190.478 244.611 134.626 244.611 134.626C244.611 134.626 245.318 134.49 246.549 134.296H246.555C253.2 133.279 275.073 130.792 282.803 140.734C291.967 152.515 297.859 174.113 297.859 174.113C297.859 174.113 331.218 221.608 338.551 258.792C339.113 261.622 339.52 264.384 339.749 267.058Z" fill="#E9EEF3"/>
<path d="M266.696 207.935C265.688 210.58 263.408 214.786 260.62 219.554C255.933 227.552 249.827 237.127 245.919 243.497C244.094 246.469 242.753 248.74 242.252 249.825C240.76 253.11 235.579 277.505 232.468 292.533C232.154 294.038 231.861 295.446 231.599 296.729C230.649 301.351 230.042 304.368 230.042 304.368L189.453 327.93L148.865 304.368C148.865 304.368 148.438 302.24 147.74 298.832C147.608 298.176 147.463 297.475 147.308 296.729C147.201 296.212 147.091 295.669 146.972 295.107C143.955 280.477 138.227 253.314 136.644 249.825C135.029 246.272 124.327 230.046 117.466 218.139C115.056 213.962 113.121 210.318 112.21 207.935C111.183 205.231 111.975 198.072 113.755 189.228C118.002 168.118 127.848 137.395 131.847 134.626C137.523 130.698 169.874 121.372 169.874 121.372L189.453 134.187L209.029 121.372C209.029 121.372 239.675 130.207 246.549 134.297H246.555C246.746 134.41 246.907 134.52 247.059 134.626C249.604 136.393 254.534 149.537 258.885 164.309C264.186 182.383 268.612 202.889 266.696 207.935Z" fill="#E9EEF3"/>
<path d="M339.749 267.058C339.749 267.058 329.674 275.451 315.28 285.536C305.424 281.394 295.775 276.746 286.385 271.636C283.138 269.859 279.853 267.982 277.382 265.22C275.722 263.363 274.536 261.254 273.648 258.996C276.042 252.05 279.391 243.797 286.075 240.877C286.075 240.877 273.005 230.288 260.62 219.554C255.933 227.552 249.828 237.126 245.919 243.497C241.455 235.569 233.876 229.677 225.235 225.384C217.121 221.353 207.498 221.85 198.605 223.585C189.709 225.32 180.977 228.191 171.929 228.631C167.949 228.828 163.937 228.547 160.019 229.248C156.104 229.945 152.156 231.832 150.147 235.269C148.225 238.554 148.4 242.624 148.7 246.42C150.192 265.056 153.374 283.555 158.197 301.619C155.639 303.522 151.817 302.666 149.401 300.586C148.787 300.053 148.235 299.465 147.741 298.831C145.056 285.726 138.379 253.633 136.645 249.825C135.029 246.271 124.328 230.046 117.466 218.139C104.623 229.338 90.3803 240.877 90.3803 240.877C98.6111 244.475 101.79 256.169 104.361 263.544C97.4127 265.391 90.613 268.583 84.2235 271.891C75.7536 276.274 67.4711 281.268 58.6169 283.73C48.9357 276.836 41.5351 270.973 38.3791 268.425C48.7128 258.537 63.3621 253.168 77.2007 248.42C74.6779 235.799 79.7656 221.954 89.8571 213.968C83.2866 197.1 90.277 176.032 105.637 166.451C105.653 174.749 108.806 182.525 113.755 189.228C117.996 194.981 123.552 199.943 129.564 203.758C130.281 204.216 131.014 204.662 131.748 205.088C147.117 214.094 165.73 217.457 183.274 214.343C190.355 213.087 197.274 210.816 204.455 210.338C218.003 209.44 232.752 214.776 244.572 208.093C245.247 207.711 245.9 207.295 246.53 206.846C252.68 202.456 256.443 195.071 257.716 187.551C259.115 179.272 257.858 170.77 256.085 162.555C257.047 163.098 257.984 163.682 258.885 164.309C270.695 172.44 277.566 187.167 277.54 201.58C288.139 202.889 297.72 210.467 301.445 220.474C303.331 225.549 303.786 231.073 305.825 236.086C307.485 240.163 310.15 243.784 313.287 246.872C320.038 253.543 329.125 257.752 338.551 258.792C339.113 261.622 339.52 264.384 339.749 267.058Z" fill="#D8DEE4"/>
<path d="M132.494 137.708C132.494 137.708 132.494 137.708 132.494 137.718C132.436 139.517 132.154 141.329 131.738 143.044C129.832 150.761 125.406 157.678 119.589 163.04C108.754 173.028 93.9498 177.373 79.491 174.611C79.2293 174.559 78.5994 174.113 78.5994 174.113C78.5994 174.113 79.3521 171.419 80.5182 167.937C80.8961 166.797 81.329 165.54 81.8135 164.199C82.3433 162.746 82.9281 161.195 83.5741 159.583C84.0587 158.366 84.5754 157.122 85.1246 155.865C87.4633 150.526 90.3416 144.989 93.6526 140.735C97.6259 135.628 105.33 133.802 112.779 133.363C114.113 133.289 115.438 133.26 116.733 133.26C118.474 133.26 120.157 133.324 121.734 133.421C123.155 133.512 124.483 133.625 125.681 133.751C129.393 134.148 131.848 134.626 131.848 134.626C131.848 134.626 131.899 134.868 132.006 135.327C132.109 135.857 132.277 136.661 132.494 137.708Z" fill="#275C9E"/>
<path d="M132.006 135.327C125.164 136.302 107.045 139.016 100.233 141.387C91.8953 144.281 79.0517 173.099 78.6059 174.087C78.6867 173.8 79.3521 171.419 80.5182 167.937C80.8962 166.796 81.329 165.54 81.8136 164.199C82.3433 162.746 82.9281 161.195 83.5742 159.583C84.0587 158.365 84.5755 157.122 85.1246 155.865C87.4634 150.525 90.3416 144.989 93.6527 140.734C97.6259 135.627 105.33 133.802 112.779 133.363C114.113 133.289 115.438 133.259 116.733 133.259C118.474 133.259 120.157 133.324 121.734 133.421C123.155 133.511 124.483 133.624 125.681 133.75C129.393 134.148 131.848 134.626 131.848 134.626C131.848 134.626 131.899 134.868 132.006 135.327Z" fill="#3F92D2"/>
<path d="M125.681 133.751C125.771 144.275 118.755 154.198 110.124 160.194C101.56 166.131 90.6936 169.894 80.5182 167.937C80.8961 166.797 81.329 165.54 81.8135 164.199C90.5773 165.698 99.7934 162.306 107.268 157.384C115.241 152.134 121.995 143.057 121.734 133.421C123.155 133.512 124.483 133.625 125.681 133.751Z" fill="#FCD238"/>
<path d="M83.5744 159.583C84.0589 158.365 84.5757 157.122 85.1249 155.865C97.9556 156.821 114.902 146.145 112.779 133.363C114.114 133.289 115.438 133.26 116.733 133.26C118.82 148.746 98.9829 161.489 83.5744 159.583Z" fill="#FCD238"/>
<path d="M243.961 137.711C243.961 137.711 243.961 137.711 243.961 137.718C244.023 139.517 244.304 141.329 244.724 143.044C246.626 150.761 251.052 157.681 256.87 163.04C267.701 173.028 282.508 177.373 296.967 174.611C297.229 174.559 297.856 174.117 297.856 174.117C297.856 174.117 297.103 171.419 295.94 167.937C295.559 166.797 295.129 165.54 294.645 164.199C294.115 162.746 293.53 161.195 292.884 159.583C292.396 158.366 291.883 157.122 291.33 155.865C288.995 150.526 286.117 144.989 282.802 140.735C278.829 135.628 271.125 133.802 263.676 133.363C262.342 133.289 261.017 133.26 259.725 133.26C257.984 133.26 256.301 133.324 254.721 133.424C253.303 133.515 251.972 133.625 250.777 133.751C247.066 134.148 244.611 134.626 244.611 134.626C244.611 134.626 244.559 134.868 244.452 135.327C244.349 135.857 244.178 136.661 243.961 137.711Z" fill="#275C9E"/>
<path d="M244.452 135.327C251.294 136.302 269.413 139.016 276.225 141.387C284.563 144.281 297.406 173.099 297.849 174.087C297.771 173.8 297.103 171.419 295.94 167.937C295.559 166.796 295.129 165.54 294.645 164.199C294.115 162.746 293.53 161.195 292.884 159.583C292.396 158.365 291.883 157.122 291.33 155.865C288.995 150.525 286.117 144.989 282.802 140.734C278.829 135.627 271.125 133.802 263.676 133.363C262.342 133.289 261.017 133.259 259.725 133.259C257.984 133.259 256.301 133.324 254.721 133.424C253.303 133.515 251.972 133.624 250.777 133.75C247.066 134.148 244.611 134.626 244.611 134.626C244.611 134.626 244.559 134.868 244.452 135.327Z" fill="#3F92D2"/>
<path d="M250.777 133.751C250.684 144.275 257.703 154.198 266.334 160.194C274.895 166.131 285.761 169.894 295.94 167.937C295.559 166.797 295.129 165.54 294.645 164.199C285.878 165.698 276.662 162.306 269.187 157.384C261.218 152.134 254.46 143.057 254.722 133.424C253.303 133.515 251.973 133.625 250.777 133.751Z" fill="#FCD238"/>
<path d="M292.884 159.583C292.396 158.365 291.883 157.122 291.33 155.865C278.503 156.821 261.557 146.145 263.676 133.363C262.342 133.289 261.017 133.26 259.725 133.26C257.635 148.746 277.476 161.489 292.884 159.583Z" fill="#FCD238"/>
<path d="M189.217 149.588C189.204 149.588 189.127 149.569 188.994 149.537C188.694 149.456 188.096 149.307 187.253 149.091C179.113 147.02 147.601 139.058 128.168 134.958C124.876 134.267 121.937 133.683 119.508 133.259C119.508 133.259 125.322 125.429 130.714 126.085C136.121 126.737 135.872 126.053 135.872 126.053C135.872 126.053 143.89 118.151 148.635 119.54C153.381 120.932 156.162 121.372 156.162 121.372C156.162 121.372 162.461 116.488 169.419 121.372C175.825 125.868 187.24 146.035 188.994 149.181V149.188C189.127 149.417 189.204 149.556 189.217 149.588Z" fill="#921923"/>
<path d="M258.937 133.259C256.288 133.721 253.016 134.377 249.35 135.156C226.773 139.965 189.224 149.595 189.224 149.595C189.224 149.595 198.059 133.547 205.043 125.281C206.484 123.578 207.847 122.202 209.029 121.372C215.981 116.488 222.283 121.372 222.283 121.372C222.283 121.372 225.068 120.933 229.813 119.54C234.558 118.151 242.576 126.053 242.576 126.053C242.576 126.053 242.327 126.737 247.728 126.085C253.126 125.429 258.937 133.259 258.937 133.259Z" fill="#921923"/>
<path d="M169.419 121.372C162.461 116.488 156.162 121.372 156.162 121.372C156.162 121.372 153.381 120.933 148.635 119.54C143.89 118.151 135.872 126.053 135.872 126.053C135.872 126.053 136.121 126.738 130.714 126.085C125.322 125.429 119.508 133.26 119.508 133.26C121.937 133.683 124.876 134.267 128.168 134.959C131.088 132.068 135.54 130.633 139.519 131.774C140.375 132.013 141.267 132.362 142.123 132.126C142.998 131.883 143.596 131.105 144.203 130.43C146.41 127.972 149.591 126.418 152.883 126.182C155.752 125.978 158.591 126.731 161.334 127.603C161.346 127.607 161.356 127.61 161.369 127.616C163.485 128.291 165.772 127.952 167.623 126.728C169.164 125.707 170.834 124.922 172.588 124.341C171.451 123.074 170.375 122.047 169.419 121.372Z" fill="#AB1C26"/>
<path d="M258.937 133.259C256.288 133.721 253.016 134.377 249.35 135.156C248.022 133.757 246.562 132.655 244.656 132.458C243.616 132.355 242.556 132.549 241.523 132.387C239.617 132.093 238.131 130.646 236.435 129.729C231.722 127.19 225.988 128.879 220.745 129.971C220.08 130.116 219.36 130.242 218.723 129.987C218.18 129.771 217.773 129.319 217.37 128.899C214.188 125.672 210.321 125.306 206.057 125.297C205.75 125.297 205.411 125.29 205.043 125.281C206.484 123.578 207.847 122.202 209.029 121.372C215.981 116.488 222.283 121.372 222.283 121.372C222.283 121.372 225.068 120.933 229.813 119.54C234.558 118.151 242.576 126.053 242.576 126.053C242.576 126.053 242.327 126.737 247.728 126.085C253.126 125.429 258.937 133.259 258.937 133.259Z" fill="#AB1C26"/>
<path d="M147.13 508.297C146.274 509.944 145.376 511.982 144.459 514.324C143.341 517.183 142.181 520.51 141.012 524.151C132.103 551.876 122.531 597.831 122.531 597.831L121.95 601.817C121.95 601.817 125.322 618.676 119.802 622.969C114.285 627.259 107.236 625.417 95.2775 634.927C83.3642 644.402 53.0285 641.882 53.106 638.222V638.18C53.4129 634.504 81.9848 606.223 92.6739 597.831C92.6739 597.831 84.4915 524.274 86.0162 508.112C86.042 507.831 86.0743 507.538 86.1131 507.234C86.4749 504.501 87.3697 500.841 88.6198 496.619C89.5566 493.453 90.6937 489.968 91.9664 486.318L109.756 475.112L116.885 470.618L147.13 508.297Z" fill="#E9EEF3"/>
<path d="M147.13 508.297C146.274 509.944 145.376 511.982 144.459 514.324C143.341 517.183 142.181 520.51 141.012 524.151C132.103 551.876 122.531 597.831 122.531 597.831L121.95 601.817C121.95 601.817 125.322 618.676 119.802 622.969C114.285 627.259 107.236 625.417 95.2775 634.927C83.3642 644.402 53.0285 641.882 53.106 638.222C70.5431 639.524 87.4828 629.113 102.381 619.122C104.086 617.975 105.847 616.786 106.968 615.058C108.596 612.551 108.609 609.363 108.683 606.375C108.99 593.786 111.28 581.25 115.451 569.372C119.298 558.415 124.757 547.916 126.802 536.481C128.226 528.48 127.932 520.287 127.626 512.173C127.257 502.411 112.033 484.599 109.756 475.112L116.885 470.618L147.13 508.297Z" fill="#D8DEE4"/>
<path d="M325.801 638.18C326.108 641.863 295.588 644.434 283.629 634.927C271.667 625.417 264.619 627.259 259.095 622.969C253.578 618.676 256.957 601.817 256.957 601.817L256.366 597.831C256.366 597.831 248.151 558.36 239.859 530.505C238.635 526.402 237.41 522.539 236.212 519.102C234.878 515.277 233.576 511.976 232.339 509.408L258.937 480.438L266.67 485.63L291.889 502.569C292.393 504.714 292.739 506.588 292.884 508.112C292.936 508.652 292.975 509.25 293 509.912C293.094 512.176 293.039 515.132 292.891 518.585C291.731 544.36 284.576 597.831 284.576 597.831C295.265 606.142 320.29 629.607 325.026 636.597C325.497 637.305 325.772 637.844 325.801 638.18Z" fill="#E9EEF3"/>
<path d="M325.801 638.18C326.108 641.863 295.588 644.434 283.629 634.927C271.667 625.417 264.619 627.259 259.095 622.969C253.578 618.676 256.957 601.817 256.957 601.817L256.366 597.831C256.366 597.831 248.151 558.36 239.859 530.505C238.635 526.402 237.41 522.539 236.212 519.102C234.878 515.277 233.576 511.976 232.339 509.408L258.937 480.438L266.67 485.63C262.603 491.053 256.792 495.518 254.127 501.723C247.495 517.154 250.057 534.927 254.502 551.124C258.937 567.317 265.188 583.301 265.688 600.089C265.843 605.273 265.64 611.046 269.103 614.912C270.621 616.618 272.692 617.713 274.714 618.782C290.461 627.074 306.833 635.551 324.609 636.578C324.744 636.584 324.89 636.591 325.026 636.597C325.497 637.305 325.772 637.844 325.801 638.18Z" fill="#D8DEE4"/>
<path d="M144.459 514.324C143.341 517.183 142.181 520.51 141.012 524.151L115.583 491.237L86.113 507.234C86.4748 504.501 87.3696 500.841 88.6197 496.619L117.754 480.438L144.459 514.324Z" fill="#275C9E"/>
<path d="M292.89 518.585L264.163 503.677L239.859 530.505C238.634 526.403 237.41 522.539 236.212 519.102L261.308 492.223L293 509.912C293.094 512.176 293.039 515.132 292.89 518.585Z" fill="#275C9E"/>
<path d="M258.572 159.034C258.572 159.034 232.051 181.75 188.859 181.75V181.753C146.368 181.339 120.335 159.047 120.335 159.047L112.12 165.617C112.12 165.617 130.969 218.478 145.676 232.627L154.96 304.969L161.149 308.316L153.242 230.197C153.242 230.197 119.181 173.432 119.282 169.545L122.04 168.47C122.04 168.47 147.692 188.307 189.818 188.307V188.291C231.508 188.062 256.866 168.457 256.866 168.457L259.625 169.533C259.725 173.419 225.662 230.188 225.662 230.188L217.754 308.303L223.943 304.959L233.23 232.617C247.934 218.465 266.787 165.605 266.787 165.605L258.572 159.034Z" fill="#275C9E"/>
<path d="M235.159 305.024L189.454 327.93L142.954 306.888C143.477 305.657 144.074 304.113 144.637 302.553C145.024 301.5 145.396 300.44 145.732 299.458C146.488 297.2 147.033 295.375 146.972 295.107L189.454 313.746L232.468 292.533C232.346 293.13 232.53 294.72 232.882 296.613C233.072 297.666 233.321 298.819 233.596 299.943C234.074 301.901 234.636 303.8 235.159 305.024Z" fill="#FCD238"/>
<path d="M233.595 299.943L189.505 323.763L144.636 302.553C145.024 301.5 145.395 300.44 145.731 299.458L189.402 320.096L232.882 296.612C233.072 297.665 233.321 298.819 233.595 299.943Z" fill="#AB1C26"/>
<path d="M131.618 296.512L122.299 312.955L121.355 314.618L118.774 319.16L118.429 319.005C118.435 318.998 118.429 318.999 118.429 318.999L116.943 318.317L112.281 316.162C109.41 314.841 106.548 313.478 103.708 312.092C85.654 303.293 68.2169 293.279 51.5195 282.121L40.4203 274.698C40.4203 274.698 46.2251 271.733 54.2814 267.856C55.4153 267.314 56.5944 266.745 57.8057 266.17C72.7426 259.067 92.9352 250.08 99.8706 249.87L122.402 282.971L129.654 293.634L130 294.138L131.618 296.512Z" fill="#275C9E"/>
<path d="M170.485 312.008C169.357 314.931 150.173 304.905 150.173 304.905L145.689 308.904L153.309 313.846L159.638 325.478C159.638 325.478 158.1 327.539 156.065 329.946C155.816 330.256 155.548 330.556 155.286 330.863C154.382 331.903 153.413 332.963 152.466 333.926C152.111 334.287 151.759 334.626 151.41 334.946C151.294 335.066 151.161 335.179 151.045 335.289C150.389 335.864 149.769 336.361 149.204 336.729C148.577 337.127 148.021 337.369 147.556 337.388L140.773 329.613C140.773 329.613 126.556 330.104 124.634 329.122C123.875 328.721 121.95 325.494 119.908 321.754C119.417 320.856 118.92 319.925 118.429 319.005C118.435 318.998 118.429 318.998 118.429 318.998C117.938 318.068 117.46 317.144 117.001 316.249L120.176 312.851L121.349 311.594L131.618 296.512C132.978 296.179 147.705 298.431 151.032 298.877C152.437 299.058 153.678 299.394 154.65 299.917C161.372 303.522 171.615 309.094 170.485 312.008Z" fill="#275C9E"/>
<path d="M152.466 333.926C152.111 334.287 151.759 334.626 151.41 334.946C151.294 335.066 151.161 335.179 151.045 335.289C150.389 335.864 149.769 336.361 149.204 336.729C148.577 337.127 148.021 337.369 147.556 337.388L140.773 329.613C140.773 329.613 126.556 330.104 124.634 329.122C123.875 328.721 121.95 325.494 119.908 321.754C119.417 320.856 118.92 319.925 118.429 319.005C118.435 318.998 118.429 318.998 118.429 318.998L116.943 318.317L112.281 316.162C109.41 314.841 106.548 313.478 103.708 312.092C85.654 303.293 68.2169 293.279 51.5195 282.121L40.4203 274.698C40.4203 274.698 46.2251 271.733 54.2814 267.856C55.4153 267.314 56.5944 266.745 57.8057 266.17C67.2091 278.807 76.9614 289.764 90.577 298.528C98.74 303.784 107.543 308.035 116.759 311.09C117.892 311.462 119.065 311.843 119.953 312.641C120.031 312.706 120.102 312.777 120.176 312.851C120.674 313.355 121.036 313.969 121.355 314.618C121.682 315.264 121.95 315.952 122.263 316.601C124.104 320.378 127.651 323.285 131.721 324.338C135.184 325.233 138.896 324.835 142.32 325.869C146.109 327.022 149.184 329.817 151.672 332.898C151.94 333.231 152.208 333.573 152.466 333.926Z" fill="#3F92D2"/>
<path d="M151.41 334.946C151.294 335.066 151.161 335.179 151.045 335.292C150.806 334.933 150.502 334.458 150.128 333.896C149.278 332.614 148.099 330.899 146.791 329.074C145.466 327.255 144.161 325.698 143.05 324.635C142.769 324.373 142.511 324.134 142.285 323.921C142.036 323.731 141.829 323.559 141.651 323.424C141.302 323.139 141.102 322.975 141.102 322.975C141.102 322.975 141.357 323.03 141.816 323.152C142.042 323.21 142.33 323.291 142.653 323.391C142.963 323.521 143.309 323.666 143.703 323.847C145.231 324.564 147.156 325.995 148.609 327.988C150.044 329.988 150.783 332.039 151.145 333.535C151.274 334.087 151.355 334.562 151.41 334.946Z" fill="#1E4979"/>
<path d="M156.065 329.949C155.813 330.253 155.548 330.556 155.283 330.866C155.225 330.799 155.177 330.718 155.131 330.643C154.278 329.361 153.103 327.649 151.791 325.827C150.467 324.005 149.165 322.448 148.054 321.385C147.769 321.121 147.518 320.885 147.291 320.675C147.046 320.478 146.829 320.313 146.661 320.174C146.306 319.89 146.109 319.728 146.109 319.728C146.109 319.728 146.358 319.783 146.817 319.903C147.046 319.967 147.33 320.038 147.653 320.145C147.963 320.268 148.315 320.423 148.703 320.594C150.237 321.321 152.166 322.749 153.61 324.745C154.947 326.596 155.68 328.495 156.065 329.949Z" fill="#1E4979"/>
<path d="M116.943 318.317C116.943 318.317 129.871 293.547 129.654 293.634L122.402 282.971L103.709 312.092L116.943 318.317Z" fill="#FCD238"/>
<path d="M124.622 286.233L107.369 313.814L112.724 316.333L128.136 291.405L124.622 286.233Z" fill="#B41D23"/>
<path d="M245.076 296.512L254.399 312.955L255.339 314.618L257.92 319.16L258.265 319.005C258.259 318.998 258.265 318.999 258.265 318.999L259.751 318.317L264.412 316.162C267.284 314.841 270.146 313.478 272.986 312.092C291.037 303.293 308.474 293.279 325.171 282.121L336.274 274.698C336.274 274.698 330.466 271.733 322.409 267.856C321.279 267.314 320.1 266.745 318.888 266.17C303.951 259.067 283.762 250.08 276.823 249.87L254.292 282.971L247.04 293.634L246.691 294.138L245.076 296.512Z" fill="#275C9E"/>
<path d="M206.209 312.008C207.336 314.931 226.521 304.905 226.521 304.905L231.002 308.904L223.385 313.846L217.056 325.478C217.056 325.478 218.594 327.539 220.629 329.946C220.878 330.256 221.146 330.556 221.408 330.863C222.312 331.903 223.281 332.963 224.228 333.926C224.583 334.287 224.938 334.626 225.284 334.946C225.4 335.066 225.533 335.179 225.649 335.289C226.305 335.864 226.925 336.361 227.49 336.729C228.117 337.127 228.673 337.369 229.138 337.388L235.918 329.613C235.918 329.613 250.135 330.104 252.06 329.122C252.819 328.721 254.744 325.494 256.786 321.754C257.277 320.856 257.774 319.925 258.265 319.005C258.259 318.998 258.265 318.998 258.265 318.998C258.756 318.068 259.234 317.144 259.693 316.249L256.518 312.851L255.345 311.594L245.076 296.512C243.716 296.179 228.986 298.431 225.662 298.877C224.257 299.058 223.02 299.394 222.044 299.917C215.322 303.522 205.078 309.094 206.209 312.008Z" fill="#275C9E"/>
<path d="M224.228 333.926C224.583 334.287 224.938 334.626 225.284 334.946C225.4 335.066 225.533 335.179 225.649 335.289C226.305 335.864 226.925 336.361 227.49 336.729C228.117 337.127 228.672 337.369 229.138 337.388L235.918 329.613C235.918 329.613 250.135 330.104 252.06 329.122C252.819 328.721 254.744 325.494 256.786 321.754C257.277 320.856 257.774 319.925 258.265 319.005C258.259 318.998 258.265 318.998 258.265 318.998L259.751 318.317L264.412 316.162C267.284 314.841 270.146 313.478 272.986 312.092C291.037 303.293 308.474 293.279 325.171 282.121L336.274 274.698C336.274 274.698 330.465 271.733 322.409 267.856C321.279 267.314 320.1 266.745 318.888 266.17C309.482 278.807 299.729 289.764 286.117 298.528C277.954 303.784 269.151 308.035 259.935 311.09C258.801 311.462 257.632 311.843 256.74 312.641C256.663 312.706 256.589 312.777 256.518 312.851C256.02 313.355 255.662 313.969 255.339 314.618C255.012 315.264 254.744 315.952 254.428 316.601C252.59 320.378 249.043 323.285 244.973 324.338C241.51 325.233 237.798 324.835 234.374 325.869C230.585 327.022 227.506 329.817 225.022 332.898C224.751 333.231 224.483 333.573 224.228 333.926Z" fill="#3F92D2"/>
<path d="M225.284 334.946C225.403 335.066 225.532 335.179 225.649 335.292C225.888 334.933 226.195 334.458 226.566 333.896C227.416 332.614 228.595 330.899 229.903 329.074C231.228 327.255 232.532 325.698 233.644 324.635C233.925 324.373 234.183 324.134 234.409 323.921C234.655 323.731 234.865 323.559 235.042 323.424C235.388 323.139 235.592 322.975 235.592 322.975C235.592 322.975 235.336 323.03 234.878 323.152C234.648 323.21 234.367 323.291 234.041 323.391C233.734 323.521 233.385 323.666 232.994 323.847C231.463 324.564 229.535 325.995 228.084 327.988C226.65 329.988 225.91 332.039 225.552 333.535C225.419 334.087 225.339 334.562 225.284 334.946Z" fill="#1E4979"/>
<path d="M220.632 329.949C220.881 330.253 221.146 330.556 221.411 330.866C221.465 330.799 221.514 330.718 221.566 330.643C222.415 329.361 223.594 327.649 224.902 325.827C226.227 324.005 227.529 322.448 228.64 321.385C228.924 321.121 229.176 320.885 229.399 320.675C229.648 320.478 229.861 320.313 230.032 320.174C230.387 319.89 230.585 319.728 230.585 319.728C230.585 319.728 230.336 319.783 229.874 319.903C229.648 319.967 229.363 320.038 229.04 320.145C228.73 320.268 228.378 320.423 227.991 320.594C226.456 321.321 224.528 322.749 223.081 324.745C221.746 326.596 221.013 328.495 220.632 329.949Z" fill="#1E4979"/>
<path d="M272.985 312.092L254.292 282.971L247.04 293.634C246.823 293.547 259.751 318.317 259.751 318.317L272.985 312.092Z" fill="#FCD238"/>
<path d="M252.073 286.233L269.326 313.814L263.97 316.333L248.558 291.405L252.073 286.233Z" fill="#B41D23"/>
<path d="M209.029 121.372L206.39 125.148L189.402 149.456L189.224 149.595L189.046 149.456L171.864 124.867L169.416 121.372L170.091 111.723L171.506 91.4788H206.942L208.486 113.558L209.029 121.372Z" fill="#F78E72"/>
<path d="M208.486 113.558C207.362 114.133 206.183 114.611 204.997 115.022C194.354 118.701 182.414 117.124 172.074 112.66C171.406 112.373 170.734 112.072 170.091 111.723L171.506 91.4792H206.942L208.486 113.558Z" fill="#F36165"/>
<path d="M174.371 91.4791L171.864 124.867L169.416 121.372L170.091 111.723L171.506 91.4791H174.371Z" fill="#FCCE8B"/>
<path d="M209.029 121.372L206.39 125.148L202.937 91.4789H206.942L208.486 113.558L209.029 121.372Z" fill="#FCCE8B"/>
<path d="M212.463 92.913C217.373 92.4252 220.949 88.7265 222.861 85.6287C223.291 84.9309 223.637 84.2623 223.895 83.6712C225.297 80.4441 225.701 69.2478 222.089 66.6442C219.56 64.8256 217.719 67.468 216.843 69.2156C216.843 69.2188 216.843 69.222 216.843 69.222C216.469 69.9617 216.271 70.5432 216.271 70.5432L212.463 92.913Z" fill="#FAB481"/>
<path d="M212.463 92.913C217.373 92.4252 220.949 88.7265 222.861 85.6287C223.026 85.3121 223.171 85.0117 223.294 84.7274C224.696 81.4971 225.1 70.3042 221.488 67.7038C219.44 66.2275 217.841 67.678 216.843 69.2156C216.843 69.2188 216.843 69.222 216.843 69.222C216.469 69.9617 216.271 70.5432 216.271 70.5432L212.463 92.913Z" fill="#F78E72"/>
<path d="M223.229 75.5405C223.41 76.432 223.297 77.3656 223.064 78.2507C222.076 82.0076 219.12 84.8728 216.291 87.5346C217.143 85.7127 217.46 83.6583 217.282 81.6523C217.224 80.9545 217.105 80.2599 217.098 79.5622C217.079 76.7454 222.16 70.2428 223.229 75.5405Z" fill="#F36165"/>
<path d="M214.869 88.604C214.869 88.604 214.924 88.5653 215.031 88.4878C215.134 88.4102 215.299 88.3068 215.486 88.1421C215.864 87.8223 216.391 87.3087 216.882 86.5431C217.373 85.7808 217.818 84.7665 218.032 83.5583C218.222 82.3599 218.183 80.9612 217.676 79.6142C217.621 79.4429 217.544 79.2814 217.47 79.1199L217.411 79.0003C217.398 78.9713 217.408 78.9875 217.405 78.9843L217.408 78.9875H217.405C217.405 78.9875 217.402 78.9939 217.411 78.9681L217.457 78.8582L217.554 78.6451C217.618 78.5062 217.683 78.364 217.751 78.2283C218.015 77.6792 218.306 77.1623 218.603 76.681C218.901 76.1997 219.207 75.7572 219.511 75.3534C219.818 74.9529 220.112 74.5749 220.406 74.2971C220.7 74.0161 221.023 73.8319 221.323 73.7835C221.624 73.7382 221.911 73.8254 222.102 73.945C222.299 74.071 222.405 74.2292 222.451 74.3455C222.496 74.465 222.496 74.5361 222.499 74.5361C222.499 74.5361 222.515 74.4683 222.489 74.3358C222.47 74.2034 222.392 74.0064 222.199 73.8223C222.005 73.6478 221.704 73.4798 221.307 73.4669C220.907 73.4604 220.477 73.6316 220.093 73.9062C219.705 74.184 219.356 74.5296 218.991 74.9108C218.626 75.292 218.258 75.7249 217.902 76.2062C217.547 76.6875 217.205 77.214 216.898 77.789C216.817 77.9311 216.743 78.0797 216.668 78.2251L216.562 78.4512L216.416 78.7678L216.316 78.9907C216.342 79.065 216.384 79.1393 216.413 79.2168L216.559 79.5334C216.623 79.6723 216.688 79.8111 216.733 79.963C217.176 81.1323 217.272 82.3534 217.192 83.4517C217.088 84.55 216.798 85.5288 216.442 86.3008C216.087 87.0761 215.68 87.6544 215.376 88.0323C215.224 88.2261 215.086 88.3585 215.002 88.4587C214.918 88.5523 214.869 88.604 214.869 88.604Z" fill="#D03451"/>
<path d="M165.678 92.913C160.768 92.4252 157.196 88.7265 155.283 85.6287C154.85 84.9309 154.505 84.2623 154.246 83.6712C152.844 80.4441 152.44 69.2478 156.052 66.6442C158.581 64.8256 160.423 67.468 161.298 69.2156C161.298 69.2188 161.298 69.222 161.298 69.222C161.673 69.9617 161.87 70.5432 161.87 70.5432L165.678 92.913Z" fill="#FAB481"/>
<path d="M165.678 92.913C160.768 92.4252 157.196 88.7265 155.283 85.6287C155.115 85.3121 154.97 85.0117 154.847 84.7274C153.445 81.4971 153.041 70.3042 156.653 67.7038C158.701 66.2275 160.3 67.678 161.298 69.2156C161.298 69.2188 161.298 69.222 161.298 69.222C161.673 69.9617 161.87 70.5432 161.87 70.5432L165.678 92.913Z" fill="#F78E72"/>
<path d="M154.912 75.5405C154.731 76.432 154.847 77.3656 155.08 78.2507C156.065 82.0076 159.021 84.8728 161.851 87.5346C160.998 85.7127 160.685 83.6583 160.859 81.6523C160.92 80.9545 161.037 80.2599 161.043 79.5622C161.066 76.7454 155.981 70.2428 154.912 75.5405Z" fill="#F36165"/>
<path d="M163.272 88.604C163.272 88.604 163.217 88.5653 163.111 88.4878C163.007 88.4102 162.843 88.3068 162.655 88.1421C162.277 87.8223 161.754 87.3087 161.26 86.5431C160.769 85.7808 160.323 84.7665 160.11 83.5583C159.919 82.3599 159.958 80.9612 160.468 79.6142C160.52 79.4429 160.598 79.2814 160.675 79.1199L160.73 79.0003C160.743 78.9713 160.736 78.9875 160.736 78.9843V78.9875H160.74C160.74 78.9875 160.743 78.9939 160.733 78.9681L160.685 78.8582L160.591 78.6451C160.523 78.5062 160.462 78.364 160.391 78.2283C160.126 77.6792 159.835 77.1623 159.538 76.681C159.241 76.1997 158.934 75.7572 158.63 75.3534C158.323 74.9529 158.029 74.5749 157.735 74.2971C157.445 74.0161 157.118 73.8319 156.818 73.7835C156.518 73.7382 156.233 73.8254 156.04 73.945C155.842 74.071 155.736 74.2292 155.694 74.3455C155.645 74.465 155.649 74.5361 155.642 74.5361C155.642 74.5361 155.629 74.4683 155.652 74.3358C155.671 74.2034 155.749 74.0064 155.943 73.8223C156.136 73.6478 156.437 73.4798 156.837 73.4669C157.238 73.4604 157.668 73.6316 158.052 73.9062C158.44 74.184 158.785 74.5296 159.15 74.9108C159.515 75.292 159.884 75.7249 160.239 76.2062C160.594 76.6875 160.937 77.214 161.247 77.789C161.324 77.9311 161.399 78.0797 161.473 78.2251L161.58 78.4512L161.725 78.7678L161.825 78.9907C161.799 79.065 161.76 79.1393 161.728 79.2168L161.583 79.5334C161.518 79.6723 161.454 79.8111 161.408 79.963C160.966 81.1323 160.869 82.3534 160.95 83.4517C161.053 84.55 161.344 85.5288 161.699 86.3008C162.054 87.0761 162.461 87.6544 162.765 88.0323C162.917 88.2261 163.056 88.3585 163.14 88.4587C163.227 88.5523 163.272 88.604 163.272 88.604Z" fill="#D03451"/>
<path d="M161.318 75.9285C161.318 75.9285 166.086 100.175 171.454 106.164C176.813 112.156 189.295 113.29 189.295 113.29C189.295 113.29 201.768 112.156 207.123 106.164C212.495 100.175 216.517 75.8639 216.517 75.8639C217.195 73.8709 217.609 71.3739 217.841 68.7929V68.7508C218.452 61.9801 217.874 54.6539 217.874 54.6539C217.874 54.6539 217.596 40.5697 210.77 34.5775C207.847 32.0095 203.489 31.6445 199.455 32.0677C192.684 32.7654 185.894 32.7654 179.123 32.0677C175.088 31.6445 170.731 32.0095 167.807 34.5775C164.374 37.5914 162.594 42.6597 161.683 46.9399C160.772 51.1748 160.704 54.6539 160.704 54.6539C160.704 54.6539 158.86 68.7379 161.318 75.9285Z" fill="#F78E72"/>
<path d="M171.826 103.715C178.616 115.235 198.392 112.615 206.06 104.946C218.119 86.5948 217.528 61.3178 213.383 37.685C217.673 44.4169 217.873 54.6505 217.873 54.6505C217.873 54.6505 218.978 68.6635 216.513 75.8606C216.513 75.8606 212.489 100.175 207.126 106.164C201.764 112.153 189.289 113.293 189.289 113.293C189.289 113.293 176.816 112.153 171.451 106.164C166.089 100.175 161.321 75.9316 161.321 75.9316C159.628 70.986 159.97 62.7908 160.352 58.1457C161.728 73.2764 162.623 88.1034 171.826 103.715Z" fill="#FCCE8B"/>
<path d="M204.619 81.5298C205.094 82.7928 208.567 82.6637 212.379 81.2359C216.19 79.8081 218.897 77.6276 218.423 76.3613C217.948 75.0951 214.475 75.2275 210.663 76.652C206.852 78.0798 204.148 80.2635 204.619 81.5298Z" fill="#F36165"/>
<path d="M158.523 76.1123C158.006 77.3592 160.629 79.6365 164.389 81.2C168.146 82.7667 171.612 83.0219 172.132 81.7782C172.652 80.5281 170.026 78.2508 166.269 76.6873C162.513 75.1206 159.046 74.8654 158.523 76.1123Z" fill="#F36165"/>
<path d="M175.36 88.1968C175.36 88.1968 175.418 88.2807 175.525 88.4487C175.634 88.6102 175.809 88.8493 176.067 89.1303C176.574 89.6989 177.456 90.4192 178.664 91.0653C179.876 91.7113 181.336 92.3412 183.048 92.8871C184.757 93.4266 186.711 93.8498 188.807 93.9661C190.897 94.0856 192.923 93.8789 194.69 93.4396C196.463 93.0002 197.978 92.3541 199.167 91.6855C200.356 91.0136 201.222 90.332 201.787 89.8345C202.068 89.589 202.275 89.3823 202.414 89.2434C202.549 89.1045 202.623 89.0302 202.623 89.0302C202.623 89.0302 202.53 89.0722 202.349 89.153C202.174 89.237 201.916 89.3596 201.574 89.5018C200.898 89.7925 199.91 90.1705 198.679 90.5194C196.211 91.2268 192.761 91.6855 188.946 91.4432C185.141 91.2235 181.633 90.5065 179.136 89.8927C177.902 89.5729 176.943 89.1853 176.313 88.8202C175.999 88.6458 175.76 88.4842 175.602 88.3712C175.444 88.2549 175.36 88.1968 175.36 88.1968Z" fill="#F36165"/>
<path d="M185.706 95.4553C185.706 95.4553 185.774 95.5522 185.887 95.7169C186.006 95.8849 186.2 96.1078 186.472 96.3597C187.008 96.8604 187.916 97.4258 189.043 97.6261C190.174 97.8263 191.22 97.6099 191.898 97.3256C192.238 97.1835 192.496 97.0413 192.667 96.925C192.832 96.812 192.926 96.7442 192.926 96.7442C192.926 96.7442 192.467 96.7442 191.789 96.7022C191.104 96.6666 190.219 96.5503 189.266 96.3856C188.313 96.2112 187.444 96.0109 186.788 95.8106C186.139 95.6136 185.706 95.4553 185.706 95.4553Z" fill="#F36165"/>
<path d="M170.892 69.274C170.892 72.6561 172.601 75.4051 174.711 75.4051C176.82 75.4051 178.529 72.6561 178.529 69.274C178.529 65.8854 176.82 63.1396 174.711 63.1396C172.601 63.1396 170.892 65.8854 170.892 69.274Z" fill="#191918"/>
<path d="M166.043 54.2851C166.043 54.2851 182.175 50.7577 183.086 56.9598C183.613 60.5777 181.119 60.9137 181.119 60.9137L166.043 54.2851Z" fill="#4D1228"/>
<path d="M213.122 54.2851C213.122 54.2851 196.99 50.7577 196.082 56.9598C195.553 60.5777 198.05 60.9137 198.05 60.9137L213.122 54.2851Z" fill="#4D1228"/>
<path d="M167.245 65.8497C167.245 65.8497 168.589 67.9559 170.915 68.896C173.244 69.8392 175.673 69.2609 175.673 69.2609C175.673 69.2609 174.329 67.1548 172.004 66.2116C169.678 65.2716 167.245 65.8497 167.245 65.8497Z" fill="#FEF0E9"/>
<path d="M207.249 69.274C207.249 72.6561 205.54 75.4051 203.431 75.4051C201.321 75.4051 199.612 72.6561 199.612 69.274C199.612 65.8854 201.321 63.1396 203.431 63.1396C205.54 63.1396 207.249 65.8854 207.249 69.274Z" fill="#191918"/>
<path d="M210.896 65.8497C210.896 65.8497 209.552 67.9559 207.226 68.896C204.897 69.8392 202.468 69.2609 202.468 69.2609C202.468 69.2609 203.812 67.1548 206.138 66.2116C208.467 65.2716 210.896 65.8497 210.896 65.8497Z" fill="#FEF0E9"/>
<path d="M186.985 82.0755C186.007 81.8656 185.005 81.4909 184.036 81.73C185.335 83.8361 187.489 85.3963 189.899 85.9713C190.083 86.0165 190.277 86.052 190.465 86.0197C190.694 85.9777 190.891 85.8357 191.075 85.6903C192.231 84.7697 193.204 83.6229 193.921 82.3275C194.063 82.0659 194.202 81.7913 194.228 81.4909C194.318 80.5057 193.692 80.806 193.155 81.1129C192.532 81.465 191.863 81.7364 191.175 81.9302C189.815 82.3081 188.365 82.3663 186.985 82.0755Z" fill="#F36165"/>
<path d="M190.025 85.393C190.532 84.7889 191.123 84.2559 191.65 83.6648C192.299 82.9315 192.887 82.1498 193.381 81.3067C189.974 79.6075 189.547 76.3579 189.172 72.6624C189.004 70.9956 189.234 69.2932 189.835 67.7265C190.151 66.906 190.565 66.1243 191.072 65.4007C191.327 65.0357 191.608 64.6836 191.905 64.3509C192.199 64.0246 192.519 63.8243 192.897 63.6014C192.735 63.8469 192.642 64.1183 192.503 64.3703C192.131 65.0196 191.737 65.6365 191.437 66.3278C191.14 67.0158 190.901 67.733 190.723 68.463C190.368 69.9263 190.255 71.451 190.413 72.9499C190.568 74.4164 190.994 75.8636 191.721 77.1525C192.554 78.6223 193.853 80.0145 195.4 80.722C195.413 80.7284 193.63 83.4936 193.449 83.7262C192.984 84.3205 192.461 84.8729 191.886 85.3639C191.321 85.8453 190.674 86.4138 189.912 86.4913C189.673 86.5139 189.421 86.4977 189.208 86.3847C189.327 86.2813 189.434 86.165 189.531 86.0423C189.573 85.9841 189.615 85.9292 189.654 85.8743C189.77 85.7095 189.893 85.548 190.025 85.393Z" fill="#F03D63"/>
<path d="M226.027 22.2473C223.023 24.0562 220.028 25.8555 217.021 27.6548C218.665 21.8176 220.138 15.9321 221.453 10.0142C218.862 11.4614 216.733 12.9602 214.136 14.4073C214.814 9.60067 215.496 4.80373 216.178 0.000287027C209.142 5.38196 201.273 10.4923 193.708 15.089C193.039 10.9574 192.367 6.82908 191.698 2.69754C180.518 14.094 164.829 20.8808 155.639 33.9312C154.317 35.8113 152.156 39.0158 153.113 41.1058C153.713 42.4205 154.259 43.7869 154.721 45.1824C157.008 51.8852 157.767 59.3343 156.792 66.2278L160.313 70.9795C160.313 70.9795 160.665 60.0449 162.442 51.3199L169.377 47.7892L170.711 42.4398C174.604 42.8727 180.732 43.3702 188.358 43.3702C196.431 43.3702 203.46 42.5529 207.811 41.8939L209.959 48.1155L214.117 49.6208L217.841 68.7926L220.852 66.0759C220.564 58.0518 221.046 49.9083 222.154 41.8519C223.058 35.2201 224.379 28.6497 226.027 22.2473Z" fill="#351422"/>
<path d="M226.027 22.2474C224.379 28.6499 223.058 35.2203 222.154 41.8521C219.647 39.5812 217.324 37.1068 215.215 34.4483C215.215 36.2475 214.882 38.0501 214.233 39.7234C212.421 36.9938 211.158 33.9121 210.534 30.6915C208.312 32.662 205.586 34.0639 202.694 34.7229C203.599 31.9739 204.193 29.128 204.474 26.2466C199.603 29.3638 194.376 31.9093 188.917 33.8216C190.158 31.6541 191.207 29.3767 192.044 27.0251C185.525 30.7722 178.764 34.0768 171.806 36.9163C172.63 34.6131 173.266 32.242 173.699 29.8419C167.558 35.1751 161.221 40.2854 154.721 45.1825C154.259 43.787 153.713 42.4207 153.113 41.1059C152.156 39.0159 154.317 35.8114 155.639 33.9314C158.336 30.1099 161.582 26.8183 165.116 23.8045C173.638 16.5072 183.797 10.754 191.698 2.69769C192.367 6.82924 193.039 10.9576 193.708 15.0891C201.273 10.4924 209.142 5.38211 216.178 0.000444181C215.496 4.80389 214.814 9.60083 214.136 14.4075C216.733 12.9603 218.862 11.4615 221.453 10.0144C220.522 14.1847 219.521 18.3355 218.429 22.4703C217.977 24.1985 217.505 25.9332 217.021 27.6549C220.028 25.8557 223.023 24.0564 226.027 22.2474Z" fill="#4D1228"/>
<path d="M221.453 10.0139C220.522 14.1842 219.521 18.3351 218.429 22.4699C216.216 24.0075 214.01 25.5419 211.797 27.073C212.996 24.4274 214.194 21.7754 215.393 19.133C212.931 21.0841 209.998 22.4312 206.91 23.0191C207.995 21.1035 208.871 19.0684 209.52 16.959C206.151 18.4902 202.614 19.6692 198.996 20.48C200.992 18.1058 202.688 15.4731 204.035 12.6724C195.807 17.2207 187.234 21.1293 178.403 24.3499C180.59 21.6332 182.305 18.5289 183.435 15.2243C177.501 18.432 171.386 21.3005 165.116 23.804C173.638 16.5068 183.797 10.7536 191.699 2.69724C192.367 6.82879 193.039 10.9571 193.708 15.0887C201.273 10.492 209.142 5.38167 216.178 -2.45533e-06C215.496 4.80344 214.815 9.60038 214.136 14.4071C216.733 12.9599 218.862 11.4611 221.453 10.0139Z" fill="#6B112F"/>
</svg>
