<svg width="1916" height="830" viewBox="0 0 1916 830" fill="none" xmlns="http://www.w3.org/2000/svg">
<g opacity="0.35">
<rect x="1913.03" y="166.856" width="25" height="25" rx="12.5" transform="rotate(-180 1913.03 166.856)" stroke="#C9C9C9" stroke-width="4"/>
<path fill-rule="evenodd" clip-rule="evenodd" d="M967.02 159.781C968.199 159.465 968.898 158.253 968.583 157.074L965.723 146.402L976.395 143.543C977.574 143.227 978.273 142.015 977.958 140.836C977.642 139.657 976.43 138.958 975.251 139.274L964.579 142.133L961.72 131.461C961.404 130.282 960.192 129.583 959.013 129.899C957.834 130.215 957.135 131.426 957.451 132.605L960.31 143.277L949.638 146.137C948.459 146.453 947.76 147.664 948.076 148.843C948.392 150.022 949.603 150.721 950.782 150.406L961.454 147.546L964.314 158.218C964.63 159.397 965.841 160.096 967.02 159.781Z" fill="#C9C9C9"/>
<path d="M1711.53 41.2002L1709.71 10.9047L1735.04 27.6273L1711.53 41.2002Z" stroke="#C9C9C9" stroke-width="3"/>
<path fill-rule="evenodd" clip-rule="evenodd" d="M1735.54 236.297C1736.72 235.981 1737.42 234.77 1737.1 233.591L1734.24 222.919L1744.91 220.059C1746.09 219.743 1746.79 218.532 1746.47 217.353C1746.16 216.174 1744.95 215.475 1743.77 215.791L1733.1 218.65L1730.24 207.978C1729.92 206.799 1728.71 206.1 1727.53 206.416C1726.35 206.731 1725.65 207.943 1725.97 209.122L1728.83 219.794L1718.16 222.653C1716.98 222.969 1716.28 224.181 1716.59 225.36C1716.91 226.539 1718.12 227.238 1719.3 226.922L1729.97 224.063L1732.83 234.735C1733.15 235.914 1734.36 236.613 1735.54 236.297Z" fill="#C9C9C9"/>
<rect x="1362.61" y="304.781" width="25" height="25" rx="12.5" transform="rotate(120 1362.61 304.781)" stroke="#CFCFCF" stroke-width="4"/>
</g>
<g opacity="0.35">
<rect x="2" y="662.307" width="25" height="25" rx="12.5" stroke="#C9C9C9" stroke-width="4"/>
<path fill-rule="evenodd" clip-rule="evenodd" d="M948.013 669.383C946.835 669.699 946.135 670.911 946.451 672.09L949.31 682.762L938.638 685.621C937.46 685.937 936.76 687.149 937.076 688.328C937.392 689.506 938.603 690.206 939.782 689.89L950.454 687.03L953.314 697.703C953.63 698.881 954.841 699.581 956.02 699.265C957.199 698.949 957.899 697.737 957.583 696.559L954.723 685.887L965.395 683.027C966.574 682.711 967.274 681.5 966.958 680.321C966.642 679.142 965.43 678.442 964.251 678.758L953.579 681.618L950.72 670.946C950.404 669.767 949.192 669.067 948.013 669.383Z" fill="#C9C9C9"/>
<path d="M203.504 787.964L205.323 818.259L179.995 801.536L203.504 787.964Z" stroke="#C9C9C9" stroke-width="3"/>
<path fill-rule="evenodd" clip-rule="evenodd" d="M179.497 592.866C178.318 593.182 177.618 594.394 177.934 595.573L180.794 606.245L170.122 609.104C168.943 609.42 168.243 610.632 168.559 611.811C168.875 612.99 170.087 613.689 171.265 613.373L181.938 610.514L184.797 621.186C185.113 622.365 186.325 623.064 187.503 622.748C188.682 622.432 189.382 621.221 189.066 620.042L186.206 609.37L196.878 606.51C198.057 606.194 198.757 604.983 198.441 603.804C198.125 602.625 196.913 601.926 195.735 602.241L185.063 605.101L182.203 594.429C181.887 593.25 180.675 592.551 179.497 592.866Z" fill="#C9C9C9"/>
<rect x="552.425" y="524.383" width="25" height="25" rx="12.5" transform="rotate(-60 552.425 524.383)" stroke="#CFCFCF" stroke-width="4"/>
</g>
</svg>
