<svg width="736" height="738" viewBox="0 0 736 738" fill="none" xmlns="http://www.w3.org/2000/svg">
<path d="M569.857 680.263C562.739 680.263 555.561 679.543 548.384 678.031C496.629 667.126 458.408 620.069 406.801 608.486C398.331 606.586 389.837 605.703 381.325 605.587C383.093 603.888 384.83 602.208 386.528 600.56C390.288 596.928 393.824 593.44 397.12 590.16H468.304C479.104 590.16 487.84 581.424 487.84 570.624V559.906C487.963 559.909 488.086 559.911 488.209 559.911C490.961 562.136 494.134 563.111 497.318 563.111C497.598 563.111 497.88 563.103 498.16 563.088C519.104 561.936 520.56 529.488 505.92 519.312C503.139 517.379 499.792 516.071 496.449 515.843C493.881 514.146 490.869 512.979 487.84 512.685V508.112C489.158 508.237 490.496 508.301 491.845 508.301C502.043 508.301 512.667 504.626 517.36 495.92C525.406 480.959 527.089 449.397 501.029 444.866C497.526 442.831 493.173 441.515 487.84 441.199V437.12C490.984 438.725 494.494 439.552 497.944 439.552C505.869 439.551 513.456 435.186 515.44 425.888C519.016 409.087 525.637 377.104 499.849 373.216C496.774 371.274 492.835 370.024 487.84 369.707V211.168C487.84 200.981 480.043 192.621 470.075 191.727C466.971 189.651 463.24 188.442 459.224 188.442H297.309C286.525 188.442 277.777 197.189 277.777 207.973V270.917C273.808 265.904 270.52 261.77 264.256 259.28C262.976 258.768 261.541 258.525 260.081 258.525C259.99 258.525 259.899 258.527 259.808 258.528C258.448 257.6 256.928 256.768 255.184 256.08C253.918 255.578 252.505 255.33 251.075 255.33C250.049 255.33 249.013 255.458 248.016 255.712C247.355 255.89 246.713 256.125 246.102 256.416C244.347 257.25 242.853 258.559 241.95 260.351C241.544 261.155 241.256 262.055 241.118 263.053C241.056 263.49 241.025 263.946 241.025 264.421C241.024 264.675 241.033 264.935 241.051 265.2C241.635 274.047 242.169 281.042 243.101 289.826C243.166 290.424 243.232 291.034 243.299 291.651C243.661 294.955 244.078 298.531 244.576 302.56C244.616 302.888 244.648 303.215 244.672 303.538C244.71 304.111 244.72 304.671 244.704 305.219V305.218C244.608 309.538 243.008 313.248 242.08 317.792C240.528 325.328 237.552 331.744 236.08 339.28C230.24 369.296 218.288 397.696 208.416 426.4C199.136 453.327 190.752 479.36 186.24 507.52C183.968 521.712 182.8 537.872 176.464 550.992C174.318 555.418 158.168 573.984 136.438 597.991C126.886 590.325 117.904 581.864 109.458 573.13C95.5766 558.776 82.4254 543.05 75.4736 524.33C59.9211 482.463 78.111 436.693 87.6329 393.056C94.7323 360.522 96.9361 326.923 94.1486 293.739C92.9654 279.655 90.7373 265.208 83.4142 253.12C72.2904 234.759 51.4841 224.899 36.0499 209.978C-28.2521 147.808 25.9592 69.7505 93.0211 46.0273C121.192 36.0625 146.454 33.0322 171.014 33.0322C190.069 33.0322 208.702 34.8577 227.928 36.6817C247.157 38.5057 266.979 40.3313 288.429 40.3313C293.773 40.3313 299.222 40.2177 304.784 39.9633C351.685 37.8129 396.888 22.0881 443.449 16.0481C455.435 14.4929 467.579 13.6017 479.702 13.6017C502.789 13.6017 525.781 16.837 547.347 24.8786C580.24 37.1442 609.544 61.5921 622.549 94.2001C633.293 121.141 632.371 151.056 635.179 179.923C641.729 247.271 669.011 310.538 689.385 375.063C709.758 439.589 723.24 510.029 702.001 574.274C683.064 631.555 628.413 680.263 569.857 680.263" fill="#FFEEEE"/>
<path d="M152.806 323.938C148.688 325.392 144.723 327.162 140.916 329.21C140.528 329.419 140.382 329.904 140.592 330.293C140.801 330.683 141.286 330.829 141.675 330.619C145.411 328.608 149.3 326.872 153.337 325.447C153.755 325.299 153.972 324.843 153.827 324.426C153.68 324.01 153.222 323.791 152.806 323.938V323.938ZM129.944 336.173C126.464 338.735 123.148 341.533 120.001 344.528C119.681 344.832 119.669 345.339 119.974 345.659C120.278 345.979 120.785 345.992 121.105 345.687C124.206 342.736 127.47 339.981 130.892 337.461C131.248 337.199 131.324 336.698 131.062 336.343C130.8 335.987 130.299 335.911 129.944 336.173V336.173ZM111.126 353.997C108.35 357.306 105.743 360.768 103.307 364.349C103.058 364.714 103.153 365.211 103.518 365.459C103.884 365.709 104.381 365.615 104.63 365.248C107.036 361.711 109.612 358.291 112.352 355.026C112.636 354.687 112.591 354.183 112.253 353.899C111.915 353.615 111.41 353.659 111.126 353.997V353.997ZM96.5221 375.402C95.329 377.562 94.1933 379.747 93.1159 381.952C92.2989 383.626 91.5107 385.311 90.7507 387.005C90.5701 387.408 90.7501 387.882 91.1533 388.063C91.5563 388.243 92.0296 388.063 92.2107 387.661C92.9639 385.981 93.7445 384.312 94.5539 382.655C95.6189 380.474 96.7427 378.312 97.9227 376.176C98.1363 375.789 97.9959 375.303 97.6096 375.088C97.2227 374.875 96.7359 375.015 96.5221 375.402V375.402ZM85.8683 398.997C84.3746 403.042 83.0064 407.133 81.7395 411.259C81.6096 411.682 81.8471 412.13 82.2696 412.259C82.6914 412.389 83.1395 412.151 83.269 411.73C84.5283 407.629 85.8871 403.565 87.369 399.551C87.5221 399.136 87.3101 398.677 86.8959 398.523C86.4815 398.371 86.0215 398.583 85.8683 398.997ZM78.2264 423.703C77.1427 427.869 76.1359 432.058 75.1827 436.259C75.0845 436.691 75.3546 437.12 75.7858 437.218C76.2163 437.315 76.6451 437.045 76.7427 436.615C77.6933 432.424 78.6963 428.251 79.7746 424.106C79.8858 423.677 79.6296 423.24 79.2021 423.13C78.7746 423.018 78.3376 423.275 78.2264 423.703ZM72.4608 448.883C71.5907 453.101 70.7496 457.322 69.9152 461.533C69.8296 461.967 70.1114 462.387 70.5445 462.474C70.9783 462.56 71.3989 462.277 71.4851 461.845C72.3189 457.634 73.1589 453.418 74.0283 449.207C74.117 448.773 73.8389 448.351 73.4064 448.261C72.9733 448.171 72.5501 448.45 72.4608 448.883" fill="url(#paint0_linear)"/>
<path d="M288.264 165.168C284.926 162.472 281.627 159.727 278.368 156.936C278.032 156.648 277.526 156.688 277.24 157.023C276.952 157.359 276.992 157.864 277.326 158.151C280.598 160.952 283.909 163.706 287.259 166.413C287.603 166.691 288.107 166.637 288.384 166.293C288.662 165.951 288.608 165.447 288.264 165.168ZM268.709 148.424C265.529 145.543 262.392 142.615 259.296 139.642C258.977 139.336 258.472 139.347 258.165 139.666C257.859 139.984 257.87 140.491 258.189 140.797C261.296 143.779 264.445 146.717 267.635 149.61C267.961 149.907 268.467 149.882 268.765 149.555C269.061 149.227 269.037 148.722 268.709 148.424V148.424ZM250.136 130.597C247.125 127.539 244.158 124.439 241.235 121.296C240.934 120.973 240.429 120.954 240.104 121.256C239.781 121.557 239.763 122.063 240.064 122.386C242.997 125.539 245.974 128.651 248.995 131.72C249.305 132.034 249.813 132.039 250.128 131.728C250.441 131.419 250.446 130.912 250.136 130.597V130.597ZM232.601 111.747C229.768 108.523 226.981 105.261 224.24 101.959C223.958 101.618 223.454 101.571 223.113 101.853C222.774 102.136 222.728 102.64 223.009 102.979C225.76 106.295 228.557 109.568 231.4 112.803C231.691 113.136 232.197 113.168 232.528 112.877C232.861 112.584 232.893 112.079 232.601 111.747V111.747ZM216.16 91.9361C213.515 88.5569 210.917 85.1409 208.368 81.6881C208.105 81.3329 207.605 81.2577 207.249 81.5201C206.894 81.7825 206.819 82.2833 207.081 82.6401C209.638 86.1041 212.246 89.5313 214.901 92.9233C215.173 93.2705 215.677 93.3313 216.024 93.0593C216.371 92.7873 216.433 92.2833 216.16 91.9361V91.9361ZM200.87 71.2241C199.673 69.5025 198.489 67.773 197.317 66.0354C197.128 65.757 196.785 65.6258 196.459 65.7058C196.134 65.789 195.893 66.0657 195.857 66.4001C195.63 68.5873 195.406 70.7761 195.187 72.9665C195.144 73.4049 195.465 73.7969 195.904 73.8401C196.344 73.8849 196.736 73.5633 196.781 73.1249C196.998 70.9377 197.221 68.7521 197.449 66.5665L196.653 66.4833L195.99 66.9297C197.166 68.6737 198.355 70.4097 199.557 72.1377C199.808 72.4993 200.307 72.5905 200.67 72.3377C201.032 72.0865 201.123 71.5873 200.87 71.2241V71.2241ZM193.961 85.8113C193.571 90.0945 193.198 94.3793 192.845 98.6657C192.808 99.1057 193.136 99.4929 193.576 99.5281C194.017 99.5649 194.403 99.2369 194.44 98.7969C194.793 94.5153 195.165 90.2337 195.555 85.9553C195.595 85.5153 195.27 85.1265 194.83 85.0865C194.39 85.0465 194.001 85.3713 193.961 85.8113ZM191.838 111.53C191.521 115.819 191.222 120.111 190.942 124.402C190.913 124.843 191.246 125.224 191.688 125.253C192.129 125.282 192.51 124.947 192.539 124.506C192.819 120.219 193.117 115.933 193.433 111.648C193.467 111.207 193.136 110.824 192.696 110.791C192.254 110.759 191.87 111.09 191.838 111.53V111.53ZM190.155 137.282C189.912 141.576 189.686 145.871 189.478 150.167C189.457 150.608 189.798 150.984 190.238 151.005C190.68 151.026 191.056 150.685 191.077 150.245C191.283 145.952 191.509 141.663 191.752 137.373C191.777 136.931 191.44 136.554 191 136.528C190.558 136.503 190.181 136.84 190.155 137.282ZM188.912 163.058C188.741 167.355 188.589 171.655 188.456 175.954C188.441 176.395 188.789 176.765 189.23 176.778C189.672 176.792 190.041 176.445 190.054 176.003C190.189 171.709 190.341 167.415 190.51 163.122C190.528 162.68 190.184 162.307 189.742 162.29C189.302 162.274 188.929 162.616 188.912 163.058ZM188.109 188.853C188.013 193.152 187.933 197.453 187.873 201.754C187.867 202.195 188.221 202.559 188.662 202.565C189.104 202.571 189.467 202.218 189.473 201.776C189.533 197.48 189.611 193.184 189.709 188.888C189.718 188.447 189.369 188.08 188.926 188.071C188.485 188.061 188.12 188.411 188.109 188.853ZM187.747 214.656C187.733 217.413 187.725 220.17 187.725 222.927C187.725 224.471 187.726 226.016 187.731 227.56C187.733 228.002 188.093 228.359 188.534 228.357C188.976 228.355 189.333 227.997 189.331 227.555C189.326 226.013 189.325 224.469 189.325 222.927C189.325 220.173 189.333 217.419 189.347 214.666C189.35 214.223 188.993 213.863 188.552 213.861C188.11 213.858 187.75 214.215 187.747 214.656V214.656ZM175.894 225.683C171.617 225.263 167.344 224.824 163.07 224.37C162.632 224.323 162.238 224.642 162.19 225.082C162.144 225.52 162.462 225.915 162.902 225.962C167.179 226.416 171.457 226.855 175.737 227.275C176.177 227.319 176.569 226.997 176.613 226.557C176.656 226.117 176.334 225.727 175.894 225.683ZM150.257 222.959C145.989 222.472 141.721 221.968 137.456 221.448C137.017 221.395 136.619 221.707 136.566 222.146C136.512 222.584 136.824 222.983 137.262 223.037C141.533 223.557 145.803 224.061 150.077 224.549C150.515 224.599 150.912 224.283 150.961 223.845C151.013 223.405 150.697 223.01 150.257 222.959V222.959ZM124.667 219.839C120.406 219.287 116.147 218.717 111.89 218.13C111.452 218.071 111.049 218.376 110.989 218.815C110.929 219.251 111.234 219.655 111.672 219.715C115.932 220.303 120.195 220.872 124.461 221.426C124.899 221.482 125.301 221.173 125.357 220.735C125.414 220.298 125.105 219.896 124.667 219.839V219.839ZM99.1274 216.323C94.8749 215.704 90.6255 215.069 86.3779 214.418C85.9418 214.351 85.533 214.65 85.4661 215.087C85.3992 215.523 85.6986 215.931 86.1355 215.999C90.3867 216.651 94.6405 217.287 98.8967 217.907C99.3336 217.97 99.7399 217.667 99.8035 217.231C99.8674 216.792 99.5642 216.387 99.1274 216.323V216.323ZM73.6448 212.413C69.4031 211.728 65.1635 211.027 60.9267 210.311C60.4911 210.237 60.0779 210.53 60.0042 210.965C59.9304 211.4 60.2242 211.815 60.6599 211.888C64.9005 212.605 69.1435 213.307 73.3899 213.992C73.8261 214.063 74.2367 213.767 74.3067 213.33C74.3773 212.895 74.0811 212.483 73.6448 212.413V212.413ZM48.2255 208.109C45.0093 207.538 41.7943 206.959 38.5811 206.37C38.1461 206.29 37.7299 206.578 37.6499 207.011C37.5704 207.447 37.8579 207.864 38.2923 207.943C41.5087 208.533 44.7267 209.114 47.9467 209.685C48.3818 209.762 48.7967 209.471 48.8743 209.035C48.9511 208.602 48.6611 208.186 48.2255 208.109" fill="url(#paint1_linear)"/>
<path d="M616.112 248.625C616.421 244.315 616.603 240.006 616.678 235.699C616.686 235.257 616.334 234.893 615.893 234.885C615.451 234.878 615.086 235.229 615.078 235.672C615.005 239.952 614.822 244.232 614.515 248.51C614.483 248.952 614.816 249.334 615.256 249.366C615.697 249.397 616.08 249.065 616.112 248.625V248.625ZM616.593 222.766C616.469 218.461 616.253 214.157 615.961 209.856C615.931 209.416 615.55 209.081 615.109 209.112C614.669 209.142 614.334 209.523 614.365 209.965C614.654 214.246 614.87 218.529 614.995 222.813C615.008 223.254 615.376 223.603 615.817 223.59C616.259 223.577 616.606 223.208 616.593 222.766V222.766ZM614.883 196.981C614.461 192.699 613.981 188.419 613.462 184.145C613.408 183.705 613.009 183.393 612.571 183.448C612.133 183.501 611.821 183.899 611.873 184.337C612.392 188.603 612.87 192.869 613.291 197.137C613.334 197.577 613.725 197.899 614.165 197.856C614.605 197.813 614.926 197.421 614.883 196.981V196.981ZM611.798 171.344C611.214 167.08 610.606 162.821 609.992 158.568C609.928 158.129 609.523 157.827 609.085 157.889C608.648 157.953 608.345 158.36 608.408 158.797C609.022 163.048 609.63 167.302 610.213 171.56C610.273 171.998 610.677 172.304 611.115 172.245C611.552 172.185 611.859 171.781 611.798 171.344V171.344ZM608.136 145.805C607.517 141.55 606.897 137.296 606.278 133.041C606.214 132.605 605.808 132.302 605.371 132.366C604.934 132.429 604.632 132.835 604.694 133.272C605.313 137.526 605.933 141.781 606.552 146.035C606.616 146.472 607.022 146.774 607.459 146.71C607.896 146.648 608.2 146.241 608.136 145.805ZM604.421 120.28C603.801 116.025 603.182 111.771 602.563 107.518C602.499 107.08 602.094 106.777 601.656 106.841C601.219 106.905 600.917 107.31 600.981 107.749C601.6 112.001 602.219 116.256 602.838 120.51C602.901 120.947 603.307 121.251 603.744 121.187C604.182 121.123 604.485 120.717 604.421 120.28ZM600.705 94.755C600.086 90.5006 599.467 86.2478 598.848 81.9934C598.785 81.5566 598.379 81.2526 597.942 81.3166C597.504 81.3806 597.201 81.7854 597.265 82.2238C597.885 86.4766 598.504 90.731 599.123 94.9854C599.187 95.4222 599.592 95.7262 600.03 95.6622C600.467 95.5982 600.769 95.1918 600.705 94.755V94.755ZM593.496 72.3678C589.344 73.4814 585.192 74.5918 581.038 75.6958C580.611 75.8094 580.357 76.2478 580.47 76.675C580.584 77.1022 581.022 77.3566 581.449 77.243C585.605 76.1374 589.758 75.027 593.91 73.9134C594.337 73.7982 594.59 73.3598 594.477 72.9326C594.361 72.5054 593.923 72.2526 593.496 72.3678V72.3678ZM568.573 78.9966C564.416 80.0942 560.259 81.1854 556.101 82.2718C555.673 82.3822 555.417 82.819 555.529 83.2478C555.64 83.675 556.078 83.931 556.505 83.819C560.665 82.7326 564.824 81.6398 568.981 80.5454C569.408 80.4318 569.662 79.9934 569.55 79.5678C569.438 79.139 569 78.8846 568.573 78.9966V78.9966ZM543.621 85.5166C539.459 86.595 535.297 87.6686 531.134 88.7358C530.705 88.8462 530.448 89.283 530.558 89.7102C530.669 90.1374 531.104 90.3966 531.533 90.2862C535.696 89.2174 539.859 88.1438 544.022 87.067C544.449 86.955 544.707 86.5198 544.595 86.091C544.485 85.6638 544.048 85.4062 543.621 85.5166ZM518.64 91.9278C514.475 92.987 510.307 94.0414 506.139 95.091C505.712 95.1998 505.451 95.6334 505.56 96.0622C505.667 96.491 506.102 96.7502 506.531 96.643C510.699 95.5918 514.867 94.5374 519.035 93.4782C519.462 93.3694 519.721 92.9342 519.613 92.5054C519.504 92.0766 519.069 91.819 518.64 91.9278V91.9278ZM493.632 98.227C489.462 99.2686 485.289 100.304 481.117 101.336C480.688 101.441 480.427 101.875 480.533 102.304C480.638 102.733 481.072 102.995 481.501 102.889C485.675 101.857 489.848 100.821 494.019 99.779C494.448 99.6718 494.709 99.2382 494.601 98.8094C494.494 98.3806 494.061 98.1198 493.632 98.227ZM468.597 104.416C464.421 105.438 460.245 106.456 456.067 107.47C455.638 107.574 455.374 108.006 455.478 108.435C455.582 108.865 456.016 109.129 456.445 109.025C460.624 108.011 464.8 106.993 468.976 105.971C469.406 105.865 469.669 105.432 469.563 105.003C469.457 104.574 469.025 104.312 468.597 104.416V104.416ZM443.533 110.496C439.353 111.499 435.173 112.499 430.992 113.493C430.561 113.595 430.296 114.027 430.398 114.457C430.501 114.886 430.931 115.152 431.361 115.049C435.544 114.054 439.726 113.056 443.907 112.051C444.336 111.949 444.601 111.517 444.497 111.086C444.395 110.657 443.963 110.392 443.533 110.496V110.496ZM418.443 116.464C414.259 117.449 410.075 118.43 405.888 119.406C405.457 119.507 405.19 119.937 405.291 120.366C405.392 120.797 405.822 121.065 406.253 120.965C410.438 119.987 414.625 119.006 418.809 118.021C419.24 117.92 419.507 117.489 419.405 117.059C419.304 116.629 418.873 116.363 418.443 116.464V116.464ZM393.328 122.321C389.139 123.288 384.95 124.251 380.76 125.208C380.329 125.307 380.059 125.736 380.158 126.166C380.257 126.597 380.686 126.867 381.117 126.768C385.307 125.809 389.497 124.848 393.688 123.88C394.118 123.781 394.385 123.35 394.286 122.92C394.187 122.489 393.758 122.222 393.328 122.321" fill="url(#paint2_linear)"/>
<path d="M438.516 545.423C440.435 549.282 442.428 553.103 444.499 556.883C444.71 557.271 445.196 557.413 445.584 557.2C445.972 556.989 446.113 556.503 445.902 556.115C443.843 552.354 441.857 548.551 439.95 544.711C439.753 544.315 439.273 544.154 438.878 544.351C438.481 544.546 438.32 545.027 438.516 545.423ZM450.932 568.096C452.161 570.143 453.414 572.176 454.688 574.197C455.712 575.819 456.756 577.439 457.833 579.038C458.08 579.405 458.577 579.503 458.944 579.256C459.31 579.01 459.406 578.512 459.16 578.146C458.096 576.563 457.06 574.957 456.041 573.343C454.772 571.333 453.528 569.309 452.304 567.272C452.076 566.893 451.585 566.771 451.206 566.999C450.827 567.226 450.705 567.717 450.932 568.096V568.096ZM465.766 589.341C466.953 590.643 468.196 591.9 469.505 593.093C471.443 594.861 473.484 596.461 475.614 597.907C475.979 598.155 476.476 598.06 476.724 597.695C476.972 597.328 476.878 596.831 476.512 596.583C474.443 595.18 472.462 593.626 470.584 591.912C469.315 590.754 468.107 589.533 466.948 588.263C466.651 587.936 466.145 587.912 465.819 588.21C465.492 588.507 465.468 589.015 465.766 589.341V589.341ZM487.147 603.991C491.148 605.597 495.326 606.829 499.606 607.747C500.038 607.84 500.464 607.566 500.556 607.135C500.649 606.703 500.376 606.277 499.944 606.184C495.74 605.28 491.651 604.074 487.742 602.506C487.332 602.341 486.867 602.541 486.702 602.951C486.537 603.36 486.737 603.827 487.147 603.991V603.991ZM512.462 609.616C516.054 609.914 519.67 610.046 523.273 610.046C523.992 610.046 524.708 610.041 525.427 610.032C525.868 610.026 526.22 609.661 526.214 609.22C526.208 608.778 525.844 608.426 525.403 608.432C524.694 608.441 523.984 608.446 523.273 608.446C519.708 608.446 516.137 608.315 512.595 608.021C512.155 607.984 511.768 608.312 511.731 608.752C511.694 609.192 512.022 609.58 512.462 609.616V609.616ZM538.36 609.349C542.657 608.981 546.944 608.498 551.216 607.898C551.652 607.837 551.958 607.432 551.897 606.995C551.835 606.557 551.432 606.253 550.993 606.314C546.75 606.909 542.491 607.391 538.222 607.755C537.782 607.794 537.456 608.181 537.494 608.621C537.531 609.061 537.918 609.387 538.36 609.349V609.349ZM563.976 605.757C568.208 604.928 572.419 603.987 576.601 602.933C577.03 602.824 577.289 602.391 577.182 601.962C577.073 601.533 576.64 601.274 576.211 601.381C572.056 602.429 567.873 603.363 563.668 604.186C563.235 604.271 562.952 604.691 563.036 605.125C563.121 605.558 563.542 605.841 563.976 605.757V605.757ZM589.057 599.435C593.177 598.157 597.264 596.768 601.308 595.271C601.721 595.117 601.934 594.658 601.78 594.243C601.627 593.829 601.166 593.616 600.752 593.77C596.734 595.258 592.676 596.637 588.584 597.907C588.161 598.037 587.926 598.485 588.057 598.907C588.187 599.33 588.636 599.565 589.057 599.435ZM613.315 590.456C617.276 588.749 621.192 586.946 625.067 585.06C625.464 584.866 625.63 584.387 625.436 583.989C625.243 583.592 624.764 583.427 624.368 583.621C620.513 585.496 616.619 587.29 612.683 588.987C612.276 589.162 612.089 589.632 612.264 590.038C612.44 590.443 612.91 590.631 613.315 590.456V590.456ZM636.574 579.168C640.368 577.133 644.128 575.029 647.857 572.871C648.24 572.648 648.369 572.159 648.148 571.776C647.928 571.394 647.438 571.264 647.056 571.485C643.339 573.637 639.595 575.733 635.817 577.759C635.428 577.967 635.281 578.451 635.491 578.842C635.699 579.231 636.184 579.376 636.574 579.168V579.168ZM658.947 566.247C662.614 563.995 666.256 561.701 669.881 559.378C670.252 559.139 670.361 558.645 670.123 558.274C669.884 557.901 669.388 557.794 669.017 558.032C665.4 560.351 661.766 562.639 658.11 564.883C657.732 565.115 657.616 565.608 657.846 565.984C658.078 566.36 658.571 566.479 658.947 566.247V566.247ZM680.699 552.338C684.291 549.97 687.872 547.584 691.444 545.197C691.811 544.952 691.91 544.455 691.665 544.088C691.419 543.72 690.923 543.621 690.555 543.867C686.984 546.253 683.406 548.637 679.817 551.002C679.449 551.245 679.347 551.741 679.59 552.111C679.833 552.479 680.329 552.581 680.699 552.338V552.338ZM692.283 535.061C689.792 531.56 687.318 528.047 684.86 524.523C684.608 524.16 684.11 524.072 683.747 524.325C683.384 524.578 683.296 525.075 683.548 525.439C686.009 528.967 688.486 532.483 690.979 535.987C691.235 536.347 691.734 536.432 692.094 536.176C692.454 535.92 692.539 535.421 692.283 535.061V535.061ZM677.539 513.915C675.115 510.368 672.707 506.81 670.316 503.24C670.072 502.872 669.574 502.775 669.208 503.019C668.84 503.266 668.742 503.763 668.987 504.13C671.38 507.704 673.79 511.267 676.217 514.818C676.467 515.183 676.964 515.277 677.329 515.027C677.694 514.778 677.788 514.28 677.539 513.915V513.915ZM663.196 492.496C660.84 488.904 658.5 485.299 656.179 481.685C655.939 481.314 655.444 481.207 655.073 481.445C654.7 481.683 654.593 482.178 654.832 482.551C657.158 486.168 659.499 489.776 661.859 493.373C662.1 493.743 662.596 493.847 662.966 493.603C663.336 493.362 663.44 492.866 663.196 492.496V492.496ZM649.262 470.808C646.974 467.173 644.704 463.525 642.449 459.867C642.217 459.491 641.724 459.375 641.348 459.607C640.972 459.839 640.856 460.331 641.088 460.707C643.344 464.368 645.617 468.021 647.908 471.661C648.144 472.035 648.638 472.147 649.011 471.912C649.385 471.677 649.497 471.183 649.262 470.808ZM635.74 448.863C633.521 445.183 631.32 441.495 629.136 437.794C628.912 437.413 628.42 437.287 628.04 437.512C627.659 437.736 627.532 438.227 627.758 438.608C629.945 442.312 632.148 446.005 634.371 449.688C634.598 450.067 635.091 450.189 635.468 449.96C635.848 449.733 635.969 449.24 635.74 448.863V448.863ZM622.636 426.664C620.486 422.944 618.355 419.213 616.241 415.474C616.024 415.088 615.536 414.952 615.152 415.17C614.766 415.387 614.632 415.875 614.848 416.261C616.964 420.005 619.099 423.739 621.251 427.464C621.472 427.847 621.961 427.978 622.344 427.757C622.726 427.536 622.857 427.047 622.636 426.664V426.664ZM609.953 404.223C608.43 401.466 606.916 398.706 605.412 395.939C605.201 395.551 604.716 395.407 604.328 395.618C603.94 395.829 603.796 396.315 604.008 396.703C605.513 399.472 607.028 402.237 608.553 404.995C608.766 405.383 609.254 405.523 609.64 405.309C610.027 405.096 610.168 404.608 609.953 404.223" fill="url(#paint3_linear)"/>
<path d="M601.083 525.995C598.005 523.006 593.944 521.397 589.654 521.462C580.798 521.598 573.702 528.915 573.838 537.773C573.904 542.062 575.637 546.07 578.717 549.057C581.798 552.045 585.856 553.654 590.147 553.589C594.437 553.523 598.446 551.79 601.432 548.71C604.419 545.629 606.029 541.571 605.963 537.28C605.897 532.99 604.165 528.981 601.083 525.995V525.995ZM571.294 556.71C566.171 551.741 563.288 545.072 563.179 537.934C562.952 523.2 574.757 511.03 589.489 510.803C596.629 510.694 603.382 513.371 608.505 518.341C613.63 523.31 616.513 529.979 616.622 537.117C616.733 544.254 614.056 551.006 609.085 556.131C604.117 561.256 597.448 564.137 590.31 564.248C583.173 564.357 576.419 561.68 571.294 556.71Z" fill="#579AD9"/>
<path d="M542.075 588.645C539.848 586.558 539.731 583.063 541.816 580.832L570.275 550.419C572.36 548.191 575.859 548.074 578.086 550.16C580.316 552.247 580.432 555.743 578.345 557.973L549.888 588.386C547.803 590.613 544.305 590.73 542.075 588.645" fill="#579AD9"/>
<path d="M183.936 365.784V365.783C180.452 363.88 176.086 365.163 174.184 368.647L155.808 402.304L142.929 395.271C139.446 393.37 135.08 394.653 133.177 398.135C131.275 401.618 132.558 405.986 136.041 407.887L161.36 421.712L161.369 421.695L161.542 421.789L186.8 375.533C188.702 372.051 187.419 367.685 183.936 365.784Z" fill="#579AD9"/>
<path d="M642.793 235.808C648.968 251.021 641.643 268.358 626.43 274.533C611.219 280.709 593.881 273.384 587.707 258.171C581.531 242.96 588.857 225.622 604.068 219.446C619.28 213.272 636.617 220.597 642.793 235.808Z" fill="#F0383F"/>
<path d="M612.51 263.106L606.597 265.507L599.395 247.767L605.309 245.365L612.51 263.106Z" fill="#E9262D"/>
<path d="M609.53 244.888C609.53 244.888 610.411 239.232 611.493 236.674C612.435 234.445 611.27 230.658 610.953 229.72L611.093 229.418C612.818 228.718 614.782 229.549 615.481 231.272L618.339 238.309L624.515 235.802C626.547 234.978 628.864 235.957 629.688 237.989L634.518 249.886C635.342 251.918 634.365 254.234 632.334 255.059L616.301 261.566C615.464 261.907 614.509 261.504 614.17 260.666L608.629 247.021C608.288 246.182 608.693 245.229 609.53 244.888Z" fill="#E9262D"/>
<path d="M610.931 261.582L605.016 263.982L597.814 246.242L603.728 243.842L610.931 261.582Z" fill="white"/>
<path d="M607.949 243.363C607.949 243.363 608.832 237.707 609.913 235.148C610.856 232.92 609.688 229.132 609.374 228.195L609.513 227.894C611.237 227.193 613.203 228.024 613.902 229.747L616.758 236.785L622.936 234.278C624.968 233.452 627.283 234.432 628.109 236.464L632.939 248.361C633.763 250.393 632.785 252.71 630.752 253.534L614.721 260.043C613.883 260.382 612.929 259.979 612.589 259.142L607.049 245.496C606.709 244.659 607.112 243.704 607.949 243.363" fill="white"/>
<path d="M293.397 177.483C285.526 184.677 273.313 184.128 266.12 176.256C258.926 168.386 259.475 156.173 267.345 148.979C275.217 141.786 287.43 142.335 294.624 150.205C301.816 158.077 301.269 170.29 293.397 177.483" fill="#3B5AA9"/>
<path d="M269.939 165.198L267.142 162.139L276.321 153.75L279.117 156.809L269.939 165.198Z" fill="#2B4991"/>
<path d="M280.361 159.273C280.361 159.273 284.006 158.534 285.808 158.614C287.377 158.686 289.42 157.121 289.92 156.717L290.136 156.734C290.95 157.627 290.889 159.009 289.996 159.825L286.355 163.153L289.276 166.349C290.238 167.4 290.164 169.032 289.112 169.993L282.956 175.619C281.905 176.581 280.273 176.507 279.312 175.456L271.731 167.161C271.336 166.728 271.364 166.056 271.798 165.659L278.859 159.205C279.292 158.809 279.964 158.84 280.361 159.273Z" fill="#2B4991"/>
<path d="M270.51 163.893L267.713 160.834L276.893 152.443L279.689 155.503L270.51 163.893Z" fill="white"/>
<path d="M280.932 157.966C280.932 157.966 284.577 157.229 286.379 157.309C287.948 157.379 289.993 155.814 290.492 155.411L290.708 155.429C291.523 156.32 291.46 157.704 290.569 158.518L286.928 161.848L289.848 165.043C290.809 166.094 290.736 167.726 289.684 168.686L283.528 174.314C282.476 175.274 280.844 175.2 279.884 174.15L272.302 165.854C271.907 165.421 271.937 164.749 272.371 164.352L279.432 157.899C279.864 157.502 280.537 157.533 280.932 157.966" fill="white"/>
<path d="M102.805 550.133C110.602 557.408 111.025 569.625 103.751 577.422C96.4764 585.217 84.259 585.642 76.4633 578.368C68.6665 571.093 68.2433 558.875 75.5177 551.078C82.7921 543.283 95.0091 542.861 102.805 550.133" fill="#3B5AA9"/>
<path d="M92.4249 574.494L89.598 577.526L80.5049 569.042L83.333 566.011L92.4249 574.494" fill="#2B4991"/>
<path d="M85.6898 564.576C85.6898 564.576 84.6634 561.002 84.601 559.199C84.5466 557.629 82.8241 555.715 82.3823 555.25V555.034C83.206 554.151 84.5916 554.103 85.4748 554.927L89.081 558.291L92.0354 555.127C93.0073 554.085 94.6391 554.029 95.6804 555L101.778 560.69C102.819 561.663 102.877 563.293 101.905 564.335L94.2378 572.552C93.8372 572.981 93.1647 573.003 92.7361 572.603L85.7417 566.077C85.3122 565.677 85.2892 565.005 85.6898 564.576" fill="#2B4991"/>
<path d="M91.0772 574.029L88.2499 577.059L79.1572 568.576L81.9847 565.544L91.0772 574.029Z" fill="white"/>
<path d="M84.3423 564.11C84.3423 564.11 83.3155 560.534 83.2529 558.733C83.1991 557.162 81.4766 555.25 81.0342 554.784V554.568C81.8585 553.683 83.2435 553.635 84.1273 554.461L87.7335 557.826L90.6873 554.661C91.6591 553.618 93.2916 553.562 94.3329 554.533L100.43 560.224C101.472 561.195 101.529 562.827 100.557 563.869L92.8903 572.085C92.4899 572.515 91.8172 572.538 91.3886 572.138L84.3935 565.611C83.9647 565.211 83.9417 564.538 84.3423 564.11" fill="white"/>
<path d="M720.759 458.669C717.229 467.059 707.57 470.997 699.181 467.469C690.792 463.941 686.853 454.28 690.381 445.891C693.909 437.504 703.57 433.563 711.959 437.091C720.346 440.621 724.287 450.28 720.759 458.669" fill="#3B5AA9"/>
<path d="M698.187 457.534L694.926 456.163L699.041 446.381L702.302 447.752L698.187 457.534Z" fill="#2B4991"/>
<path d="M704.145 449.216C704.145 449.216 706.705 447.341 708.133 446.76C709.374 446.254 710.398 444.31 710.641 443.819L710.813 443.755C711.765 444.155 712.211 445.251 711.811 446.2L710.179 450.081L713.585 451.515C714.705 451.985 715.232 453.275 714.76 454.397L712.001 460.958C711.529 462.078 710.238 462.605 709.118 462.133L700.277 458.414C699.814 458.221 699.6 457.688 699.793 457.227L702.958 449.702C703.152 449.24 703.683 449.022 704.145 449.216" fill="#2B4991"/>
<path d="M698.163 456.318L694.902 454.947L699.016 445.165L702.277 446.534L698.163 456.318Z" fill="white"/>
<path d="M704.123 448C704.123 448 706.681 446.125 708.107 445.542C709.349 445.037 710.374 443.094 710.617 442.601L710.79 442.537C711.742 442.937 712.187 444.033 711.787 444.984L710.155 448.864L713.561 450.298C714.681 450.77 715.208 452.061 714.737 453.181L711.977 459.741C711.505 460.862 710.214 461.389 709.094 460.917L700.254 457.197C699.792 457.003 699.574 456.472 699.769 456.01L702.934 448.485C703.129 448.022 703.661 447.805 704.123 448" fill="white"/>
<path d="M78.1422 95.2015C74.8216 105.998 63.3777 112.061 52.5803 108.741C41.7828 105.421 35.7209 93.976 39.0403 83.1792C42.3609 72.3808 53.8052 66.32 64.6028 69.6384C75.3997 72.96 81.4622 84.4031 78.1422 95.2015" fill="#F0383F"/>
<path d="M50.1236 96.5938L45.9268 95.3025L49.798 82.7106L53.9956 84.0018L50.1236 96.5938Z" fill="#E9262D"/>
<path d="M56.4547 85.5821C56.4547 85.5821 59.3839 82.9485 61.0734 82.0541C62.5446 81.2749 63.5697 78.7485 63.8084 78.1101L64.0147 78.0109C65.2377 78.3869 65.9246 79.6845 65.5491 80.9069L64.0134 85.9021L68.3964 87.2509C69.839 87.6941 70.6491 89.2221 70.2052 90.6653L67.6091 99.1117C67.1652 100.553 65.6364 101.363 64.1947 100.92L52.814 97.4205C52.2203 97.2381 51.8859 96.6078 52.0684 96.0142L55.0478 86.3261C55.2302 85.7325 55.8603 85.3997 56.4547 85.5821" fill="#E9262D"/>
<path d="M49.9435 95.0947L45.7461 93.8035L49.6179 81.2115L53.8155 82.5011L49.9435 95.0947" fill="white"/>
<path d="M56.274 84.0815C56.274 84.0815 59.2046 81.4495 60.8928 80.5535C62.3646 79.7743 63.3897 77.2479 63.6291 76.6111L63.834 76.5103C65.0577 76.8879 65.7452 78.1839 65.3684 79.4079L63.8328 84.4031L68.2171 85.7519C69.659 86.1951 70.4697 87.7231 70.0252 89.1663L67.4291 97.6112C66.9846 99.0544 65.456 99.8639 64.014 99.4207L52.634 95.9199C52.0396 95.7375 51.7059 95.1087 51.8891 94.5135L54.8672 84.8271C55.0497 84.2319 55.6803 83.8991 56.274 84.0815Z" fill="white"/>
<path d="M671.52 635.643C677.208 645.403 673.904 657.928 664.142 663.612C654.382 669.299 641.861 665.995 636.173 656.235C630.486 646.475 633.79 633.952 643.55 628.265C653.312 622.579 665.833 625.881 671.52 635.643Z" fill="#F0383F"/>
<path d="M653.547 657.184L649.753 659.395L643.123 648.011L646.917 645.8L653.547 657.184Z" fill="#E9262D"/>
<path d="M649.745 645.064C649.745 645.064 649.796 641.126 650.283 639.277C650.708 637.667 649.545 635.2 649.24 634.594L649.305 634.375C650.411 633.73 651.83 634.104 652.475 635.21L655.105 639.726L659.07 637.418C660.372 636.658 662.046 637.099 662.806 638.402L667.254 646.037C668.012 647.341 667.571 649.013 666.268 649.775L655.98 655.766C655.443 656.08 654.753 655.898 654.441 655.36L649.34 646.603C649.027 646.066 649.208 645.378 649.745 645.064" fill="#E9262D"/>
<path d="M652.325 656.3L648.529 658.511L641.897 647.126L645.691 644.917L652.325 656.3" fill="white"/>
<path d="M648.522 644.181C648.522 644.181 648.573 640.241 649.059 638.394C649.483 636.784 648.322 634.317 648.014 633.709L648.08 633.489C649.187 632.846 650.608 633.219 651.251 634.326L653.882 638.841L657.845 636.531C659.149 635.772 660.821 636.214 661.581 637.518L666.029 645.152C666.789 646.457 666.347 648.129 665.043 648.888L654.755 654.881C654.218 655.195 653.53 655.012 653.216 654.475L648.115 645.72C647.803 645.182 647.984 644.492 648.522 644.181" fill="white"/>
<path d="M235.347 212.262C239.821 229.566 222.104 249.11 195.777 255.915C169.451 262.72 144.485 254.208 140.011 236.902C135.541 219.598 153.256 200.056 179.582 193.251C205.909 186.446 230.875 194.958 235.347 212.262Z" fill="#FABD30"/>
<path d="M164.128 250.389L156.707 290.12L186.093 251.143L164.128 250.389Z" fill="#FABD30"/>
<path d="M175.432 228.608C176.581 233.057 173.907 237.595 169.459 238.744C165.011 239.894 160.473 237.221 159.323 232.771C158.174 228.325 160.848 223.785 165.296 222.637C169.744 221.486 174.281 224.161 175.432 228.608Z" fill="#E8A324"/>
<path d="M197.886 222.805C199.037 227.253 196.363 231.792 191.914 232.941C187.466 234.091 182.928 231.416 181.778 226.968C180.629 222.52 183.302 217.982 187.75 216.832C192.2 215.683 196.738 218.357 197.886 222.805Z" fill="#E8A324"/>
<path d="M220.342 217.001C221.491 221.449 218.817 225.987 214.369 227.136C209.921 228.286 205.382 225.613 204.233 221.165C203.083 216.717 205.758 212.179 210.206 211.029C214.654 209.878 219.192 212.553 220.342 217.001Z" fill="#E8A324"/>
<path d="M174.417 228.011C175.566 232.459 172.892 236.997 168.444 238.147C163.996 239.296 159.459 236.622 158.308 232.174C157.16 227.726 159.833 223.189 164.281 222.038C168.729 220.89 173.267 223.563 174.417 228.011Z" fill="#FDEBBD"/>
<path d="M196.872 222.206C198.022 226.656 195.347 231.194 190.899 232.342C186.451 233.493 181.913 230.819 180.765 226.37C179.614 221.923 182.288 217.384 186.736 216.235C191.184 215.085 195.723 217.76 196.872 222.206Z" fill="#FDEBBD"/>
<path d="M219.328 216.403C220.477 220.851 217.803 225.39 213.355 226.539C208.907 227.69 204.369 225.014 203.219 220.566C202.07 216.118 204.742 211.581 209.192 210.43C213.64 209.282 218.177 211.955 219.328 216.403Z" fill="#FDEBBD"/>
<path d="M729.528 575.142C719.355 584.852 699.136 580.179 684.363 564.704C669.592 549.229 665.862 528.811 676.033 519.102C686.205 509.394 706.426 514.066 721.198 529.541C735.97 545.016 739.699 565.432 729.528 575.142" fill="#FABD30"/>
<path d="M676.018 540.842L645.878 550.984L683.926 556.219L676.018 540.842Z" fill="#FABD30"/>
<path d="M695.317 540.253C692.702 542.749 688.558 542.653 686.064 540.039C683.566 537.423 683.664 533.28 686.277 530.784C688.893 528.288 693.035 528.386 695.533 530.999C698.027 533.613 697.931 537.757 695.317 540.253Z" fill="#E8A324"/>
<path d="M707.917 553.453C705.302 555.947 701.158 555.853 698.664 553.237C696.166 550.623 696.264 546.479 698.877 543.984C701.493 541.488 705.635 541.584 708.133 544.199C710.627 546.813 710.531 550.955 707.917 553.453Z" fill="#E8A324"/>
<path d="M720.517 566.651C717.902 569.147 713.758 569.051 711.264 566.437C708.766 563.821 708.864 559.678 711.477 557.182C714.093 554.686 718.235 554.784 720.733 557.397C723.227 560.011 723.131 564.155 720.517 566.651Z" fill="#E8A324"/>
<path d="M695.339 539.326C692.723 541.822 688.58 541.726 686.084 539.112C683.588 536.496 683.684 532.353 686.299 529.859C688.915 527.361 693.057 527.459 695.552 530.072C698.049 532.688 697.952 536.83 695.339 539.326Z" fill="#FDEBBD"/>
<path d="M707.939 552.526C705.323 555.021 701.18 554.926 698.684 552.31C696.188 549.696 696.285 545.553 698.899 543.057C701.515 540.561 705.657 540.657 708.152 543.272C710.649 545.886 710.552 550.03 707.939 552.526Z" fill="#FDEBBD"/>
<path d="M720.539 565.727C717.923 568.221 713.781 568.125 711.283 565.511C708.789 562.896 708.885 558.752 711.499 556.258C714.114 553.76 718.258 553.858 720.752 556.471C723.25 559.087 723.152 563.229 720.539 565.727Z" fill="#FDEBBD"/>
<path d="M441.315 11.4095C447.07 21.5935 443.477 34.5135 433.293 40.2671C423.109 46.0223 410.189 42.4286 404.433 32.2446C398.68 22.0606 402.274 9.14069 412.458 3.38549C422.642 -2.36812 435.562 1.22547 441.315 11.4095" fill="#F0383F"/>
<path d="M433.147 13.7712C430.37 9.37917 425.018 9.09919 422.389 12.1904C420.627 14.2576 420.578 16.2128 420.586 16.5856C420.267 16.392 418.554 15.4448 415.878 15.9152C411.883 16.6192 409.416 21.3744 411.797 25.9936C414.016 30.3024 421.133 31.8064 428.299 32.568C429.21 32.6656 430.082 32.1664 430.461 31.3312C433.43 24.7664 435.739 17.8672 433.147 13.7712" fill="#E7262C"/>
<path d="M432.214 13.3535C429.435 8.96153 424.085 8.68151 421.456 11.7711C419.694 13.8383 419.645 15.7951 419.651 16.1679C419.334 15.9727 417.621 15.0255 414.946 15.4975C410.95 16.2015 408.482 20.9568 410.864 25.576C413.082 29.8848 420.2 31.3887 427.366 32.1503C428.277 32.2463 429.149 31.7487 429.528 30.9135C432.498 24.3471 434.805 17.4495 432.214 13.3535Z" fill="white"/>
<path d="M171.414 333.282C168.227 341.403 159.059 345.405 150.937 342.218C142.814 339.03 138.814 329.862 142.001 321.741C145.187 313.619 154.355 309.618 162.477 312.805C170.6 315.992 174.601 325.16 171.414 333.282Z" fill="#F0383F"/>
<path d="M166.203 329.665C167.438 325.992 165.081 322.763 162.056 322.694C160.032 322.648 158.875 323.539 158.662 323.72C158.625 323.443 158.368 322.006 156.838 320.682C154.55 318.699 150.636 319.509 149.083 323.061C147.635 326.371 150.112 331.198 153.043 335.704C153.416 336.278 154.115 336.547 154.776 336.373C159.974 335.003 165.051 333.093 166.203 329.665" fill="#E7262C"/>
<path d="M166.006 328.93C167.241 325.255 164.884 322.027 161.859 321.959C159.835 321.912 158.678 322.803 158.465 322.984C158.428 322.707 158.171 321.271 156.64 319.944C154.352 317.963 150.438 318.773 148.884 322.325C147.436 325.635 149.915 330.463 152.846 334.968C153.219 335.541 153.918 335.811 154.579 335.637C159.776 334.266 164.854 332.355 166.006 328.93" fill="white"/>
<path d="M521.153 603.718C523.07 611.144 518.603 618.72 511.176 620.635C503.749 622.552 496.174 618.085 494.259 610.659C492.342 603.232 496.808 595.657 504.235 593.741C511.664 591.824 519.237 596.291 521.153 603.718" fill="#F0383F"/>
<path d="M515.579 603.829C514.565 600.576 511.222 599.49 509.032 601C507.566 602.011 507.203 603.243 507.144 603.48C506.976 603.303 506.053 602.411 504.278 602.258C501.627 602.024 499.259 604.618 499.982 607.947C500.658 611.053 504.91 613.213 509.32 614.912C509.88 615.128 510.517 614.958 510.898 614.494C513.894 610.84 516.525 606.863 515.579 603.829" fill="#E7262C"/>
<path d="M515.059 603.405C514.045 600.152 510.702 599.067 508.514 600.577C507.046 601.589 506.683 602.819 506.624 603.057C506.456 602.878 505.533 601.989 503.758 601.834C501.107 601.602 498.739 604.195 499.462 607.526C500.138 610.63 504.39 612.79 508.8 614.488C509.36 614.704 509.997 614.536 510.378 614.07C513.374 610.416 516.006 606.438 515.059 603.405" fill="white"/>
<path d="M508.782 178.528C506.829 185.944 499.232 190.373 491.814 188.419C484.398 186.464 479.969 178.867 481.925 171.45C483.877 164.032 491.475 159.605 498.891 161.56C506.309 163.514 510.737 171.111 508.782 178.528" fill="#F0383F"/>
<path d="M503.866 175.901C504.568 172.568 502.181 169.989 499.533 170.237C497.76 170.403 496.842 171.299 496.675 171.478C496.613 171.242 496.242 170.013 494.77 169.011C492.571 167.515 489.235 168.621 488.242 171.88C487.315 174.92 489.971 178.88 492.99 182.517C493.373 182.979 494.011 183.142 494.571 182.923C498.97 181.197 503.208 179.011 503.866 175.901Z" fill="#E7262C"/>
<path d="M503.616 175.279C504.32 171.944 501.934 169.365 499.285 169.615C497.512 169.781 496.595 170.677 496.425 170.856C496.366 170.618 495.995 169.391 494.523 168.389C492.323 166.891 488.989 167.997 487.995 171.258C487.069 174.296 489.725 178.258 492.742 181.893C493.126 182.355 493.763 182.52 494.323 182.299C498.723 180.575 502.961 178.387 503.616 175.279" fill="white"/>
<path d="M241.7 120.499L163.668 142.405C155.729 144.633 147.411 139.961 145.184 132.024L123.278 53.9919C121.049 46.0543 125.721 37.7359 133.659 35.5071L211.691 13.6031C219.63 11.3727 227.947 16.0447 230.176 23.9839L252.081 102.016C254.31 109.953 249.638 118.272 241.7 120.499" fill="#55B1E6"/>
<path d="M150.432 88.0577C150.432 88.0577 162.972 95.1009 172.396 84.5329C181.822 73.9649 177.422 61.112 187.024 51.1744C199.145 38.6304 219.878 52.5585 211.249 77.4865C200.27 109.211 171.291 113.08 150.432 88.0577" fill="white"/>
<path d="M207.107 58.7407L219.657 55.2175C221.121 54.8063 222.201 56.0895 221.294 57.1631L211.64 68.5903L207.107 58.7407" fill="white"/>
<path d="M188.217 66.2785C188.217 66.2785 170.526 70.4512 158.046 67.6096C156.03 67.1504 154.365 69.2032 155.24 71.0768C157.731 76.4144 163.24 84.3921 174.369 86.4177C191.496 89.5313 188.217 66.2785 188.217 66.2785Z" fill="white"/>
<path d="M649.211 421.374L580.733 447.848C573.765 450.541 565.862 447.045 563.17 440.078L536.694 371.598C534.003 364.632 537.498 356.729 544.466 354.035L612.944 327.561C619.91 324.869 627.813 328.365 630.507 335.331L656.981 403.811C659.675 410.777 656.178 418.68 649.211 421.374" fill="#2A4FA5"/>
<path d="M629.995 428.802L618.974 433.062L595.672 372.784C592.312 364.094 596.648 354.295 605.338 350.935L615.835 346.877L620.094 357.898L609.597 361.955C606.986 362.965 605.682 365.912 606.691 368.523L629.995 428.802" fill="white"/>
<path d="M629.893 384.866L590.589 400.062L586.328 389.042L625.634 373.847L629.893 384.866Z" fill="white"/>
<path d="M603.494 134.139L526.968 121.578C519.184 120.299 513.859 112.883 515.137 105.099L527.7 28.5731C528.979 20.7875 536.393 15.4643 544.179 16.7427L620.704 29.3043C628.489 30.5827 633.813 37.9971 632.536 45.7827L619.973 122.309C618.694 130.095 611.278 135.418 603.494 134.139" fill="url(#paint4_linear)"/>
<path d="M559.149 47.6734C555.189 47.0222 551.438 49.715 550.789 53.675L544.643 91.1022C543.993 95.0622 546.686 98.8142 550.646 99.4638L588.075 105.608C592.033 106.259 595.785 103.565 596.435 99.6046L602.579 62.1774C603.229 58.2174 600.537 54.467 596.576 53.8174L559.149 47.6734ZM586.697 113.989L549.272 107.845C540.689 106.435 534.854 98.3086 536.264 89.7262L542.408 52.299C543.816 43.7182 551.942 37.883 560.525 39.2926L597.952 45.4366C606.533 46.8446 612.368 54.9726 610.96 63.5534L604.814 100.981C603.408 109.563 595.278 115.397 586.697 113.989" fill="white"/>
<path d="M574.996 68.2047C570.344 67.4399 565.939 70.6032 565.174 75.256C564.409 79.9072 567.574 84.3135 572.225 85.0767C576.876 85.8399 581.283 82.6768 582.048 78.0256C582.809 73.3744 579.648 68.9679 574.996 68.2047ZM570.851 93.4576C561.577 91.9344 555.272 83.1535 556.795 73.8799C558.316 64.6063 567.099 58.3007 576.371 59.8239C585.644 61.3455 591.948 70.1279 590.427 79.4015C588.905 88.6735 580.123 94.9792 570.851 93.4576" fill="white"/>
<path d="M596.786 62.5154C596.438 64.637 594.435 66.0738 592.315 65.7266C590.194 65.3778 588.755 63.3761 589.104 61.2546C589.453 59.133 591.454 57.6946 593.576 58.0434C595.696 58.3922 597.134 60.3938 596.786 62.5154" fill="white"/>
<path d="M134.56 470.855L72.7979 519.808C66.5142 524.789 57.2991 523.723 52.3185 517.439L3.36472 455.675C-1.61592 449.394 -0.549037 440.178 5.73352 435.197L67.4966 386.243C73.7798 381.263 82.9955 382.33 87.9748 388.611L136.929 450.376C141.909 456.659 140.843 465.874 134.56 470.855" fill="#F0383F"/>
<path d="M37.8485 437.745L86.8022 432.043C91.1059 431.541 95.8491 437.526 94.3784 441.6L77.6478 487.96C76.4554 491.262 71.8722 490.805 68.9272 487.089L36.704 446.435C33.7584 442.72 34.3603 438.153 37.8485 437.745" fill="white"/>
<path d="M413.993 113.013C417.707 130.872 406.24 148.36 388.382 152.074C370.524 155.787 353.036 144.322 349.323 126.462C345.608 108.603 357.075 91.1168 374.934 87.4032C392.792 83.688 410.278 95.1552 413.993 113.013Z" fill="#FABD30"/>
<path d="M377.502 111.07C376.419 106.91 372.274 105.342 369.421 107.115C367.514 108.301 366.981 109.83 366.891 110.126C366.69 109.893 365.579 108.715 363.352 108.413C360.026 107.962 356.883 111.09 357.597 115.33C358.261 119.283 363.491 122.261 368.949 124.666C369.643 124.971 370.456 124.798 370.963 124.235C374.958 119.808 378.514 114.952 377.502 111.07Z" fill="#F0383F"/>
<path d="M401.846 106.009C400.761 101.848 396.614 100.28 393.764 102.053C391.856 103.238 391.324 104.768 391.235 105.064C391.033 104.829 389.923 103.653 387.696 103.35C384.369 102.899 381.225 106.027 381.94 110.267C382.604 114.221 387.835 117.198 393.291 119.603C393.985 119.909 394.8 119.736 395.307 119.173C399.302 114.745 402.857 109.889 401.846 106.009Z" fill="#F0383F"/>
<path d="M367.646 131.787C369.576 140.389 378.057 145.883 386.72 144.082C395.384 142.28 400.971 133.861 399.312 125.202L367.646 131.787Z" fill="#6E521E"/>
<path d="M59.9522 224.795C51.8722 236.847 35.5528 240.064 23.5023 231.986C11.4509 223.906 8.23091 207.586 16.3116 195.535C24.3916 183.483 40.7109 180.264 52.7623 188.344C64.8135 196.424 68.0328 212.743 59.9522 224.795Z" fill="#FABD30"/>
<path d="M36.2999 206.486C35.9992 206.285 35.9192 205.878 36.1212 205.578C38.2549 202.395 37.4018 198.07 34.2192 195.938C31.0367 193.803 26.7117 194.656 24.5773 197.838C24.3767 198.139 23.9704 198.219 23.6704 198.018C23.37 197.818 23.29 197.411 23.4917 197.11C26.0268 193.33 31.1655 192.315 34.948 194.851C38.73 197.386 39.7431 202.525 37.208 206.307C37.0061 206.606 36.5999 206.688 36.2999 206.486" fill="#483217"/>
<path d="M54.3019 218.557C54.0019 218.355 53.9219 217.949 54.1231 217.648C56.2574 214.466 55.4031 210.141 52.2212 208.007C49.038 205.874 44.7137 206.727 42.5799 209.909C42.378 210.208 41.9718 210.29 41.6718 210.088C41.3718 209.887 41.2924 209.48 41.4931 209.181C44.0281 205.399 49.1681 204.384 52.95 206.92C56.7311 209.456 57.7455 214.595 55.2094 218.376C55.0087 218.677 54.6025 218.757 54.3019 218.557" fill="#483217"/>
<path d="M28.4617 210.934C28.7624 211.136 28.8424 211.542 28.6404 211.841C26.5073 215.025 27.3604 219.35 30.543 221.483C33.7254 223.617 38.051 222.763 40.1841 219.582C40.3848 219.281 40.7916 219.2 41.0923 219.401C41.3923 219.603 41.4716 220.009 41.271 220.31C38.7355 224.092 33.5961 225.105 29.8142 222.569C26.0316 220.035 25.0185 214.896 27.5548 211.113C27.7555 210.814 28.1617 210.733 28.4617 210.934" fill="#483217"/>
<path d="M716.567 293.959C722.519 310.047 714.303 327.912 698.215 333.864C682.128 339.818 664.263 331.602 658.309 315.515C652.355 299.427 660.573 281.562 676.659 275.608C692.746 269.656 710.613 277.872 716.567 293.959Z" fill="#FABD30"/>
<path d="M676.093 317.901C679.091 325.63 687.747 329.553 695.55 326.665C703.355 323.777 707.373 315.166 704.618 307.347L676.093 317.901" fill="#6E521E"/>
<path d="M682.645 303.945C682.243 304.094 681.8 303.888 681.651 303.488C680.078 299.24 675.342 297.062 671.094 298.633C666.846 300.206 664.67 304.941 666.242 309.19C666.39 309.59 666.186 310.035 665.784 310.184C665.384 310.331 664.939 310.126 664.79 309.726C662.923 304.678 665.51 299.051 670.558 297.184C675.608 295.315 681.234 297.902 683.101 302.952C683.25 303.352 683.045 303.797 682.645 303.945" fill="#483217"/>
<path d="M706.675 295.053C706.275 295.202 705.829 294.997 705.68 294.595C704.109 290.347 699.374 288.171 695.126 289.742C690.877 291.315 688.699 296.05 690.272 300.298C690.419 300.698 690.216 301.144 689.814 301.291C689.414 301.44 688.969 301.235 688.821 300.834C686.953 295.787 689.541 290.16 694.59 288.291C699.637 286.424 705.264 289.011 707.133 294.059C707.28 294.461 707.075 294.906 706.675 295.053" fill="#483217"/>
<path d="M666.536 313.33C666.536 313.33 652.016 328.174 659.278 331.134C667.105 334.325 666.536 313.33 666.536 313.33Z" fill="#55B1E6"/>
<path d="M661.088 308.738C661.088 308.738 636.554 300.183 637.062 309.984C637.608 320.546 661.088 308.738 661.088 308.738Z" fill="#55B1E6"/>
<path d="M659.955 299.608C659.955 299.608 648.525 282.272 644.093 288.744C639.317 295.717 659.955 299.608 659.955 299.608Z" fill="#55B1E6"/>
<path d="M709.554 297.411C709.554 297.411 730.238 299.231 726.651 306.207C722.786 313.722 709.554 297.411 709.554 297.411Z" fill="#55B1E6"/>
<path d="M710.699 290.381C710.699 290.381 723.757 267.917 729.75 275.688C736.21 284.062 710.699 290.381 710.699 290.381Z" fill="#55B1E6"/>
<path d="M705.617 282.712C705.617 282.712 703.011 262.112 710.589 264.139C718.752 266.325 705.617 282.712 705.617 282.712Z" fill="#55B1E6"/>
<path d="M456.59 637.731C449.824 650.573 433.931 655.499 421.088 648.733C408.248 641.968 403.321 626.074 410.086 613.234C416.851 600.392 432.745 595.466 445.587 602.231C458.428 608.995 463.353 624.89 456.59 637.731" fill="#FABD30"/>
<path d="M423.8 627.269C424.12 627.438 424.241 627.834 424.075 628.154C422.286 631.544 423.593 635.757 426.984 637.543C430.374 639.329 434.587 638.024 436.374 634.634C436.542 634.314 436.939 634.192 437.257 634.358C437.577 634.528 437.699 634.925 437.533 635.243C435.408 639.272 430.405 640.824 426.373 638.703C422.342 636.579 420.793 631.572 422.917 627.543C423.083 627.224 423.478 627.101 423.8 627.269" fill="#483217"/>
<path d="M429.726 614.629C428.664 616.648 426.166 617.421 424.147 616.358C422.131 615.294 421.356 612.797 422.419 610.781C423.481 608.762 425.98 607.989 427.998 609.051C430.014 610.115 430.79 612.611 429.726 614.629Z" fill="#483217"/>
<path d="M451.157 625.92C450.094 627.937 447.598 628.712 445.581 627.649C443.562 626.585 442.789 624.088 443.851 622.07C444.914 620.052 447.411 619.278 449.429 620.34C451.446 621.405 452.221 623.902 451.157 625.92" fill="#483217"/>
<path d="M244.2 725.691L244.508 725.92C244.468 725.875 244.379 725.774 244.235 725.609L244.2 725.691Z" fill="#E7F5FC"/>
<path d="M546.499 327.313C542.112 304.517 508.915 308.752 490.427 312.379C489.521 312.554 488.675 312.728 487.893 312.889V365.966C489.472 365.482 491.049 364.986 492.614 364.451C500.131 361.965 507.475 359.021 514.494 355.73C527.117 349.814 549.838 344.665 546.499 327.313" fill="#E7F5FC"/>
<path d="M487.84 518.224L487.968 518.112C493.406 514.24 500.672 515.664 505.92 519.312C520.56 529.488 519.104 561.936 498.16 563.088C494.56 563.28 490.928 562.256 487.856 559.616L487.84 559.6V570.624C487.84 581.424 479.104 590.16 468.304 590.16H397.12C393.824 593.44 390.288 596.928 386.528 600.56C359.408 626.912 322.304 660.736 303.632 667.84C272.144 679.84 250.656 716.816 250.656 716.816L233.536 738H18.1274C26.5118 729.152 178.432 568.848 185.536 554.192C191.888 541.072 193.04 524.912 195.312 510.72C199.84 482.56 208.224 456.528 217.488 429.6C227.36 400.896 239.312 372.496 245.152 342.48C246.624 334.944 249.6 328.528 251.152 320.992C252.096 316.448 253.68 312.736 253.776 308.416C253.808 307.568 253.76 306.672 253.648 305.76C253.52 304.704 253.392 303.68 253.28 302.688C253.232 302.288 253.184 301.888 253.136 301.504C253.04 300.688 252.944 299.888 252.864 299.104L252.832 298.944C252.64 297.168 252.448 295.488 252.272 293.856C252.24 293.584 252.208 293.296 252.176 293.024L252.144 292.64C252.048 291.84 251.968 291.04 251.888 290.256C251.84 289.744 251.792 289.248 251.744 288.752C251.712 288.384 251.664 288.016 251.632 287.648C251.584 287.088 251.536 286.544 251.488 286L251.44 285.552C250.928 279.904 250.544 274.608 250.128 268.4C250.096 267.808 250.112 267.264 250.16 266.736C250.176 266.56 250.192 266.4 250.224 266.24C250.24 266.08 250.24 265.92 250.272 265.776C250.304 265.6 250.368 265.424 250.416 265.248C250.464 265.056 250.512 264.848 250.576 264.656C250.704 264.304 250.848 263.984 250.992 263.664L251.152 263.312C251.392 262.896 251.648 262.496 251.936 262.144L252.176 261.872C252.416 261.6 252.656 261.36 252.928 261.12L253.28 260.816C253.536 260.624 253.792 260.432 254.048 260.256L254.48 260C254.752 259.84 255.04 259.696 255.344 259.552L255.744 259.376C256.176 259.2 256.624 259.04 257.088 258.912C257.968 258.688 258.896 258.56 259.808 258.528C261.36 258.496 262.896 258.736 264.256 259.28C270.736 261.856 274.032 266.192 278.192 271.44C278.336 271.584 278.544 271.792 278.832 272.176C278.688 272.016 278.56 271.872 278.416 271.728C278.688 272.064 278.944 272.4 279.232 272.752C282.544 276.88 285.008 281.936 286.848 287.36V211.168C286.848 200.384 295.6 191.648 306.384 191.648H468.304C479.104 191.648 487.84 200.384 487.84 211.168V373.248C527.44 368.384 519.488 406.864 515.44 425.888C512.592 439.232 498.208 442.416 487.84 437.12V444.736C527.44 439.872 526.576 478.784 517.36 495.92C512.048 505.776 499.136 509.184 487.84 508.112V518.224" fill="#E7F5FC"/>
<path d="M410 564.688C410 564.688 396.08 579.264 377.456 597.36C350.336 623.712 313.232 657.536 294.544 664.64C263.072 676.64 241.568 713.616 241.568 713.616L221.872 738H6.19141C37.2477 705.136 170.016 564.288 176.464 550.992C182.8 537.872 183.968 521.712 186.24 507.52C190.752 479.36 199.136 453.326 208.416 426.4C218.288 397.696 230.24 369.296 236.08 339.28C237.552 331.744 240.528 325.328 242.08 317.792C243.008 313.248 244.608 309.536 244.704 305.216C244.736 304.368 244.688 303.472 244.576 302.56C242.624 286.736 241.888 277.888 241.056 265.2C240.688 259.936 244.032 256.784 248.016 255.712C250.4 255.104 253.008 255.216 255.184 256.08C256.928 256.768 258.448 257.6 259.808 258.528C263.92 261.328 266.64 265.152 270.144 269.552C276.56 277.552 279.856 288.944 281.44 299.904C282.944 310.288 282.928 320.288 282.56 326.656C281.808 339.776 277.312 364.528 278.064 379.888C278.816 395.264 290.048 423.744 290.544 440.752C291.056 457.744 286.384 567.84 290.88 579.824C295.376 591.808 298.32 582.304 298.32 582.304L410 564.688" fill="#F9B19C"/>
<path d="M409.998 564.691C409.998 564.691 396.081 579.264 377.459 597.366C347.827 596.511 317.411 604.946 289.008 596.461C283.691 594.881 278.163 592.386 275.467 587.54C273.541 584.072 273.366 579.935 273.241 575.986C271.789 531.307 270.336 486.64 268.881 441.962C268.534 430.941 268.174 419.909 268.509 408.888C269.168 387.395 272.621 366.21 276.31 345.064C278.808 330.714 269.441 313.469 280.249 301.144C280.635 300.709 281.033 300.299 281.441 299.901C282.945 310.288 282.921 320.29 282.561 326.663C281.803 339.784 277.305 364.533 278.064 379.89C278.808 395.259 290.053 423.747 290.549 440.744C291.059 457.741 286.387 567.834 290.885 579.824C295.382 591.813 298.315 582.309 298.315 582.309L409.998 564.691" fill="#F8A796"/>
<path d="M306.185 322.906C306.185 322.906 282.878 327.904 258.702 347.391C258.702 347.391 287.048 330.648 306.185 322.906Z" fill="#F09884"/>
<path d="M180.827 553.773C180.827 553.773 193.563 594.227 232.102 633.808C232.102 633.808 197.726 586.386 180.827 553.773Z" fill="#F09884"/>
<path d="M255.128 346.94C255.296 346.91 254.948 346.971 255.128 346.94Z" fill="#E8B28F"/>
<path d="M268.942 268.096C269.218 268.368 269.483 268.67 269.75 268.973C269.254 268.307 268.942 268.096 268.942 268.096Z" fill="#E8B28F"/>
<path d="M235.432 722.72C235.392 722.675 235.304 722.575 235.158 722.409L235.123 722.491L235.432 722.72Z" fill="#E8B28F"/>
<path d="M253.227 294.968C252.307 297.069 250.915 298.92 249.512 300.733C248.232 302.374 246.877 304.038 245.051 305.045L244.704 305.219C244.728 304.362 244.691 303.48 244.579 302.56C243.982 297.776 243.51 293.627 243.101 289.826C242.169 281.042 241.635 274.046 241.051 265.2C240.989 264.256 241.038 263.386 241.2 262.578C241.907 258.864 244.741 256.59 248.009 255.72C248.195 256.254 248.406 256.765 248.654 257.248C250.456 260.877 251.749 264.739 252.667 268.666C253.736 273.238 254.309 277.923 254.606 282.606C254.867 286.794 254.891 291.13 253.227 294.968" fill="#FCD3C5"/>
<path d="M478.766 207.973V567.424C478.766 578.221 470.021 586.968 459.224 586.968H297.309C286.525 586.968 277.777 578.221 277.777 567.424V207.973C277.777 197.189 286.525 188.442 297.309 188.442H459.224C470.021 188.442 478.766 197.189 478.766 207.973" fill="#40183D"/>
<path d="M452.267 575.422H304.269C294.237 575.422 286.105 567.291 286.105 557.261V218.139C286.105 208.109 294.237 199.978 304.269 199.978H452.267C462.297 199.978 470.429 208.109 470.429 218.139V557.261C470.429 567.291 462.297 575.422 452.267 575.422" fill="white"/>
<path d="M537.422 324.113C540.763 341.465 518.042 346.614 505.418 352.529C498.398 355.821 491.056 358.765 483.539 361.251C481.973 361.785 480.395 362.281 478.816 362.766V309.689C479.6 309.528 480.445 309.353 481.35 309.179C499.838 305.552 533.035 301.317 537.422 324.113Z" fill="#F9B19C"/>
<path d="M483.539 361.251C481.973 361.785 480.395 362.281 478.816 362.766V309.689C479.6 309.528 480.445 309.353 481.35 309.179C481.451 313.342 480.942 317.814 481.016 321.454C481.09 324.933 481.165 328.413 481.6 331.854C482.358 337.755 484.184 343.508 484.595 349.46C484.869 353.409 484.507 357.411 483.539 361.251" fill="#F7A290"/>
<path d="M243.101 289.826C242.17 281.042 241.635 274.046 241.051 265.2C241.034 264.934 241.024 264.675 241.026 264.421C241.026 263.771 241.083 263.158 241.2 262.578C242.728 263.088 244.07 265.87 244.592 267.586C246.368 273.574 246.902 279.935 246.157 286.135C246.083 286.768 245.982 287.414 245.661 287.962C245.325 288.546 244.741 288.955 244.144 289.302C243.808 289.502 243.461 289.675 243.101 289.826" fill="#FDE3DA"/>
<path d="M478.766 437.85C477.438 437.613 476.134 437.278 474.854 436.83C473.301 436.286 471.794 435.531 470.429 434.586V426.07C472.413 429.56 475.374 432.2 478.766 433.933V437.85V437.85ZM470.429 403.979V396.427C471.123 395.888 471.893 395.392 472.742 394.947C474.493 394.029 476.579 393.533 478.763 393.346V394.192C478.763 394.192 473.734 397.742 470.429 403.979Z" fill="#391736"/>
<path d="M470.428 434.585C467.961 432.877 465.966 430.544 465.038 427.712C464.368 425.662 464.28 423.473 464.243 421.313C464.168 418.045 464.193 414.777 464.292 411.51C464.465 405.571 465.811 400.014 470.428 396.427V403.979C467.892 408.766 466.371 415.134 468.918 422.691C469.323 423.894 469.832 425.021 470.428 426.07V434.585" fill="#E7E7E6"/>
<path d="M470.429 508.186V503.187C472.987 504.045 475.822 504.634 478.766 504.915V507.501C475.984 507.763 473.211 508.162 470.429 508.186ZM470.429 470.621V467.083C472.574 466.474 474.726 465.88 476.693 464.91C477.437 464.55 478.107 464.141 478.763 463.757V465.683C478.763 465.683 474.83 467.435 470.429 470.621Z" fill="#391736"/>
<path d="M470.179 508.186C469.891 508.186 469.601 508.182 469.312 508.173C465.237 508.048 460.926 506.794 458.353 503.624C455.694 500.37 455.408 495.822 455.571 491.635C455.67 489.051 455.894 486.466 456.254 483.907C456.987 478.675 458.577 473.022 462.976 470.091C465.219 468.592 467.819 467.824 470.429 467.083V470.621C463.657 475.52 455.777 483.811 459.403 494.336C460.766 498.294 464.973 501.357 470.429 503.187V508.186C470.345 508.186 470.262 508.186 470.179 508.186" fill="#E7E7E6"/>
<path d="M478.766 561.771C475.997 560.491 473.437 558.565 471.238 556.416C470.965 556.149 470.693 555.875 470.429 555.595V515.048C471.962 514.019 473.397 513.565 474.733 513.565C476.187 513.565 477.526 514.102 478.752 515.019C471.648 520.23 471.003 532.213 471.55 540.213C471.965 546.264 474.174 552.437 478.766 556.397V561.771" fill="#391736"/>
<path d="M470.428 555.595C469.638 554.754 468.917 553.845 468.405 552.8C467.598 551.16 467.374 549.298 467.15 547.47C466.616 543.059 466.081 538.65 465.56 534.226C465.15 530.883 464.752 527.504 465.224 524.162C465.696 520.832 467.163 517.502 469.846 515.464C470.041 515.317 470.236 515.178 470.428 515.048V555.595" fill="#E7E7E6"/>
<path d="M489.081 559.886C485.481 560.086 481.859 559.056 478.787 556.414C474.18 552.456 471.964 546.272 471.55 540.213C471 532.158 471.657 520.067 478.897 514.915C484.334 511.046 491.598 512.466 496.846 516.112C511.489 526.283 510.035 558.731 489.081 559.886" fill="#F9B19C"/>
<path d="M489.093 526.715C491.133 529.435 491.928 532.897 492.184 536.288C492.44 539.677 492.208 543.089 492.445 546.48C492.536 547.785 492.79 549.251 493.872 549.985C494.925 550.701 496.334 550.433 497.573 550.139C499.062 549.785 500.688 549.339 501.547 548.073C502.061 547.323 502.214 546.39 502.344 545.488C503.25 539.179 503.469 532.481 500.778 526.702C498.088 520.923 491.757 516.432 485.507 517.692C483.203 518.158 478.883 520.061 482.061 522.361C484.466 524.104 487.101 524.057 489.093 526.715" fill="#FCD3C5"/>
<path d="M498.694 546.03C498.393 546.03 498.104 545.936 497.884 545.72C497.336 545.171 497.529 544.257 497.742 543.512C498.593 540.52 499.136 537.358 498.84 534.242C498.705 532.813 497.064 528.994 499.438 528.301C499.552 528.267 499.659 528.251 499.761 528.251C502.707 528.251 501.142 541.526 500.742 543.488C500.593 544.219 500.403 544.985 499.885 545.521C499.58 545.837 499.125 546.03 498.694 546.03Z" fill="#FDE3DA"/>
<path d="M478.763 441.543V465.683C478.763 465.683 453.42 476.971 459.403 494.336C463.856 507.263 498.636 510.643 508.284 492.719C517.504 475.592 518.361 436.664 478.763 441.543" fill="#F9B19C"/>
<path d="M474.59 478.955C471.411 481.429 473.064 488.883 472.035 492.776C471.088 496.36 474.128 500.043 477.689 501.065C481.254 502.089 485.067 501.141 488.582 499.968C493.166 498.44 497.733 496.457 501.206 493.097C504.678 489.737 506.901 484.765 505.92 480.033C504.766 474.47 496.723 466.36 490.443 468.624C484.249 470.859 479.816 474.888 474.59 478.955" fill="#FCD3C5"/>
<path d="M494.507 494.854C494.067 494.854 493.627 494.794 493.197 494.662C492.952 494.587 492.709 494.486 492.52 494.314C492.049 493.877 492.073 493.101 492.366 492.53C492.661 491.96 493.16 491.531 493.595 491.058C496.4 488.005 496.075 482.629 492.923 479.934C491.24 478.496 488.259 477.381 488.294 474.76C488.325 472.44 490.505 470.973 492.573 470.973C492.643 470.973 492.713 470.974 492.782 470.978C497.744 471.218 502.214 476.626 502.405 481.314C502.465 482.83 502.198 484.339 501.888 485.824C501.411 488.114 500.797 490.456 499.352 492.294C498.187 493.778 496.349 494.854 494.507 494.854" fill="#FDE3DA"/>
<path d="M478.763 370.051V394.192C478.763 394.192 463.053 405.286 468.918 422.691C474.784 440.098 502.309 441.717 506.357 422.691C510.405 403.667 518.362 365.173 478.763 370.051" fill="#F9B19C"/>
<path d="M475.734 405.541C474.416 407.731 474.342 410.494 474.979 412.97C475.616 415.445 476.902 417.696 478.198 419.899C479.853 422.71 481.595 425.554 484.11 427.63C486.624 429.709 490.086 430.917 493.206 429.962C496.326 429.005 498.461 426.163 500.088 423.334C503.013 418.251 505.04 412.651 506.041 406.869C506.405 404.774 506.579 402.422 505.318 400.709C504.601 399.736 503.515 399.112 502.435 398.568C498.584 396.627 494.401 395.342 490.123 394.79C485.563 394.198 485.36 395.654 482.992 398.448C480.848 400.974 477.465 402.662 475.734 405.541" fill="#FCD3C5"/>
<path d="M498.459 417.542C497.912 417.542 497.397 417.317 497.153 416.822C496.937 416.381 496.992 415.859 497.049 415.371C497.232 413.862 497.413 412.354 497.597 410.845C497.801 409.152 497.87 407.12 496.502 406.099C495.995 405.722 495.361 405.554 494.741 405.434C492.806 405.059 490.782 405.035 488.955 404.298C486.035 403.117 483.993 398.925 488.293 398.624C488.443 398.614 488.597 398.608 488.755 398.608C491.326 398.608 494.888 399.938 496.99 400.995C498.988 402.003 500.755 403.695 501.323 405.859C501.686 407.248 501.536 408.714 501.384 410.141C501.251 411.373 501.12 412.602 500.988 413.834C500.872 414.93 500.717 416.109 499.965 416.915C499.589 417.318 499.008 417.542 498.459 417.542" fill="#FDE3DA"/>
<path d="M416.278 408.293V408.285L416.101 408.213C415.517 407.962 414.915 407.73 414.306 407.506C422.437 358.154 416.365 324.277 407.486 302.146C407.173 301.362 406.848 300.623 406.526 299.867L406.474 299.746C397.931 279.719 387.296 269.946 384.101 267.336L384.106 267.355C383.48 266.843 383.133 266.599 383.133 266.599C383.133 266.599 369.082 276.49 358.79 302.146C349.918 324.263 343.853 358.111 351.962 407.41C351.262 407.661 350.579 407.927 349.914 408.213L349.736 408.285V408.293C310.709 425.248 326.819 500.211 326.819 500.211C335.083 473.167 356.469 466.931 364.432 465.528C364.885 465.453 365.539 465.352 366.253 465.283L366.302 465.443C367.835 470.203 369.48 475.072 371.242 480.047C361.91 508.741 365.296 527.282 370.8 538.53C376.013 549.189 383.13 553.298 383.13 553.298C383.13 553.298 390.25 549.189 395.464 538.53C400.965 527.285 404.347 508.751 395.029 480.071C396.792 475.088 398.442 470.211 399.976 465.443L400.016 465.311C400.629 465.378 401.184 465.463 401.582 465.528C409.544 466.93 430.933 473.165 439.197 500.211C439.197 500.211 455.304 425.248 416.278 408.293" fill="#E7F5FC"/>
<path d="M369.211 466.939C369.99 464.957 370.825 462.929 371.721 460.857H383.753C384.648 462.929 385.485 464.957 386.264 466.939C399.643 501.03 396.149 522.357 390.07 534.784C384.854 545.443 377.736 549.552 377.736 549.552C377.736 549.552 370.619 545.443 365.405 534.784C359.325 522.357 355.827 501.03 369.211 466.939" fill="#F79423"/>
<path d="M371.529 477.344C372.096 475.901 372.705 474.424 373.356 472.915H382.118C382.769 474.424 383.377 475.901 383.944 477.344C393.686 502.165 391.142 517.693 386.716 526.741C382.92 534.502 377.736 537.493 377.736 537.493C377.736 537.493 372.555 534.502 368.758 526.741C364.332 517.693 361.784 502.165 371.529 477.344Z" fill="#FAB72D"/>
<path d="M373.22 484.232C373.633 483.181 374.075 482.107 374.55 481.008H380.924C381.398 482.107 381.84 483.181 382.252 484.232C389.34 502.288 387.488 513.586 384.268 520.166C381.507 525.811 377.736 527.989 377.736 527.989C377.736 527.989 373.966 525.811 371.206 520.166C367.985 513.586 366.132 502.288 373.22 484.232" fill="#FBCA6D"/>
<path d="M393.134 401.158V461.385C393.134 461.385 423.557 462.937 433.801 496.465C433.801 496.465 454.291 401.158 393.134 401.158Z" fill="#F0383F"/>
<path d="M396.805 461.895C396.805 461.895 396.784 461.89 396.745 461.883C396.765 461.887 396.785 461.891 396.805 461.895ZM396.477 461.832C396.091 461.763 395.403 461.648 394.625 461.563C394.629 461.554 394.63 461.551 394.633 461.539C395.137 461.607 395.758 461.701 396.477 461.832" fill="#CEDBE6"/>
<path d="M396.805 461.895C396.785 461.891 396.764 461.887 396.745 461.883C396.691 461.872 396.6 461.855 396.477 461.832C395.758 461.701 395.137 461.607 394.633 461.539C401.468 440.282 406.069 421.077 408.921 403.782C409.811 404.12 410.699 404.459 410.885 404.538C410.885 404.538 411.23 437.879 396.805 461.895" fill="#E73135"/>
<path d="M362.093 401.158V461.385C362.093 461.385 331.669 462.937 321.424 496.465C321.424 496.465 300.936 401.158 362.093 401.158Z" fill="#F0383F"/>
<path d="M358.422 461.895C358.434 461.893 358.443 461.89 358.454 461.888C358.434 461.893 358.422 461.895 358.422 461.895ZM358.781 461.827C359.611 461.675 360.309 461.575 360.846 461.507C360.85 461.517 360.853 461.528 360.856 461.538C359.997 461.621 359.216 461.749 358.781 461.827Z" fill="#CEDBE6"/>
<path d="M358.422 461.895C343.995 437.879 344.342 404.538 344.342 404.538C344.545 404.451 345.588 404.055 346.556 403.688C349.406 420.999 354.006 440.221 360.846 461.507C360.308 461.575 359.611 461.675 358.78 461.827C358.62 461.856 358.507 461.877 358.454 461.888C358.443 461.89 358.433 461.893 358.422 461.895" fill="#E73135"/>
<path d="M394.562 461.698C393.026 466.47 391.374 471.352 389.61 476.341H365.861C364.096 471.352 362.445 466.47 360.909 461.698C334.501 379.646 341.398 328.31 353.397 298.4C363.688 272.744 377.739 262.853 377.739 262.853C377.739 262.853 391.782 272.744 402.074 298.4C414.074 328.31 420.978 379.646 394.562 461.698" fill="#F5F6F5"/>
<path d="M402.073 298.4H353.396C363.688 272.744 377.739 262.853 377.739 262.853C377.739 262.853 391.782 272.744 402.073 298.4Z" fill="#F0383F"/>
<path d="M399.155 360.782C399.155 372.611 389.565 382.202 377.736 382.202C365.905 382.202 356.313 372.611 356.313 360.782C356.313 348.95 365.905 339.362 377.736 339.362C389.565 339.362 399.155 348.95 399.155 360.782Z" fill="#F0383F"/>
<path d="M390.992 360.786C390.992 368.104 385.053 374.035 377.734 374.035C377.398 374.035 377.056 374.021 376.726 373.994C375.017 373.87 373.397 373.413 371.931 372.699C371.709 372.592 371.488 372.477 371.272 372.349C368.678 370.906 366.627 368.61 365.477 365.845C364.841 364.286 364.483 362.579 364.483 360.786C364.483 353.461 370.414 347.526 377.734 347.526L378.077 347.534C381.179 347.613 384.016 348.75 386.232 350.614C386.416 350.765 386.603 350.931 386.782 351.109C387.997 352.23 388.998 353.595 389.72 355.118C390.534 356.834 390.992 358.755 390.992 360.786Z" fill="#DBF1FA"/>
<path d="M386.232 350.614L371.273 372.349C368.678 370.905 366.627 368.609 365.477 365.845L378.077 347.534C381.179 347.613 384.016 348.75 386.232 350.614Z" fill="white"/>
<path d="M389.72 355.118L376.726 373.994C375.018 373.87 373.397 373.413 371.931 372.699L386.782 351.109C387.997 352.23 388.998 353.595 389.72 355.118" fill="white"/>
<path d="M394.562 461.698C393.026 466.47 391.374 471.352 389.61 476.341H365.861C364.096 471.352 362.445 466.47 360.909 461.698H394.562" fill="#4A88CF"/>
<path d="M382.486 267.091C380.848 265.429 379.537 264.286 378.71 263.61C378.71 263.605 378.709 263.595 378.707 263.59C379.529 264.262 380.848 265.41 382.496 267.083C382.493 267.087 382.489 267.088 382.486 267.091Z" fill="#E7E7E6"/>
<path d="M389.635 476.323C389.632 476.314 389.629 476.306 389.626 476.296C391.384 471.323 393.03 466.456 394.562 461.698C394.576 461.653 394.59 461.606 394.606 461.562C394.613 461.562 394.619 461.563 394.626 461.563C394.611 461.608 394.597 461.653 394.582 461.698C393.046 466.466 391.398 471.341 389.635 476.323ZM408.926 403.75C408.922 403.749 408.914 403.746 408.909 403.744C417.043 354.387 410.952 320.531 402.074 298.4C395.539 282.109 387.49 272.173 382.486 267.091C382.49 267.088 382.493 267.086 382.496 267.083C387.501 272.162 395.554 282.099 402.093 298.4C410.973 320.531 417.061 354.395 408.926 403.75Z" fill="#CEDBE6"/>
<path d="M389.629 476.341H383.545H389.609C389.616 476.326 389.621 476.31 389.625 476.296C389.629 476.306 389.632 476.314 389.635 476.323C389.633 476.33 389.632 476.334 389.629 476.341Z" fill="#E4841C"/>
<path d="M408.922 403.782C408.915 403.781 408.909 403.777 408.902 403.776C408.904 403.768 408.907 403.752 408.909 403.744C408.914 403.745 408.922 403.749 408.926 403.75C408.925 403.763 408.923 403.771 408.922 403.782Z" fill="#E73135"/>
<path d="M394.625 461.563C394.619 461.563 394.612 461.562 394.606 461.562C394.609 461.552 394.609 461.547 394.612 461.538C394.62 461.538 394.625 461.54 394.633 461.54C394.63 461.551 394.628 461.554 394.625 461.563Z" fill="#B6C2CC"/>
<path d="M394.634 461.539C394.626 461.539 394.621 461.537 394.613 461.537C401.451 440.273 406.051 421.072 408.902 403.776C408.909 403.777 408.915 403.781 408.922 403.782C406.069 421.077 401.469 440.281 394.634 461.539" fill="#D02F30"/>
<path d="M394.561 461.698H374.401C385.709 438.016 389.969 408.007 390.494 377.989C395.749 374.087 399.155 367.831 399.155 360.783C399.155 353.33 395.35 346.768 389.579 342.93C388.534 326.995 386.76 311.813 384.798 298.4H402.073C393.4 276.778 382.062 266.354 378.71 263.61C379.537 264.287 380.848 265.429 382.486 267.091C387.489 272.173 395.539 282.109 402.073 298.4C410.952 320.531 417.043 354.387 408.909 403.744C408.907 403.752 408.904 403.768 408.902 403.776C406.051 421.072 401.451 440.274 394.613 461.538C394.609 461.547 394.609 461.552 394.606 461.562C394.59 461.607 394.576 461.653 394.561 461.698" fill="#DBDAD8"/>
<path d="M402.073 298.4H384.798C382.766 284.504 380.534 272.522 378.71 263.609C382.062 266.353 393.4 276.777 402.073 298.4Z" fill="#E73135"/>
<path d="M390.494 377.989C390.573 373.456 390.566 368.928 390.488 364.416C390.816 363.262 390.992 362.045 390.992 360.786C390.992 359.274 390.737 357.822 390.272 356.47C390.105 351.917 389.87 347.39 389.579 342.93C395.35 346.768 399.155 353.33 399.155 360.782C399.155 367.83 395.749 374.086 390.494 377.989Z" fill="#E73135"/>
<path d="M390.488 364.416C390.44 361.757 390.368 359.11 390.272 356.47C390.738 357.822 390.992 359.274 390.992 360.786C390.992 362.045 390.816 363.262 390.488 364.416Z" fill="#C4D9E2"/>
<path d="M389.609 476.341H365.88C369.086 471.811 371.913 466.907 374.401 461.698H394.561C393.03 466.456 391.384 471.323 389.625 476.296C389.621 476.31 389.616 476.326 389.609 476.341" fill="#3E7CC8"/>
<path d="M458.488 225.701H301.136V212.747H458.488V225.701Z" fill="#E7F5FC"/>
<path d="M458.488 246.99H301.136V234.037H458.488V246.99Z" fill="#E7F5FC"/>
<defs>
<linearGradient id="paint0_linear" x1="69.5445" y1="394.09" x2="153.872" y2="394.09" gradientUnits="userSpaceOnUse">
<stop stop-color="#FAFDFF"/>
<stop offset="1" stop-color="#569BDA"/>
</linearGradient>
<linearGradient id="paint1_linear" x1="37.637" y1="147.082" x2="288.562" y2="147.082" gradientUnits="userSpaceOnUse">
<stop stop-color="#FAFDFF"/>
<stop offset="1" stop-color="#569BDA"/>
</linearGradient>
<linearGradient id="paint2_linear" x1="373.837" y1="160.459" x2="616.717" y2="160.459" gradientUnits="userSpaceOnUse">
<stop stop-color="#FAFDFF"/>
<stop offset="1" stop-color="#569BDA"/>
</linearGradient>
<linearGradient id="paint3_linear" x1="438.433" y1="502.784" x2="696.585" y2="502.784" gradientUnits="userSpaceOnUse">
<stop stop-color="#FAFDFF"/>
<stop offset="1" stop-color="#569BDA"/>
</linearGradient>
<linearGradient id="paint4_linear" x1="565.232" y1="127.859" x2="582.442" y2="23.0243" gradientUnits="userSpaceOnUse">
<stop stop-color="#FCCE75"/>
<stop offset="0.481791" stop-color="#DC2B9E"/>
<stop offset="1" stop-color="#6B55AF"/>
</linearGradient>
</defs>
</svg>
