<svg width="120" height="18" viewBox="0 0 120 18" fill="none" xmlns="http://www.w3.org/2000/svg">
<path d="M9.78516 6H13.9414C13.9258 2.85937 11.5039 0.781249 7.62891 0.781249C3.82422 0.781249 1.13672 2.82812 1.16016 5.875C1.15234 8.375 2.88672 9.76562 5.72266 10.375L7.31641 10.7187C9.09766 11.1094 9.70703 11.5547 9.72266 12.2812C9.70703 13.0703 8.98828 13.625 7.59766 13.625C5.93359 13.625 4.94922 12.8438 4.87891 11.375H0.753906C0.769531 15.3906 3.48828 17.1875 7.66016 17.1875C11.7148 17.1875 14.1445 15.4375 14.1602 12.2812C14.1445 9.84375 12.6914 8.13281 9.16016 7.375L7.84766 7.09375C6.33203 6.77344 5.65234 6.32812 5.69141 5.5625C5.69922 4.85937 6.28516 4.34375 7.62891 4.34375C9.03516 4.34375 9.69922 4.96094 9.78516 6ZM15.8125 1V17H20.0625V7.6875H20.1875L23.75 16.875H26.3125L29.875 7.75H30V17H34.25V1H28.8438L25.125 10.0625H24.9375L21.2188 1H15.8125ZM36.3086 1V17H40.5586V7.6875H40.6836L44.2461 16.875H46.8086L50.3711 7.75H50.4961V17H54.7461V1H49.3398L45.6211 10.0625H45.4336L41.7148 1H36.3086ZM56.8047 17H64.3359C67.8125 17 69.9609 15.1016 69.9609 12.4687C69.9609 10.2109 68.2969 8.73437 66.2422 8.65625V8.5C68.0938 8.13281 69.3359 6.76562 69.3359 5C69.3359 2.5625 67.3984 1 63.7422 1H56.8047V17ZM61.1484 13.5313V10.1562H63.2422C64.5625 10.1562 65.3672 10.7812 65.3672 11.9062C65.3672 12.9766 64.6406 13.5313 63.1797 13.5313H61.1484ZM61.1484 7.46875V4.40625H62.9922C64.0703 4.40625 64.8672 4.95312 64.8672 5.9375C64.8672 6.92187 64.0703 7.46875 62.9297 7.46875H61.1484ZM75.6563 17L76.5781 13.9375H81.8594L82.7813 17H87.4688L82.1875 1H76.25L70.9688 17H75.6563ZM77.5625 10.6875L79.1563 5.40625H79.2813L80.875 10.6875H77.5625ZM102.854 1H98.5098V9.375H98.3848L92.6973 1H89.0098V17H93.3535V8.59375H93.4473L99.2285 17H102.854V1ZM115.299 6.28125H119.689C119.354 3.07031 116.439 0.781249 112.658 0.781249C108.346 0.781249 104.846 3.75 104.846 9.03125C104.846 14.0937 108.018 17.2187 112.689 17.2187C116.877 17.2187 119.877 14.6562 119.877 10.2812V8.0625H112.783V11.1562H115.689C115.65 12.5469 114.666 13.4375 112.721 13.4375C110.471 13.4375 109.314 11.7812 109.314 8.96875C109.314 6.19531 110.564 4.5625 112.752 4.5625C114.111 4.5625 115.033 5.1875 115.299 6.28125Z" fill="black"/>
</svg>
